<svg width="51" height="51" viewBox="0 0 51 51" fill="none" xmlns="http://www.w3.org/2000/svg">
<g id="icon">
<circle id="Ellipse 1401" cx="25.5" cy="25.5" r="25.5" fill="white"/>
<g id="ico">
<path id="Vector" fill-rule="evenodd" clip-rule="evenodd" d="M37.311 16.2485C37.311 14.8321 36.1607 13.6818 34.7443 13.6818H21.9239C20.5076 13.6818 19.3572 14.8321 19.3572 16.2485V29.0755C19.3572 30.4919 20.5076 31.6423 21.9239 31.6423H34.7509C36.1673 31.6423 37.3177 30.4919 37.3177 29.0755V16.2485H37.311ZM35.6021 16.2485V29.0755C35.6021 29.5476 35.2164 29.9333 34.7443 29.9333H21.9239C21.4518 29.9333 21.0661 29.5476 21.0661 29.0755V16.2485C21.0661 15.7764 21.4518 15.3907 21.9239 15.3907H34.7509C35.2231 15.3907 35.6087 15.7764 35.6087 16.2485H35.6021Z" fill="url(#paint0_linear_1_946)"/>
<path id="Vector_2" fill-rule="evenodd" clip-rule="evenodd" d="M20.2155 22.2338L19.3577 21.376C19.3577 20.9039 19.7433 20.5182 20.2155 20.5182H15.9398C15.2615 20.5182 14.6099 20.7908 14.1244 21.2696C13.6457 21.7484 13.373 22.4 13.373 23.0849V27.3606C13.373 28.0389 13.6457 28.6905 14.1244 29.1759C14.6032 29.6547 15.2549 29.9273 15.9398 29.9273H20.2155C20.6876 29.9273 21.0733 29.5417 21.0733 29.0695V21.376L20.2155 22.2338ZM19.3577 22.2338V28.2184H15.9398C15.7137 28.2184 15.4943 28.132 15.3347 27.9657C15.1751 27.8061 15.082 27.5867 15.082 27.3606V23.0849C15.082 22.8588 15.1751 22.6394 15.3347 22.4798C15.4943 22.3202 15.7137 22.2271 15.9398 22.2271H19.3577V22.2338ZM29.618 31.6363L28.7602 30.7785C28.7602 30.3064 29.1458 29.9207 29.618 29.9207H21.9244V31.6296C21.4523 31.6296 21.0666 31.244 21.0666 30.7718V35.0475C21.0666 35.7258 21.3392 36.3774 21.818 36.8628C22.2968 37.3416 22.9484 37.6143 23.6333 37.6143H27.909C28.5873 37.6143 29.2389 37.3416 29.7244 36.8628C30.2031 36.3841 30.4758 35.7324 30.4758 35.0475V30.7718L29.618 31.6296V31.6363ZM22.7755 31.6363H28.7602V35.0542C28.7602 35.2802 28.6737 35.4997 28.5075 35.6593C28.3479 35.8189 28.1285 35.912 27.9024 35.912H23.6267C23.4006 35.912 23.1812 35.8255 23.0216 35.6593C22.862 35.4997 22.7689 35.2802 22.7689 35.0542V31.6363H22.7755Z" fill="url(#paint1_linear_1_946)"/>
<path id="Vector_3" fill-rule="evenodd" clip-rule="evenodd" d="M20.2155 29.9263L21.0733 29.0685V29.0818C21.0733 29.5473 21.4589 29.9263 21.9311 29.9263C22.7888 29.9263 21.9311 31.6352 21.9311 31.6352L22.7888 30.7774V35.0531C22.7888 35.7314 22.5162 36.383 22.0374 36.8684C21.5587 37.3472 20.907 37.6198 20.2221 37.6198H15.9398C15.2615 37.6198 14.6099 37.3472 14.1244 36.8684C13.6457 36.3897 13.373 35.738 13.373 35.0531V30.7774C13.373 30.0992 13.6457 29.4475 14.1244 28.9621C14.6032 28.4833 15.2549 28.2107 15.9398 28.2107H20.2155C19.7433 28.2107 19.3577 28.5964 19.3577 29.0685C19.3577 29.1882 19.3843 29.3012 19.4242 29.401L19.4441 29.4409C19.5838 29.7268 19.8763 29.9263 20.2155 29.9263L19.3577 29.0685C19.3577 28.869 20.2088 29.9196 20.2155 29.9263ZM19.504 29.9263C19.7633 30.6577 20.3418 31.2296 21.0666 31.4889V35.0531C21.0666 35.2792 20.9802 35.4986 20.8139 35.6582C20.6543 35.8178 20.4349 35.9109 20.2088 35.9109H15.9398C15.7137 35.9109 15.4943 35.8245 15.3347 35.6582C15.1751 35.4986 15.082 35.2792 15.082 35.0531V30.7774C15.082 30.5513 15.1751 30.3319 15.3347 30.1723C15.4943 30.0127 15.7137 29.9196 15.9398 29.9196H19.504V29.9263Z" fill="url(#paint2_linear_1_946)"/>
</g>
</g>
<defs>
<linearGradient id="paint0_linear_1_946" x1="19.3572" y1="15.1785" x2="37.2331" y2="16.8911" gradientUnits="userSpaceOnUse">
<stop stop-color="#409BC2"/>
<stop offset="1" stop-color="#ACD8EB"/>
</linearGradient>
<linearGradient id="paint1_linear_1_946" x1="13.373" y1="21.9429" x2="30.3951" y2="23.5743" gradientUnits="userSpaceOnUse">
<stop stop-color="#409BC2"/>
<stop offset="1" stop-color="#ACD8EB"/>
</linearGradient>
<linearGradient id="paint2_linear_1_946" x1="13.373" y1="28.9948" x2="22.7444" y2="29.8933" gradientUnits="userSpaceOnUse">
<stop stop-color="#409BC2"/>
<stop offset="1" stop-color="#ACD8EB"/>
</linearGradient>
</defs>
</svg>
