<svg width="51" height="51" viewBox="0 0 51 51" fill="none" xmlns="http://www.w3.org/2000/svg">
<g id="icon">
<circle id="Ellipse 1401" cx="25.5" cy="25.5" r="25.5" fill="white"/>
<g id="ico">
<path id="Vector" d="M37.3679 34.9629H35.7503V20.9643C35.7503 20.8268 35.6957 20.6949 35.5985 20.5977C35.5012 20.5005 35.3694 20.4458 35.2319 20.4458H32.0951C31.9576 20.4458 31.8258 20.5005 31.7285 20.5977C31.6313 20.6949 31.5767 20.8268 31.5767 20.9643V34.9629H29.3317V23.847C29.3317 23.7095 29.2771 23.5776 29.1798 23.4804C29.0826 23.3831 28.9507 23.3285 28.8132 23.3285H25.7024C25.5649 23.3285 25.4331 23.3831 25.3358 23.4804C25.2386 23.5776 25.184 23.7095 25.184 23.847V34.9629H22.9546V27.7666C22.9546 27.6291 22.8999 27.4972 22.8027 27.4C22.7055 27.3028 22.5736 27.2481 22.4361 27.2481H19.3253C19.1878 27.2481 19.0559 27.3028 18.9587 27.4C18.8615 27.4972 18.8068 27.6291 18.8068 27.7666V34.9629H17.1011V17.5061C17.1011 17.3686 17.0464 17.2368 16.9492 17.1395C16.852 17.0423 16.7201 16.9877 16.5826 16.9877C16.4451 16.9877 16.3132 17.0423 16.216 17.1395C16.1188 17.2368 16.0641 17.3686 16.0641 17.5061V35.4814C16.0641 35.6189 16.1188 35.7508 16.216 35.848C16.3132 35.9452 16.4451 35.9998 16.5826 35.9998H37.3109C37.4484 35.9998 37.5803 35.9452 37.6775 35.848C37.7747 35.7508 37.8294 35.6189 37.8294 35.4814C37.8294 35.3439 37.7747 35.212 37.6775 35.1148C37.5803 35.0175 37.4484 34.9629 37.3109 34.9629H37.3679ZM32.6136 21.4828H34.7134V34.9629H32.6136V21.4828ZM26.2209 24.3655H28.2948V34.9629H26.2209V24.3655ZM19.8178 28.2851H21.8917V34.9629H19.8178V28.2851ZM13.5185 19.4867H14.4517C14.5892 19.4867 14.7211 19.4321 14.8183 19.3348C14.9155 19.2376 14.9702 19.1057 14.9702 18.9682C14.9702 18.8307 14.9155 18.6988 14.8183 18.6016C14.7211 18.5044 14.5892 18.4497 14.4517 18.4497H13.5185C13.381 18.4497 13.2491 18.5044 13.1519 18.6016C13.0546 18.6988 13 18.8307 13 18.9682C13 19.1057 13.0546 19.2376 13.1519 19.3348C13.2491 19.4321 13.381 19.4867 13.5185 19.4867ZM13.5185 22.5923H14.4517C14.5892 22.5923 14.7211 22.5377 14.8183 22.4404C14.9155 22.3432 14.9702 22.2113 14.9702 22.0738C14.9702 21.9363 14.9155 21.8045 14.8183 21.7072C14.7211 21.61 14.5892 21.5554 14.4517 21.5554H13.5185C13.381 21.5554 13.2491 21.61 13.1519 21.7072C13.0546 21.8045 13 21.9363 13 22.0738C13 22.2113 13.0546 22.3432 13.1519 22.4404C13.2491 22.5377 13.381 22.5923 13.5185 22.5923ZM13.5185 25.6927H14.4517C14.5892 25.6927 14.7211 25.6381 14.8183 25.5409C14.9155 25.4436 14.9702 25.3118 14.9702 25.1743C14.9702 25.0368 14.9155 24.9049 14.8183 24.8077C14.7211 24.7104 14.5892 24.6558 14.4517 24.6558H13.5185C13.381 24.6558 13.2491 24.7104 13.1519 24.8077C13.0546 24.9049 13 25.0368 13 25.1743C13 25.3118 13.0546 25.4436 13.1519 25.5409C13.2491 25.6381 13.381 25.6927 13.5185 25.6927ZM13.5185 28.7983H14.4517C14.5892 28.7983 14.7211 28.7437 14.8183 28.6465C14.9155 28.5493 14.9702 28.4174 14.9702 28.2799C14.9702 28.1424 14.9155 28.0105 14.8183 27.9133C14.7211 27.816 14.5892 27.7614 14.4517 27.7614H13.5185C13.381 27.7614 13.2491 27.816 13.1519 27.9133C13.0546 28.0105 13 28.1424 13 28.2799C13 28.4174 13.0546 28.5493 13.1519 28.6465C13.2491 28.7437 13.381 28.7983 13.5185 28.7983ZM13.5185 31.904H14.4517C14.5892 31.904 14.7211 31.8493 14.8183 31.7521C14.9155 31.6549 14.9702 31.523 14.9702 31.3855C14.9702 31.248 14.9155 31.1161 14.8183 31.0189C14.7211 30.9216 14.5892 30.867 14.4517 30.867H13.5185C13.381 30.867 13.2491 30.9216 13.1519 31.0189C13.0546 31.1161 13 31.248 13 31.3855C13 31.523 13.0546 31.6549 13.1519 31.7521C13.2491 31.8493 13.381 31.904 13.5185 31.904ZM13.5185 35.0096H14.4517C14.5892 35.0096 14.7211 34.955 14.8183 34.8577C14.9155 34.7605 14.9702 34.6286 14.9702 34.4911C14.9702 34.3536 14.9155 34.2217 14.8183 34.1245C14.7211 34.0273 14.5892 33.9726 14.4517 33.9726H13.5185C13.381 33.9726 13.2491 34.0273 13.1519 34.1245C13.0546 34.2217 13 34.3536 13 34.4911C13 34.6286 13.0546 34.7605 13.1519 34.8577C13.2491 34.955 13.381 35.0096 13.5185 35.0096Z" fill="url(#paint0_linear_1_1008)"/>
<path id="Vector_2" d="M19.5427 23.1105C19.4755 23.1236 19.4115 23.1497 19.3545 23.1876C19.2975 23.2255 19.2485 23.2742 19.2104 23.3311C19.1724 23.388 19.1459 23.4518 19.1326 23.519C19.1194 23.5861 19.1195 23.6552 19.1331 23.7223C19.1563 23.8422 19.221 23.95 19.3158 24.0268C19.4106 24.1036 19.5295 24.1445 19.6516 24.1423H19.7501C20.0767 24.0749 27.3093 22.5869 32.3592 17.1326L32.3229 17.6148C32.3143 17.7515 32.3603 17.8861 32.4506 17.989C32.541 18.092 32.6684 18.155 32.8051 18.1644H32.8414C32.9736 18.1646 33.101 18.1143 33.1974 18.0237C33.2938 17.9331 33.3519 17.8091 33.3598 17.677L33.4791 15.5565C33.4848 15.4783 33.4727 15.3998 33.4438 15.3269C33.4148 15.254 33.3696 15.1886 33.3117 15.1357C33.2538 15.0828 33.1847 15.0437 33.1095 15.0214C33.0343 14.9991 32.955 14.9941 32.8776 15.0069L30.8038 15.3491C30.7357 15.36 30.6704 15.3842 30.6117 15.4203C30.553 15.4564 30.5019 15.5038 30.4615 15.5596C30.421 15.6155 30.392 15.6787 30.376 15.7458C30.36 15.8129 30.3574 15.8824 30.3683 15.9505C30.3792 16.0186 30.4034 16.0839 30.4395 16.1426C30.4756 16.2013 30.5229 16.2524 30.5788 16.2928C30.6346 16.3333 30.6979 16.3623 30.765 16.3783C30.832 16.3943 30.9016 16.3969 30.9697 16.386L31.7163 16.2668C26.8997 21.6174 19.6205 23.1002 19.5427 23.1105Z" fill="url(#paint1_linear_1_1008)"/>
</g>
</g>
<defs>
<linearGradient id="paint0_linear_1_1008" x1="13" y1="18.572" x2="37.5548" y2="21.6444" gradientUnits="userSpaceOnUse">
<stop stop-color="#6060F2"/>
<stop offset="1" stop-color="#B0ACEB"/>
</linearGradient>
<linearGradient id="paint1_linear_1_1008" x1="19.1228" y1="15.7619" x2="33.2247" y2="17.8837" gradientUnits="userSpaceOnUse">
<stop stop-color="#6060F2"/>
<stop offset="1" stop-color="#B0ACEB"/>
</linearGradient>
</defs>
</svg>
