<svg width="51" height="51" viewBox="0 0 51 51" fill="none" xmlns="http://www.w3.org/2000/svg">
<g id="icon">
<circle id="Ellipse 1401" cx="25.5" cy="25.5" r="25.5" fill="white"/>
<path id="Vector" d="M35.8686 23.7265C36.8209 24.1761 37.7502 24.6182 38.6872 25.0679C39.0681 25.2508 39.2433 26.0739 38.9691 26.394C38.7482 26.6531 38.4739 26.5769 38.1921 26.1577C37.7426 26.3483 37.2856 26.5464 36.8361 26.7446C35.4878 27.3238 34.1318 27.9031 32.7758 28.4747C32.5778 28.5585 32.5092 28.6652 32.4864 28.8862C32.4406 29.4197 32.4864 29.9456 32.4864 30.4791C32.4864 31.7977 32.4711 33.1086 32.4559 34.4271C32.4559 34.5719 32.4559 34.7091 32.4559 34.831C32.494 34.8615 32.5092 34.892 32.5244 34.892C32.7834 34.9073 33.0044 34.9835 33.0425 35.2731C33.0805 35.5627 32.852 35.6542 32.6387 35.7761C32.2578 35.9819 31.915 35.9667 31.5113 35.7837C29.584 34.9377 27.6491 34.1222 25.7141 33.2915C25.5161 33.2077 25.3637 33.2381 25.1961 33.3144C25.0057 33.4058 24.8 33.4439 24.6248 33.2762C24.4191 33.0781 24.4801 32.7275 24.7619 32.6208C25.0209 32.5217 25.0742 32.3617 25.0742 32.1025C25.0666 30.22 25.0742 28.3451 25.0742 26.4626C25.0742 26.3788 25.0666 26.3025 25.059 26.2263C24.9219 26.1577 24.8305 26.2416 24.7314 26.2797C23.1089 26.9732 21.4787 27.6592 19.8637 28.3604C19.2086 28.6424 19.3304 28.5433 19.3228 29.1835C19.3228 30.9593 19.3228 32.7427 19.3228 34.5186C19.3228 34.6329 19.3228 34.7396 19.3228 34.8615C19.4219 34.8844 19.5056 34.9073 19.5818 34.9225C19.757 34.9682 19.8637 35.0902 19.8865 35.2655C19.9094 35.4484 19.8256 35.5856 19.6656 35.6694C19.239 35.9057 18.8505 36.0048 18.3401 35.7761C16.3366 34.8844 14.3103 34.0384 12.2916 33.1772C12.025 33.0628 11.8955 32.8799 11.8955 32.5903C11.8955 30.2734 11.8955 27.9488 11.8955 25.6318C11.8955 25.3498 12.0174 25.1822 12.2687 25.0602C14.2265 24.138 16.1767 23.2006 18.1421 22.286C18.4087 22.1564 18.5077 22.0116 18.5077 21.7068C18.4925 19.5803 18.5077 17.4539 18.4925 15.3275C18.4925 14.9922 18.6144 14.8093 18.9115 14.6721C20.9606 13.6965 23.0022 12.7057 25.0362 11.7149C25.3485 11.5625 25.6075 11.5549 25.9274 11.7149C27.9995 12.7286 30.0791 13.727 32.1664 14.7254C32.3873 14.8321 32.494 14.9846 32.4787 15.2284C32.4711 15.3885 32.4635 15.5562 32.4635 15.7162C32.4635 15.9372 32.3873 16.0973 32.1664 16.1583C31.9607 16.2192 31.816 16.1125 31.7017 15.9449C31.6789 15.9144 31.656 15.8763 31.6255 15.8305C31.3894 15.8839 31.1913 16.0058 30.978 16.1049C29.3707 16.8595 27.7633 17.614 26.1484 18.3609C25.9655 18.4447 25.8817 18.5438 25.8894 18.7496C25.8894 20.6778 25.8894 22.6137 25.8894 24.542C25.8894 24.6106 25.8741 24.6868 25.9427 24.763C26.1103 24.7554 26.255 24.6563 26.4074 24.5801C28.0604 23.8027 29.7135 23.01 31.3665 22.2326C31.5798 22.1336 31.6865 22.0116 31.6789 21.7677C31.6712 21.4781 31.8312 21.3257 32.075 21.3257C32.3111 21.3257 32.4635 21.4857 32.4559 21.7753C32.4559 22.004 32.5397 22.1259 32.7454 22.2174C33.7814 22.6976 34.8174 23.193 35.8686 23.6884M30.041 14.5882C28.6241 13.9099 27.2072 13.2316 25.7903 12.538C25.577 12.4313 25.4094 12.4237 25.1885 12.5304C23.7564 13.2316 22.3242 13.9175 20.8845 14.6111C20.5645 14.7635 20.2522 14.9236 19.917 15.0836C19.9627 15.1217 19.9779 15.1522 20.0084 15.1599C21.7834 15.9906 23.5583 16.829 25.3333 17.6597C25.478 17.7283 25.5846 17.6826 25.7065 17.6292C27.4053 16.829 29.1117 16.0363 30.8104 15.2361C30.8866 15.198 30.9933 15.198 31.0161 15.0608C30.7038 14.9083 30.3915 14.7559 30.041 14.5806M28.8222 24.3362C28.068 24.6944 27.3215 25.0526 26.5597 25.4108C26.6207 25.5175 26.7045 25.5328 26.7806 25.5633C28.4565 26.2797 30.1401 26.9961 31.816 27.7201C31.9988 27.7964 32.1664 27.7887 32.3416 27.7125C33.7281 27.118 35.1145 26.5236 36.5085 25.9291C36.859 25.7767 37.217 25.6242 37.5979 25.4565C37.5217 25.4032 37.4989 25.3727 37.4608 25.3575C35.7239 24.5343 33.9947 23.7188 32.2578 22.8957C32.0978 22.8195 31.9683 22.85 31.8236 22.9186C30.8333 23.3835 29.8506 23.8484 28.8222 24.3362ZM23.3602 25.9138C23.703 25.769 24.0458 25.6242 24.4039 25.4718C24.3201 25.3346 24.1982 25.3117 24.0992 25.266C22.5071 24.5115 20.8997 23.7569 19.3152 22.9872C19.0181 22.8424 18.7743 22.8424 18.4849 22.9872C16.8851 23.7569 15.2778 24.5191 13.6704 25.2813C13.579 25.327 13.4724 25.3575 13.3962 25.4565C13.4419 25.487 13.4724 25.5023 13.4952 25.5099C15.2092 26.2492 16.9308 26.9809 18.6448 27.7201C18.8429 27.804 19.0181 27.7735 19.2009 27.6973C20.5721 27.1104 21.9433 26.5236 23.3526 25.9138H23.3602ZM14.8055 37.933C14.8283 38.3751 14.8131 38.779 14.6074 39.1525C14.5388 39.282 14.5846 39.3582 14.6912 39.4345C14.8588 39.5564 15.0188 39.6783 15.1787 39.8079C15.3768 39.968 15.4149 40.1661 15.2778 40.3795C15.1483 40.5777 14.8817 40.6387 14.6912 40.4557C14.257 40.0442 13.8685 39.9832 13.2743 40.2195C12.4592 40.5396 11.6746 40.25 11.1108 39.564C10.5395 38.8781 10.4329 38.0854 10.8442 37.2776C10.9813 37.0108 10.9585 36.8279 10.768 36.6221C10.6538 36.4925 10.5547 36.3477 10.4633 36.2029C10.3491 36.0048 10.3643 35.799 10.5547 35.6542C10.7604 35.5017 11.0042 35.5246 11.1185 35.738C11.4156 36.302 11.7812 36.3096 12.3678 36.1572C13.4952 35.8599 14.5617 36.6831 14.8055 37.933ZM11.4917 38.5885C11.5374 38.7409 11.606 38.8705 11.6974 38.9924C12.0402 39.4421 12.6573 39.6174 13.1829 39.404C13.6933 39.1982 14.0665 38.6266 14.0132 38.1235C13.9294 37.3309 13.2667 36.8203 12.482 36.9422C11.766 37.0565 11.3165 37.7653 11.4917 38.5808V38.5885ZM36.7675 39.7164C35.5868 38.4665 36.2038 36.4925 37.834 36.1496C38.2987 36.0505 38.7482 36.1038 39.1748 36.3172C39.3271 36.3935 39.4109 36.3706 39.5023 36.2334C39.6166 36.0657 39.7385 35.8981 39.8756 35.7456C40.0432 35.5551 40.2489 35.5246 40.4469 35.677C40.645 35.8371 40.6831 36.0657 40.5079 36.241C40.0965 36.6678 40.028 37.0642 40.2641 37.6586C40.6069 38.5199 40.1575 39.503 39.3804 39.9908C38.5577 40.5091 37.5979 40.41 36.7675 39.7012M37.0875 38.7256C37.1332 38.8019 37.1713 38.8857 37.2322 38.9619C37.5674 39.3887 38.0016 39.564 38.5273 39.4573C39.03 39.3582 39.3652 39.0381 39.4947 38.5427C39.6242 38.0397 39.4947 37.59 39.0986 37.2394C38.672 36.8584 38.0321 36.8203 37.5369 37.1404C37.0418 37.4681 36.859 38.055 37.0799 38.7256H37.0875ZM14.9654 10.404C15.1864 10.4193 15.3159 10.526 15.3463 10.7241C15.3768 10.9147 15.3159 11.0823 15.1483 11.1662C14.6531 11.4177 14.5922 11.7225 14.7521 12.2789C15.0797 13.3764 14.2875 14.5273 13.1524 14.7712C12.0326 15.015 10.9052 14.2986 10.6614 13.1859C10.41 12.0426 11.1032 10.9223 12.2307 10.6555C12.7639 10.526 13.2743 10.6022 13.739 10.8689C13.9523 10.9909 14.0742 10.9528 14.2494 10.8232C14.4627 10.6631 14.6455 10.4269 14.9731 10.404M13.5485 13.6965C14.0361 13.2164 14.1503 12.6219 13.8532 12.0884C13.5714 11.5853 12.9543 11.311 12.4211 11.4558C11.8726 11.6082 11.5374 11.9664 11.4536 12.5228C11.3699 13.0715 11.5908 13.5136 12.0555 13.7956C12.5506 14.0928 13.0458 14.0547 13.5485 13.6965ZM39.0529 14.6721C38.1997 14.9541 37.4303 14.8397 36.7904 14.2224C36.1886 13.6279 36.021 12.8963 36.2495 12.0807C36.5009 11.2043 37.3922 10.5717 38.3063 10.6022C39.2662 10.6327 40.0737 11.2805 40.3022 12.2103C40.5307 13.1401 40.1194 14.1005 39.289 14.5577C39.2205 14.5959 39.1443 14.6263 39.0453 14.6721M37.8645 13.9404C38.9767 14.2376 39.7537 13.2468 39.4795 12.3475C39.3043 11.7606 38.7558 11.3948 38.1464 11.4329C37.5979 11.471 37.0875 11.9207 36.9885 12.4542C36.8742 13.102 37.1789 13.6508 37.8569 13.9404H37.8645ZM33.2634 42.3078C32.7987 42.5059 32.5778 42.4678 32.4635 42.1934C32.3568 41.9419 32.4787 41.7666 32.9053 41.5532C33.1796 41.416 33.4538 41.2789 33.7281 41.1493C33.9566 41.035 34.1699 41.0578 34.307 41.2941C34.4289 41.4999 34.3451 41.7514 34.1013 41.8886C33.8347 42.0334 33.5528 42.163 33.2634 42.3078ZM35.9296 39.8003C36.1734 39.7393 36.3638 39.785 36.4628 40.0137C36.5695 40.25 36.4476 40.4329 36.2572 40.5624C35.9448 40.7758 35.6401 40.9892 35.3202 41.1874C35.0688 41.3475 34.8403 41.3017 34.7184 41.0807C34.5812 40.8444 34.6574 40.6463 34.8707 40.5015C35.2135 40.2652 35.5639 40.0366 35.9372 39.8003H35.9296ZM10.1662 35.3874C9.94532 35.4027 9.8082 35.3036 9.71679 35.1435C9.51873 34.8006 9.31305 34.4576 9.13022 34.107C9.00834 33.8707 9.0769 33.6345 9.29019 33.5354C9.54158 33.4211 9.72441 33.5125 9.85391 33.7412C10.0444 34.0689 10.2272 34.3966 10.41 34.7243C10.5776 35.0368 10.5167 35.2045 10.1662 35.395V35.3874ZM20.435 43.2986C20.2065 43.1614 20.0998 42.9937 20.1989 42.7498C20.3131 42.4907 20.5188 42.4754 20.7626 42.5364C21.1054 42.6279 21.4558 42.7041 21.7986 42.7879C22.0728 42.8565 22.2328 43.0623 22.1795 43.2833C22.1262 43.5272 21.9052 43.6568 21.6005 43.5882C21.212 43.4967 20.8311 43.3977 20.4198 43.291L20.435 43.2986ZM41.9096 33.8707C41.7953 34.4271 41.4753 34.8539 41.1706 35.2807C41.0487 35.4484 40.8507 35.4484 40.6755 35.3264C40.5003 35.2045 40.4469 35.014 40.5307 34.8387C40.7288 34.4347 40.9421 34.0384 41.1935 33.6649C41.3992 33.3601 41.7648 33.4668 41.9096 33.8631V33.8707ZM15.872 40.5167C16.0091 40.471 16.1157 40.4938 16.2148 40.5548C16.5499 40.7454 16.8927 40.9359 17.2279 41.1341C17.4412 41.2636 17.5631 41.4389 17.4412 41.698C17.3346 41.9191 17.106 41.9877 16.8394 41.8505C16.5042 41.6752 16.1767 41.4923 15.8567 41.2941C15.4987 41.0731 15.5063 40.7758 15.8796 40.5167H15.872ZM7.41622 23.2844C7.23339 23.1625 7.17245 23.0177 7.21054 22.8271C7.2791 22.4384 7.34004 22.0421 7.41622 21.661C7.46954 21.3866 7.66761 21.2495 7.88852 21.2952C8.12467 21.3409 8.26179 21.5619 8.21609 21.8287C8.14753 22.1869 8.08658 22.5451 8.01041 22.9033C7.93423 23.2692 7.81996 23.3454 7.41622 23.2844ZM15.6206 10.1677C15.5977 9.96196 15.6739 9.82477 15.8263 9.73332C16.1691 9.53516 16.5119 9.32937 16.8623 9.13884C17.106 9.00927 17.3727 9.08548 17.4565 9.30651C17.5555 9.55802 17.4565 9.74094 17.2355 9.8705C16.908 10.0534 16.5804 10.244 16.2529 10.4269C15.9634 10.5869 15.7729 10.5107 15.6206 10.1677ZM9.25211 16.7146C9.45779 16.5546 9.64823 16.5546 9.82344 16.7146C9.99103 16.8823 9.96818 17.0652 9.85391 17.271C9.68632 17.5759 9.5492 17.8884 9.39684 18.2008C9.25211 18.4905 9.04643 18.5972 8.81789 18.4828C8.58174 18.3685 8.5208 18.1551 8.6503 17.8655C8.82551 17.4768 8.9931 17.0805 9.25211 16.7146ZM9.87676 15.5943C10.0901 15.2818 10.2805 14.9846 10.4938 14.6949C10.6766 14.451 10.8975 14.3977 11.0956 14.5425C11.2937 14.6873 11.3165 14.9236 11.1642 15.1599C10.9737 15.4495 10.7757 15.7315 10.5852 16.0211C10.3948 16.3031 10.1967 16.3869 9.98341 16.265C9.75488 16.1354 9.71679 15.9144 9.88438 15.5867L9.87676 15.5943ZM42.7627 32.1635C42.6561 32.4303 42.5571 32.6818 42.4428 32.918C42.3362 33.1314 42.1609 33.261 41.9172 33.1619C41.6582 33.0628 41.6125 32.8418 41.6963 32.5979C41.8334 32.2245 41.9781 31.851 42.1305 31.4852C42.2295 31.2565 42.4123 31.1422 42.6485 31.2413C42.8923 31.3404 42.976 31.5385 42.8846 31.79C42.8465 31.9044 42.8008 32.0187 42.7551 32.1559L42.7627 32.1635ZM38.771 31.7367C39.2205 31.9653 39.0453 32.3693 39.0605 32.7046C39.0757 32.9638 38.9005 33.1086 38.672 33.1924C38.5273 33.2458 38.3901 33.322 38.2454 33.3677C38.0245 33.4363 37.8036 33.4134 37.7045 33.1619C37.6131 32.9257 37.6741 32.7046 37.9331 32.6132C38.1616 32.5293 38.2302 32.3921 38.2378 32.1559C38.2378 31.851 38.3978 31.7367 38.7634 31.7443L38.771 31.7367ZM33.789 9.88575C33.4386 9.71807 33.1034 9.55802 32.7758 9.39797C32.4864 9.25316 32.3873 9.04738 32.494 8.81111C32.6006 8.58246 32.8292 8.52149 33.1186 8.65106C33.4538 8.80349 33.7814 8.97116 34.1089 9.13884C34.3299 9.24554 34.4441 9.42083 34.3527 9.66472C34.2613 9.91623 34.0632 9.99245 33.789 9.88575ZM20.5645 7.66788C20.8921 7.58404 21.1968 7.50783 21.5091 7.43923C21.6005 7.41637 21.6919 7.40875 21.7834 7.40112C22.0119 7.3935 22.1643 7.5002 22.21 7.71361C22.2633 7.93463 22.149 8.10993 21.9433 8.16328C21.5244 8.28522 21.0978 8.3843 20.6712 8.46814C20.4426 8.51387 20.2598 8.39955 20.2141 8.1709C20.1608 7.90415 20.3131 7.75172 20.5798 7.66788H20.5645ZM25.1428 43.7025C25.1428 43.3214 25.2647 43.1919 25.5999 43.1766C25.9884 43.1614 26.3769 43.1614 26.7654 43.1538C27.0092 43.1538 27.1615 43.2681 27.1768 43.512C27.1996 43.7482 27.0701 43.9007 26.834 43.9464C26.3769 44.0226 25.9198 43.9998 25.4628 43.9845C25.3028 43.9845 25.2114 43.8626 25.1428 43.7025ZM43.0522 23.1472C42.9532 22.6747 42.8542 22.2326 42.7856 21.7753C42.7475 21.5467 42.8694 21.3714 43.1055 21.3257C43.3417 21.2799 43.5093 21.379 43.5702 21.6153C43.6769 22.0192 43.7454 22.4308 43.7911 22.8424C43.814 23.0405 43.7683 23.2082 43.5702 23.3073C43.3569 23.4064 43.197 23.3301 43.0446 23.1396L43.0522 23.1472ZM40.7821 16.3259C40.6298 16.2955 40.546 16.2116 40.4698 16.1049C40.2565 15.7924 40.0432 15.48 39.8375 15.1675C39.6775 14.9236 39.7004 14.6873 39.9137 14.5501C40.1498 14.4053 40.3479 14.4663 40.4926 14.6797C40.7136 14.9998 40.9421 15.3123 41.1402 15.6476C41.3458 15.9906 41.2011 16.2497 40.7745 16.3183L40.7821 16.3259ZM19.3076 42.0715C19.4066 42.1096 19.4828 42.1325 19.5514 42.1706C19.757 42.2773 19.8027 42.4678 19.7342 42.666C19.6656 42.8794 19.4828 42.9785 19.2695 42.9175C18.8277 42.7879 18.4011 42.6203 17.9973 42.4068C17.7764 42.2925 17.7536 42.0791 17.845 41.8733C17.9516 41.6523 18.1573 41.6142 18.3706 41.6904C18.6753 41.7971 18.98 41.9343 19.3 42.0639L19.3076 42.0715ZM30.1934 42.605C30.6428 42.3764 31.1075 42.262 31.5646 42.1249C31.7855 42.0563 31.976 42.163 32.0445 42.3916C32.1207 42.6279 32.0064 42.8032 31.8008 42.887C31.397 43.0394 30.9933 43.1614 30.5819 43.291C30.4067 43.3443 30.2543 43.2757 30.1553 43.1309C30.0334 42.9632 30.0487 42.7879 30.1934 42.605ZM7.13436 27.6287C7.09627 27.3314 7.05818 27.0571 7.05057 26.7827C7.03533 26.4931 7.20292 26.3102 7.44669 26.2949C7.69808 26.2873 7.85043 26.455 7.8809 26.7522C7.91138 27.0952 7.94946 27.4382 7.99517 27.7887C8.03326 28.1012 7.88852 28.3299 7.6219 28.3527C7.37813 28.3756 7.20292 28.1851 7.17245 27.8802C7.17245 27.8116 7.15721 27.7354 7.1496 27.6439L7.13436 27.6287ZM8.12467 31.8358C8.04088 31.4547 8.10944 31.2794 8.34559 31.2108C8.58936 31.1422 8.77219 31.2565 8.89407 31.5614C9.02357 31.8891 9.15307 32.2245 9.29019 32.5522C9.39684 32.8037 9.32067 32.9943 9.09213 33.1162C8.88645 33.2229 8.66554 33.1314 8.55127 32.8723C8.39891 32.537 8.27703 32.194 8.13229 31.8282L8.12467 31.8358ZM26.9254 7.84317C26.4302 7.90415 25.9655 7.80507 25.5008 7.80507C25.2875 7.80507 25.1657 7.64501 25.1504 7.44685C25.1352 7.24869 25.2342 7.06578 25.4399 7.03529C25.9351 6.95908 26.4302 7.02005 26.9254 7.08864C27.0777 7.11151 27.1691 7.22583 27.192 7.38588C27.2225 7.59166 27.1463 7.74409 26.933 7.84317H26.9254ZM7.62952 30.2581C7.54572 29.9304 7.46193 29.6255 7.4086 29.313C7.35528 29.0158 7.47716 28.8176 7.71331 28.7719C7.94185 28.7262 8.13229 28.8634 8.20085 29.1606C8.28465 29.496 8.36083 29.8313 8.44462 30.1667C8.52842 30.502 8.437 30.7154 8.18562 30.784C7.94946 30.8526 7.75902 30.7078 7.65999 30.4029C7.64475 30.3648 7.64475 30.3267 7.6219 30.2581H7.62952ZM23.1774 7.98036C22.8194 7.96512 22.6442 7.82793 22.6442 7.58404C22.6442 7.34777 22.8118 7.19534 23.1089 7.15724C23.444 7.11913 23.7716 7.0734 24.1068 7.04291C24.4648 7.01243 24.6629 7.15724 24.6781 7.43923C24.6934 7.70599 24.5105 7.8508 24.1677 7.87366C23.8402 7.89652 23.5202 7.94225 23.1698 7.98036H23.1774ZM17.8831 9.13884C17.7612 8.84922 17.845 8.65868 18.104 8.54436C18.462 8.39192 18.82 8.24712 19.1781 8.11755C19.4676 8.01085 19.6809 8.10231 19.757 8.33857C19.8408 8.57484 19.7342 8.76538 19.4523 8.8797C19.1171 9.01689 18.7667 9.14646 18.4315 9.28364C18.2182 9.3751 18.0354 9.34462 17.8754 9.13884H17.8831ZM41.3915 17.7664C41.2925 17.5606 41.1935 17.3853 41.1097 17.1948C41.003 16.9585 41.0716 16.768 41.2925 16.6461C41.5058 16.5317 41.7039 16.6079 41.8181 16.8061C42.0314 17.1872 42.2371 17.5759 42.3895 17.9874C42.4733 18.2161 42.3895 18.3914 42.1686 18.4905C41.9629 18.5819 41.7801 18.5209 41.6658 18.3228C41.5668 18.1475 41.483 17.957 41.3839 17.7512L41.3915 17.7664ZM7.20292 23.8713C7.6219 23.6884 7.87329 23.8408 7.86567 24.26C7.86567 24.6639 7.8352 25.0755 7.80473 25.4794C7.78949 25.6776 7.65999 25.7919 7.46954 25.8224C7.27148 25.8529 7.08104 25.7614 7.05818 25.5861C6.98962 25.0145 6.92868 24.4353 7.20292 23.8713ZM7.78949 20.1291C7.90376 19.7937 7.99517 19.4813 8.11706 19.184C8.2237 18.9173 8.437 18.8182 8.64268 18.9096C8.89407 19.0163 8.95501 19.2145 8.87122 19.466C8.76457 19.8014 8.6503 20.1443 8.53603 20.4797C8.42939 20.8074 8.23894 20.937 7.97994 20.8531C7.7514 20.7845 7.67522 20.5635 7.7514 20.2434C7.75902 20.2129 7.76664 20.1824 7.78187 20.1291H7.78949ZM43.4255 30.0523C43.3722 30.2353 43.3417 30.3953 43.2808 30.5477C43.1893 30.7688 43.0065 30.8602 42.7856 30.7916C42.5647 30.723 42.458 30.5554 42.519 30.3115C42.6104 29.9151 42.7018 29.5188 42.8008 29.1225C42.8694 28.8634 43.0751 28.7414 43.3112 28.81C43.555 28.8862 43.6464 29.0692 43.5931 29.313C43.5474 29.5493 43.4864 29.7856 43.4255 30.0523ZM29.2412 42.7879C29.523 42.8108 29.6678 42.9556 29.6678 43.2071C29.6678 43.4434 29.5078 43.5729 29.2793 43.6111C28.8984 43.6796 28.5175 43.7482 28.1366 43.8016C27.8852 43.8321 27.6871 43.7482 27.6414 43.4662C27.6034 43.2224 27.7481 43.0471 28.0452 42.9937C28.4337 42.9175 28.8298 42.8565 29.2412 42.7879ZM28.0376 7.18772C28.4718 7.25632 28.8831 7.31729 29.2945 7.40112C29.5764 7.45448 29.7287 7.66788 29.6754 7.89652C29.6221 8.13279 29.4164 8.24712 29.1269 8.19376C28.7689 8.13279 28.4032 8.05658 28.0452 7.9956C27.809 7.9575 27.6643 7.82793 27.6491 7.59928C27.6338 7.3554 27.7862 7.22583 28.0376 7.18772ZM31.4046 8.83397C31.0771 8.72727 30.78 8.63581 30.4829 8.53673C30.1858 8.44528 30.041 8.22425 30.1248 7.9956C30.2086 7.75934 30.4219 7.66026 30.7266 7.75172C31.0466 7.8508 31.3665 7.94988 31.6865 8.0642C32.0369 8.18614 32.1664 8.3843 32.0826 8.64344C32.0064 8.8797 31.7779 8.9483 31.4199 8.8416L31.4046 8.83397ZM35.7239 11.0747C35.4421 10.8842 35.1754 10.7165 34.9164 10.5336C34.6803 10.3735 34.6117 10.1373 34.7336 9.93148C34.8555 9.72569 35.084 9.67996 35.343 9.84002C35.6401 10.0229 35.922 10.2135 36.2038 10.4116C36.5009 10.6174 36.5771 10.8613 36.4324 11.0747C36.28 11.2881 36.0515 11.2957 35.7163 11.0747H35.7239ZM43.1513 24.5953C43.1513 24.4353 43.1513 24.2981 43.1513 24.1685C43.1589 23.9551 43.2884 23.8332 43.4941 23.8027C43.6997 23.7722 43.8673 23.8713 43.913 24.0694C44.0349 24.5572 44.0044 25.0602 43.9664 25.5556C43.9511 25.7309 43.7911 25.8452 43.5931 25.8529C43.3798 25.8529 43.2503 25.7385 43.2046 25.5404C43.136 25.2431 43.1741 24.9307 43.1589 24.6029L43.1513 24.5953ZM43.1513 26.737C43.2198 26.4169 43.4026 26.2492 43.6159 26.3102C43.8749 26.3711 43.974 26.5617 43.9511 26.8208C43.9207 27.179 43.8978 27.5296 43.8521 27.8878C43.8064 28.2384 43.6388 28.3908 43.3722 28.3527C43.1284 28.3222 43.0141 28.147 43.037 27.7964C43.0675 27.4534 43.1132 27.1104 43.1513 26.737ZM42.679 18.9401C42.8237 19.0163 42.877 19.1383 42.9227 19.2679C43.0446 19.6337 43.1665 19.9995 43.2731 20.373C43.3417 20.6093 43.2427 20.7769 43.0218 20.8608C42.7932 20.9522 42.6028 20.8608 42.519 20.6397C42.3666 20.2282 42.2219 19.8166 42.1152 19.3898C42.0314 19.0468 42.2676 18.8639 42.6713 18.9325L42.679 18.9401ZM24.6019 43.3062C24.7543 43.7482 24.6019 43.9693 24.1677 43.9464C23.7716 43.9312 23.3755 43.9083 22.987 43.8168C22.728 43.7559 22.5832 43.5425 22.6366 43.3291C22.6746 43.169 22.7813 43.0394 22.9489 43.0394C23.4593 43.0394 23.962 43.0852 24.4648 43.1919C24.5105 43.1995 24.5486 43.2528 24.6019 43.3062Z" fill="url(#paint0_linear_1_1096)"/>
</g>
<defs>
<linearGradient id="paint0_linear_1_1096" x1="49.1189" y1="47.2435" x2="1.28262" y2="42.4523" gradientUnits="userSpaceOnUse">
<stop stop-color="#F26083"/>
<stop offset="1" stop-color="#EFB2D7"/>
</linearGradient>
</defs>
</svg>
