<svg width="51" height="51" viewBox="0 0 51 51" fill="none" xmlns="http://www.w3.org/2000/svg">
<g id="icon">
<circle id="Ellipse 1401" cx="25.5" cy="25.5" r="25.5" fill="white"/>
<g id="Group 1171274736">
<path id="Vector" d="M15 12.8632V38.9428C15 39.97 15.8356 40.8056 16.8628 40.8056H33.6714C34.6986 40.8056 35.5342 39.97 35.5342 38.9428V12.8632C35.5342 11.836 34.6986 11.0004 33.6714 11.0004H16.8628C15.8356 11.0004 15 11.836 15 12.8632ZM34.2923 38.9428C34.2923 39.2854 34.014 39.5638 33.6713 39.5638H16.8628C16.5202 39.5638 16.2419 39.2854 16.2419 38.9428V36.4421H34.2923L34.2923 38.9428ZM16.2449 35.2002V16.6064H34.2802V35.2002H16.2449ZM34.2923 12.8632V15.3646H16.2419V12.8632C16.2419 12.5206 16.5202 12.2423 16.8628 12.2423H33.6714C34.014 12.2423 34.2923 12.5206 34.2923 12.8632Z" fill="url(#paint0_linear_1_1102)"/>
<path id="Vector_2" d="M23.7963 38.6324H26.7385C27.0817 38.6324 27.3594 38.3547 27.3594 38.0115C27.3594 37.6683 27.0817 37.3905 26.7385 37.3905H23.7963C23.4531 37.3905 23.1754 37.6683 23.1754 38.0115C23.1754 38.3547 23.4531 38.6324 23.7963 38.6324ZM30.2544 20.7912C29.7465 20.7912 29.2465 20.9449 28.7802 21.2334C28.813 20.1762 28.6354 18.8221 27.753 17.732C27.5377 17.4664 27.146 17.4245 26.8798 17.6398C26.613 17.8557 26.5717 18.2468 26.7876 18.513C27.5276 19.4274 27.5917 20.6667 27.5179 21.5416C26.9386 21.0551 26.2904 20.7912 25.6288 20.7912C24.9133 20.7912 24.2529 21.075 23.7193 21.6117C23.0137 22.3208 22.5688 23.4298 22.4486 24.7186C22.2576 24.6955 22.0644 24.68 21.8674 24.68C19.2138 24.68 17.0551 26.8387 17.0551 29.4923C17.0551 32.1459 19.2138 34.3046 21.8674 34.3046C23.9027 34.3046 25.6429 33.0325 26.3451 31.2432C26.8422 31.2463 27.2189 31.0813 27.5147 30.9494C28.4285 30.5425 28.2483 31.252 29.5455 31.252C29.9014 31.252 30.2592 31.172 30.6121 31.0119C31.8661 30.4413 32.9528 28.8228 33.3166 26.9843C33.7029 25.0293 33.3342 23.0136 32.3767 21.8481C31.8085 21.1569 31.0748 20.7912 30.2544 20.7912ZM25.3158 30.4028C25.3153 30.4045 25.3139 30.4057 25.3135 30.4073C25.313 30.4092 25.3136 30.4108 25.3132 30.4126C24.9058 31.936 23.5177 33.0627 21.8674 33.0627C19.8984 33.0627 18.297 31.4612 18.297 29.4923C18.297 27.5233 19.8984 25.9219 21.8674 25.9219C24.1653 25.9219 25.9254 28.0974 25.3158 30.4028ZM32.0978 26.7429C31.8128 28.1849 30.9905 29.4753 30.0979 29.881C28.8728 30.4449 28.8077 29.0114 27.0077 29.8155C26.8819 29.8717 26.7694 29.9171 26.6563 29.9513C26.8643 27.7893 25.6047 25.8171 23.6668 25.0323C23.7329 23.9522 24.0699 23.0203 24.5998 22.4873C25.325 21.7572 26.3959 21.9306 27.2297 23.0342C27.5871 23.4953 28.276 23.5166 28.6511 23.0288C29.5279 21.8676 30.6806 21.7396 31.4174 22.6371C32.1372 23.5127 32.4107 25.1627 32.0978 26.7429Z" fill="url(#paint1_linear_1_1102)"/>
<path id="Vector_3" d="M23.5756 27.6488L21.2058 30.0186L20.1598 28.9726C19.9172 28.73 19.5243 28.73 19.2817 28.9726C19.0392 29.2151 19.0392 29.6081 19.2817 29.8506L20.7668 31.3357C21.0093 31.5782 21.4023 31.5782 21.6448 31.3357L24.4536 28.5269C24.6962 28.2843 24.6962 27.8914 24.4536 27.6488C24.2111 27.4063 23.8181 27.4063 23.5756 27.6488Z" fill="url(#paint2_linear_1_1102)"/>
</g>
</g>
<defs>
<linearGradient id="paint0_linear_1_1102" x1="38.3751" y1="43.4184" x2="11.6877" y2="41.5769" gradientUnits="userSpaceOnUse">
<stop stop-color="#F26083"/>
<stop offset="1" stop-color="#EFB2D7"/>
</linearGradient>
<linearGradient id="paint1_linear_1_1102" x1="35.7384" y1="40.4847" x2="14.435" y2="38.8274" gradientUnits="userSpaceOnUse">
<stop stop-color="#F26083"/>
<stop offset="1" stop-color="#EFB2D7"/>
</linearGradient>
<linearGradient id="paint2_linear_1_1102" x1="25.4014" y1="31.8727" x2="18.3055" y2="30.9014" gradientUnits="userSpaceOnUse">
<stop stop-color="#F26083"/>
<stop offset="1" stop-color="#EFB2D7"/>
</linearGradient>
</defs>
</svg>
