<svg width="51" height="51" viewBox="0 0 51 51" fill="none" xmlns="http://www.w3.org/2000/svg">
<g id="icon">
<circle id="Ellipse 1401" cx="25.5" cy="25.5" r="25.5" fill="white"/>
<g id="ICO">
<path id="Vector" d="M39.342 14H11.658C10.743 14 10 14.7566 10 15.6883V34.8551C10 35.7869 10.743 36.5435 11.658 36.5435H39.342C40.257 36.5435 41 35.7869 41 34.8551V15.6883C41 14.7566 40.257 14 39.342 14ZM11.1076 15.6883C11.1076 15.3801 11.3553 15.1279 11.658 15.1279H39.342C39.6447 15.1279 39.8924 15.3801 39.8924 15.6883V17.3766H11.1076V15.6883ZM39.8992 34.8551C39.8992 35.1634 39.6516 35.4156 39.3489 35.4156H11.658C11.3553 35.4156 11.1076 35.1634 11.1076 34.8551V18.5115H39.8992V34.8622V34.8551Z" fill="url(#paint0_linear_1_998)"/>
<path id="Vector_2" d="M38.241 15.6884C37.9314 15.6884 37.6838 15.9476 37.6906 16.2559C37.6906 16.5711 37.9452 16.8233 38.2479 16.8163C38.5506 16.8093 38.8052 16.5571 38.7983 16.2488C38.7983 15.9406 38.5506 15.6884 38.2479 15.6884H38.241ZM36.0189 15.6884C35.7093 15.6884 35.4616 15.9476 35.4685 16.2559C35.4685 16.5711 35.723 16.8233 36.0258 16.8163C36.3285 16.8093 36.583 16.5571 36.5761 16.2488C36.5761 15.9406 36.3285 15.6884 36.0258 15.6884H36.0189ZM33.8036 15.6884C33.494 15.6884 33.2463 15.9476 33.2532 16.2559C33.2532 16.5711 33.5078 16.8233 33.8105 16.8163C34.1132 16.8093 34.3677 16.5571 34.3609 16.2488C34.3609 15.9406 34.1132 15.6884 33.8105 15.6884H33.8036ZM12.7654 20.7673H16.6387C16.9414 20.7673 17.1891 20.5152 17.1891 20.2069C17.1891 19.8987 16.9414 19.6465 16.6387 19.6465H12.7654C12.4627 19.6465 12.2151 19.8987 12.2151 20.2069C12.2151 20.5152 12.4627 20.7673 12.7654 20.7673ZM12.7654 23.0231H16.6387C16.9414 23.0231 17.1891 22.7709 17.1891 22.4627C17.1891 22.1544 16.9414 21.9022 16.6387 21.9022H12.7654C12.4627 21.9022 12.2151 22.1544 12.2151 22.4627C12.2151 22.7709 12.4627 23.0231 12.7654 23.0231ZM12.7654 25.2788H16.6387C16.9414 25.2788 17.1891 25.0266 17.1891 24.7184C17.1891 24.4102 16.9414 24.158 16.6387 24.158H12.7654C12.4627 24.158 12.2151 24.4102 12.2151 24.7184C12.2151 25.0266 12.4627 25.2788 12.7654 25.2788ZM12.7654 27.5346H16.6387C16.9414 27.5346 17.1891 27.2824 17.1891 26.9742C17.1891 26.6659 16.9414 26.4137 16.6387 26.4137H12.7654C12.4627 26.4137 12.2151 26.6659 12.2151 26.9742C12.2151 27.2824 12.4627 27.5346 12.7654 27.5346ZM29.3731 26.4067H34.2577C34.5604 26.4067 34.808 26.1545 34.808 25.8463C34.808 25.8113 34.808 25.7762 34.8012 25.7412C34.5673 24.4662 33.9825 23.2963 33.1088 22.3506L33.5972 21.3348H36.0189C36.3216 21.3348 36.5693 21.0826 36.5693 20.7744C36.5693 20.4661 36.3216 20.2139 36.0189 20.2139H33.2532C33.04 20.2139 32.8473 20.34 32.7579 20.5292L32.2626 21.573C31.4439 20.9425 30.4945 20.5152 29.4831 20.326C29.1804 20.27 28.8915 20.4731 28.8365 20.7744C28.8365 20.8094 28.8296 20.8444 28.8296 20.8794V25.8533C28.8296 26.1615 29.0772 26.4137 29.3799 26.4137L29.3731 26.4067ZM29.9234 21.594C31.6503 22.1544 32.9987 23.5275 33.5422 25.2788H29.9234V21.594ZM38.2273 21.3348C38.5368 21.3348 38.7845 21.0756 38.7776 20.7673C38.7776 20.4521 38.5231 20.1999 38.2204 20.2069C37.9177 20.2139 37.6631 20.4661 37.67 20.7744C37.67 21.0826 37.9177 21.3348 38.2204 21.3348H38.2273Z" fill="url(#paint1_linear_1_998)"/>
<path id="Vector_3" d="M38.2336 21.895H36.5756C36.2729 21.895 36.0252 22.1472 36.0252 22.4555C36.0252 22.7637 36.2729 23.0159 36.5756 23.0159H38.2336C38.5363 23.0159 38.784 22.7637 38.784 22.4555C38.784 22.1472 38.5363 21.895 38.2336 21.895ZM23.0501 31.2333L22.3965 32.6063H19.9748C19.6721 32.6063 19.4245 32.8585 19.4245 33.1668C19.4245 33.475 19.6721 33.7272 19.9748 33.7272H22.7405C22.9538 33.7272 23.1464 33.6011 23.2358 33.412L23.8894 32.0389C26.6344 34.5048 30.8242 34.2386 33.2527 31.4434C34.0507 30.5257 34.5874 29.3978 34.8006 28.1929C34.8557 27.8847 34.6562 27.5904 34.3534 27.5344C34.319 27.5344 34.2846 27.5274 34.2502 27.5274H27.7076V20.8652C27.7076 20.557 27.46 20.3048 27.1573 20.3048C27.1229 20.3048 27.0885 20.3048 27.0541 20.3118C23.4491 20.9843 21.0618 24.5081 21.7292 28.1789C21.9287 29.2788 22.3896 30.3086 23.0776 31.1842C23.0638 31.1982 23.057 31.2123 23.0432 31.2333H23.0501ZM26.6069 21.5868V28.0948C26.6069 28.4031 26.8546 28.6553 27.1573 28.6553H33.5485C32.6335 31.6256 29.5239 33.2789 26.6069 32.3401C23.6899 31.4084 22.0663 28.242 22.9882 25.2717C23.5317 23.5133 24.8801 22.1402 26.6069 21.5868ZM17.7527 33.7342C18.0554 33.7342 18.3031 33.482 18.3031 33.1738C18.3031 32.8655 18.0554 32.6133 17.7527 32.6133C17.45 32.6133 17.2023 32.8655 17.2023 33.1808C17.2023 33.489 17.45 33.7412 17.7596 33.7412L17.7527 33.7342Z" fill="url(#paint2_linear_1_998)"/>
<path id="Vector_4" d="M17.7527 32.0394H19.4107C19.7134 32.0394 19.9611 31.7873 19.9611 31.479C19.9611 31.1708 19.7134 30.9186 19.4107 30.9186H17.7527C17.45 30.9186 17.2023 31.1708 17.2023 31.479C17.2023 31.7873 17.45 32.0394 17.7527 32.0394Z" fill="url(#paint3_linear_1_998)"/>
</g>
</g>
<defs>
<linearGradient id="paint0_linear_1_998" x1="10" y1="15.8786" x2="40.6059" y2="19.9109" gradientUnits="userSpaceOnUse">
<stop stop-color="#6060F2"/>
<stop offset="1" stop-color="#B0ACEB"/>
</linearGradient>
<linearGradient id="paint1_linear_1_998" x1="12.2151" y1="16.6756" x2="37.7363" y2="22.1626" gradientUnits="userSpaceOnUse">
<stop stop-color="#6060F2"/>
<stop offset="1" stop-color="#B0ACEB"/>
</linearGradient>
<linearGradient id="paint2_linear_1_998" x1="17.2023" y1="21.4245" x2="38.378" y2="24.6832" gradientUnits="userSpaceOnUse">
<stop stop-color="#6060F2"/>
<stop offset="1" stop-color="#B0ACEB"/>
</linearGradient>
<linearGradient id="paint3_linear_1_998" x1="17.2023" y1="31.012" x2="19.8273" y2="31.631" gradientUnits="userSpaceOnUse">
<stop stop-color="#6060F2"/>
<stop offset="1" stop-color="#B0ACEB"/>
</linearGradient>
</defs>
</svg>
