<svg width="51" height="51" viewBox="0 0 51 51" fill="none" xmlns="http://www.w3.org/2000/svg">
<g id="icon">
<circle id="Ellipse 1401" cx="25.5" cy="25.5" r="25.5" fill="white"/>
<g id="ico">
<path id="Vector" d="M16.688 15.9155C17.5143 15.9155 18.1868 15.2436 18.1868 14.4173C18.1868 13.5911 17.5143 12.9186 16.688 12.9186C15.8618 12.9186 15.1899 13.5911 15.1899 14.4173C15.1899 15.2436 15.8618 15.9155 16.688 15.9155ZM16.688 13.5169C17.1846 13.5169 17.5885 13.9207 17.5885 14.4173C17.5885 14.9133 17.1846 15.3172 16.688 15.3172C16.4562 15.3068 16.2374 15.2074 16.077 15.0398C15.9167 14.8721 15.8272 14.649 15.8272 14.417C15.8272 14.185 15.9167 13.9619 16.077 13.7943C16.2374 13.6266 16.4562 13.5272 16.688 13.5169Z" fill="url(#paint0_linear_1_1062)"/>
<path id="Vector_2" d="M31.8064 15.9155C32.6326 15.9155 33.3045 15.2436 33.3045 14.4173C33.3045 13.5911 32.6326 12.9186 31.8064 12.9186C30.9801 12.9186 30.3076 13.5911 30.3076 14.4173C30.3076 15.2436 30.9801 15.9155 31.8064 15.9155ZM31.8064 13.5169C32.3023 13.5169 32.7062 13.9207 32.7062 14.4173C32.7062 14.9133 32.3023 15.3172 31.8064 15.3172C31.3098 15.3172 30.9059 14.9133 30.9059 14.4173C30.9059 13.9207 31.3098 13.5169 31.8064 13.5169Z" fill="url(#paint1_linear_1_1062)"/>
<path id="Vector_3" d="M15.2764 32.0891C15.4416 32.0891 15.5755 31.9552 15.5755 31.79C15.5755 31.6248 15.4416 31.4908 15.2764 31.4908C15.1112 31.4908 14.9772 31.6248 14.9772 31.79C14.9772 31.9552 15.1112 32.0891 15.2764 32.0891Z" fill="url(#paint2_linear_1_1062)"/>
<path id="Vector_4" d="M14.0852 31.7685C14.2504 31.7685 14.3844 31.6345 14.3844 31.4693C14.3844 31.3041 14.2504 31.1702 14.0852 31.1702C13.92 31.1702 13.7861 31.3041 13.7861 31.4693C13.7861 31.6345 13.92 31.7685 14.0852 31.7685Z" fill="url(#paint3_linear_1_1062)"/>
<path id="Vector_5" d="M12.8958 31.3592C13.061 31.3592 13.195 31.2252 13.195 31.06C13.195 30.8948 13.061 30.7609 12.8958 30.7609C12.7306 30.7609 12.5967 30.8948 12.5967 31.06C12.5967 31.2252 12.7306 31.3592 12.8958 31.3592Z" fill="url(#paint4_linear_1_1062)"/>
<path id="Vector_6" d="M37.4132 31.3592C37.5784 31.3592 37.7124 31.2252 37.7124 31.06C37.7124 30.8948 37.5784 30.7609 37.4132 30.7609C37.248 30.7609 37.1141 30.8948 37.1141 31.06C37.1141 31.2252 37.248 31.3592 37.4132 31.3592Z" fill="url(#paint5_linear_1_1062)"/>
<path id="Vector_7" d="M36.2221 31.679C36.3873 31.679 36.5212 31.5451 36.5212 31.3798C36.5212 31.2146 36.3873 31.0807 36.2221 31.0807C36.0568 31.0807 35.9229 31.2146 35.9229 31.3798C35.9229 31.5451 36.0568 31.679 36.2221 31.679Z" fill="url(#paint6_linear_1_1062)"/>
<path id="Vector_8" d="M35.0327 32.0891C35.1979 32.0891 35.3318 31.9552 35.3318 31.79C35.3318 31.6248 35.1979 31.4908 35.0327 31.4908C34.8675 31.4908 34.7335 31.6248 34.7335 31.79C34.7335 31.9552 34.8675 32.0891 35.0327 32.0891Z" fill="url(#paint7_linear_1_1062)"/>
<path id="Vector_9" d="M25.154 10.0001C16.0952 10.0001 9 12.4968 9 15.684V28.8465C9 30.928 12.0118 32.7731 17.0573 33.7807C17.1007 33.7893 17.1454 33.7883 17.1884 33.7776C17.2313 33.7669 17.2713 33.7468 17.3055 33.7187C17.3397 33.6907 17.3673 33.6554 17.3863 33.6154C17.4052 33.5754 17.415 33.5317 17.4151 33.4875V24.4634C17.9081 24.3677 18.4184 24.2827 18.9407 24.2055L18.489 24.8798C18.3273 25.1222 18.2539 25.4129 18.2812 25.703C18.3084 25.9931 18.4346 26.265 18.6386 26.4731L21.3519 29.2276C21.5188 29.3975 21.727 29.5106 21.9532 29.5651V39.2527C21.9532 39.7732 22.3761 40.1962 22.8967 40.1962H23.775C24.0103 40.1973 24.2375 40.11 24.4116 39.9516C24.5857 39.7931 24.6939 39.5751 24.7149 39.3407L25.1534 34.662L25.5914 39.3413C25.6129 39.5754 25.7213 39.7931 25.8953 39.9513C26.0693 40.1095 26.2962 40.1969 26.5313 40.1962H27.4096C27.6598 40.1959 27.8997 40.0964 28.0767 39.9196C28.2536 39.7427 28.3533 39.5029 28.3537 39.2527V29.5651C28.5805 29.5106 28.7893 29.3975 28.9568 29.227L31.6701 26.4725C31.8741 26.2644 32.0003 25.9925 32.0275 25.7024C32.0548 25.4123 31.9814 25.1216 31.8197 24.8792L31.368 24.2049C31.8903 24.2821 32.4006 24.3671 32.8936 24.4628V33.4875C32.8937 33.5318 32.9035 33.5755 32.9225 33.6155C32.9414 33.6555 32.969 33.6908 33.0032 33.7189C33.0374 33.7469 33.0774 33.7671 33.1203 33.7779C33.1632 33.7887 33.208 33.7898 33.2514 33.7813C38.2963 32.7731 41.3081 30.9286 41.3081 28.8471V15.6846C41.3081 12.4968 34.2129 10.0001 25.154 10.0001ZM25.154 10.5984C33.5865 10.5984 40.7098 12.9276 40.7098 15.684C40.7098 16.6951 39.6777 17.7002 37.8978 18.5444L35.1737 15.821C35.1179 15.7651 35.0421 15.7336 34.9631 15.7334C34.8841 15.7332 34.8081 15.7642 34.7519 15.8198L32.2983 18.2471L30.7643 16.713C30.7072 16.6589 30.6315 16.6288 30.5528 16.6288C30.4741 16.6288 30.3984 16.6589 30.3413 16.713L27.2092 19.8463L26.7252 19.5579V18.5079C26.9314 18.3358 27.0974 18.1207 27.2116 17.8776C27.3258 17.6345 27.3855 17.3693 27.3863 17.1007V16.9105C27.5095 16.8423 27.6029 16.731 27.6573 16.5993L27.6579 16.5976C27.6878 16.5252 27.7088 16.448 27.7088 16.3648V15.6732C27.7073 15.5792 27.6842 15.4869 27.6412 15.4034C27.6158 15.3508 27.5829 15.3023 27.5436 15.2592C27.5341 15.249 27.5275 15.237 27.5173 15.2275C27.4736 15.1843 27.4238 15.1478 27.3695 15.1192C27.3135 14.7422 27.1241 14.3978 26.8356 14.1487C26.5472 13.8996 26.1789 13.7622 25.7978 13.7616H24.5085C24.1274 13.7622 23.7591 13.8996 23.4707 14.1487C23.1822 14.3978 22.9928 14.7422 22.9368 15.1192C22.8817 15.1473 22.8326 15.185 22.789 15.2275C22.7788 15.237 22.7716 15.249 22.7626 15.2592C22.7105 15.3171 22.6694 15.384 22.6412 15.4566C22.6135 15.5255 22.5987 15.5989 22.5975 15.6732V16.3642C22.5975 16.4408 22.6155 16.512 22.6412 16.5796L22.6556 16.6131C22.7112 16.7376 22.8009 16.8435 22.92 16.9093V17.1001C22.92 17.6518 23.1701 18.1573 23.5817 18.4995V19.3461L20.0553 15.8198C19.9995 15.7639 19.9237 15.7324 19.8447 15.7322C19.7657 15.732 19.6898 15.763 19.6335 15.8186L17.1799 18.2459L15.6459 16.7118C15.5898 16.6557 15.5137 16.6242 15.4344 16.6242C15.3551 16.6242 15.279 16.6557 15.2229 16.7118L13.0912 18.8436C10.8948 17.9431 9.5977 16.8171 9.5977 15.6828C9.5983 12.9276 16.7216 10.5984 25.154 10.5984ZM33.9149 19.8637L32.7213 18.6701L34.9607 16.454L37.3121 18.8047C36.3476 19.2085 35.2066 19.5687 33.9149 19.8637ZM20.7578 21.4916L20.6237 21.6915L17.6029 18.6707L19.843 16.4546L23.1844 19.7961L21.4721 20.8156C21.1869 20.9853 20.9429 21.2162 20.7578 21.4916ZM23.1958 16.3642L23.2191 15.6498H27.0076C27.0403 15.6641 27.0754 15.672 27.1111 15.6732L27.0883 16.3648L23.1958 16.3642ZM23.5692 15.0516C23.6321 14.8515 23.757 14.6768 23.9259 14.5525C24.0948 14.4283 24.2988 14.361 24.5085 14.3605H25.7978C26.2394 14.3605 26.6091 14.6525 26.7371 15.0516H23.5692ZM23.5183 16.9625L26.7886 16.9631V17.1007C26.7886 17.6877 26.371 18.1998 25.8493 18.3105L25.3084 18.3224L24.5121 18.3165C24.2321 18.2587 23.9805 18.1064 23.7996 17.885C23.6187 17.6635 23.5196 17.3866 23.5189 17.1007V16.9625H23.5183ZM24.18 18.8334C24.265 18.8627 24.3505 18.8908 24.4421 18.9088L24.7945 18.9207L25.9151 18.9034C25.9887 18.8884 26.0575 18.8633 26.1269 18.84V19.5065H24.18V18.8334ZM16.8162 33.1208C12.4181 32.1856 9.5983 30.5229 9.5983 28.8465V17.2551C9.61625 17.2778 9.64197 17.2994 9.66052 17.3221C9.76522 17.4489 9.88189 17.574 10.0105 17.6978C10.0464 17.7319 10.0799 17.7666 10.1176 17.8007C10.2792 17.9467 10.4557 18.0897 10.6507 18.2297C10.6878 18.2566 10.7291 18.2824 10.7674 18.3087C10.9385 18.4266 11.121 18.542 11.3154 18.6551C11.3717 18.688 11.4273 18.7209 11.4853 18.7538C11.7217 18.8854 11.9711 19.0141 12.2386 19.1379C12.2781 19.1565 12.3212 19.1738 12.3618 19.1918C12.5778 19.2893 12.8034 19.3844 13.0379 19.4772L13.0523 19.4825L13.1151 19.5065L13.3442 19.5944C13.6518 19.7087 13.9701 19.82 14.3063 19.9253C14.3356 19.9343 14.3673 19.9426 14.3966 19.9522C14.7096 20.0485 15.0374 20.1407 15.3743 20.2286L15.6591 20.3022C16.033 20.3961 16.4159 20.4865 16.8168 20.5697L16.8162 33.1208ZM17.4145 23.8549V20.325C17.4144 20.2558 17.3904 20.1888 17.3466 20.1354C17.3027 20.0819 17.2417 20.0453 17.1739 20.0318C15.8744 19.7721 14.7114 19.4484 13.7014 19.0805L15.4341 17.3478L16.9645 18.8783L16.9657 18.8801L16.9675 18.8813L20.2845 22.1982L19.3894 23.5348C18.7104 23.6246 18.0517 23.7335 17.4145 23.8549ZM22.5526 28.5898H27.7554V29.2809H22.5526V28.5898ZM21.9526 26.229L21.167 25.4308L21.9526 24.2576V26.229ZM27.756 39.2521C27.756 39.4424 27.6005 39.5973 27.4102 39.5973H26.5319C26.4459 39.5975 26.3628 39.5656 26.2992 39.5076C26.2355 39.4497 26.1958 39.3701 26.1879 39.2844L25.452 31.4282C25.4453 31.3538 25.411 31.2845 25.3559 31.2341C25.3008 31.1837 25.2288 31.1557 25.154 31.1557C25.0793 31.1557 25.0073 31.1837 24.9522 31.2341C24.897 31.2845 24.8628 31.3538 24.8561 31.4282L24.1196 39.2844C24.1121 39.3703 24.0725 39.4501 24.0087 39.5081C23.945 39.5661 23.8617 39.598 23.7756 39.5973H22.8973C22.8058 39.5972 22.718 39.5607 22.6533 39.496C22.5886 39.4313 22.5522 39.3436 22.552 39.2521V30.0497C22.552 30.0467 22.5538 30.0443 22.5538 30.0407V29.8786H27.7566L27.756 39.2521ZM31.2441 26.0537L28.5308 28.8082C28.4789 28.8574 28.4193 28.8978 28.3543 28.9279V27.0839L29.7394 25.6773C29.7877 25.6282 29.8176 25.564 29.824 25.4954C29.8304 25.4269 29.813 25.3582 29.7747 25.301L28.3035 23.1046C28.2677 23.0514 28.2158 23.0111 28.1554 22.9896C28.095 22.9682 28.0293 22.9667 27.9679 22.9854C27.9066 23.0041 27.8529 23.042 27.8148 23.0935C27.7766 23.145 27.756 23.2075 27.756 23.2716V27.9921H22.5532V23.2716C22.5532 23.2074 22.5325 23.145 22.4944 23.0935C22.4563 23.0419 22.4027 23.0039 22.3414 22.985C22.28 22.9666 22.2144 22.9683 22.154 22.9898C22.0936 23.0113 22.0417 23.0516 22.0058 23.1046L20.5346 25.301C20.4963 25.3582 20.4788 25.4269 20.4853 25.4954C20.4917 25.564 20.5216 25.6282 20.5699 25.6773L21.9537 27.0821V28.9267C21.8896 28.8966 21.8307 28.8567 21.779 28.8082L19.0658 26.0537C18.9581 25.9439 18.8914 25.8005 18.8769 25.6475C18.8624 25.4944 18.901 25.341 18.9862 25.213L21.2555 21.8249C21.3902 21.6245 21.5708 21.4533 21.7784 21.3301L23.8474 20.0982C23.8593 20.0994 23.8695 20.1054 23.8821 20.1054H26.4272C26.4398 20.1054 26.4506 20.0994 26.4631 20.0982L28.5326 21.3301C28.7396 21.4533 28.9203 21.6245 29.0549 21.8249L31.3243 25.213C31.4092 25.3412 31.4475 25.4945 31.4329 25.6475C31.4183 25.8005 31.3517 25.9439 31.2441 26.0537ZM28.3543 26.2308V24.2546L29.1417 25.4308L28.3543 26.2308ZM29.5509 21.4916C29.3659 21.2165 29.1224 20.9856 28.8378 20.8156L27.7399 20.1622L30.5531 17.3478L33.2191 20.0138C33.1904 20.0198 33.1635 20.0264 33.1347 20.0318C33.067 20.0453 33.0059 20.0819 32.9621 20.1354C32.9183 20.1888 32.8943 20.2558 32.8942 20.325V23.8549C32.2389 23.73 31.5804 23.6231 30.9192 23.5342L29.5509 21.4916ZM40.7098 17.2551V28.8465C40.7098 30.5229 37.8894 32.185 33.4925 33.1208V20.5691C34.3082 20.3974 35.1162 20.1912 35.9144 19.951L36.0024 19.9253C36.3263 19.8231 36.6475 19.7126 36.9656 19.5938C37.0428 19.5651 37.1176 19.5358 37.1924 19.5071C37.4557 19.4048 37.7087 19.3001 37.9486 19.1912C37.9881 19.1732 38.0306 19.1565 38.0695 19.1385C38.3375 19.0141 38.587 18.8854 38.824 18.7532C38.882 18.7209 38.9364 18.6886 38.9921 18.6557C39.1865 18.542 39.3702 18.4266 39.5419 18.3081C39.5796 18.2818 39.6209 18.256 39.658 18.2297C39.8524 18.0897 40.0295 17.9467 40.1911 17.8007C40.2288 17.7666 40.2623 17.7325 40.2976 17.6978C40.4262 17.5746 40.5429 17.4489 40.6476 17.3221C40.6661 17.2994 40.6918 17.2778 40.7098 17.2551Z" fill="url(#paint8_linear_1_1062)"/>
</g>
</g>
<defs>
<linearGradient id="paint0_linear_1_1062" x1="15.1899" y1="13.1683" x2="18.1726" y2="13.4541" gradientUnits="userSpaceOnUse">
<stop stop-color="#F27A60"/>
<stop offset="1" stop-color="#EBD2AC"/>
</linearGradient>
<linearGradient id="paint1_linear_1_1062" x1="30.3076" y1="13.1683" x2="33.2904" y2="13.4541" gradientUnits="userSpaceOnUse">
<stop stop-color="#F27A60"/>
<stop offset="1" stop-color="#EBD2AC"/>
</linearGradient>
<linearGradient id="paint2_linear_1_1062" x1="14.9772" y1="31.5407" x2="15.5727" y2="31.5978" gradientUnits="userSpaceOnUse">
<stop stop-color="#F27A60"/>
<stop offset="1" stop-color="#EBD2AC"/>
</linearGradient>
<linearGradient id="paint3_linear_1_1062" x1="13.7861" y1="31.22" x2="14.3816" y2="31.2771" gradientUnits="userSpaceOnUse">
<stop stop-color="#F27A60"/>
<stop offset="1" stop-color="#EBD2AC"/>
</linearGradient>
<linearGradient id="paint4_linear_1_1062" x1="12.5967" y1="30.8107" x2="13.1922" y2="30.8678" gradientUnits="userSpaceOnUse">
<stop stop-color="#F27A60"/>
<stop offset="1" stop-color="#EBD2AC"/>
</linearGradient>
<linearGradient id="paint5_linear_1_1062" x1="37.1141" y1="30.8107" x2="37.7096" y2="30.8678" gradientUnits="userSpaceOnUse">
<stop stop-color="#F27A60"/>
<stop offset="1" stop-color="#EBD2AC"/>
</linearGradient>
<linearGradient id="paint6_linear_1_1062" x1="35.9229" y1="31.1305" x2="36.5184" y2="31.1876" gradientUnits="userSpaceOnUse">
<stop stop-color="#F27A60"/>
<stop offset="1" stop-color="#EBD2AC"/>
</linearGradient>
<linearGradient id="paint7_linear_1_1062" x1="34.7335" y1="31.5407" x2="35.329" y2="31.5978" gradientUnits="userSpaceOnUse">
<stop stop-color="#F27A60"/>
<stop offset="1" stop-color="#EBD2AC"/>
</linearGradient>
<linearGradient id="paint8_linear_1_1062" x1="9" y1="12.5165" x2="41.1136" y2="15.8084" gradientUnits="userSpaceOnUse">
<stop stop-color="#F27A60"/>
<stop offset="1" stop-color="#EBD2AC"/>
</linearGradient>
</defs>
</svg>
