<svg width="51" height="51" viewBox="0 0 51 51" fill="none" xmlns="http://www.w3.org/2000/svg">
<g id="icon">
<circle id="Ellipse 1401" cx="25.5" cy="25.5" r="25.5" fill="white"/>
<g id="ico" opacity="0.8">
<path id="Vector" d="M17.5967 13.7575H18.1072V11.1232C18.1072 10.8985 17.8349 10.7828 17.6716 10.9394C17.6239 10.987 17.5967 11.0483 17.5967 11.1232V13.7575ZM18.9717 13.7575H19.986V11.1232C19.986 10.5037 20.4897 10 21.1091 10C21.7286 10 22.2323 10.5037 22.2323 11.1232V13.7575H23.2465V11.1232C23.2465 10.5037 23.7503 10 24.3697 10C24.9892 10 25.4929 10.5037 25.4929 11.1232V13.7575H26.5071V11.1232C26.5071 10.5037 27.0108 10 27.6303 10C28.2497 10 28.7535 10.5037 28.7535 11.1232V13.7575H29.7677V11.1232C29.7677 10.5037 30.2714 10 30.8909 10C31.5103 10 32.014 10.5037 32.014 11.1232V13.7575H33.0283V11.1232C33.0283 10.5037 33.532 10 34.1515 10C34.7709 10 35.2746 10.5037 35.2746 11.1232V13.8051C36.8402 14.0502 38.12 15.2142 38.5284 16.7254H40.8768C41.4963 16.7254 42 17.2291 42 17.8485C42 18.468 41.4963 18.9717 40.8768 18.9717H38.6645V19.986H40.8768C41.4963 19.986 42 20.4897 42 21.1091C42 21.7286 41.4963 22.2323 40.8768 22.2323H38.6645V23.2465H40.8768C41.4963 23.2465 42 23.7503 42 24.3697C42 24.9892 41.4963 25.4929 40.8768 25.4929H38.6645V26.5071H40.8768C41.4963 26.5071 42 27.0108 42 27.6303C42 28.2497 41.4963 28.7535 40.8768 28.7535H38.6645V29.7677H40.8768C41.4963 29.7677 42 30.2714 42 30.8909C42 31.5103 41.4963 32.014 40.8768 32.014H38.6645V33.0283H40.8768C41.4963 33.0283 42 33.532 42 34.1515C42 34.7709 41.4963 35.2746 40.8768 35.2746H38.5284C38.1132 36.7926 36.8334 37.9498 35.2746 38.1949V40.8768C35.2746 41.4963 34.7709 42 34.1515 42C33.532 42 33.0283 41.4963 33.0283 40.8768V38.2425H32.014V40.8768C32.014 41.4963 31.5103 42 30.8909 42C30.2714 42 29.7677 41.4963 29.7677 40.8768V38.2425H28.7535V40.8768C28.7535 41.4963 28.2497 42 27.6303 42C27.0108 42 26.5071 41.4963 26.5071 40.8768V38.2425H25.4929V40.8768C25.4929 41.4963 24.9892 42 24.3697 42C23.7503 42 23.2465 41.4963 23.2465 40.8768V38.2425H22.2323V40.8768C22.2323 41.4963 21.7286 42 21.1091 42C20.4897 42 19.986 41.4963 19.986 40.8768V38.2425H18.9717V40.8768C18.9717 41.4963 18.468 42 17.8485 42C17.2291 42 16.7254 41.4963 16.7254 40.8768V38.1949C15.1598 37.9498 13.88 36.7858 13.4716 35.2746H11.1232C10.5037 35.2746 10 34.7709 10 34.1515C10 33.532 10.5037 33.0283 11.1232 33.0283H13.3355V32.014H11.1232C10.5037 32.014 10 31.5103 10 30.8909C10 30.2714 10.5037 29.7677 11.1232 29.7677H13.3355V28.7535H11.1232C10.5037 28.7535 10 28.2497 10 27.6303C10 27.0108 10.5037 26.5071 11.1232 26.5071H13.3355V25.4929H11.1232C10.5037 25.4929 10 24.9892 10 24.3697C10 23.7503 10.5037 23.2465 11.1232 23.2465H13.3355V22.2323H11.1232C10.5037 22.2323 10 21.7286 10 21.1091C10 20.4897 10.5037 19.986 11.1232 19.986H13.3355V18.9717H11.1232C10.5037 18.9717 10 18.468 10 17.8485C10 17.2291 10.5037 16.7254 11.1232 16.7254H13.4716C13.8868 15.2074 15.1666 14.0502 16.7254 13.8051V11.1232C16.7254 10.5037 17.2291 10 17.8485 10C18.468 10 18.9717 10.5037 18.9717 11.1232V13.7575ZM20.8505 13.7575H21.361V11.1232C21.361 10.8985 21.0887 10.7828 20.9253 10.9394C20.8777 10.987 20.8505 11.0483 20.8505 11.1232V13.7575ZM24.111 13.7575H24.6216V11.1232C24.6216 10.8985 24.3493 10.7828 24.1859 10.9394C24.1383 10.987 24.111 11.0483 24.111 11.1232V13.7575ZM27.3716 13.7575H27.8822V11.1232C27.8822 10.8985 27.6099 10.7828 27.4465 10.9394C27.3989 10.987 27.3716 11.0483 27.3716 11.1232V13.7575ZM30.6322 13.7575H31.1427V11.1232C31.1427 10.8985 30.8705 10.7828 30.7071 10.9394C30.6594 10.987 30.6322 11.0483 30.6322 11.1232V13.7575ZM33.8928 13.7575H34.4033V11.1232C34.4033 10.8985 34.131 10.7828 33.9677 10.9394C33.92 10.987 33.8928 11.0483 33.8928 11.1232V13.7575ZM38.6645 17.5967C38.6713 17.7601 38.6645 17.9438 38.6645 18.1072H40.8768C41.1015 18.1072 41.2172 17.8349 41.0538 17.6716C41.0062 17.6239 40.9449 17.5967 40.8768 17.5967H38.6645ZM38.6645 20.8573V21.3678H40.8768C41.1015 21.3678 41.2172 21.0955 41.0538 20.9321C41.0062 20.8845 40.9449 20.8573 40.8768 20.8573H38.6645ZM38.6645 24.1178V24.6284H40.8768C41.1015 24.6284 41.2172 24.3561 41.0538 24.1927C41.0062 24.1451 40.9449 24.1178 40.8768 24.1178H38.6645ZM38.6645 27.3784V27.889H40.8768C41.1015 27.889 41.2172 27.6167 41.0538 27.4533C41.0062 27.4057 40.9449 27.3784 40.8768 27.3784H38.6645ZM38.6645 30.639V31.1495H40.8768C41.1015 31.1495 41.2172 30.8773 41.0538 30.7139C41.0062 30.6662 40.9449 30.639 40.8768 30.639H38.6645ZM38.6645 33.8996C38.6645 34.063 38.6645 34.2468 38.6645 34.4101H40.8768C41.1015 34.4101 41.2172 34.1378 41.0538 33.9745C41.0062 33.9268 40.9449 33.8996 40.8768 33.8996H38.6645ZM34.4033 38.2493H33.8928V40.8836C33.8928 41.1083 34.1651 41.224 34.3284 41.0606C34.3761 41.013 34.4033 40.9517 34.4033 40.8836V38.2493ZM31.1427 38.2493H30.6322V40.8836C30.6322 41.1083 30.9045 41.224 31.0679 41.0606C31.1155 41.013 31.1427 40.9517 31.1427 40.8836V38.2493ZM27.8822 38.2493H27.3716V40.8836C27.3716 41.1083 27.6439 41.224 27.8073 41.0606C27.8549 41.013 27.8822 40.9517 27.8822 40.8836V38.2493ZM24.6216 38.2493H24.111V40.8836C24.111 41.1083 24.3833 41.224 24.5467 41.0606C24.5943 41.013 24.6216 40.9517 24.6216 40.8836V38.2493ZM21.361 38.2493H20.8505V40.8836C20.8505 41.1083 21.1227 41.224 21.2861 41.0606C21.3338 41.013 21.361 40.9517 21.361 40.8836V38.2493ZM18.1004 38.2493H17.5899V40.8836C17.5899 41.1083 17.8622 41.224 18.0255 41.0606C18.0732 41.013 18.1004 40.9517 18.1004 40.8836V38.2493ZM13.3287 34.4101C13.3218 34.2468 13.3287 34.063 13.3287 33.8996H11.1232C10.8985 33.8996 10.7828 34.1719 10.9394 34.3352C10.987 34.3829 11.0483 34.4101 11.1232 34.4101H13.3355H13.3287ZM13.3287 31.1495V30.639H11.1232C10.8985 30.639 10.7828 30.9113 10.9394 31.0747C10.987 31.1223 11.0483 31.1495 11.1232 31.1495H13.3355H13.3287ZM13.3287 27.889V27.3784H11.1232C10.8985 27.3784 10.7828 27.6507 10.9394 27.8141C10.987 27.8617 11.0483 27.889 11.1232 27.889H13.3355H13.3287ZM13.3287 24.6284V24.1178H11.1232C10.8985 24.1178 10.7828 24.3901 10.9394 24.5535C10.987 24.6011 11.0483 24.6284 11.1232 24.6284H13.3355H13.3287ZM13.3287 21.3678V20.8573H11.1232C10.8985 20.8573 10.7828 21.1295 10.9394 21.2929C10.987 21.3406 11.0483 21.3678 11.1232 21.3678H13.3355H13.3287ZM13.3287 18.1072C13.3287 17.9438 13.3287 17.7601 13.3287 17.5967H11.1232C10.8985 17.5967 10.7828 17.869 10.9394 18.0323C10.987 18.08 11.0483 18.1072 11.1232 18.1072H13.3355H13.3287ZM17.1883 14.6288C17.1883 14.6288 17.1815 14.6288 17.1746 14.6288C16.3782 14.6696 15.6567 15.0168 15.1189 15.5478C14.5267 16.14 14.1932 16.9364 14.1932 17.7737V34.2059C14.1932 35.9349 15.609 37.3644 17.3516 37.3644H34.6348C36.3774 37.3644 37.7864 35.9349 37.7864 34.2059V17.7805C37.7864 16.0515 36.3706 14.622 34.6348 14.622H17.3584C17.304 14.622 17.2495 14.622 17.1951 14.622L17.1883 14.6288ZM20.8913 29.3797C20.2923 29.2708 19.8907 28.699 19.9928 28.1C20.0949 27.4873 20.6667 27.0721 21.2793 27.1742C21.5788 27.2219 23.7298 27.7188 24.077 30.251C24.1587 30.8636 23.7367 31.4286 23.124 31.5103C22.5046 31.5988 21.9396 31.1632 21.8579 30.5437C21.715 29.5499 20.9934 29.3933 20.9253 29.3865H20.8913V29.3797ZM20.8913 28.4267C20.9253 28.4744 20.9866 28.522 21.0479 28.5288C21.0479 28.5288 21.0479 28.5288 21.0547 28.5288C21.1432 28.5424 22.4842 28.7943 22.7156 30.4348C22.7496 30.6594 23.0355 30.7343 23.1717 30.5573C23.2125 30.5029 23.2329 30.4348 23.2193 30.3667C22.9538 28.3995 21.327 28.0591 21.1568 28.0251C20.8845 27.9775 20.7688 28.2565 20.8913 28.4267ZM21.8579 30.5437C21.8307 30.3123 21.994 30.1013 22.2255 30.0672L21.8579 30.5437ZM30.9317 28.5288C30.9317 28.5288 30.9317 28.5288 30.9385 28.5288C31.0611 28.5084 31.1632 28.3791 31.1427 28.2361C31.1223 28.0932 30.9862 28.0047 30.85 28.0251C30.85 28.0251 30.8364 28.0251 30.8296 28.0251C30.6594 28.0591 29.0394 28.3995 28.7671 30.3667C28.7398 30.5914 28.9917 30.7411 29.1755 30.605C29.2436 30.5573 29.264 30.4961 29.2776 30.4212C29.509 28.7943 30.8636 28.5424 30.9317 28.5356V28.5288ZM31.803 28.9304C31.6397 29.1619 31.3674 29.3389 31.0679 29.3865C30.9862 29.4001 30.2714 29.5567 30.1353 30.5573C30.0536 31.17 29.4886 31.5988 28.876 31.5103C28.2633 31.4286 27.8345 30.8636 27.923 30.251C28.2702 27.7188 30.4212 27.2219 30.7207 27.1742C31.3333 27.0721 31.9051 27.4873 32.0072 28.1C32.0549 28.4063 31.98 28.699 31.8098 28.9372L31.803 28.9304ZM29.9447 21.8171C30.1693 21.7218 30.1421 21.4223 29.9447 21.3474C29.863 21.3133 29.8017 21.327 29.7201 21.361C29.5227 21.4495 28.0796 22.1778 28.2702 24.111C28.2906 24.3357 28.5765 24.4242 28.7194 24.2472C28.7603 24.1995 28.7807 24.1315 28.7739 24.0634C28.6105 22.4229 29.8494 21.8579 29.9379 21.8239L29.9447 21.8171ZM30.8841 22.0077C30.7752 22.2731 30.5641 22.4978 30.2782 22.6203C30.2714 22.6203 29.5363 22.9266 29.6384 23.9817C29.6996 24.5943 29.2504 25.1457 28.6377 25.207C28.0251 25.2682 27.4737 24.819 27.4125 24.2063C27.1606 21.7013 29.0666 20.7211 29.3729 20.5782C29.652 20.4352 29.9992 20.442 30.2714 20.5578C30.85 20.796 31.1223 21.4427 30.8841 22.0145V22.0077ZM21.715 22.6203C21.15 22.382 20.8777 21.7218 21.1159 21.15C21.3542 20.585 22.0145 20.3127 22.5863 20.5509C22.5999 20.5509 22.6135 20.5646 22.6271 20.5714C22.9402 20.7143 24.8394 21.6945 24.5875 24.1995C24.5263 24.8122 23.9749 25.2614 23.3623 25.2002C22.7496 25.1389 22.3004 24.5875 22.3616 23.9749C22.4637 22.9198 21.7286 22.6203 21.7218 22.6135L21.715 22.6203ZM21.9124 21.6809C21.9396 21.7422 21.9872 21.7898 22.0485 21.8171C22.137 21.8579 23.3759 22.4161 23.2125 24.0566C23.1921 24.2812 23.4508 24.4174 23.6277 24.2812C23.6754 24.2404 23.7094 24.1791 23.723 24.111C23.9136 22.171 22.4705 21.4495 22.2731 21.361C22.1914 21.327 22.1302 21.3133 22.0485 21.3474C21.9192 21.4018 21.8579 21.5516 21.9124 21.6809ZM28.9849 18.6722C28.9849 18.6722 28.9849 18.6314 28.9849 18.5769C28.9849 17.4333 28.2293 16.6981 27.2559 16.3782C26.4663 16.1127 25.5201 16.1127 24.7305 16.3782C23.6754 16.7322 22.913 17.5626 23.0083 18.7743C23.0083 18.7743 23.0083 18.822 23.0083 18.8492C22.9879 19.0874 22.7769 19.2576 22.5386 19.2372C20.8232 19.067 19.3189 20.408 19.3189 22.1438C19.3189 23.0287 19.7069 23.8388 20.3808 24.3969C20.5714 24.5535 20.5918 24.8462 20.4216 25.03C19.9043 25.5746 19.7069 26.3438 19.8907 27.0789C19.9315 27.2559 19.8634 27.4465 19.7069 27.5486C18.2842 28.4608 17.9983 30.4416 19.1283 31.7077C19.5707 32.1978 20.1834 32.5314 20.8709 32.6131C21.0411 32.6335 21.1908 32.7492 21.2385 32.9262C21.4767 33.7498 22.2867 34.2808 23.1444 34.1787C23.3146 34.1583 23.4848 34.2399 23.5733 34.4033C24.0702 35.3223 24.9892 35.8328 25.9966 35.8328C26.4595 35.8328 26.9224 35.7239 27.3308 35.4993C27.7596 35.2678 28.134 34.907 28.3995 34.4305C28.4744 34.2604 28.6514 34.1583 28.8419 34.1787C29.3048 34.2331 29.7541 34.1106 30.1149 33.8451C30.4076 33.6205 30.6322 33.3142 30.7479 32.9534C30.7888 32.7764 30.9317 32.6403 31.1223 32.6199C32.5042 32.4633 33.566 31.2925 33.566 29.8834C33.566 29.4001 33.4435 28.9509 33.2325 28.5629C33.0147 28.1612 32.7016 27.8277 32.3204 27.5758C32.1502 27.4805 32.0549 27.2831 32.1093 27.0925C32.2183 26.6501 32.191 26.1668 32.0208 25.7447C31.9187 25.4929 31.7758 25.2614 31.5852 25.064C31.5716 25.0504 31.5648 25.0436 31.5512 25.03C31.4014 24.8462 31.4218 24.5739 31.6056 24.4174C32.933 23.3214 33.0283 21.3201 31.8098 20.1017C31.2448 19.5367 30.4416 19.21 29.5975 19.2508C29.5295 19.2508 29.4274 19.2712 29.3729 19.2644C29.1347 19.244 28.9577 19.0398 28.9781 18.8015C28.9781 18.7539 28.9781 18.7198 28.9781 18.7062L28.9849 18.6722ZM29.8494 18.3523C31.8983 18.3999 33.5388 20.0813 33.5388 22.137C33.5388 23.124 33.1508 24.0634 32.4769 24.7645C32.9262 25.4044 33.1236 26.194 33.0011 26.9768C34.6756 28.2497 34.9207 30.6867 33.5116 32.2659C32.9943 32.8445 32.2863 33.2597 31.4899 33.4095C31.0815 34.3897 30.1081 35.05 29.0325 35.0296C28.3518 36.0779 27.2083 36.6701 25.9966 36.6701C24.7849 36.6701 23.6345 36.0847 22.9606 35.0296C21.8851 35.05 20.9049 34.3829 20.5033 33.4095C18.8083 33.0896 17.5626 31.5988 17.5626 29.8562C17.5626 28.7126 18.1004 27.6575 18.9921 26.9768C18.8764 26.194 19.067 25.4044 19.5231 24.7645C18.0936 23.2806 18.1072 20.9253 19.5707 19.4618C20.2378 18.7947 21.1432 18.3795 22.1506 18.3523C22.2799 16.2965 24.1859 15.3027 26.0034 15.3027C27.8209 15.3027 29.7269 16.2965 29.8562 18.3523H29.8494Z" fill="url(#paint0_linear_1_970)"/>
</g>
</g>
<defs>
<linearGradient id="paint0_linear_1_970" x1="42" y1="26" x2="10.0075" y2="25.5086" gradientUnits="userSpaceOnUse">
<stop stop-color="#409BC2"/>
<stop offset="1" stop-color="#ACD8EB"/>
</linearGradient>
</defs>
</svg>
