<svg width="51" height="51" viewBox="0 0 51 51" fill="none" xmlns="http://www.w3.org/2000/svg">
<g id="icon">
<circle id="Ellipse 1401" cx="25.5" cy="25.5" r="25.5" fill="white"/>
<path id="Vector" fill-rule="evenodd" clip-rule="evenodd" d="M18.2774 12.0001C16.9484 12.0001 15.8637 13.0848 15.8637 14.4139V16.0678C13.6389 16.7007 12 18.7466 12 21.1705C12 23.5945 13.6389 25.6442 15.8637 26.2781V35.1724H13.4501C12.656 35.1724 12.0019 35.8266 12.0019 36.6207V37.5862C12.0019 38.9152 13.0866 40 14.4156 40H33.7246C35.0535 40 36.1382 38.9152 36.1382 37.5862V35.6552C36.1479 35.0025 35.1631 35.0025 35.1727 35.6552V37.5862C35.1727 38.3972 34.5355 39.0345 33.7246 39.0345C32.9136 39.0345 32.2764 38.3972 32.2764 37.5862V36.6207C32.2764 35.8266 31.6223 35.1724 30.8282 35.1724H16.8292V26.4601C16.989 26.4746 17.1502 26.4842 17.3138 26.4842C20.2406 26.4842 22.6229 24.0975 22.6229 21.1705C22.6229 18.2436 20.2406 15.8612 17.3138 15.8612C17.1502 15.8612 16.989 15.8708 16.8292 15.8853V14.4139C16.8292 13.6028 17.4664 12.9656 18.2774 12.9656H29.8628C30.5154 12.9748 30.5154 11.9914 29.8628 12.0001H18.2774ZM31.7937 12.0001C31.141 11.9909 31.141 12.9743 31.7937 12.9656H35.6685C35.3488 13.3809 35.1746 13.8898 35.1727 14.4139V33.7242C35.1631 34.3768 36.1479 34.3768 36.1382 33.7242V22.6207H38.5518C39.3459 22.6207 40 21.9666 40 21.1725V14.4139C40 13.0848 38.9153 12.0001 37.5864 12.0001H31.7937ZM37.5864 12.9656C38.3974 12.9656 39.0345 13.6028 39.0345 14.4139V21.1725C39.0345 21.4481 38.8275 21.6552 38.5518 21.6552H36.1382V14.4139C36.1382 13.6028 36.7754 12.9656 37.5864 12.9656ZM24.0701 15.8612C23.942 15.8612 23.8193 15.912 23.7287 16.0026C23.6382 16.0931 23.5873 16.2159 23.5873 16.3439C23.5873 16.472 23.6382 16.5947 23.7287 16.6853C23.8193 16.7758 23.942 16.8267 24.0701 16.8267H31.7956C31.9236 16.8267 32.0464 16.7758 32.1369 16.6853C32.2275 16.5947 32.2783 16.472 32.2783 16.3439C32.2783 16.2159 32.2275 16.0931 32.1369 16.0026C32.0464 15.912 31.9236 15.8612 31.7956 15.8612H24.0701ZM17.3138 16.8267C17.8845 16.8257 18.4498 16.9373 18.9773 17.1553C19.5047 17.3732 19.9839 17.6931 20.3875 18.0967C20.791 18.5003 21.1109 18.9795 21.3288 19.507C21.5468 20.0345 21.6584 20.5998 21.6574 21.1705C21.6585 21.7415 21.547 22.307 21.3292 22.8348C21.1113 23.3625 20.7915 23.8421 20.388 24.246C19.9845 24.6499 19.5052 24.9702 18.9777 25.1885C18.4502 25.4068 17.8847 25.5189 17.3138 25.5182C16.7427 25.5189 16.1771 25.407 15.6493 25.1887C15.1216 24.9705 14.642 24.6502 14.2382 24.2464C13.8344 23.8425 13.5142 23.363 13.2959 22.8351C13.0777 22.3073 12.9657 21.7417 12.9664 21.1705C12.9658 20.5996 13.0778 20.0341 13.2961 19.5066C13.5144 18.979 13.8347 18.4997 14.2386 18.0962C14.6424 17.6926 15.122 17.3728 15.6497 17.1549C16.1774 16.9371 16.7429 16.8255 17.3138 16.8267ZM24.0701 17.7922C24.0066 17.7922 23.9438 17.8047 23.8851 17.829C23.8265 17.8533 23.7733 17.8889 23.7284 17.9337C23.6835 17.9786 23.6479 18.0319 23.6236 18.0905C23.5994 18.1491 23.5869 18.212 23.5869 18.2754C23.5869 18.3389 23.5994 18.4017 23.6236 18.4604C23.6479 18.519 23.6835 18.5723 23.7284 18.6171C23.7733 18.662 23.8265 18.6976 23.8851 18.7219C23.9438 18.7462 24.0066 18.7587 24.0701 18.7587H31.7956C31.8591 18.7587 31.9219 18.7462 31.9805 18.7219C32.0391 18.6976 32.0924 18.662 32.1373 18.6171C32.1822 18.5723 32.2177 18.519 32.242 18.4604C32.2663 18.4017 32.2788 18.3389 32.2788 18.2754C32.2788 18.212 32.2663 18.1491 32.242 18.0905C32.2177 18.0319 32.1822 17.9786 32.1373 17.9337C32.0924 17.8889 32.0391 17.8533 31.9805 17.829C31.9219 17.8047 31.8591 17.7922 31.7956 17.7922H24.0701ZM17.3052 17.7932C17.2885 17.7936 17.2719 17.7949 17.2554 17.797C17.1361 17.8106 17.0261 17.8681 16.9469 17.9585C16.8677 18.0488 16.825 18.1655 16.8273 18.2856V18.7664H16.3465C15.5524 18.7664 14.9002 19.4229 14.9002 20.2171C14.9017 20.6002 15.0546 20.9673 15.3255 21.2383C15.5963 21.5093 15.9633 21.6623 16.3465 21.6639H16.8273V22.6294H16.3465C16.2828 22.6312 16.2195 22.6199 16.1603 22.5963C16.1012 22.5727 16.0475 22.5373 16.0025 22.4923C15.9575 22.4472 15.9221 22.3935 15.8986 22.3343C15.8751 22.2751 15.8639 22.2118 15.8657 22.1481C15.8657 22.0201 15.8148 21.8973 15.7243 21.8067C15.6337 21.7162 15.511 21.6654 15.3829 21.6654C15.2549 21.6654 15.1321 21.7162 15.0416 21.8067C14.9511 21.8973 14.9002 22.0201 14.9002 22.1481C14.9016 22.5314 15.0544 22.8986 15.3253 23.1698C15.5961 23.441 15.9632 23.5941 16.3465 23.5959H16.8273V24.0801C16.8273 24.2081 16.8781 24.3309 16.9686 24.4215C17.0592 24.512 17.182 24.5629 17.31 24.5629C17.438 24.5629 17.5608 24.512 17.6513 24.4215C17.7418 24.3309 17.7927 24.2081 17.7927 24.0801V23.5959H18.2783C18.6616 23.5941 19.0286 23.441 19.2995 23.1698C19.5704 22.8986 19.7232 22.5314 19.7246 22.1481C19.7246 21.3545 19.0724 20.6984 18.2783 20.6984H17.7927V19.7329H18.2783C18.554 19.7329 18.7591 19.9414 18.7591 20.2171C18.7591 20.3451 18.81 20.4679 18.9005 20.5584C18.991 20.649 19.1138 20.6998 19.2418 20.6998C19.3699 20.6998 19.4927 20.649 19.5832 20.5584C19.6737 20.4679 19.7246 20.3451 19.7246 20.2171C19.7246 19.4234 19.0724 18.7664 18.2783 18.7664H17.7927V18.2856C17.7939 18.221 17.7821 18.1569 17.758 18.097C17.734 18.0371 17.6982 17.9827 17.6527 17.9368C17.6073 17.891 17.5531 17.8548 17.4934 17.8303C17.4337 17.8058 17.3697 17.7935 17.3052 17.7941V17.7932ZM24.0701 19.7242C23.942 19.7242 23.8193 19.775 23.7287 19.8656C23.6382 19.9561 23.5873 20.0789 23.5873 20.2069C23.5873 20.335 23.6382 20.4578 23.7287 20.5483C23.8193 20.6388 23.942 20.6897 24.0701 20.6897H26.001C26.129 20.6897 26.2518 20.6388 26.3423 20.5483C26.4328 20.4578 26.4837 20.335 26.4837 20.2069C26.4837 20.0789 26.4328 19.9561 26.3423 19.8656C26.2518 19.775 26.129 19.7242 26.001 19.7242H24.0701ZM27.9319 19.7242C27.8038 19.7242 27.6811 19.775 27.5905 19.8656C27.5 19.9561 27.4491 20.0789 27.4491 20.2069C27.4491 20.335 27.5 20.4578 27.5905 20.5483C27.6811 20.6388 27.8038 20.6897 27.9319 20.6897C28.0599 20.6897 28.1827 20.6388 28.2732 20.5483C28.3637 20.4578 28.4146 20.335 28.4146 20.2069C28.4146 20.0789 28.3637 19.9561 28.2732 19.8656C28.1827 19.775 28.0599 19.7242 27.9319 19.7242ZM16.3465 19.7319H16.8273V20.6974H16.3465C16.2828 20.6992 16.2196 20.6879 16.1604 20.6643C16.1013 20.6408 16.0476 20.6054 16.0026 20.5604C15.9576 20.5154 15.9223 20.4617 15.8987 20.4026C15.8752 20.3435 15.8639 20.2802 15.8657 20.2166C15.8657 19.9405 16.0708 19.7319 16.3465 19.7319ZM29.8135 21.6552C29.6854 21.6619 29.5651 21.7192 29.4792 21.8145C29.3933 21.9098 29.3488 22.0354 29.3554 22.1636C29.3621 22.2917 29.4194 22.412 29.5147 22.4979C29.61 22.5838 29.7356 22.6284 29.8637 22.6217H30.6293L26.001 27.2475L24.4123 25.6578C24.3675 25.6127 24.3141 25.5769 24.2554 25.5524C24.1967 25.528 24.1337 25.5154 24.0701 25.5154C24.0065 25.5154 23.9435 25.528 23.8847 25.5524C23.826 25.5769 23.7727 25.6127 23.7278 25.6578L19.8689 29.5208C19.3828 29.9746 20.0934 30.6891 20.5495 30.2053L24.0701 26.6836L25.6587 28.2733C25.7036 28.3184 25.7569 28.3542 25.8156 28.3787C25.8744 28.4031 25.9374 28.4156 26.001 28.4156C26.0646 28.4156 26.1276 28.4031 26.1863 28.3787C26.245 28.3542 26.2984 28.3184 26.3432 28.2733L31.3109 23.3024V24.068C31.3109 24.1961 31.3618 24.3189 31.4523 24.4094C31.5429 24.4999 31.6656 24.5508 31.7937 24.5508C31.9217 24.5508 32.0445 24.4999 32.135 24.4094C32.2255 24.3189 32.2764 24.1961 32.2764 24.068V22.137C32.2761 22.0095 32.2254 21.8872 32.1354 21.7969C32.0453 21.7067 31.9231 21.6557 31.7956 21.6552H29.8637C29.847 21.6543 29.8303 21.6543 29.8135 21.6552ZM17.7927 21.6629H18.2783C18.554 21.6629 18.7591 21.8715 18.7591 22.1476C18.7608 22.2112 18.7496 22.2745 18.726 22.3337C18.7025 22.3928 18.6671 22.4465 18.6221 22.4915C18.5772 22.5365 18.5235 22.5718 18.4643 22.5954C18.4052 22.6189 18.3419 22.6302 18.2783 22.6285H17.7927V21.6629ZM31.784 25.5115C31.6567 25.514 31.5355 25.5668 31.4469 25.6583C31.3582 25.7498 31.3094 25.8727 31.3109 26V31.7941C31.3109 31.9221 31.3618 32.0449 31.4523 32.1354C31.5429 32.226 31.6656 32.2768 31.7937 32.2768C31.9217 32.2768 32.0445 32.226 32.135 32.1354C32.2255 32.0449 32.2764 31.9221 32.2764 31.7941V26C32.2772 25.9353 32.265 25.8711 32.2404 25.8112C32.2159 25.7514 32.1796 25.697 32.1337 25.6514C32.0878 25.6059 32.0331 25.57 31.9731 25.5459C31.913 25.5219 31.8487 25.5102 31.784 25.5115ZM29.857 26.477C29.7935 26.4776 29.7308 26.4908 29.6724 26.5157C29.614 26.5406 29.5611 26.5768 29.5167 26.6221C29.4723 26.6675 29.4373 26.7212 29.4137 26.7801C29.3901 26.8391 29.3783 26.9021 29.3791 26.9655V31.7941C29.3791 31.9221 29.4299 32.0449 29.5205 32.1354C29.611 32.226 29.7338 32.2768 29.8618 32.2768C29.9898 32.2768 30.1126 32.226 30.2031 32.1354C30.2937 32.0449 30.3445 31.9221 30.3445 31.7941V26.9655C30.3453 26.9013 30.3332 26.8375 30.309 26.7779C30.2848 26.7183 30.2489 26.6642 30.2035 26.6187C30.1581 26.5732 30.104 26.5372 30.0445 26.5129C29.985 26.4885 29.9213 26.4763 29.857 26.477ZM24.0623 28.4051C23.9345 28.4077 23.8128 28.4608 23.7241 28.553C23.6355 28.6451 23.5869 28.7687 23.5893 28.8966V31.7941C23.5893 31.9221 23.6401 32.0449 23.7307 32.1354C23.8212 32.226 23.944 32.2768 24.072 32.2768C24.2 32.2768 24.3228 32.226 24.4133 32.1354C24.5039 32.0449 24.5547 31.9221 24.5547 31.7941V28.8966C24.5559 28.8316 24.544 28.7671 24.5196 28.7069C24.4953 28.6467 24.4591 28.592 24.4131 28.5461C24.3671 28.5002 24.3123 28.4641 24.2521 28.4398C24.1918 28.4156 24.1273 28.4038 24.0623 28.4051ZM27.9251 28.4051C27.8615 28.4059 27.7986 28.4192 27.7401 28.4444C27.6817 28.4695 27.6287 28.506 27.5844 28.5516C27.5401 28.5973 27.5052 28.6513 27.4819 28.7105C27.4585 28.7697 27.447 28.8329 27.4482 28.8966V31.7941C27.4482 31.9221 27.499 32.0449 27.5896 32.1354C27.6801 32.226 27.8029 32.2768 27.9309 32.2768C28.0589 32.2768 28.1817 32.226 28.2722 32.1354C28.3628 32.0449 28.4136 31.9221 28.4136 31.7941V28.8966C28.4148 28.832 28.403 28.7678 28.3789 28.7078C28.3548 28.6478 28.3189 28.5933 28.2733 28.5475C28.2278 28.5017 28.1735 28.4655 28.1137 28.441C28.0538 28.4165 27.9897 28.4043 27.9251 28.4051ZM25.9942 29.3706C25.9304 29.3713 25.8674 29.3845 25.8087 29.4097C25.7501 29.4348 25.697 29.4714 25.6525 29.5172C25.6081 29.5629 25.5732 29.6171 25.5498 29.6765C25.5264 29.7358 25.515 29.7993 25.5163 29.8631V31.7941C25.5163 31.8575 25.5288 31.9203 25.5531 31.9788C25.5773 32.0374 25.6129 32.0906 25.6577 32.1354C25.7025 32.1803 25.7557 32.2158 25.8143 32.2401C25.8729 32.2644 25.9356 32.2768 25.999 32.2768C26.0624 32.2768 26.1252 32.2644 26.1838 32.2401C26.2423 32.2158 26.2955 32.1803 26.3404 32.1354C26.3852 32.0906 26.4208 32.0374 26.445 31.9788C26.4693 31.9203 26.4818 31.8575 26.4818 31.7941V29.8631C26.4831 29.7984 26.4714 29.7342 26.4474 29.6742C26.4234 29.6142 26.3876 29.5596 26.3421 29.5137C26.2967 29.4678 26.2425 29.4315 26.1827 29.4069C26.1229 29.3823 26.0588 29.37 25.9942 29.3706ZM22.1314 30.3362C22.068 30.3373 22.0053 30.3509 21.9471 30.3763C21.8889 30.4017 21.8363 30.4383 21.7923 30.484C21.7482 30.5298 21.7137 30.5837 21.6905 30.6429C21.6674 30.702 21.6561 30.7651 21.6574 30.8286V31.7941C21.6574 31.9221 21.7083 32.0449 21.7988 32.1354C21.8893 32.226 22.0121 32.2768 22.1401 32.2768C22.2682 32.2768 22.3909 32.226 22.4815 32.1354C22.572 32.0449 22.6229 31.9221 22.6229 31.7941V30.8286C22.6242 30.7636 22.6124 30.6991 22.5881 30.6388C22.5639 30.5786 22.5278 30.5238 22.4819 30.4778C22.436 30.4318 22.3813 30.3956 22.3211 30.3713C22.2609 30.3469 22.1964 30.335 22.1314 30.3362ZM20.2083 31.3104C20.0802 31.3104 19.9575 31.3612 19.8669 31.4518C19.7764 31.5423 19.7255 31.6651 19.7255 31.7931C19.7255 31.9212 19.7764 32.0439 19.8669 32.1345C19.9575 32.225 20.0802 32.2759 20.2083 32.2759C20.3363 32.2759 20.4591 32.225 20.5496 32.1345C20.6401 32.0439 20.691 31.9212 20.691 31.7931C20.691 31.6651 20.6401 31.5423 20.5496 31.4518C20.4591 31.3612 20.3363 31.3104 20.2083 31.3104ZM13.4501 36.1379H30.8282C31.1039 36.1379 31.3109 36.345 31.3109 36.6207V37.5862C31.3109 38.1317 31.4997 38.6295 31.8067 39.0345H14.4156C13.6046 39.0345 12.9674 38.3972 12.9674 37.5862V36.6207C12.9674 36.345 13.1745 36.1379 13.4501 36.1379Z" fill="url(#paint0_linear_1_1084)"/>
</g>
<defs>
<linearGradient id="paint0_linear_1_1084" x1="43.8738" y1="42.4545" x2="7.67334" y2="38.8287" gradientUnits="userSpaceOnUse">
<stop stop-color="#F26083"/>
<stop offset="1" stop-color="#EFB2D7"/>
</linearGradient>
</defs>
</svg>
