<svg width="51" height="51" viewBox="0 0 51 51" fill="none" xmlns="http://www.w3.org/2000/svg">
<g id="icon">
<circle id="Ellipse 1401" cx="25.5" cy="25.5" r="25.5" fill="white"/>
<g id="ico">
<path id="Vector" d="M26.1613 26.5806C26.1613 23.2339 23.9758 20.3871 20.9677 19.3871C22.0323 18.621 22.6613 17.3952 22.6694 16.0806C22.6694 13.8306 20.8387 12 18.5887 12C16.3387 12 14.5081 13.8306 14.5081 16.0806C14.5081 17.3952 15.1371 18.621 16.2097 19.3871C13.1855 20.3952 11 23.2339 11 26.5806V27.1613H26.1613V26.5806ZM15.6694 16.0806C15.6694 14.4758 16.9758 13.1613 18.5887 13.1613C20.2016 13.1613 21.5081 14.4677 21.5081 16.0806C21.5081 17.6935 20.2016 19 18.5887 19C16.9758 19 15.6694 17.6935 15.6694 16.0806ZM12.1935 26C12.4919 22.7339 15.2419 20.1694 18.5806 20.1694C21.9194 20.1694 24.6774 22.7339 24.9677 26H12.1935ZM33.7984 32.2258C34.8629 31.4597 35.4919 30.2339 35.5 28.9194C35.5 26.6694 33.6694 24.8387 31.4194 24.8387C29.1694 24.8387 27.3387 26.6694 27.3387 28.9194C27.3387 30.2339 27.9677 31.4597 29.0403 32.2258C26.0242 33.2258 23.8468 36.0726 23.8468 39.4194V40H39.0081V39.4194C39.0081 36.0726 36.8226 33.2258 33.8145 32.2258H33.7984ZM28.5 28.9194C28.5 27.3145 29.8065 26 31.4194 26C33.0323 26 34.3387 27.3064 34.3387 28.9194C34.3387 30.5323 33.0323 31.8387 31.4194 31.8387C29.8065 31.8387 28.5 30.5323 28.5 28.9194ZM25.0242 38.8387C25.3226 35.5726 28.0726 33.0081 31.4113 33.0081C34.75 33.0081 37.5081 35.5726 37.7984 38.8387H25.0161H25.0242ZM32 22.5081V15.5H26.9919L28.9113 13.5806L28.0887 12.7581L24.7581 16.0887L28.0887 19.4194L28.9113 18.5968L26.9919 16.6774H30.8306V22.5081H32ZM17.5887 33.4194L19.5081 35.3387H15.6694V29.5081H14.5V36.5081H19.5081L17.5887 38.4274L18.4113 39.25L21.7419 35.9194L18.4113 32.5887L17.5887 33.4113V33.4194Z" fill="url(#paint0_linear_1_1032)"/>
</g>
</g>
<defs>
<linearGradient id="paint0_linear_1_1032" x1="11" y1="14.3333" x2="38.876" y2="17.0049" gradientUnits="userSpaceOnUse">
<stop stop-color="#F27A60"/>
<stop offset="1" stop-color="#EBD2AC"/>
</linearGradient>
</defs>
</svg>
