<svg width="51" height="51" viewBox="0 0 51 51" fill="none" xmlns="http://www.w3.org/2000/svg">
<g id="icon">
<circle id="Ellipse 1401" cx="25.5" cy="25.5" r="25.5" fill="white"/>
<g id="Layer_1">
<path id="Vector" d="M26.0155 14.0382V13H24.9773V14.0382H13V15.0763H14.0382V28.6109H13V29.6491H23.1381L19.7673 37.352V37.98H20.8054V37.5699L24.2724 29.6491H24.9709V37.98H26.0091V29.6491H26.7076L30.1745 37.5699V37.98H31.2127V37.352L27.8419 29.6491H37.98V28.6109H36.9418V15.0827H37.98V14.0446H26.0027L26.0155 14.0382ZM35.9101 28.6173H15.0827V15.0827H35.9101V28.6173Z" fill="url(#paint0_linear_1_1053)"/>
<path id="Vector_2" d="M20.8115 27.0605C23.1057 27.0605 24.977 25.1893 24.977 22.8951V22.376H21.3306V18.7296H20.8115C18.5173 18.7296 16.6461 20.6009 16.6461 22.8951C16.6461 25.1893 18.5173 27.0605 20.8115 27.0605ZM20.2924 19.8126V23.4141H23.8939C23.6376 24.9137 22.3367 26.016 20.8115 26.016C19.0877 26.016 17.6842 24.6125 17.6842 22.8951C17.6842 21.3699 18.7865 20.069 20.286 19.8126H20.2924Z" fill="url(#paint1_linear_1_1053)"/>
<path id="Vector_3" d="M27.0602 20.8124C27.0602 18.5182 25.189 16.647 22.8948 16.647H22.3757V21.3315H27.0602V20.8124ZM23.4138 20.2933V17.73C24.7212 17.9543 25.7529 18.9796 25.9772 20.2933H23.4138ZM28.6175 17.6915H33.8211V18.7297H28.6175V17.6915ZM28.6175 20.2933H33.8211V21.3315H28.6175V20.2933ZM28.6175 22.8952H33.8211V23.9333H28.6175V22.8952Z" fill="url(#paint2_linear_1_1053)"/>
</g>
</g>
<defs>
<linearGradient id="paint0_linear_1_1053" x1="13" y1="15.0817" x2="37.8623" y2="17.4637" gradientUnits="userSpaceOnUse">
<stop stop-color="#F27A60"/>
<stop offset="1" stop-color="#EBD2AC"/>
</linearGradient>
<linearGradient id="paint1_linear_1_1053" x1="16.6461" y1="19.4239" x2="24.9377" y2="20.2183" gradientUnits="userSpaceOnUse">
<stop stop-color="#F27A60"/>
<stop offset="1" stop-color="#EBD2AC"/>
</linearGradient>
<linearGradient id="paint2_linear_1_1053" x1="22.3757" y1="17.2542" x2="33.6171" y2="18.946" gradientUnits="userSpaceOnUse">
<stop stop-color="#F27A60"/>
<stop offset="1" stop-color="#EBD2AC"/>
</linearGradient>
</defs>
</svg>
