<svg width="51" height="51" viewBox="0 0 51 51" fill="none" xmlns="http://www.w3.org/2000/svg">
<g id="icon">
<circle id="Ellipse 1401" cx="25.5" cy="25.5" r="25.5" fill="white"/>
<g id="ico">
<path id="Vector" d="M20.6083 28.625H21.6727V30.1875C21.6727 30.475 21.9005 30.7111 22.1839 30.7083C22.4646 30.7083 22.6924 30.475 22.6924 30.1875V28.625H27.7772V30.1875C27.7772 30.475 28.0023 30.7083 28.283 30.7083C28.5663 30.7111 28.7941 30.475 28.7941 30.1875V28.625H29.864L30.7671 36.9556H19.7025L20.6083 28.625ZM25.2348 23.4167C26.6463 23.4167 27.7772 24.5778 27.7772 26.0236V27.5833H22.6924V26.0236C22.6924 24.5778 23.8259 23.4167 25.2348 23.4167ZM12.017 18.2111H38.4553V32.7917H31.3393L30.8254 28.0472C30.7962 27.784 30.5793 27.5833 30.3196 27.5833H28.7941V26.0236C28.7941 24.016 27.1948 22.375 25.2348 22.375C23.2748 22.375 21.6727 24.016 21.6727 26.0236V27.5833H20.15C19.8903 27.5833 19.6706 27.784 19.6442 28.0472L19.1276 32.7917H12.017V18.2111ZM12.017 14.0417H38.4553V17.1667H12.017V14.0417ZM11.5058 13C11.2278 13 11 13.2333 11 13.5181C11 20.1153 11 26.7153 11 33.3125C10.9973 33.6 11.2251 33.8333 11.5058 33.8361H19.0164L18.6272 37.4222C18.5927 37.7312 18.8313 38 19.133 38H31.3366C31.6383 38 31.8742 37.7312 31.8423 37.4222L31.4532 33.8361H38.9638C39.2444 33.8361 39.475 33.6 39.4722 33.3125C39.4722 26.7153 39.4722 20.1153 39.4722 13.5181C39.4722 13.2306 39.2444 13 38.9638 13H11.5058Z" fill="url(#paint0_linear_1_988)"/>
<path id="Vector_2" d="M17.6073 15.0827C17.3266 15.0827 17.0988 15.316 17.0988 15.6035C17.0961 15.891 17.3266 16.1271 17.6073 16.1244C17.8907 16.1244 18.1158 15.891 18.1158 15.6035C18.1131 15.316 17.888 15.0855 17.6073 15.0827Z" fill="url(#paint1_linear_1_988)"/>
<path id="Vector_3" d="M15.5734 15.0827C15.2928 15.0827 15.065 15.316 15.065 15.6035C15.0623 15.891 15.2928 16.1271 15.5734 16.1244C15.8541 16.1244 16.0819 15.891 16.0819 15.6035C16.0792 15.316 15.8541 15.0855 15.5734 15.0827Z" fill="url(#paint2_linear_1_988)"/>
<path id="Vector_4" d="M13.5394 15.0827C13.2588 15.0827 13.031 15.316 13.0282 15.6035C13.0282 15.891 13.256 16.1271 13.5394 16.1244C13.8201 16.1244 14.0479 15.891 14.0452 15.6035C14.0452 15.316 13.8201 15.0855 13.5394 15.0827Z" fill="url(#paint3_linear_1_988)"/>
</g>
</g>
<defs>
<linearGradient id="paint0_linear_1_988" x1="11" y1="15.0833" x2="39.2618" y2="18.1671" gradientUnits="userSpaceOnUse">
<stop stop-color="#6060F2"/>
<stop offset="1" stop-color="#B0ACEB"/>
</linearGradient>
<linearGradient id="paint1_linear_1_988" x1="17.0988" y1="15.1695" x2="18.1114" y2="15.2642" gradientUnits="userSpaceOnUse">
<stop stop-color="#6060F2"/>
<stop offset="1" stop-color="#B0ACEB"/>
</linearGradient>
<linearGradient id="paint2_linear_1_988" x1="15.0649" y1="15.1695" x2="16.0776" y2="15.2642" gradientUnits="userSpaceOnUse">
<stop stop-color="#6060F2"/>
<stop offset="1" stop-color="#B0ACEB"/>
</linearGradient>
<linearGradient id="paint3_linear_1_988" x1="13.0282" y1="15.1695" x2="14.0409" y2="15.2642" gradientUnits="userSpaceOnUse">
<stop stop-color="#6060F2"/>
<stop offset="1" stop-color="#B0ACEB"/>
</linearGradient>
</defs>
</svg>
