<svg width="51" height="51" viewBox="0 0 51 51" fill="none" xmlns="http://www.w3.org/2000/svg">
<g id="icon">
<circle id="Ellipse 1401" cx="25.5" cy="25.5" r="25.5" fill="white"/>
<g id="ico">
<path id="Vector" d="M16.9519 38.2388C16.5583 38.2388 16.2959 37.9765 16.2959 37.5829V23.5451C16.2959 23.1515 16.5583 22.8891 16.9519 22.8891C17.3455 22.8891 17.6078 23.1515 17.6078 23.5451V37.5829C17.6078 37.9765 17.2799 38.2388 16.9519 38.2388ZM17.6078 15.6734V12.656C17.6078 12.2624 17.2799 12 16.9519 12C16.5583 12 16.2959 12.2624 16.2959 12.656V15.6734C14.984 16.0014 14 17.1822 14 18.5597C14 20.1996 15.3119 21.5116 16.9519 21.5116C18.5918 21.5116 19.9037 20.1996 19.9037 18.5597C19.9037 17.1822 18.9198 16.0014 17.6078 15.6734ZM16.9519 20.1996C16.0335 20.1996 15.3119 19.4781 15.3119 18.5597C15.3119 17.6414 16.0335 16.9198 16.9519 16.9198C17.8702 16.9198 18.5918 17.6414 18.5918 18.5597C18.5918 19.4781 17.8702 20.1996 16.9519 20.1996ZM34.6631 18.9533V12.656C34.6631 12.2624 34.3351 12 34.0071 12C33.6135 12 33.3511 12.2624 33.3511 12.656V18.9533C32.0392 19.2813 31.0552 20.462 31.0552 21.8396C31.0552 23.4795 32.3672 24.7914 34.0071 24.7914C35.647 24.7914 36.959 23.4795 36.959 21.8396C36.959 20.462 35.975 19.2813 34.6631 18.9533ZM34.0071 23.4795C33.0888 23.4795 32.3672 22.7579 32.3672 21.8396C32.3672 20.9212 33.0888 20.1996 34.0071 20.1996C34.9255 20.1996 35.647 20.9212 35.647 21.8396C35.647 22.7579 34.9255 23.4795 34.0071 23.4795ZM34.0071 38.2388C33.6135 38.2388 33.3511 37.9765 33.3511 37.5829V26.8905C33.3511 26.497 33.6135 26.2346 34.0071 26.2346C34.4007 26.2346 34.6631 26.497 34.6631 26.8905V37.5829C34.6631 37.9765 34.3351 38.2388 34.0071 38.2388ZM25.4795 28.7273C23.8396 28.7273 22.5276 30.0392 22.5276 31.6791C22.5276 33.0567 23.5116 34.2374 24.8235 34.5654V37.5829C24.8235 37.9765 25.0859 38.2388 25.4795 38.2388C25.8075 38.2388 26.1355 37.9765 26.1355 37.5829V34.5654C27.4474 34.2374 28.4314 33.0567 28.4314 31.6791C28.4314 30.0392 27.1194 28.7273 25.4795 28.7273ZM25.4795 33.3191C24.5611 33.3191 23.8396 32.5975 23.8396 31.6791C23.8396 30.7608 24.5611 30.0392 25.4795 30.0392C26.3979 30.0392 27.1194 30.7608 27.1194 31.6791C27.1194 32.5975 26.3979 33.3191 25.4795 33.3191ZM25.4795 27.5465C25.0859 27.5465 24.8235 27.2841 24.8235 26.8905V12.656C24.8235 12.2624 25.0859 12 25.4795 12C25.8731 12 26.1355 12.2624 26.1355 12.656V26.8905C26.1355 27.2185 25.8075 27.5465 25.4795 27.5465Z" fill="url(#paint0_linear_1_1046)"/>
</g>
</g>
<defs>
<linearGradient id="paint0_linear_1_1046" x1="14" y1="14.1866" x2="36.8996" y2="16.1063" gradientUnits="userSpaceOnUse">
<stop stop-color="#F27A60"/>
<stop offset="1" stop-color="#EBD2AC"/>
</linearGradient>
</defs>
</svg>
