<svg width="51" height="51" viewBox="0 0 51 51" fill="none" xmlns="http://www.w3.org/2000/svg">
<g id="icon">
<circle id="Ellipse 1401" cx="25.5" cy="25.5" r="25.5" fill="white"/>
<g id="ico">
<path id="Vector" d="M25.4717 11C23.8762 11 22.5708 12.3054 22.5708 13.9009C22.5733 14.5847 22.8172 15.2455 23.2595 15.7669C23.7018 16.2883 24.314 16.6367 24.9882 16.7506V25.5066H21.6038V23.5969L19.1863 23.5591V21.5865C19.8606 21.4725 20.473 21.124 20.9153 20.6024C21.3577 20.0808 21.6015 19.4197 21.6038 18.7358C21.6038 17.1403 20.2983 15.8349 18.7028 15.8349C17.1073 15.8349 15.8019 17.1403 15.8019 18.7358C15.8044 19.4196 16.0483 20.0804 16.4906 20.6018C16.9329 21.1232 17.5452 21.4716 18.2193 21.5855V24.5116L20.6368 24.5493V25.5066H18.2193C18.0911 25.5066 17.9681 25.5576 17.8775 25.6483C17.7868 25.7389 17.7358 25.8619 17.7358 25.9901V30.3396H13.3844V26.4204C14.0586 26.3065 14.6708 25.9581 15.1131 25.4367C15.5554 24.9153 15.7994 24.2545 15.8019 23.5708C15.8019 21.9752 14.4965 20.6698 12.9009 20.6698C11.3054 20.6698 10 21.9752 10 23.5708C10.0025 24.2545 10.2464 24.9153 10.6887 25.4367C11.131 25.9581 11.7433 26.3065 12.4175 26.4204V31.3066H17.7358V36.1434H23.6112C23.6016 36.5592 23.5774 36.889 23.4884 37.1104C23.3753 37.3918 23.12 37.6742 22.5727 38.0774H21.1338C21.0056 38.0774 20.8826 38.1283 20.7919 38.219C20.7013 38.3097 20.6503 38.4327 20.6503 38.5609C20.6503 38.6891 20.7013 38.8121 20.7919 38.9028C20.8826 38.9934 21.0056 39.0444 21.1338 39.0444H29.8038C29.932 39.0444 30.055 38.9934 30.1456 38.9028C30.2363 38.8121 30.2873 38.6891 30.2873 38.5609C30.2873 38.4327 30.2363 38.3097 30.1456 38.219C30.055 38.1283 29.932 38.0774 29.8038 38.0774H28.3707C27.8234 37.6742 27.5681 37.3918 27.455 37.1104C27.366 36.889 27.3428 36.5592 27.3322 36.1434H33.2075V31.3066H38.5259V26.4204C39.2001 26.3065 39.8123 25.9581 40.2546 25.4367C40.6969 24.9153 40.9409 24.2545 40.9434 23.5708C40.9434 21.9752 39.638 20.6698 38.0424 20.6698C36.4469 20.6698 35.1415 21.9752 35.1415 23.5708C35.144 24.2545 35.3879 24.9153 35.8302 25.4367C36.2726 25.9581 36.8848 26.3065 37.559 26.4204V30.3396H33.2075V25.9901C33.2075 25.8619 33.1566 25.7389 33.0659 25.6483C32.9753 25.5576 32.8523 25.5066 32.724 25.5066H30.3066V24.5474L32.724 24.5116V21.5855C33.3982 21.4716 34.0105 21.1232 34.4528 20.6018C34.8951 20.0804 35.139 19.4196 35.1415 18.7358C35.1415 17.1403 33.8361 15.8349 32.2406 15.8349C30.645 15.8349 29.3396 17.1403 29.3396 18.7358C29.3421 19.4196 29.5861 20.0804 30.0284 20.6018C30.4707 21.1232 31.0829 21.4716 31.7571 21.5855V23.5591L29.3396 23.5978V25.5066H25.9552V16.7506C26.6293 16.6367 27.2416 16.2883 27.6839 15.7669C28.1262 15.2455 28.3701 14.5847 28.3726 13.9009C28.3726 12.3054 27.0672 11 25.4717 11ZM25.4717 11.967C26.545 11.967 27.4057 12.8276 27.4057 13.9009C27.4057 14.9743 26.545 15.8349 25.4717 15.8349C24.3983 15.8349 23.5377 14.9743 23.5377 13.9009C23.5377 12.8276 24.3983 11.967 25.4717 11.967ZM18.7028 16.8019C19.7762 16.8019 20.6368 17.6625 20.6368 18.7358C20.6368 19.8092 19.7762 20.6698 18.7028 20.6698C17.6295 20.6698 16.7689 19.8092 16.7689 18.7358C16.7689 17.6625 17.6295 16.8019 18.7028 16.8019ZM32.2406 16.8019C33.3139 16.8019 34.1745 17.6625 34.1745 18.7358C34.1745 19.8092 33.3139 20.6698 32.2406 20.6698C31.1672 20.6698 30.3066 19.8092 30.3066 18.7358C30.3066 17.6625 31.1672 16.8019 32.2406 16.8019ZM12.9009 21.6368C13.9743 21.6368 14.8349 22.4974 14.8349 23.5708C14.8349 24.6441 13.9743 25.5047 12.9009 25.5047C11.8276 25.5047 10.967 24.6441 10.967 23.5708C10.967 22.4974 11.8276 21.6368 12.9009 21.6368ZM38.0424 21.6368C39.1158 21.6368 39.9764 22.4974 39.9764 23.5708C39.9764 24.6441 39.1158 25.5047 38.0424 25.5047C36.9691 25.5047 36.1085 24.6441 36.1085 23.5708C36.1085 22.4974 36.9691 21.6368 38.0424 21.6368ZM18.7028 26.4736H32.2406V33.2425H18.7028V26.4736ZM18.7028 34.2095H32.2406V35.1765H18.7028V34.2095ZM24.5366 36.1434H26.4068C26.4145 36.6144 26.3971 37.0746 26.5576 37.4711C26.6466 37.6925 26.9483 37.8792 27.1127 38.0774H23.8307C23.9951 37.8792 24.2968 37.6925 24.3858 37.4711C24.5453 37.0746 24.5289 36.6144 24.5366 36.1434Z" fill="url(#paint0_linear_1_1039)"/>
</g>
</g>
<defs>
<linearGradient id="paint0_linear_1_1039" x1="10" y1="13.337" x2="40.7368" y2="16.5863" gradientUnits="userSpaceOnUse">
<stop stop-color="#F27A60"/>
<stop offset="1" stop-color="#EBD2AC"/>
</linearGradient>
</defs>
</svg>
