<svg width="51" height="51" viewBox="0 0 51 51" fill="none" xmlns="http://www.w3.org/2000/svg">
<g id="icon">
<circle id="Ellipse 1401" cx="25.5" cy="25.5" r="25.5" fill="white"/>
<g id="ico">
<path id="Vector" d="M30.8491 38.3022H28.0675C27.7553 38.3022 27.5093 38.5462 27.5093 38.8559V41.6152H28.6257V40.1792L30.4612 42L31.2559 41.2116L29.4204 39.3909H30.868V38.2834L30.8491 38.3022Z" fill="url(#paint0_linear_1_962)"/>
<path id="Vector_2" d="M42.2591 21.7849L37.2446 19.0257C37.0743 18.9224 36.8567 18.9224 36.6864 19.0257L33.5358 20.7619L29.8838 18.6972L30.5556 18.3312C30.7353 18.2373 30.8489 18.0496 30.8489 17.8525V12.3247C30.8489 12.1276 30.7353 11.9399 30.565 11.846L25.5506 9.07743C25.3803 8.97419 25.1627 8.97419 24.9924 9.07743L19.978 11.8367C19.8077 11.9399 19.7036 12.1182 19.7036 12.3153V17.8431C19.7036 18.0402 19.8171 18.2279 19.9874 18.3218L20.6592 18.6878L17.0072 20.7525L13.8566 19.0163C13.6863 18.9131 13.4687 18.9131 13.2984 19.0163L8.2745 21.7849C8.1042 21.8881 8.00012 22.0758 8.00012 22.2729V27.8008C8.00012 27.9979 8.11366 28.1856 8.28396 28.2794L13.2984 31.0387C13.4687 31.1419 13.6863 31.1419 13.8566 31.0387L15.0298 30.4005L19.7036 33.0377V41.062C19.7036 41.3717 19.9496 41.6157 20.2618 41.6157H26.3927V40.5083H20.82V31.6675H29.7325V37.1953H30.8489V33.0377L35.5322 30.4005L36.7053 31.0387C36.8756 31.1419 37.0933 31.1419 37.2636 31.0387L42.278 28.2794C42.4483 28.1762 42.5524 27.9979 42.5524 27.8008V22.2729C42.5524 22.0758 42.4388 21.8881 42.2685 21.7943L42.2591 21.7849ZM25.2762 10.1849L29.1459 12.3153L25.2762 14.4457L21.4066 12.3153L25.2762 10.1849ZM29.7325 13.2538V17.5147L25.8344 19.6639V15.403L29.7325 13.2538ZM20.82 13.2538L24.718 15.403V19.6639L20.82 17.5147V13.2538ZM13.0145 29.6215L9.11654 27.4723V23.2114L13.0145 25.3606V29.6215ZM13.5728 24.4034L9.70313 22.2729L13.5728 20.1425L17.4424 22.2729L13.5728 24.4034ZM14.131 29.6215V25.3606L18.029 23.2114V27.4723L14.131 29.6215ZM30.8489 31.7707V31.1231C30.8489 30.8134 30.6029 30.5694 30.2907 30.5694H20.2618C19.9496 30.5694 19.7036 30.8134 19.7036 31.1231V31.7707L16.1557 29.7717L18.8616 28.2794C19.0413 28.1856 19.1454 27.9979 19.1454 27.8008V22.2729C19.1454 22.0758 19.0319 21.8881 18.8616 21.7943L18.133 21.4001L21.7945 19.3354L25.0019 21.0998C25.1722 21.203 25.3898 21.203 25.5601 21.0998L28.7674 19.3354L32.4289 21.4001L31.7004 21.7943C31.5206 21.8881 31.4071 22.0758 31.4071 22.2729V27.8008C31.4071 27.9979 31.5206 28.1856 31.6909 28.2794L34.3968 29.7717L30.8489 31.7707ZM36.4215 29.6215L32.5235 27.4723V23.2114L36.4215 25.3606V29.6215ZM36.9797 24.4034L33.1101 22.2729L36.9797 20.1425L40.8493 22.2729L36.9797 24.4034ZM41.4359 27.4723L37.5379 29.6215V25.3606L41.4359 23.2114V27.4723Z" fill="url(#paint1_linear_1_962)"/>
</g>
</g>
<defs>
<linearGradient id="paint0_linear_1_962" x1="31.2559" y1="40.1417" x2="27.5102" y2="40.0837" gradientUnits="userSpaceOnUse">
<stop stop-color="#409BC2"/>
<stop offset="1" stop-color="#ACD8EB"/>
</linearGradient>
<linearGradient id="paint1_linear_1_962" x1="42.5524" y1="25.3079" x2="8.00927" y2="24.7458" gradientUnits="userSpaceOnUse">
<stop stop-color="#409BC2"/>
<stop offset="1" stop-color="#ACD8EB"/>
</linearGradient>
</defs>
</svg>
