<svg width="51" height="51" viewBox="0 0 51 51" fill="none" xmlns="http://www.w3.org/2000/svg">
<g id="icon">
<circle id="Ellipse 1401" cx="25.5" cy="25.5" r="25.5" fill="white"/>
<path id="Vector" d="M20.7374 14C20.641 14 20.556 14.0571 20.505 14.1429L18.2385 18.1029C18.1592 18.24 18.2045 18.4114 18.3405 18.4914L18.7032 18.7029H14.2665C13.5469 18.7029 12.9689 19.2914 12.9689 20.0171V26.6971L12.6006 26.9143L11.507 27.5543L11.3314 27.6571C11.3314 27.6571 11.3201 27.6629 11.3144 27.6686C11.3031 27.6686 11.2974 27.68 11.2917 27.6857L10.9291 27.8971L9.96583 28.4571C9.5352 28.7086 9.37088 29.2571 9.59186 29.7086L9.25189 29.9029C9.0139 30.0457 8.92891 30.3543 9.0649 30.6L9.50687 31.3771C9.64852 31.6171 9.9545 31.7029 10.1981 31.5657L10.5381 31.3714C10.7478 31.6857 11.1161 31.84 11.4674 31.7829L12 33.5886H11.5467C11.3881 33.5886 11.2634 33.7143 11.2634 33.8743C11.2634 35.6 12.6516 37 14.3628 37H36.4952C38.1044 37 39.4473 35.76 39.5833 34.1429H39.8892C40.3369 34.1429 40.7278 33.7943 40.7278 33.3429V29.2343C40.7278 28.9429 40.5692 28.6971 40.3369 28.5543L40.7052 27.16C40.8072 26.7543 40.5749 26.3429 40.1725 26.2343L38.4613 25.7714V25.1886C38.4613 24.84 38.2177 24.5429 37.8947 24.4571V20.0286C37.8947 19.3029 37.3111 18.72 36.5972 18.7143H32.1605L32.5231 18.5029C32.6591 18.4229 32.7044 18.2514 32.6251 18.1143L30.3643 14.1429C30.285 14.0057 30.115 13.96 29.979 14.04L28.5058 14.8971C28.3698 14.9771 28.3244 15.1486 28.4038 15.2857L28.4491 15.36L27.6672 15.8171C27.6672 15.8171 27.6218 15.7943 27.5992 15.7829C27.5822 15.7714 27.5652 15.7657 27.5538 15.7543C27.3725 15.6629 27.1742 15.6 26.9759 15.5657H26.9532C26.8909 15.5486 26.8286 15.5429 26.7662 15.5371C26.7436 15.5371 26.7209 15.5371 26.6926 15.5371C26.6586 15.5371 26.6246 15.5371 26.5906 15.5371C26.5226 15.5371 26.4489 15.5371 26.3809 15.5486C26.3696 15.5486 26.3583 15.5486 26.3413 15.5486C26.3243 15.5486 26.3073 15.56 26.2903 15.56C26.1939 15.5771 26.0976 15.5943 26.0013 15.6229C25.837 15.6686 25.6783 15.7371 25.5253 15.8229L25.446 15.8686L25.3553 15.8171C25.1004 15.68 24.8227 15.5886 24.5337 15.5543C24.4091 15.5429 24.2787 15.5371 24.1541 15.5486C24.1201 15.5486 24.0861 15.5543 24.0578 15.56C23.9614 15.5714 23.8651 15.5886 23.7688 15.6114C23.7348 15.6171 23.7008 15.6229 23.6668 15.6343C23.5478 15.6686 23.4288 15.7143 23.3155 15.7657C23.2815 15.7829 23.2532 15.8 23.2248 15.8171L22.4372 15.3543L22.4826 15.28C22.5619 15.1429 22.5166 14.9714 22.3806 14.8914L20.8903 14.04C20.845 14.0114 20.7883 14 20.7374 14ZM20.8563 14.6743L21.8366 15.2457L21.8253 15.2629C21.7913 15.2971 21.7686 15.3371 21.7573 15.3829L20.4144 17.7257C20.3747 17.7657 20.3464 17.8171 20.3294 17.8686L19.8534 18.6971H19.8364L18.8675 18.1314L20.8507 14.6686L20.8563 14.6743ZM30.013 14.6743L31.9962 18.1371L31.0272 18.7029H31.0102L30.5003 17.8171C30.5003 17.8171 30.4946 17.8 30.4889 17.7943L29.0327 15.2457L30.013 14.6743ZM22.1369 15.8571L22.7149 16.1943L22.6865 16.2229C22.6582 16.2514 22.6299 16.28 22.6015 16.3143C22.5166 16.4171 22.4372 16.52 22.3692 16.64L21.7856 17.6571C21.7856 17.6571 21.7743 17.6857 21.7686 17.6971C21.7119 17.8 21.6666 17.9029 21.627 18.0114C21.61 18.0686 21.593 18.12 21.576 18.1771L20.9923 17.84L22.1256 15.8629L22.1369 15.8571ZM28.7267 15.8571L29.86 17.8343L29.2764 18.1771C29.2367 18.0171 29.18 17.8686 29.1064 17.72C29.1007 17.6971 29.0894 17.6743 29.0724 17.6514L28.4888 16.6343C28.4378 16.5429 28.3811 16.4571 28.3131 16.3771C28.2904 16.3486 28.2678 16.3257 28.2508 16.3029C28.2168 16.2629 28.1885 16.2229 28.1545 16.1886L28.7267 15.8514V15.8571ZM26.6302 16.1086C26.6586 16.1086 26.6869 16.1086 26.7152 16.1086C26.8399 16.12 26.9589 16.1429 27.0779 16.1771C27.0949 16.1771 27.1119 16.1886 27.1289 16.1943C27.2535 16.24 27.3725 16.2971 27.4858 16.3714C27.5595 16.4229 27.6332 16.48 27.7012 16.5486C27.7238 16.5714 27.7522 16.5886 27.7692 16.6171C27.8541 16.7086 27.9335 16.8057 27.9958 16.92L28.5794 17.9371C28.7607 18.2571 28.8287 18.6286 28.7777 18.9886C28.7494 18.9657 28.7211 18.9429 28.6871 18.92L26.7492 17.7886C26.7549 17.6514 26.7266 17.5143 26.6699 17.3886C26.6642 17.3657 26.6529 17.3371 26.6359 17.32C26.6359 17.3143 26.6302 17.3086 26.6246 17.3086C26.6246 17.3029 26.6132 17.2914 26.6076 17.2857C26.3583 16.9029 25.8426 16.7886 25.446 17.0229C25.446 17.0229 25.4403 17.0229 25.4347 17.0286L25.361 17.08L24.2901 17.7029C24.0861 17.8229 23.8424 17.7486 23.6328 17.5943L24.2164 17.2514L25.5763 16.4571C25.5763 16.4571 25.5763 16.4571 25.582 16.4571L25.7973 16.3314C25.9616 16.2343 26.1429 16.1714 26.3356 16.1429C26.3753 16.1371 26.4149 16.1314 26.4546 16.1257C26.5112 16.12 26.5736 16.12 26.6302 16.1257V16.1086ZM24.1484 16.1143C24.3524 16.1029 24.5677 16.1257 24.7717 16.1943C24.7717 16.1943 24.817 16.2171 24.8397 16.2229L23.9388 16.7486L23.0208 17.2857C22.8849 17.3657 22.8395 17.5371 22.9189 17.6743C23.2645 18.2743 24.0011 18.5257 24.5791 18.1886L25.4403 17.6857L26.0183 18.0229C26.0183 18.0229 26.041 18.04 26.0523 18.0514L26.2789 18.1829C26.2789 18.1829 26.2903 18.1886 26.2903 18.1943L28.3981 19.4229C28.5001 19.4743 28.5341 19.6 28.4831 19.7029C28.4718 19.7143 28.4661 19.7257 28.4548 19.7371C28.3924 19.8229 28.2791 19.84 28.1885 19.7886L25.8596 18.4286L25.616 18.2857C25.48 18.2057 25.3043 18.2514 25.2307 18.3886C25.157 18.5257 25.1967 18.7029 25.3327 18.7771L25.5763 18.92L27.9051 20.28L28.1431 20.4171C28.1431 20.4171 28.1658 20.4457 28.1771 20.4571C28.2621 20.5257 28.2791 20.6286 28.2281 20.72C28.2111 20.7429 28.1941 20.7657 28.1715 20.7829C28.1261 20.8171 28.0751 20.8343 28.0185 20.8229C27.9901 20.8229 27.9618 20.8114 27.9335 20.7943L27.6898 20.6514L25.361 19.2914L25.1174 19.1486C24.9814 19.0686 24.8057 19.1143 24.732 19.2514C24.6584 19.3886 24.6981 19.5657 24.834 19.64L25.0777 19.7829L27.4065 21.1429C27.4575 21.1714 27.4915 21.2171 27.5085 21.2743C27.5255 21.36 27.4972 21.4514 27.4292 21.5029C27.3838 21.5371 27.3329 21.5543 27.2762 21.5429C27.2479 21.5429 27.2195 21.5314 27.1912 21.5143L26.6982 21.2286L24.6131 20.0171L24.1201 19.7314C23.9841 19.6571 23.8085 19.7143 23.7405 19.8514C23.6725 19.9829 23.7178 20.1429 23.8368 20.2229L24.3297 20.5086L26.4149 21.72C26.5169 21.7771 26.5509 21.9029 26.4999 22C26.4999 22 26.4999 22.0057 26.4942 22.0114C26.4773 22.0343 26.4603 22.0571 26.4376 22.08C26.3923 22.1143 26.3413 22.1314 26.2846 22.12C26.2563 22.12 26.2279 22.1086 26.1996 22.0914L23.7745 20.68L23.6271 20.5943L22.8679 20.1486C22.8055 20.1086 22.7432 20.0629 22.6865 20.0171C22.6865 20.0171 22.6809 20.0114 22.6752 20.0057C22.4542 19.8286 22.2786 19.5943 22.1766 19.3257V19.3086C22.1426 19.2343 22.1199 19.1543 22.1029 19.0743C22.1029 19.0514 22.0972 19.0229 22.0916 19C22.0802 18.9314 22.0746 18.8686 22.0689 18.8C22.0689 18.76 22.0689 18.7143 22.0689 18.6743C22.0689 18.6229 22.0689 18.5714 22.0802 18.5143C22.0859 18.4571 22.1029 18.4 22.1199 18.3371C22.1312 18.2971 22.1369 18.2571 22.1539 18.2171C22.1879 18.12 22.2276 18.0229 22.2842 17.9314L22.8679 16.9143C23.1342 16.4457 23.6101 16.1429 24.1428 16.1086L24.1484 16.1143ZM19.6211 17.64C19.5304 17.6457 19.4454 17.7029 19.4001 17.7829C19.3208 17.92 19.3661 18.0914 19.5021 18.1714C19.6381 18.2514 19.8081 18.2057 19.8874 18.0686C19.9667 17.9314 19.9214 17.76 19.7854 17.68C19.7344 17.6514 19.6778 17.64 19.6211 17.64ZM31.2142 17.64C31.1689 17.64 31.1179 17.6571 31.0782 17.68C30.9422 17.76 30.8969 17.9314 30.9762 18.0686C31.0556 18.2057 31.2256 18.2514 31.3615 18.1714C31.4975 18.0914 31.5429 17.92 31.4635 17.7829C31.4125 17.6914 31.3162 17.64 31.2142 17.64ZM20.7204 18.3257L21.355 18.6971H20.505L20.7204 18.3257ZM30.1433 18.3257L30.353 18.6971H29.503L30.1376 18.3257H30.1433ZM14.2665 19.2686H19.6834L19.8138 19.3429C19.9384 19.4171 20.0914 19.3829 20.1821 19.2686H21.5703C21.6666 19.6629 21.8649 20.0229 22.1652 20.3143C22.1482 20.3486 22.1256 20.3829 22.1142 20.4229H14.9521C14.7935 20.4229 14.6688 20.5486 14.6688 20.7086V23.8743L13.9775 24.28C13.8415 24.36 13.7962 24.5314 13.8755 24.6686L13.9549 24.8057C14.1928 25.3543 14.0229 26 13.5356 26.3486V20.0114C13.5356 19.6057 13.8529 19.2743 14.2495 19.2686C14.2495 19.2686 14.2608 19.2686 14.2665 19.2686ZM29.248 19.2686H30.6873C30.7723 19.3829 30.9309 19.4171 31.0556 19.3429L31.1859 19.2686H36.6028C37.0108 19.2686 37.3338 19.5943 37.3338 20.0114V24.4114H36.2005V20.7086C36.2005 20.5486 36.0759 20.4229 35.9172 20.4229H28.7551C28.7324 20.36 28.7041 20.3029 28.6701 20.2457C28.6814 20.2343 28.6871 20.2171 28.7041 20.2057C28.8061 20.1486 28.9081 20.0971 28.9704 19.9943C29.0214 19.9029 29.0554 19.8057 29.0667 19.7086C29.1404 19.5657 29.2027 19.4229 29.248 19.2686ZM22.6355 20.6743L22.8735 20.8114C22.7829 20.84 22.6865 20.7943 22.6412 20.7143C22.6355 20.7029 22.6412 20.6857 22.6355 20.6743ZM15.2411 20.9886H22.1539C22.1539 20.9886 22.1539 20.9943 22.1539 21C22.3012 21.2571 22.5732 21.3429 22.8452 21.3371C22.8452 21.4686 22.8282 21.6 22.8962 21.7257C23.0888 22.0629 23.4968 22.1657 23.8481 22.0286C23.8594 22.12 23.8368 22.2171 23.8821 22.3086C24.0974 22.68 24.5791 22.8114 24.9474 22.5943L25.4403 22.3086L25.9333 22.5943C26.3016 22.8114 26.7832 22.68 26.9985 22.3086C27.0495 22.2229 27.0212 22.1257 27.0325 22.0286C27.1175 22.0629 27.2082 22.08 27.2989 22.0857C27.4802 22.0914 27.6558 22.0457 27.7975 21.9371C27.8655 21.88 27.9278 21.8114 27.9788 21.7314C28.0468 21.6114 28.0298 21.4743 28.0298 21.3429C28.3074 21.3429 28.5738 21.2629 28.7211 21.0057C28.7211 21.0057 28.7211 21 28.7211 20.9943H35.6339V24.4114H34.682C34.274 24.4114 33.934 24.7543 33.934 25.1714V25.7543L32.8404 26.0457C32.8064 26.0457 32.7724 26.0571 32.7384 26.0743L32.2228 26.2114C31.8205 26.32 31.5882 26.7371 31.6902 27.1371L32.0585 28.5314C31.8262 28.6743 31.6619 28.92 31.6619 29.2114V31.8457H15.2354V29.6514L15.2694 29.6343C15.8247 29.3086 16.5387 29.4571 16.9183 29.9771L16.992 30.1029C17.0543 30.2114 17.1846 30.2686 17.3093 30.2343C17.3546 30.2229 17.3999 30.2057 17.4339 30.1771L18.3632 29.64C18.4992 29.56 18.5445 29.3886 18.4652 29.2514L17.6549 27.8343C18.2555 27.3371 18.4369 26.4571 18.0346 25.76C17.6379 25.0686 16.7993 24.7714 16.0627 25.0571L15.3488 23.8114C15.3204 23.7657 15.2864 23.7314 15.2411 23.7029V20.9943V20.9886ZM23.4571 21.1486L23.5025 21.1771L23.8764 21.3943L23.6725 21.5143C23.5761 21.5771 23.4515 21.5429 23.3892 21.4457C23.3892 21.4457 23.3892 21.44 23.3835 21.4343C23.3268 21.3371 23.3552 21.2114 23.4515 21.1486H23.4571ZM24.4487 21.7257L24.8737 21.9714L24.6641 22.0914C24.5677 22.1543 24.4431 22.12 24.3807 22.0229C24.3807 22.0229 24.3807 22.0171 24.3751 22.0114C24.3127 21.9143 24.3467 21.7886 24.4431 21.7257C24.4431 21.7257 24.4487 21.7257 24.4544 21.72L24.4487 21.7257ZM16.788 22.5771L16.346 23.3543L16.8333 23.64L17.2809 22.8629L16.788 22.5771ZM39.8836 22.6857C39.7249 22.6857 39.6003 22.8171 39.6059 22.9771C39.4473 22.9771 39.3226 23.1029 39.3226 23.2629C39.3226 23.4229 39.4473 23.5486 39.6059 23.5486C39.6059 23.7086 39.7306 23.8343 39.8892 23.8343C40.0479 23.8343 40.1725 23.7086 40.1725 23.5486C40.3312 23.5486 40.4559 23.4229 40.4559 23.2629C40.4559 23.1029 40.3312 22.9771 40.1725 22.9771C40.1725 22.8171 40.0479 22.6914 39.8949 22.6857C39.8949 22.6857 39.8892 22.6857 39.8836 22.6857ZM31.3842 22.6971C31.2256 22.6971 31.1009 22.8286 31.1066 22.9886V23.2686H30.8289C30.6703 23.2686 30.5456 23.3943 30.5456 23.5543C30.5456 23.7143 30.6703 23.84 30.8289 23.84H31.1066V24.12C31.1066 24.28 31.2312 24.4057 31.3899 24.4057C31.5485 24.4057 31.6732 24.28 31.6732 24.12V23.84H31.9508C32.1095 23.84 32.2341 23.7143 32.2341 23.5543C32.2341 23.3943 32.1095 23.2686 31.9508 23.2686H31.6732V22.9886C31.6732 22.8286 31.5485 22.7029 31.3955 22.6971C31.3955 22.6971 31.3955 22.6971 31.3899 22.6971H31.3842ZM18.1252 23.5143L17.4963 24.1486L17.8986 24.5543L18.5275 23.92L18.1252 23.5143ZM26.6642 24.0171C26.041 24.0171 25.531 24.5314 25.531 25.16C25.531 25.2629 25.548 25.3657 25.5763 25.4629L23.3438 26.5886C23.1228 26.4057 22.8452 26.3086 22.5562 26.3029C21.8536 26.3029 21.2813 26.88 21.2813 27.5886C21.2813 28.2971 21.8536 28.8743 22.5562 28.8743C22.8452 28.8743 23.1115 28.7714 23.3212 28.6057L25.565 29.7371C25.5423 29.8286 25.5253 29.92 25.5253 30.0114C25.5253 30.64 26.0353 31.1543 26.6586 31.1543C27.2819 31.1543 27.7918 30.64 27.7918 30.0114C27.7918 29.3829 27.2819 28.8686 26.6586 28.8686C26.3469 28.8686 26.0466 29 25.837 29.2343L23.6895 28.1543C23.7801 27.9771 23.8255 27.7829 23.8255 27.5886C23.8255 27.3943 23.7801 27.2114 23.7008 27.04L25.854 25.9543C26.0579 26.1657 26.3469 26.2971 26.6586 26.2971C27.2819 26.2971 27.7918 25.7829 27.7918 25.1543C27.7918 24.5257 27.2819 24.0114 26.6586 24.0114L26.6642 24.0171ZM15.0031 24.3371L17.8362 29.2857L17.3603 29.5657L14.5272 24.6171L15.0031 24.3371ZM26.6642 24.5886C26.9815 24.5886 27.2309 24.84 27.2309 25.16C27.2309 25.48 26.9815 25.7314 26.6642 25.7314C26.3469 25.7314 26.0976 25.48 26.0976 25.16C26.0976 24.84 26.3469 24.5886 26.6642 24.5886ZM19.1735 24.7657L18.4029 25.2114L18.6862 25.7029L19.4568 25.2571L19.1735 24.76V24.7657ZM34.6876 24.9771H35.0616C35.0843 25.1143 35.0333 25.2514 34.9369 25.3543C34.835 25.4629 34.6763 25.5371 34.5063 25.5486V25.1657C34.5063 25.0571 34.5856 24.9771 34.6876 24.9771ZM35.6282 24.9771H36.7785C36.7728 25.2514 36.8691 25.5143 37.0561 25.7143C37.2771 25.9486 37.5831 26.0857 37.9061 26.1086V28.4057H37.3621V27.6857H37.0505V28C37.0505 28.2 36.9825 28.3257 36.8861 28.4057H36.7445V27.6857H36.4385V28.4057H36.2968C36.2005 28.3257 36.1325 28.2 36.1325 28V27.6857H35.8265V27.7714L35.2033 28.4057H34.5006V26.1086C34.8236 26.0857 35.1239 25.9486 35.3506 25.7143C35.5432 25.5029 35.6339 25.24 35.6282 24.9771ZM37.3451 24.9771H37.7191C37.8267 24.9771 37.9004 25.0571 37.9004 25.1657V25.5486C37.7247 25.5314 37.5717 25.4629 37.4698 25.3543C37.3678 25.2457 37.3224 25.1143 37.3451 24.9829V24.9771ZM29.69 25.5486C29.5314 25.5486 29.4067 25.6743 29.4067 25.8343C29.4067 25.9943 29.5314 26.12 29.69 26.12C29.8487 26.12 29.9733 25.9943 29.9733 25.8343C29.9733 25.6743 29.8487 25.5486 29.69 25.5486ZM16.7427 25.5829C17.0656 25.5943 17.3716 25.7314 17.5473 26.0457C17.7852 26.4571 17.6493 26.9143 17.3489 27.2457L16.8843 26.4286L16.4197 25.6114C16.5273 25.5886 16.6407 25.5771 16.7483 25.5771L16.7427 25.5829ZM14.5498 25.8343L16.3347 28.9486C15.8814 28.8343 15.3998 28.9029 14.9918 29.1371L14.1588 29.6229L13.1163 30.2286L11.847 28.0057L12.8896 27.4L13.7225 26.9143C14.1305 26.6743 14.4252 26.2914 14.5555 25.8343H14.5498ZM42.1557 26.12C41.9971 26.12 41.8724 26.2457 41.8724 26.4057C41.8724 26.5657 41.9971 26.6914 42.1557 26.6914C42.3144 26.6914 42.439 26.5657 42.439 26.4057C42.439 26.2457 42.3144 26.12 42.1557 26.12ZM19.8648 26.2514L19.0091 26.48L19.1565 27.0343L20.0121 26.8L19.8648 26.2514ZM33.9397 26.3371V28.4057H32.6251L32.5061 27.96C32.8348 27.8743 33.1011 27.64 33.2427 27.3314C33.3561 27.0743 33.3674 26.7829 33.2767 26.52L33.9397 26.3429V26.3371ZM38.4727 26.3371L39.181 26.5257C39.079 26.8057 39.0846 27.1086 39.2036 27.3829C39.3396 27.6857 39.5946 27.9086 39.8949 28.0057L39.7872 28.4057H38.467V26.3371H38.4727ZM32.7328 26.6629C32.7838 26.8 32.7838 26.9543 32.7214 27.0971C32.6535 27.2514 32.5175 27.3657 32.3588 27.4114L32.2455 26.9886C32.2171 26.8914 32.2681 26.7943 32.3645 26.7657C32.3645 26.7657 32.3701 26.7657 32.3758 26.7657L32.7328 26.6686V26.6629ZM39.7306 26.6743L40.0366 26.7543C40.1385 26.7829 40.1952 26.88 40.1669 26.9829L40.0422 27.4514C39.7532 27.3429 39.6003 27.0229 39.7022 26.7257C39.7079 26.7086 39.7192 26.6914 39.7249 26.6686L39.7306 26.6743ZM22.5562 26.8686C22.9529 26.8686 23.2645 27.1829 23.2645 27.5829C23.2645 27.9829 22.9529 28.2971 22.5562 28.2971C22.1596 28.2971 21.8479 27.9829 21.8479 27.5829C21.8479 27.1829 22.1596 26.8686 22.5562 26.8686ZM19.2585 27.8629V28.4343H20.1481V27.8629H19.2585ZM35.8435 28.1886C35.8605 28.2686 35.8889 28.3371 35.9229 28.4H35.6339L35.8435 28.1886ZM11.3541 28.2857L12.629 30.5086L12.4873 30.5886L11.524 31.1486C11.3484 31.2571 11.1161 31.2 11.0084 31.0171C11.0084 31.0171 11.0084 31.0114 11.0028 31.0057L10.9008 30.8286C10.9008 30.8286 10.8951 30.8171 10.8894 30.8114L10.2208 29.6457L10.1075 29.4514C9.99983 29.2743 10.0565 29.04 10.2378 28.9314C10.2378 28.9314 10.2435 28.9314 10.2491 28.9257L11.2124 28.3657L11.3541 28.2857ZM30.251 28.3943C30.0923 28.3943 29.9677 28.5257 29.9733 28.6857C29.8147 28.6857 29.69 28.8114 29.69 28.9714C29.69 29.1314 29.8147 29.2571 29.9733 29.2571C29.9733 29.4171 30.098 29.5429 30.2566 29.5429C30.4153 29.5429 30.5399 29.4171 30.5399 29.2571C30.6986 29.2571 30.8233 29.1314 30.8233 28.9714C30.8233 28.8114 30.6986 28.6857 30.5399 28.6857C30.5399 28.5257 30.4153 28.4 30.2623 28.3943C30.2623 28.3943 30.2623 28.3943 30.2566 28.3943H30.251ZM32.5118 28.9714H39.9006C40.0706 28.9714 40.1725 29.08 40.1725 29.2V30.4514H37.4358C37.3508 30.4514 37.2658 30.4914 37.2148 30.56L36.8351 31.0457C36.7955 31.0971 36.7728 31.16 36.7728 31.2229V32.1943C36.7728 32.2571 36.7955 32.32 36.8351 32.3714L37.2148 32.8571C37.2658 32.9257 37.3508 32.9657 37.4358 32.9657H40.1725V33.3086C40.1725 33.4286 40.0706 33.5371 39.9006 33.5371H32.5118C32.3475 33.5371 32.2398 33.4286 32.2398 33.3086V29.2C32.2398 29.08 32.3475 28.9714 32.5118 28.9714ZM26.6642 29.44C26.9815 29.44 27.2309 29.6914 27.2309 30.0114C27.2309 30.3314 26.9815 30.5829 26.6642 30.5829C26.3469 30.5829 26.0976 30.3314 26.0976 30.0114C26.0976 29.9314 26.1146 29.8571 26.1429 29.7886C26.1429 29.7886 26.1769 29.7429 26.1883 29.72C26.2846 29.5486 26.4659 29.4457 26.6642 29.44ZM42.1501 29.5486C41.9914 29.5486 41.8668 29.68 41.8724 29.84V30.12H41.5948C41.4361 30.12 41.3115 30.2457 41.3115 30.4057C41.3115 30.5657 41.4361 30.6914 41.5948 30.6914H41.8724V30.9714C41.8724 31.1314 41.9971 31.2571 42.1557 31.2571C42.3144 31.2571 42.439 31.1314 42.439 30.9714V30.6914H42.7167C42.8753 30.6914 43 30.5657 43 30.4057C43 30.2457 42.8753 30.12 42.7167 30.12H42.439V29.84C42.439 29.68 42.3144 29.5543 42.1614 29.5486C42.1614 29.5486 42.1614 29.5486 42.1557 29.5486H42.1501ZM14.6745 29.9771V32.1257C14.6745 32.2857 14.7991 32.4114 14.9578 32.4114H31.6732V33.3143C31.6732 33.4 31.6902 33.48 31.7185 33.56H14.1022L13.5356 31.6057V30.6343L14.4365 30.1086L14.6688 29.9714L14.6745 29.9771ZM9.87517 30.1829L10.2605 30.8514L9.98283 31.0114L9.59753 30.3429L9.87517 30.1829ZM37.5717 31.0286H40.1725V32.4H37.5717L37.3394 32.1029V31.3257L37.5717 31.0286ZM12.799 31.0743L13.5186 33.56H12.6006L12.0057 31.5371L12.799 31.0743ZM38.1667 31.4457C38.0194 31.4571 37.9061 31.5829 37.9004 31.7314C37.9004 31.8914 38.025 32.0171 38.1837 32.0171C38.3424 32.0171 38.467 31.8914 38.467 31.7314C38.467 31.5714 38.3424 31.4457 38.1837 31.4457C38.178 31.4457 38.1724 31.4457 38.1667 31.4457ZM11.898 34.1314H22.6072V34.6057C22.6072 35.1771 23.0605 35.6514 23.6158 35.6514H27.2592C27.8202 35.6514 28.2678 35.1771 28.2678 34.6057V34.1314H38.977C38.8297 35.4114 37.8097 36.4 36.5008 36.4H14.3685C13.0596 36.4 12.034 35.4057 11.8924 34.1314H11.898ZM23.1738 34.1314H27.7068V34.6057C27.7068 34.88 27.5085 35.08 27.2649 35.08H23.6215C23.3778 35.08 23.1795 34.88 23.1795 34.6057V34.1314H23.1738Z" fill="url(#paint0_linear_1_1090)"/>
</g>
<defs>
<linearGradient id="paint0_linear_1_1090" x1="47.7039" y1="39.0162" x2="4.25765" y2="32.5835" gradientUnits="userSpaceOnUse">
<stop stop-color="#F26083"/>
<stop offset="1" stop-color="#EFB2D7"/>
</linearGradient>
</defs>
</svg>
