<svg width="51" height="51" viewBox="0 0 51 51" fill="none" xmlns="http://www.w3.org/2000/svg">
<g id="icon">
<circle id="Ellipse 1401" cx="25.5" cy="25.5" r="25.5" fill="white"/>
<g id="ico">
<path id="Vector" fill-rule="evenodd" clip-rule="evenodd" d="M35.2711 16.7284C35.2711 16.7284 35.2556 16.659 35.2402 16.6281C35.2017 16.551 35.1554 16.4738 35.0937 16.4121C35.086 16.3967 35.0705 16.389 35.0551 16.3736L30.9284 12.2391L30.8975 12.2083C30.8975 12.2083 30.8281 12.1466 30.7895 12.1157C30.6738 12.0386 30.5427 12 30.4039 12H18.3322C16.4964 12 15 13.4964 15 15.3322V36.6678C15 38.5036 16.4964 40 18.3322 40H31.9697C33.8055 40 35.3019 38.5113 35.3019 36.6678V16.8981C35.3019 16.8364 35.2942 16.7824 35.2711 16.7207V16.7284ZM31.0981 14.3912L32.903 16.2039H31.0981V14.3912ZM33.8981 36.6755C33.8981 37.7399 33.0342 38.6039 31.9697 38.6039H18.3322C17.2678 38.6039 16.4039 37.7399 16.4039 36.6755V15.3322C16.4039 14.2678 17.2678 13.4039 18.3322 13.4039H29.7019V16.9058C29.7019 17.2915 30.0182 17.6077 30.4039 17.6077H33.9058V36.6755H33.8981ZM25.4364 17.6H24.8656C22.5669 17.6 20.708 19.459 20.708 21.7576V25.8072C20.708 26.8716 21.5719 27.7355 22.6364 27.7355H25.9146V30.9058C25.9146 31.0369 25.9532 31.1758 26.0303 31.2837L26.5471 32.086L26.0303 32.8804C25.876 33.1118 25.876 33.4204 26.0303 33.6518L26.5471 34.4463L26.0534 35.2022C25.8066 35.719 25.1972 35.935 24.6804 35.6882C24.4645 35.5879 24.2948 35.4105 24.1945 35.2022L23.7008 34.4463L24.2253 33.6518C24.3719 33.4127 24.3719 33.1196 24.2253 32.8804L23.7008 32.086L24.2253 31.2837C24.2948 31.168 24.3333 31.0369 24.341 30.9058V30.065C24.341 29.6793 24.0248 29.3631 23.6391 29.3631C23.2534 29.3631 22.9372 29.6793 22.9372 30.065V30.6975L22.2815 31.7157C22.1273 31.9471 22.1273 32.2479 22.2815 32.4793L22.7983 33.2738L22.2815 34.0683C22.1273 34.2997 22.1273 34.6006 22.2815 34.832L23.0529 36.0121C23.0529 36.0121 23.0837 36.0661 23.1069 36.0893C23.7394 36.822 24.4259 37.1923 25.1278 37.1923C25.8298 37.1923 26.5163 36.822 27.141 36.0893C27.1642 36.0661 27.1796 36.043 27.195 36.0121L27.9664 34.832C28.1207 34.6006 28.1207 34.2997 27.9664 34.0683L27.4496 33.2738L27.9664 32.4793C28.1207 32.2479 28.1207 31.9471 27.9664 31.7157L27.3185 30.6975V27.7355H27.6733C28.7377 27.7355 29.5939 26.8639 29.6017 25.8072V21.7576C29.6017 19.459 27.7427 17.6 25.4441 17.6H25.4364ZM28.1978 25.8072C28.1978 26.1003 27.9664 26.3394 27.6733 26.3394H22.6441C22.351 26.3394 22.1118 26.1003 22.1118 25.8072V21.7576C22.1118 20.238 23.346 19.0039 24.8733 18.9961H25.4441C26.9636 18.9961 28.1978 20.2303 28.2055 21.7576V25.8072H28.1978ZM25.1201 20.2612C24.1559 20.2612 23.3691 21.0479 23.3691 22.0121C23.3691 22.3978 23.6854 22.7141 24.0711 22.7141C24.4567 22.7141 24.773 22.3978 24.773 22.0121C24.773 21.8193 24.9273 21.665 25.1201 21.665C25.3129 21.665 25.4672 21.8193 25.4672 22.0121C25.4672 22.3978 25.7835 22.7141 26.1691 22.7141C26.5548 22.7141 26.8711 22.3978 26.8711 22.0121C26.8711 21.0479 26.0843 20.2612 25.1201 20.2612Z" fill="url(#paint0_linear_1_955)"/>
</g>
</g>
<defs>
<linearGradient id="paint0_linear_1_955" x1="35.3019" y1="26" x2="15.0025" y2="25.7739" gradientUnits="userSpaceOnUse">
<stop stop-color="#409BC2"/>
<stop offset="1" stop-color="#ACD8EB"/>
</linearGradient>
</defs>
</svg>
