<svg width="51" height="51" viewBox="0 0 51 51" fill="none" xmlns="http://www.w3.org/2000/svg">
<g id="icon">
<circle id="Ellipse 1401" cx="25.5" cy="25.5" r="25.5" fill="white"/>
<g id="ico">
<path id="Vector" d="M19.2672 9.98459C16.1159 10.66 14.6415 10.9854 14.5605 11.0261C14.3985 11.1075 14.2932 11.2621 14.2851 11.4493C14.2851 11.5713 14.4633 12.4664 15.2086 15.9979L15.84 18.9813C15.9953 19.7153 15.4403 20.4079 14.6901 20.4163L13.4321 20.4304C13.2998 20.4318 13.1688 20.4574 13.0456 20.5058C12.6568 20.6442 12.3246 20.9452 12.1545 21.287C11.9844 21.645 12.0006 20.8639 12.0006 30.2459V38.519C12.0006 38.6553 12.0224 38.7907 12.0654 38.92C12.195 39.3594 12.3408 39.6524 12.5838 39.9616C13.0456 40.5474 13.6937 40.9055 14.4471 40.9868C14.7873 41.0275 33.752 41.0275 34.1246 40.9868C35.2102 40.8729 36.1499 40.108 36.4578 39.0828C36.4914 38.9702 36.5824 38.8851 36.6952 38.852C36.7102 38.8476 36.7257 38.8431 36.7413 38.8386C37.6891 38.5945 38.4344 37.8541 38.718 36.8532C38.7747 36.6661 38.7747 36.601 38.7828 35.3397V34.3857C38.7828 34.1585 38.8766 33.9413 39.042 33.7855C39.3984 33.4438 39.6172 33.1183 39.7549 32.7033C39.9007 32.272 39.9007 32.3453 39.9088 30.2296C39.9088 28.9928 39.9088 28.1954 39.8926 28.057C39.8602 27.7804 39.763 27.4874 39.6253 27.2596C39.4957 27.0318 39.1797 26.7225 38.9529 26.5924C38.8477 26.532 38.7828 26.4199 38.7828 26.2986V24.6801C38.7828 22.711 38.7828 22.654 38.6369 22.2553C38.321 21.3602 37.6405 20.7337 36.7008 20.4814C36.4983 20.4245 36.4335 20.4245 35.3884 20.4082C34.6917 20.4082 34.2867 20.3919 34.2867 20.3756C34.2867 20.3594 34.6026 18.8703 34.9834 17.072C35.3641 15.2655 35.68 13.7521 35.68 13.7114C35.68 13.5242 35.5018 13.2964 35.3155 13.2313C35.1454 13.1743 26.0398 11.2377 25.9425 11.2377C25.74 11.2377 25.5051 11.4167 25.4484 11.612C25.4322 11.6608 25.3836 11.9131 25.3269 12.1735C25.2637 12.4633 25.1781 12.4583 25.114 12.1686C25.0533 11.8941 24.9703 11.518 24.8813 11.1075C24.7031 10.2857 24.5492 9.53705 24.5248 9.45568C24.4519 9.16274 24.2494 9 23.9902 9C23.9173 9 21.7948 9.4394 19.2672 9.98459ZM24.1319 12.7756C24.1246 12.7805 24.1209 12.789 24.1227 12.7977C24.4233 14.2336 25.0041 16.9724 25.4079 18.8947C25.8129 20.8232 26.1532 22.418 26.1532 22.4343C26.1532 22.4587 26.0965 22.4669 25.902 22.4669C25.659 22.4669 25.6509 22.4669 25.6347 22.4018C25.6185 22.3529 25.0433 19.627 23.7552 13.5324C23.577 12.6861 23.415 11.97 23.3988 11.9293C23.3826 11.8968 23.3259 11.8398 23.2773 11.8073C23.1963 11.7503 23.172 11.7503 23.0423 11.7666C22.8398 11.791 22.7021 11.7422 22.5725 11.6201C22.4915 11.5469 22.451 11.4818 22.4186 11.376C22.37 11.2296 22.2808 11.1238 22.1674 11.0912C22.1107 11.075 17.5417 12.027 17.242 12.1165C17.1853 12.1328 17.1124 12.1816 17.0799 12.2223C17.0232 12.2874 17.0151 12.3199 17.0151 12.5152C17.0151 12.6454 16.9989 12.7675 16.9827 12.8163C16.926 12.9465 16.7721 13.0848 16.6182 13.1336C16.44 13.1906 16.3752 13.2638 16.359 13.4184C16.359 13.5079 16.5777 14.6146 17.2906 17.9752C17.809 20.4163 18.2303 22.418 18.2303 22.4343C18.2303 22.4506 18.1331 22.4587 17.9792 22.4587C17.7871 22.4587 17.6934 22.3153 17.6518 22.1278C17.6189 21.9796 17.5763 21.7863 17.5336 21.5799C17.4445 21.1487 16.9422 18.797 16.4238 16.3559C15.9053 13.9148 15.4921 11.9131 15.5002 11.9049C15.5164 11.8887 23.4798 10.1799 23.5527 10.1717C23.585 10.1717 23.698 10.6739 24.141 12.7528C24.1428 12.7615 24.1393 12.7707 24.1319 12.7756ZM21.9406 11.8968C22.0783 12.1328 22.4186 12.3525 22.7102 12.4094C22.7982 12.4242 22.8682 12.4912 22.8867 12.5785L23.9092 17.4056C24.2621 19.06 24.5765 20.5387 24.7698 21.4539C24.9052 22.0954 24.6549 22.4627 23.9993 22.4614C23.8125 22.461 23.5903 22.4601 23.3259 22.4587H21.8974C21.8679 22.4587 21.8632 22.4163 21.892 22.4099C22.9208 22.1902 23.6823 21.4823 23.9902 20.4651C24.055 20.2454 24.0631 20.2048 24.0631 19.7328C24.0631 19.2608 24.0631 19.2202 23.9902 19.0005C23.9497 18.8703 23.8768 18.675 23.8201 18.5611C23.4474 17.7718 22.7183 17.2022 21.8515 17.0394C21.5436 16.9825 20.9847 16.9987 20.693 17.0801C19.7614 17.3242 19.0647 17.9833 18.7569 18.911C18.4166 19.9444 18.7812 21.1731 19.6237 21.8566C19.9639 22.1332 20.4257 22.3529 20.8551 22.4343C21.0171 22.4669 20.9361 22.4669 19.9639 22.475H19.027C18.9503 22.475 18.8844 22.4203 18.8703 22.3448C18.8183 22.0986 17.322 15.0365 17.0741 13.8604C17.0515 13.7534 17.091 13.6566 17.1772 13.5893C17.404 13.4347 17.6065 13.1092 17.6389 12.8488C17.647 12.7756 17.6713 12.7186 17.6956 12.7105C17.7604 12.6861 21.7705 11.8317 21.8353 11.8317C21.8648 11.8317 21.901 11.8519 21.9378 11.8985C21.9389 11.8999 21.9414 11.8984 21.9406 11.8968ZM30.4751 13.3045C30.4778 13.3045 30.4805 13.3048 30.4831 13.3054C31.6676 13.5565 32.7378 13.7862 33.4696 13.9451C34.1328 14.0892 34.3959 14.5016 34.2576 15.166C34.0025 16.392 33.5242 18.6787 32.8933 21.645L32.7779 22.197C32.746 22.3495 32.6116 22.4587 32.4558 22.4587C32.2829 22.4684 32.2143 22.3738 32.2498 22.2043C32.3556 21.6989 32.6077 20.4972 32.9014 19.1144C33.2902 17.2835 33.6062 15.7375 33.6062 15.6887C33.6062 15.5748 33.4766 15.4364 33.355 15.3957C33.0553 15.3144 32.9014 15.0865 32.9338 14.7448C32.95 14.5739 32.8852 14.4437 32.7637 14.3949C32.7232 14.3786 31.6052 14.1345 30.2685 13.8497C28.1379 13.394 27.8301 13.3371 27.7572 13.3615C27.6681 13.394 27.5385 13.5242 27.5385 13.5812C27.5385 13.6381 27.4493 13.809 27.3683 13.8822C27.2549 13.9962 27.1253 14.0368 26.9147 14.0287C26.7121 14.0287 26.623 14.0531 26.5501 14.167C26.5258 14.1996 26.4043 14.7285 26.2747 15.3551C26.1451 15.9735 26.0316 16.4861 26.0235 16.4861C26.0154 16.4861 25.9506 16.2176 25.8858 15.884C25.8004 15.487 25.7997 15.0765 25.8837 14.6792L26.0316 13.9799C26.1775 13.2638 26.3152 12.621 26.3314 12.5559C26.3557 12.442 26.3638 12.4338 26.4205 12.442C26.461 12.4501 28.2815 12.8402 30.4671 13.3037C30.4697 13.3042 30.4724 13.3045 30.4751 13.3045ZM30.1834 14.5128C30.1817 14.5074 30.1864 14.5022 30.1919 14.5033L32.0822 14.9081C32.1962 14.9325 32.2853 15.0214 32.31 15.1354C32.3748 15.4283 32.5692 15.7131 32.8042 15.8596C32.8917 15.9084 32.8923 16.0155 32.8719 16.1136C32.788 16.5169 32.5354 17.6941 32.2452 19.0656C31.8887 20.7499 31.5809 22.1983 31.5647 22.296L31.5528 22.3486C31.5361 22.4225 31.4704 22.475 31.3946 22.475C31.2974 22.475 31.265 22.475 31.2812 22.4424C31.3136 22.3529 31.3298 21.9054 31.3055 21.6857C31.1839 20.7255 30.6007 19.9118 29.7419 19.505C29.2397 19.269 28.5997 19.1958 28.065 19.3015C27.6357 19.391 27.2468 19.5619 26.9228 19.8223C26.8039 19.9165 26.7313 19.8196 26.6986 19.6715C26.6612 19.502 26.6056 19.2537 26.5501 18.9842C26.4273 18.4211 26.426 17.8382 26.5462 17.2746L26.7283 16.421C26.8718 15.7246 27.002 15.1256 27.0604 14.8561C27.0797 14.7671 27.1561 14.6888 27.2468 14.6797C27.5385 14.6227 27.8301 14.4274 28.0002 14.1833C28.0046 14.1771 28.0091 14.171 28.0134 14.165C28.0592 14.1025 28.127 14.0852 28.2029 14.1009C28.4871 14.1596 29.2717 14.3229 30.1748 14.5223C30.1804 14.5235 30.1852 14.5182 30.1834 14.5128ZM21.734 17.6823C21.7367 17.6823 21.7394 17.6825 21.7421 17.683C22.1294 17.7568 22.4844 17.9436 22.775 18.2274C23.8444 19.2446 23.5446 21.0185 22.1998 21.6369C21.1872 22.1088 19.972 21.6613 19.4779 20.6523C18.9756 19.6189 19.405 18.3658 20.4257 17.8694C20.8457 17.6666 21.2818 17.6013 21.726 17.6815C21.7287 17.682 21.7313 17.6823 21.734 17.6823ZM28.9521 19.9443C28.9504 19.941 28.9533 19.9372 28.957 19.9379C29.3817 20.0197 29.6874 20.1743 29.9931 20.4733C30.4386 20.8964 30.6493 21.3846 30.6412 21.9868C30.6412 22.1495 30.6331 22.3285 30.6169 22.3773C30.6025 22.4302 30.5546 22.4669 30.4998 22.4669H30.3819C30.1875 22.4831 30.1713 22.475 30.1875 22.4343C30.1956 22.4099 30.2118 22.3448 30.2199 22.2878C30.229 22.2288 30.1897 22.1732 30.131 22.162L30.066 22.1495L30.0479 22.1462C29.9551 22.1293 29.8878 22.0485 29.8878 21.9542C29.8635 21.7345 29.7906 21.5636 29.6366 21.4172C29.6064 21.389 29.5716 21.3603 29.5364 21.3338C29.4046 21.2352 29.2806 21.3024 29.2073 21.4497L29.1571 21.5505C29.1259 21.6132 29.1476 21.6895 29.2073 21.7264C29.264 21.7671 29.3369 21.8322 29.3612 21.881C29.4283 21.9877 29.4259 22.1641 29.3728 22.2926C29.3297 22.3969 29.2229 22.4669 29.1101 22.4669C28.9399 22.4669 28.867 22.3773 28.8265 22.1332C28.7293 21.523 28.6645 21.3521 28.4944 21.2056C28.3648 21.0917 28.1784 21.0347 27.9597 21.0347C27.6519 21.0347 27.4169 21.1893 27.3035 21.4579C27.2963 21.4741 27.2903 21.4872 27.2844 21.4975C27.2461 21.5647 27.1112 21.5515 27.0767 21.4823C27.0594 21.4519 27.0169 21.2553 26.9833 21.0708C26.9429 20.8488 27.0066 20.6413 27.1658 20.4814C27.6496 20.0278 28.302 19.8242 28.9471 19.9507C28.9508 19.9514 28.9537 19.9476 28.9521 19.9443ZM16.4683 21.9542C16.4662 21.9542 16.4646 21.9561 16.465 21.9582C16.5134 22.2088 16.5615 22.4263 16.5615 22.4506C16.5615 22.475 16.2455 22.4831 14.9737 22.475H13.5189C13.4327 22.475 13.3488 22.4464 13.2805 22.3936C13.0942 22.2634 13.0132 22.003 13.1023 21.7996C13.1509 21.6938 13.2967 21.5555 13.394 21.523C13.4345 21.5148 14.123 21.4985 14.917 21.4985H16.1908C16.2983 21.4985 16.3912 21.5737 16.4136 21.6788L16.4715 21.9502C16.472 21.9523 16.4704 21.9542 16.4683 21.9542ZM36.3561 21.5311C36.3556 21.5311 36.3556 21.5317 36.356 21.5318C36.9375 21.6466 37.3818 22.0369 37.6162 22.654C37.6729 22.7923 37.6729 22.8086 37.681 25.9495V28.5639C37.681 28.8637 37.438 29.1067 37.1382 29.1067C36.834 29.1067 36.5874 28.8601 36.5874 28.5558V26.9585L36.5731 25.0729C36.5718 24.8987 36.5466 24.7255 36.4983 24.5581C36.3605 24.0617 36.0527 23.5328 35.7206 23.2236C35.2588 22.8005 34.6512 22.5238 34.0436 22.4831C33.9302 22.4831 33.833 22.4587 33.833 22.4506C33.833 22.4262 34.0112 21.5718 34.0274 21.5311C34.0436 21.4825 36.0819 21.4903 36.3567 21.5305C36.3572 21.5306 36.3565 21.5311 36.3561 21.5311ZM28.0689 21.6287C28.0674 21.6287 28.0666 21.6305 28.0676 21.6317C28.1385 21.7121 28.1628 21.7952 28.2108 22.1007C28.2351 22.239 28.2594 22.3855 28.2676 22.418C28.2838 22.475 28.2838 22.475 28.0245 22.475H27.8758C27.8297 22.475 27.8031 22.4228 27.8301 22.3855C27.8625 22.3367 27.8949 22.2878 27.8949 22.2716C27.8949 22.2553 27.8544 22.2146 27.8058 22.1821C27.5385 21.9705 27.6033 21.5718 27.9111 21.5718C27.9901 21.5718 28.0306 21.5873 28.0701 21.6258C28.0712 21.6269 28.0705 21.6287 28.0689 21.6287ZM23.654 23.5613C23.6525 23.5598 23.6537 23.5572 23.6558 23.5572C33.5983 23.5735 34.1004 23.5735 34.2543 23.6223C34.8456 23.8013 35.2669 24.2326 35.4451 24.8185C35.4856 24.9568 35.4856 25.1684 35.5018 27.0399V28.7098C35.5018 28.9335 35.3205 29.1148 35.0968 29.1148H34.7876C34.7219 29.1148 34.6598 29.0849 34.6188 29.0335C34.5297 28.9277 34.3839 28.8951 34.2543 28.944C34.1975 28.9684 34.1327 29.0091 34.1165 29.0416C34.0841 29.0986 34.0598 29.0986 33.6062 29.1148C33.0796 29.1311 32.8366 29.1718 32.5044 29.302C32.1804 29.4241 31.8968 29.6031 31.6214 29.8716C30.6655 30.7829 30.5035 32.1988 31.2325 33.3217C31.3703 33.5333 31.7348 33.8994 31.9373 34.0378C32.4558 34.3877 32.9014 34.5097 33.6224 34.5097H33.9162C34.0077 34.5097 34.0951 34.5481 34.157 34.6155C34.2381 34.705 34.2705 34.7213 34.3677 34.7213C34.4973 34.7213 34.635 34.6481 34.6593 34.5667C34.6755 34.5179 34.6917 34.5097 35.0968 34.5097C35.3294 34.5097 35.518 34.6983 35.518 34.931V36.5277L35.5036 38.322C35.5024 38.4701 35.4772 38.6172 35.4289 38.7573C35.2264 39.3757 34.7079 39.807 34.0598 39.9046C33.9383 39.9209 30.5197 39.929 24.2818 39.929C13.5479 39.929 14.4228 39.9453 14.0015 39.7419C13.7099 39.6035 13.394 39.2862 13.2481 39.0014C13.0618 38.6189 13.0699 39.2943 13.0699 30.9864V23.5773C13.0699 23.5434 13.1031 23.5195 13.1353 23.5303C13.1403 23.532 13.1421 23.5328 13.1474 23.5328C13.3142 23.5337 18.0141 23.5574 23.6523 23.5654C23.6544 23.5654 23.6555 23.5628 23.654 23.5613ZM38.8071 31.1735C38.799 32.1907 38.7909 32.2151 38.6207 32.565C38.4344 32.923 38.0699 33.2322 37.6486 33.3543C37.5028 33.3949 37.357 33.4031 35.3398 33.4031C32.9257 33.4031 33.0796 33.4112 32.6907 33.2159C32.4639 33.0939 32.1804 32.8172 32.0508 32.5894C31.7753 32.093 31.7915 31.4746 32.0832 30.9782C32.2614 30.6772 32.5935 30.4168 32.9581 30.2866C33.0715 30.2486 33.9869 30.2242 35.7044 30.2134C38.4911 30.1971 38.3615 30.2052 38.6937 30.0587L38.7033 30.0546C38.7524 30.0335 38.8071 30.0694 38.8071 30.1229C38.8071 30.1289 38.8078 30.1348 38.8088 30.1408C38.8232 30.2313 38.8227 30.6794 38.8071 31.1654V31.1735ZM37.681 35.4374C37.681 36.5196 37.6729 36.5928 37.5028 36.9264C37.3489 37.2438 36.96 37.6018 36.6441 37.7239C36.6082 37.7359 36.5712 37.7092 36.5712 37.6714V34.9795C36.5712 34.7111 36.7888 34.4935 37.0572 34.4935C37.313 34.4857 37.5465 34.4779 37.6017 34.4701C37.6061 34.4695 37.6103 34.469 37.6147 34.469C37.6513 34.469 37.681 34.4987 37.681 34.5354V35.4211V35.4374Z" fill="url(#paint0_linear_1_1016)"/>
<path id="Vector_2" d="M19.7538 12.8159C19.5026 12.9461 19.4621 13.3367 19.6809 13.5239C19.9806 13.7761 20.4019 13.5808 20.4019 13.1902C20.4019 12.8647 20.0535 12.6613 19.7538 12.8159ZM20.017 13.894C20.0146 13.8916 20.011 13.8911 20.0081 13.8928C19.9218 13.943 19.8672 14.0549 19.8672 14.1667C19.8672 14.2643 20.0859 15.2977 20.1264 15.4117C20.1669 15.5093 20.2885 15.5825 20.4181 15.5825C20.5477 15.5825 20.7016 15.4686 20.7259 15.3384C20.734 15.2815 20.7016 15.0455 20.6125 14.6386C20.4829 14.0365 20.4829 14.0202 20.3938 13.9388C20.3209 13.8737 20.2804 13.8575 20.1993 13.8575C20.1372 13.8575 20.0675 13.8725 20.0262 13.8952C20.0232 13.8969 20.0194 13.8964 20.017 13.894ZM20.4382 15.839C20.439 15.8382 20.438 15.8369 20.437 15.8374C20.182 15.9608 20.1033 16.2433 20.2641 16.4857C20.3371 16.5997 20.4667 16.6648 20.6287 16.6648C20.7745 16.6648 20.896 16.5997 20.9851 16.4613C21.0338 16.3881 21.0419 16.3474 21.0338 16.2172C21.0175 16.0301 20.9527 15.908 20.7988 15.8429C20.6709 15.7867 20.5667 15.786 20.4394 15.8407C20.4383 15.8412 20.4374 15.8398 20.4382 15.839ZM29.7505 15.0658C29.7505 15.0683 29.7492 15.0707 29.747 15.0721C29.507 15.2275 29.4599 15.5348 29.6614 15.7534C29.8882 15.9975 30.3257 15.8755 30.3986 15.5418C30.4553 15.2733 30.2771 15.0373 29.9936 15.0129C29.8739 15.0129 29.825 15.0129 29.7539 15.0595C29.7518 15.0609 29.7505 15.0633 29.7505 15.0658ZM29.5642 16.1808C29.5642 16.1791 29.5622 16.1784 29.561 16.1795C29.467 16.2661 29.4657 16.2724 29.3455 16.8438C29.2077 17.4703 29.1996 17.5598 29.2564 17.6656C29.3698 17.8853 29.7181 17.8853 29.8153 17.6656C29.8662 17.5635 30.0117 16.8558 30.0643 16.5199C30.0821 16.4057 30.0751 16.2829 29.9936 16.2009C29.9368 16.1359 29.8963 16.1196 29.791 16.1114C29.6709 16.0954 29.6537 16.1111 29.5673 16.1821C29.5661 16.1831 29.5642 16.1823 29.5642 16.1808ZM29.1834 18.0643C29.0538 18.1132 28.989 18.1701 28.9323 18.3003C28.8756 18.4224 28.8756 18.4712 28.908 18.6095C28.9728 18.8292 29.2159 18.9676 29.4427 18.9025C29.7343 18.8211 29.8558 18.4793 29.6857 18.2189C29.5885 18.0725 29.3536 17.9992 29.1834 18.0643ZM21.7223 18.7845C21.7223 18.7869 21.7208 18.7891 21.7185 18.7898C21.4778 18.8712 21.3331 18.9931 21.2525 19.1954C21.2282 19.2605 21.1715 19.4639 21.1472 19.6511C21.0824 20.0498 21.0581 20.1149 20.9608 20.1637C20.8069 20.2451 20.6449 20.1963 20.5639 20.0498C20.4505 19.8219 20.5153 19.586 20.7178 19.4639C20.7815 19.4274 20.8057 19.3475 20.7729 19.2818L20.7178 19.171L20.6529 19.0405C20.6261 18.9868 20.5608 18.965 20.5072 18.992C20.2317 19.1303 20.0697 19.3744 20.0454 19.6836L20.0395 19.7485C20.0335 19.8154 19.9823 19.8694 19.9158 19.8789C19.689 19.9115 19.6809 19.9196 19.7133 20.0742C19.7295 20.1474 19.7457 20.2207 19.7538 20.2288C19.7619 20.2369 19.8348 20.2288 19.9239 20.2125C20.0344 20.1924 20.1412 20.2178 20.1912 20.3183C20.3452 20.6275 20.6044 20.7821 20.9365 20.7577C21.2606 20.7333 21.5117 20.5624 21.6089 20.302C21.6332 20.2207 21.6818 20.0254 21.7142 19.8626C21.7791 19.4802 21.8034 19.407 21.8763 19.3581C21.9411 19.3093 22.1193 19.3093 22.176 19.3581C22.3623 19.5046 22.3461 19.7406 22.1274 19.9196C22.0678 19.9703 22.0566 20.0581 22.1017 20.1221L22.1598 20.2044L22.2132 20.2802C22.2601 20.3466 22.3515 20.3636 22.419 20.3183C22.6135 20.1881 22.7188 20.001 22.7431 19.7569L22.7478 19.7096C22.7546 19.6408 22.8051 19.5842 22.8727 19.5697C22.965 19.5465 23.015 19.4807 22.9992 19.3868C22.9977 19.3775 22.996 19.3679 22.9942 19.3581C22.9618 19.1954 22.9942 19.2035 22.7512 19.2524C22.6864 19.2686 22.6702 19.2524 22.6297 19.1628C22.5649 19.0245 22.4271 18.878 22.2813 18.8129C22.1368 18.7484 21.8728 18.7319 21.7262 18.7791C21.7238 18.7799 21.7223 18.782 21.7223 18.7845ZM14.8283 24.1957C14.8283 24.198 14.8267 24.2001 14.8244 24.2008C14.7364 24.2253 14.6414 24.2651 14.6015 24.2892C14.5286 24.338 14.4638 24.4764 14.4638 24.5659C14.4638 24.6554 14.5529 24.7856 14.642 24.8344C14.7392 24.8832 14.8121 24.8832 14.9984 24.8344C15.0876 24.81 15.2577 24.7937 15.4359 24.7937C15.7599 24.7937 15.8491 24.7693 15.9139 24.6391C15.9949 24.4764 15.9382 24.2648 15.8004 24.1834C15.6877 24.1268 15.0544 24.1345 14.8321 24.1906C14.8298 24.1912 14.8283 24.1932 14.8283 24.1957ZM16.3189 24.1955C16.3189 24.1981 16.3175 24.2005 16.3153 24.2019C16.1003 24.3333 16.1096 24.6397 16.3351 24.753C16.4404 24.81 17.3802 24.81 17.4936 24.753C17.6961 24.6472 17.6961 24.2892 17.4936 24.1834C17.4369 24.1509 17.3154 24.1427 16.9103 24.1427C16.4555 24.1427 16.3936 24.1427 16.3222 24.1894C16.3202 24.1907 16.3189 24.193 16.3189 24.1955ZM18.0282 24.1872C18.0282 24.1899 18.0267 24.1923 18.0244 24.1936C17.8258 24.3018 17.8351 24.6479 18.0282 24.753C18.1336 24.81 19.0733 24.81 19.1867 24.753C19.3649 24.6635 19.4135 24.4764 19.3163 24.3055C19.2272 24.159 19.1705 24.1427 18.6034 24.1427C18.2148 24.1427 18.0824 24.1505 18.0314 24.1814C18.0294 24.1826 18.0282 24.1848 18.0282 24.1872ZM19.7376 24.1955C19.7376 24.1981 19.7362 24.2005 19.7339 24.2019C19.5189 24.3333 19.5282 24.6397 19.7538 24.753C19.8591 24.81 20.7988 24.81 20.9122 24.753C21.1148 24.6472 21.1148 24.2892 20.9122 24.1834C20.8555 24.1509 20.734 24.1427 20.329 24.1427C19.8742 24.1427 19.8123 24.1427 19.7409 24.1894C19.7388 24.1907 19.7376 24.193 19.7376 24.1955ZM21.4469 24.1872C21.4469 24.1899 21.4454 24.1923 21.4431 24.1936C21.2445 24.3018 21.2537 24.6479 21.4469 24.753C21.5522 24.81 22.4919 24.81 22.6054 24.753C22.7836 24.6635 22.8322 24.4764 22.735 24.3055C22.6459 24.159 22.5892 24.1427 22.0221 24.1427C21.6335 24.1427 21.5011 24.1505 21.4501 24.1814C21.4481 24.1826 21.4469 24.1848 21.4469 24.1872ZM23.1562 24.1955C23.1562 24.1981 23.1548 24.2005 23.1526 24.2019C22.9376 24.3333 22.9469 24.6397 23.1724 24.753C23.2778 24.81 24.2175 24.81 24.3309 24.753C24.5334 24.6472 24.5334 24.2892 24.3309 24.1834C24.2742 24.1509 24.1527 24.1427 23.7476 24.1427C23.2929 24.1427 23.231 24.1427 23.1595 24.1894C23.1575 24.1907 23.1562 24.193 23.1562 24.1955ZM24.8656 24.1872C24.8656 24.1899 24.8641 24.1923 24.8617 24.1936C24.6632 24.3018 24.6724 24.6479 24.8656 24.753C24.9709 24.81 25.9106 24.81 26.024 24.753C26.2022 24.6635 26.2509 24.4764 26.1536 24.3055C26.0645 24.159 26.0078 24.1427 25.4407 24.1427C25.0522 24.1427 24.9198 24.1505 24.8688 24.1814C24.8667 24.1826 24.8656 24.1848 24.8656 24.1872ZM26.5545 24.2078C26.5559 24.2078 26.5566 24.2096 26.5555 24.2105C26.4682 24.2836 26.4129 24.3882 26.4129 24.5008C26.4129 24.574 26.4372 24.6147 26.5101 24.6961C26.5723 24.7586 26.6569 24.7937 26.7451 24.7937H27.5632C27.6514 24.7937 27.7359 24.7586 27.7982 24.6961C27.8792 24.6147 27.8954 24.574 27.8954 24.5008C27.8954 24.3868 27.8387 24.2729 27.7496 24.2078C27.6847 24.159 27.6523 24.1509 27.1501 24.1509C26.6556 24.1509 26.6165 24.1509 26.5536 24.2052C26.5526 24.2061 26.5532 24.2078 26.5545 24.2078ZM28.2804 24.2035C28.2776 24.2064 28.2744 24.2089 28.271 24.2111C28.121 24.3104 28.0667 24.5266 28.1708 24.6554C28.2761 24.7856 28.3328 24.8018 28.8756 24.8018C29.4184 24.8018 29.4994 24.7856 29.5723 24.6472C29.6533 24.4845 29.5966 24.2729 29.4589 24.1916C29.4022 24.159 29.2807 24.1509 28.8756 24.1509C28.4234 24.1509 28.3597 24.1509 28.2888 24.1967C28.2857 24.1987 28.2829 24.201 28.2804 24.2035ZM29.9855 24.1954C29.9855 24.198 29.9839 24.2005 29.9816 24.2017C29.783 24.3099 29.7923 24.656 29.9855 24.7612C30.0908 24.8181 31.0305 24.8181 31.1439 24.7612C31.3221 24.6716 31.3707 24.4845 31.2735 24.3136C31.1844 24.1671 31.1277 24.1509 30.5606 24.1509C30.172 24.1509 30.0396 24.1587 29.9886 24.1895C29.9866 24.1908 29.9855 24.193 29.9855 24.1954ZM31.6991 24.2035C31.6962 24.2064 31.693 24.2089 31.6897 24.2111C31.5396 24.3104 31.4853 24.5266 31.5895 24.6554C31.6948 24.7856 31.7515 24.8018 32.2943 24.8018C32.837 24.8018 32.918 24.7856 32.991 24.6472C33.072 24.4845 33.0153 24.2729 32.8775 24.1916C32.8208 24.159 32.6993 24.1509 32.2943 24.1509C31.8421 24.1509 31.7783 24.1509 31.7074 24.1967C31.7044 24.1987 31.7016 24.201 31.6991 24.2035ZM33.4163 24.2078C33.4172 24.2078 33.4175 24.2091 33.4166 24.2094C33.2494 24.2849 33.1944 24.5506 33.3231 24.6961C33.3636 24.7449 33.4284 24.7856 33.4932 24.8018C33.6471 24.8425 33.8578 24.989 33.9469 25.1192C34.0441 25.2494 34.1089 25.2901 34.2466 25.2901C34.3357 25.2901 34.3762 25.2738 34.4411 25.2087C34.6193 25.0297 34.5707 24.8181 34.2952 24.5414C34.0537 24.2908 33.6123 24.1285 33.416 24.2063C33.4151 24.2066 33.4154 24.2078 33.4163 24.2078ZM14.1034 24.8549C14.1053 24.8568 14.1046 24.8599 14.1022 24.861C13.9118 24.9439 13.8481 25.1565 13.8481 25.6969C13.8481 26.1363 13.8724 26.2177 14.002 26.2828C14.1478 26.3642 14.3747 26.3072 14.4476 26.1851C14.4719 26.1526 14.4881 25.9736 14.4962 25.7132C14.5043 25.4854 14.5205 25.2494 14.5286 25.1843C14.5529 25.0378 14.5043 24.9239 14.3747 24.8669C14.2793 24.8191 14.1996 24.8181 14.1049 24.8488C14.1023 24.8496 14.1015 24.8529 14.1034 24.8549ZM34.198 25.5464C34.198 25.5446 34.196 25.5434 34.1944 25.5443C34.0681 25.6169 34.0522 25.6939 34.0522 26.2421C34.0522 26.7954 34.0684 26.8605 34.2142 26.95C34.3681 27.0477 34.5788 26.9988 34.6598 26.8442C34.6922 26.7791 34.7003 26.6734 34.6922 26.2177V25.7535C34.6922 25.6972 34.6666 25.6438 34.6227 25.6085C34.615 25.6024 34.608 25.5955 34.6008 25.5888C34.5138 25.5088 34.3113 25.4884 34.2016 25.5485C34.2 25.5493 34.198 25.5482 34.198 25.5464ZM18.652 26.0794C18.6412 26.0794 18.6305 26.0801 18.6198 26.0818C18.3426 26.1274 18.0903 26.3205 17.9472 26.592C17.8824 26.714 17.8743 26.7547 17.8743 26.9988C17.8743 27.243 17.8743 27.2836 17.9472 27.4057C18.0444 27.5929 18.1579 27.7149 18.3199 27.8044C18.4052 27.8548 18.4576 27.9466 18.4576 28.0457V29.1987C18.4576 29.5522 18.1711 29.8387 17.8176 29.8387C17.1128 29.855 17.0966 29.8631 16.9913 30.0258C16.9427 30.1072 16.9427 30.156 16.9427 30.9046C16.9427 31.3451 16.5857 31.7021 16.1453 31.7021H15.5169C13.9453 31.7021 13.9777 31.7021 13.8967 31.8567C13.8643 31.9136 13.8562 32.0438 13.8562 32.5239C13.8562 33.0935 13.8562 33.1179 13.9129 33.1993C13.9453 33.2481 14.0101 33.2969 14.0587 33.3214C14.1235 33.3458 14.6177 33.3539 15.9301 33.3539H16.9985C17.3927 33.3539 17.7123 33.6735 17.7123 34.0677V34.3734C17.7123 34.4471 17.6719 34.515 17.607 34.55C17.4369 34.6396 17.2667 34.8186 17.1857 34.9976C17.1209 35.1359 17.1128 35.1847 17.1128 35.4044C17.1128 35.5997 17.1209 35.673 17.1695 35.7706C17.2505 35.9578 17.4531 36.1531 17.6475 36.2426C17.7852 36.3077 17.8338 36.3158 18.0363 36.3158C18.247 36.3158 18.2875 36.3158 18.4414 36.2344C18.8384 36.0391 19.049 35.5997 18.9437 35.1685C18.8708 34.8918 18.6925 34.664 18.4495 34.5419C18.3998 34.517 18.3685 34.4661 18.3685 34.4106V34.0697C18.3685 33.6834 18.6817 33.3702 19.068 33.3702H19.6459C19.9605 33.3702 20.2155 33.6252 20.2155 33.9398C20.2155 34.55 20.2317 34.6477 20.3533 34.7209C20.3938 34.7453 20.8636 34.7535 22.2165 34.7616L23.8819 34.7765C23.9742 34.7774 24.059 34.8276 24.1041 34.9081C24.2094 35.0952 24.3228 35.201 24.5091 35.2905C24.663 35.3638 24.6954 35.3719 24.9223 35.3719C25.1329 35.3719 25.1896 35.3638 25.3111 35.3068C25.5056 35.2173 25.6433 35.079 25.7486 34.8918C25.8215 34.7535 25.8377 34.7047 25.8458 34.4931C25.8458 34.2978 25.8458 34.2327 25.7972 34.1025C25.7162 33.8909 25.4894 33.655 25.2706 33.5736C25.06 33.4922 24.7846 33.4922 24.582 33.5736C24.4038 33.6468 24.1851 33.834 24.096 33.9967C24.0561 34.0718 23.978 34.1188 23.893 34.1188H21.2298C21.0231 34.1188 20.8555 33.9512 20.8555 33.7445C20.8555 33.5378 21.0231 33.3702 21.2298 33.3702H21.374C21.8682 33.3539 21.9006 33.3539 21.9735 33.2969C22.0221 33.2644 22.0707 33.1993 22.0869 33.1342C22.1274 32.9959 22.0869 32.8494 21.9735 32.768C21.9208 32.731 21.8579 32.7111 21.7934 32.7111H18.1984L14.6707 32.6955C14.5787 32.6951 14.5043 32.6204 14.5043 32.5284C14.5043 32.436 14.5791 32.3612 14.6715 32.3612H15.9058C17.4288 32.3612 17.4207 32.3612 17.5341 32.2228C17.5908 32.1496 17.5908 32.1333 17.5908 31.344C17.5908 30.8946 17.9551 30.5303 18.4045 30.5303H18.9032C20.3533 30.5303 20.3452 30.5303 20.4424 30.3676C20.5396 30.2049 20.491 30.0014 20.329 29.9119C20.256 29.8712 20.1669 29.8631 19.689 29.855C19.3803 29.855 19.13 29.6047 19.13 29.296V28.0399C19.13 27.955 19.1767 27.877 19.2515 27.837C19.4135 27.7475 19.608 27.5278 19.6728 27.3487C19.7538 27.1453 19.7538 26.8687 19.6728 26.6571C19.5918 26.4455 19.3568 26.2095 19.1624 26.1363C18.9842 26.0712 18.8303 26.0549 18.652 26.0794ZM18.9842 26.8036C19.0571 26.8768 19.0733 26.9093 19.0733 26.9988C19.0733 27.0884 19.0571 27.1209 18.9842 27.1941C18.9113 27.2674 18.8789 27.2836 18.7898 27.2836C18.7006 27.2836 18.6682 27.2674 18.5953 27.1941C18.5224 27.1209 18.5062 27.0884 18.5062 26.9988C18.5062 26.9093 18.5224 26.8768 18.5953 26.8036C18.6682 26.7303 18.7006 26.714 18.7898 26.714C18.8789 26.714 18.9113 26.7303 18.9842 26.8036ZM25.1086 34.2408C25.222 34.371 25.222 34.5094 25.1005 34.6314C25.0195 34.7128 25.0033 34.7209 24.8899 34.7128C24.6387 34.6884 24.5415 34.428 24.7035 34.2408C24.7765 34.1595 24.8008 34.1513 24.9061 34.1513C25.0114 34.1513 25.0357 34.1595 25.1086 34.2408ZM18.0378 35.0887C18.1455 35.1036 18.2532 35.1711 18.2875 35.2743C18.3361 35.38 18.3118 35.4858 18.2146 35.5835C18.0363 35.7706 17.6961 35.5835 17.7447 35.3312C17.7609 35.2498 17.8581 35.1278 17.9391 35.0952C17.9632 35.0849 17.999 35.0833 18.0378 35.0887ZM14.0059 26.5963C14.0033 26.5988 14.0003 26.6011 13.9972 26.6029C13.872 26.6751 13.8562 26.7454 13.8562 27.2918C13.8562 27.8451 13.8724 27.9102 14.0182 27.9997C14.1802 28.0974 14.3666 28.0485 14.4638 27.8695C14.5205 27.7637 14.5205 26.8198 14.4638 26.7059C14.3917 26.5692 14.1692 26.5119 14.0155 26.5892C14.0119 26.591 14.0087 26.5934 14.0059 26.5963ZM34.2182 27.2551C34.2159 27.2528 34.2121 27.2524 34.2093 27.2541C34.0522 27.3491 34.0522 27.371 34.0522 27.9427C34.0522 28.5205 34.0684 28.5856 34.2142 28.6588C34.3357 28.7239 34.5302 28.6914 34.6112 28.61C34.6576 28.5686 34.6841 28.5093 34.6841 28.4471V27.9916C34.7003 27.5278 34.6922 27.4301 34.6598 27.365C34.5796 27.2121 34.3806 27.1626 34.2273 27.2562C34.2244 27.2579 34.2206 27.2575 34.2182 27.2551ZM14.0223 28.313C14.0199 28.3106 14.0161 28.3102 14.0132 28.3119C13.8562 28.407 13.8562 28.4289 13.8562 29.0087C13.8562 29.5132 13.8562 29.5457 13.9129 29.6108C13.9858 29.7004 14.0911 29.7573 14.2045 29.7573C14.2774 29.7573 14.3179 29.7329 14.399 29.6597C14.4612 29.5971 14.4962 29.5125 14.4962 29.4242V28.6013C14.4962 28.5131 14.4612 28.4284 14.399 28.3659C14.3179 28.2845 14.2774 28.2682 14.2045 28.2682C14.1501 28.2682 14.0731 28.2908 14.0313 28.3142C14.0283 28.3158 14.0246 28.3154 14.0223 28.313Z" fill="url(#paint1_linear_1_1016)"/>
</g>
</g>
<defs>
<linearGradient id="paint0_linear_1_1016" x1="12.0001" y1="11.6681" x2="39.8381" y2="13.993" gradientUnits="userSpaceOnUse">
<stop stop-color="#6060F2"/>
<stop offset="1" stop-color="#B0ACEB"/>
</linearGradient>
<linearGradient id="paint1_linear_1_1016" x1="13.8481" y1="14.7259" x2="34.6378" y2="16.4889" gradientUnits="userSpaceOnUse">
<stop stop-color="#6060F2"/>
<stop offset="1" stop-color="#B0ACEB"/>
</linearGradient>
</defs>
</svg>
