<svg width="157" height="41" viewBox="0 0 157 41" fill="none" xmlns="http://www.w3.org/2000/svg">
<g id="Group 1171274741">
<g id="Group 1171274739">
<path id="Vector" d="M60.882 17.945C60.4408 16.1712 59.3273 14.8729 57.1435 14.8729C53.9276 14.8729 52.5834 17.7935 52.5834 20.7561C52.5834 23.7187 53.9276 26.6417 57.1435 26.6417C59.4744 26.6417 60.7644 24.8469 60.9658 22.5976H63.5298C63.3194 26.2967 60.778 28.8491 57.1435 28.8491C52.6467 28.8491 49.9582 25.1709 49.9582 20.7561C49.9582 16.3413 52.6467 12.6655 57.1435 12.6655C60.5245 12.6864 63.1927 14.6118 63.5072 17.945H60.882ZM65.0846 22.8773C65.0846 19.4601 67.0806 16.9917 70.568 16.9917C74.0554 16.9917 76.0492 19.4601 76.0492 22.8773C76.0492 26.2944 74.0531 28.7838 70.568 28.7838C67.0829 28.7838 65.0846 26.3177 65.0846 22.8773ZM73.6548 22.8773C73.6548 20.9519 72.7089 18.9403 70.568 18.9403C68.4271 18.9403 67.4789 20.9519 67.4789 22.8773C67.4789 24.8026 68.4249 26.8398 70.568 26.8398C72.7111 26.8398 73.6548 24.8259 73.6548 22.8773ZM78.1086 13.0338H80.5029V15.3647H78.1086V13.0338ZM78.1086 17.2947H80.5029V28.4831H78.1086V17.2947ZM83.11 17.2947H85.373V18.9403L85.416 18.9823C85.7599 18.3736 86.2535 17.869 86.8471 17.5195C87.4407 17.17 88.1133 16.988 88.7971 16.9917C91.1507 16.9917 92.6443 18.29 92.6443 20.8004V28.4925H90.2522V21.4507C90.2092 19.6979 89.5371 18.9403 88.1295 18.9403C86.534 18.9403 85.5043 20.2387 85.5043 21.882V28.4808H83.11V17.2947ZM108.592 28.4808H106.911L106.512 26.665C105.105 28.3083 103.822 28.8491 101.986 28.8491C97.4895 28.8491 94.801 25.1709 94.801 20.7561C94.801 16.3413 97.4895 12.6655 101.986 12.6655C105.263 12.6655 108.015 14.4603 108.413 17.945H105.861C105.607 15.9101 103.885 14.8729 101.995 14.8729C98.7818 14.8729 97.4352 17.7935 97.4352 20.7561C97.4352 23.7187 98.7818 26.6417 101.995 26.6417C104.684 26.686 106.155 25.0101 106.196 22.4018H102.206V20.3459H108.592V28.4808ZM112.983 23.5276C112.983 25.2805 113.906 26.8375 115.902 26.8375C117.289 26.8375 118.129 26.2105 118.55 24.9728H120.813C120.288 27.4179 118.271 28.7792 115.897 28.7792C112.503 28.7792 110.584 26.334 110.584 22.8936C110.584 19.7142 112.6 16.987 115.834 16.987C119.258 16.987 121.36 20.1687 120.96 23.5136L112.983 23.5276ZM118.57 21.8959C118.486 20.3389 117.457 18.9333 115.839 18.9333C114.18 18.9333 113.046 20.2317 112.983 21.8959H118.57ZM130.125 21.0382C129.935 19.6746 128.969 18.9403 127.636 18.9403C126.398 18.9403 124.653 19.6116 124.653 23.0078C124.653 24.8725 125.452 26.8375 127.532 26.8375C128.919 26.8375 129.885 25.8865 130.116 24.2851H132.511C132.058 27.1825 130.327 28.7838 127.532 28.7838C124.137 28.7838 122.259 26.2967 122.259 23.0078C122.259 19.6326 124.044 16.9917 127.616 16.9917C130.137 16.9917 132.28 18.29 132.511 21.0382H130.125ZM134.536 13.0338H136.933V21.8167L141.271 17.2947H144.213L140.053 21.4064L144.614 28.4808H141.678L138.361 23.0498L136.933 24.4786V28.4808H134.536V13.0338ZM145.252 22.8773C145.252 19.4601 147.248 16.9917 150.733 16.9917C154.218 16.9917 156.207 19.4601 156.207 22.8773C156.207 26.2944 154.211 28.7838 150.724 28.7838C147.236 28.7838 145.252 26.3177 145.252 22.8773ZM153.822 22.8773C153.822 20.9519 152.876 18.9403 150.733 18.9403C148.59 18.9403 147.646 20.9519 147.646 22.8773C147.646 24.8026 148.592 26.8398 150.733 26.8398C152.874 26.8398 153.822 24.8259 153.822 22.8773Z" fill="white"/>
<g id="Group 1171274742">
<path id="Vector_2" d="M37.3811 20.1676C37.3957 23.4747 36.4292 26.7119 34.604 29.4697C32.7788 32.2276 30.1767 34.3824 27.1268 35.6615C24.0769 36.9407 20.7162 37.2868 17.4696 36.6561C14.223 36.0254 11.2363 34.4462 8.88728 32.1182C6.53821 29.7902 4.93225 26.818 4.27246 23.5773C3.61267 20.3367 3.92868 16.9732 5.18054 13.9121C6.4324 10.851 8.56388 8.22992 11.3055 6.38016C14.047 4.53039 17.2756 3.53508 20.5828 3.52006C25.0181 3.50039 29.2795 5.24323 32.4298 8.36521C35.58 11.4872 37.361 15.7326 37.3811 20.1676Z" fill="#8DC63F"/>
<path id="Vector_3" d="M36.1213 20.1713C36.1352 23.2293 35.2419 26.2227 33.5545 28.7731C31.867 31.3235 29.4611 33.3162 26.641 34.4994C23.821 35.6825 20.7134 36.0028 17.7113 35.4199C14.7091 34.837 11.9473 33.3769 9.77494 31.2245C7.60263 29.072 6.11741 26.3237 5.50711 23.3271C4.89681 20.3306 5.18883 17.2204 6.34626 14.3898C7.50368 11.5592 9.47452 9.13542 12.0095 7.42487C14.5446 5.71431 17.5299 4.79386 20.5881 4.77989C22.6187 4.77061 24.6313 5.16136 26.5108 5.92984C28.3904 6.69831 30.1002 7.82945 31.5426 9.25867C32.985 10.6879 34.1317 12.3872 34.9173 14.2596C35.7029 16.132 36.112 18.1408 36.1213 20.1713Z" fill="#F9E988"/>
<path id="Vector_4" d="M20.9405 5.78236C21.9235 5.60689 22.9298 5.60689 23.9129 5.78236C24.9053 5.93961 25.8646 6.26114 26.7513 6.73375C27.6323 7.21825 28.3952 7.87541 29.1528 8.49558C29.9105 9.11574 30.6663 9.74296 31.3852 10.4336C32.1182 11.1126 32.7581 11.8858 33.2881 12.7328C33.8346 13.5741 34.2821 14.4757 34.6219 15.4196C35.2829 17.305 35.471 19.3238 35.1698 21.2988H35.0712C34.781 19.4119 34.2956 17.5603 33.6228 15.7737C33.3004 14.8902 32.9208 14.0286 32.4864 13.1944C32.0299 12.3626 31.5275 11.5568 30.9817 10.7807C30.425 9.99512 29.7428 9.30645 28.9625 8.74223C28.1785 8.18373 27.2764 7.8208 26.4025 7.47724C25.5286 7.13368 24.6546 6.79189 23.7472 6.52937C22.8398 6.26686 21.9113 6.0713 20.944 5.88102L20.9405 5.78236Z" fill="white"/>
<path id="Vector_5" d="M28.4992 14.7095C27.3769 14.3836 26.2087 13.9237 25.0353 13.4586C24.9683 13.1626 24.7058 12.7944 24.1772 12.3451C23.4073 11.6774 21.9625 11.695 20.7133 11.9928C19.3354 11.6686 17.9735 11.5541 16.6608 11.8677C5.97474 14.81 12.0358 22.0035 8.1102 29.227C8.66873 30.411 14.6892 37.3315 23.4002 35.4692C23.4002 35.4692 20.4225 28.3109 27.1443 24.8753C32.5975 22.0793 36.5389 16.903 28.4992 14.7095Z" fill="#8BC53F"/>
<path id="Vector_6" d="M29.8187 19.4154C29.8198 19.5438 29.7827 19.6696 29.7122 19.7769C29.6416 19.8841 29.5408 19.9681 29.4226 20.018C29.3043 20.0679 29.1738 20.0816 29.0478 20.0574C28.9217 20.0331 28.8057 19.9719 28.7144 19.8816C28.6231 19.7914 28.5607 19.676 28.535 19.5502C28.5094 19.4244 28.5217 19.2939 28.5703 19.175C28.619 19.0562 28.7018 18.9545 28.8083 18.8829C28.9148 18.8112 29.0402 18.7727 29.1686 18.7723C29.2535 18.7719 29.3377 18.7881 29.4163 18.8202C29.4949 18.8523 29.5665 18.8995 29.6268 18.9592C29.6872 19.019 29.7352 19.09 29.7682 19.1682C29.8011 19.2465 29.8183 19.3305 29.8187 19.4154Z" fill="white"/>
<path id="Vector_7" d="M20.7132 11.9893C21.492 12.0457 24.3093 12.9654 25.0352 13.4587C24.4344 11.6968 22.3923 11.4678 20.7132 11.9893Z" fill="#009345"/>
<path id="Vector_8" d="M21.455 16.4326C21.455 17.025 21.2793 17.6041 20.9502 18.0966C20.6211 18.5892 20.1533 18.973 19.6059 19.1997C19.0586 19.4264 18.4564 19.4857 17.8753 19.3702C17.2943 19.2546 16.7606 18.9694 16.3417 18.5505C15.9228 18.1316 15.6375 17.5979 15.522 17.0169C15.4064 16.4359 15.4657 15.8337 15.6924 15.2864C15.9191 14.7391 16.303 14.2714 16.7956 13.9423C17.2882 13.6132 17.8673 13.4375 18.4597 13.4375C19.2541 13.4375 20.016 13.7531 20.5777 14.3147C21.1394 14.8764 21.455 15.6383 21.455 16.4326Z" fill="white"/>
<path id="Vector_9" d="M20.5688 16.459C20.5692 16.8751 20.4461 17.282 20.2151 17.6282C19.9842 17.9743 19.6557 18.2442 19.2714 18.4037C18.887 18.5632 18.4639 18.6051 18.0557 18.5242C17.6475 18.4432 17.2725 18.243 16.9781 17.9489C16.6837 17.6547 16.4832 17.2799 16.4019 16.8718C16.3206 16.4637 16.3621 16.0406 16.5213 15.6561C16.6805 15.2716 16.9501 14.943 17.2961 14.7118C17.6421 14.4805 18.0489 14.3571 18.4651 14.3571C19.0226 14.3576 19.5571 14.5791 19.9515 14.9731C20.3459 15.3672 20.5679 15.9015 20.5688 16.459Z" fill="#58595B"/>
<path id="Vector_10" d="M32.2415 20.7332C29.8188 22.4405 27.0632 23.7284 23.1552 23.7284C21.3263 23.7284 20.9563 21.7903 19.7476 22.7382C19.1222 23.2298 16.9286 24.3239 15.1754 24.2463C13.4223 24.1688 10.5944 23.1381 9.81038 19.4119C9.49851 23.1381 9.33818 25.8831 7.93921 29.0297C10.7266 33.4924 17.3708 36.9333 23.4001 35.4533C22.7535 30.929 26.7073 26.4962 28.9361 24.2287C29.7783 23.3707 31.4028 21.9683 32.2415 20.7262V20.7332Z" fill="#8BC53F"/>
<path id="Vector_11" d="M32.1464 20.846C31.3746 21.5097 30.5134 22.0618 29.5881 22.4862C28.6657 22.9245 27.7042 23.2748 26.7161 23.5328C25.7294 23.7882 24.697 23.9803 23.6521 23.8851C22.6073 23.79 21.5378 23.4341 20.8489 22.6518L20.8824 22.6131C21.7352 23.1645 22.7095 23.3583 23.6821 23.3865C24.6696 23.4152 25.6571 23.333 26.6263 23.1416C27.6054 22.9376 28.5633 22.6427 29.4876 22.2607C30.4269 21.902 31.3112 21.4134 32.1147 20.809L32.1464 20.846Z" fill="#58595B"/>
</g>
</g>
</g>
</svg>
