<svg width="200" height="35" viewBox="0 0 200 35" fill="none" xmlns="http://www.w3.org/2000/svg">
<g id="Group 1171274740">
<path id="Vector" fill-rule="evenodd" clip-rule="evenodd" d="M29.4382 21.0487C28.839 21.4275 28.1333 21.4744 27.5969 21.1719C26.9155 20.7873 26.5408 19.8864 26.5408 18.6337V14.8854C26.5408 13.0753 25.8251 11.7874 24.6282 11.4396C22.6 10.8488 21.0746 13.3301 20.5013 14.2619L16.9242 20.0607V12.9731C16.884 11.3424 16.3543 10.367 15.3485 10.0728C14.6831 9.87843 13.6874 9.95637 12.7202 11.4362L4.70606 24.3026C3.63326 22.2663 3.07423 19.9987 3.07675 17.6968C3.07675 9.94631 9.28891 3.64134 16.9242 3.64134C24.5595 3.64134 30.7708 9.94631 30.7708 17.6968C30.7708 17.7102 30.7742 17.7219 30.775 17.7345C30.775 17.7479 30.7725 17.7596 30.7733 17.7731C30.8454 19.2739 30.3593 20.4672 29.4382 21.0487ZM33.8476 17.6976V17.6582L33.8467 17.6197C33.804 8.18068 26.2299 0.518188 16.9234 0.518188C7.59255 0.518188 0 8.22426 0 17.6968C0 27.1685 7.59255 34.8754 16.9242 34.8754C21.2062 34.8754 25.2929 33.248 28.43 30.2942C29.0535 29.7076 29.0904 28.7196 28.5121 28.0878C28.2238 27.7693 27.8131 27.5883 27.384 27.5883C26.9951 27.5883 26.6204 27.7366 26.338 28.004C23.796 30.4106 20.425 31.7531 16.9242 31.7522C12.8358 31.7522 9.15733 29.943 6.62033 27.0738L13.8475 15.4711V20.8199C13.8475 23.3892 14.844 24.2196 15.6796 24.4626C16.516 24.7057 17.7942 24.5397 19.136 22.361L23.1112 15.9178C23.2386 15.7099 23.356 15.5306 23.4632 15.3756V18.6337C23.4632 21.0353 24.4254 22.956 26.1025 23.902C27.6145 24.7551 29.5153 24.678 31.0642 23.7009C32.9416 22.5152 33.9532 20.3306 33.8476 17.6976ZM57.4097 11.8284C57.8162 12.0756 58.1682 12.6253 58.1682 13.1206C58.1682 13.9175 57.491 14.577 56.7325 14.577C56.5431 14.577 56.3537 14.5225 56.1911 14.4672C55.2968 13.8077 54.1595 13.3678 52.9677 13.3678C50.1516 13.3678 48.2013 15.6764 48.2013 18.5348C48.2013 21.394 50.1516 23.6749 52.9677 23.6749C54.3757 23.6749 55.622 23.0976 56.5699 22.2185C56.8147 22.0426 57.108 21.9462 57.4097 21.9437C58.1682 21.9437 58.7641 22.5479 58.7641 23.318C58.7641 23.8124 58.4657 24.2523 58.0869 24.4995C56.7325 25.6543 54.8912 26.4235 52.9953 26.4235C48.6622 26.4235 45.1404 22.8504 45.1404 18.4527C45.1404 14.0549 48.6614 10.4818 52.9953 10.4818C54.6204 10.4818 56.1634 10.9762 57.4097 11.8284ZM65.3333 15.1544C68.2852 15.1544 70.7769 17.6557 70.7769 20.7336C70.7769 23.8124 68.2852 26.4235 65.3333 26.4235C62.2457 26.4235 59.6726 23.8124 59.6726 20.7336C59.6726 17.6557 62.2457 15.1544 65.3333 15.1544ZM65.3057 23.6749C66.6064 23.6749 67.7161 22.4381 67.7161 20.7613C67.7161 19.0853 66.6064 18.0404 65.3057 18.0404C63.8976 18.0404 62.7326 19.0577 62.7326 20.7613C62.7326 22.4381 63.8976 23.6749 65.3057 23.6749ZM72.6334 24.7191V16.8588C72.6334 16.0066 73.3106 15.2918 74.1504 15.2918C74.9902 15.2918 75.6942 16.0066 75.6942 16.8588V24.7191C75.6942 25.5713 74.9902 26.2861 74.1504 26.2861C73.3106 26.2861 72.6334 25.5713 72.6334 24.7191ZM72.3903 12.3237C72.3903 11.3064 73.1748 10.4818 74.1504 10.4818C75.1519 10.4818 75.9649 11.3064 75.9649 12.3237C75.9649 13.3125 75.1519 14.1102 74.1504 14.1102C73.1748 14.1102 72.3903 13.3125 72.3903 12.3237ZM81.5594 20.4588V24.7191C81.5594 25.5713 80.8554 26.2861 80.0147 26.2861C79.1758 26.2861 78.4977 25.5713 78.4977 24.7191V16.501C78.4977 15.8415 79.04 15.2918 79.6904 15.2918C80.3399 15.2918 80.8554 15.8415 80.8554 16.501C82.1008 15.3471 83.1837 15.1544 84.2129 15.1544C87.2737 15.1544 88.6281 17.463 88.6281 20.0741V24.7191C88.6281 25.5713 87.9241 26.2861 87.0843 26.2861C86.2445 26.2861 85.5673 25.5713 85.5673 24.7191V20.4588C85.5673 19.1121 85.4047 17.9851 83.482 17.9851C82.1276 17.9851 81.5594 19.1121 81.5594 20.4588ZM98.5825 22.0811C98.2305 22.0811 97.9874 21.916 97.7972 21.6956L94.2217 17.8208V24.7191C94.2217 25.5713 93.5177 26.2861 92.6779 26.2861C91.8381 26.2861 91.1609 25.5713 91.1609 24.7191V11.06C91.2506 10.8245 91.4794 10.6703 91.7308 10.6745C92.0007 10.6745 92.2169 10.8949 92.3804 11.06L98.0679 17.4638C98.2305 17.6566 98.4467 17.7663 98.5557 17.7663C98.6638 17.7663 98.88 17.6566 99.0426 17.4647L104.731 11.06C104.894 10.8949 105.11 10.6745 105.38 10.6745C105.651 10.6745 105.868 10.8396 105.95 11.06V24.7191C105.95 25.5713 105.272 26.2861 104.433 26.2861C103.593 26.2861 102.889 25.5713 102.889 24.7191V17.8208L99.3142 21.6956C99.1239 21.916 98.88 22.0811 98.5825 22.0811ZM113.304 23.6749C114.685 23.6749 115.849 22.4381 115.849 20.7613C115.849 19.0853 114.659 17.9851 113.304 17.9851C111.95 17.9851 110.866 19.1121 110.866 20.7613C110.866 22.3828 111.95 23.6749 113.304 23.6749ZM116.554 25.0769L116.499 24.7191C115.904 25.9006 114.007 26.4235 112.789 26.4235C109.917 26.4235 107.805 23.8124 107.805 20.7336C107.805 17.6557 109.972 15.1544 112.951 15.1544C113.466 15.1544 115.172 15.2918 116.499 16.8588L116.554 16.501C116.554 15.8415 117.068 15.2918 117.718 15.2918C118.368 15.2918 118.909 15.8415 118.909 16.501V25.0769C118.909 25.7364 118.368 26.2861 117.718 26.2861C117.068 26.2861 116.553 25.7364 116.553 25.0769H116.554ZM127.402 17.9851H127.078C125.154 18.0957 124.775 19.1951 124.775 20.4588V24.7191C124.775 25.5713 124.071 26.2861 123.232 26.2861C122.392 26.2861 121.715 25.5713 121.715 24.7191V16.501C121.715 15.8415 122.256 15.2918 122.906 15.2918C123.557 15.2918 124.071 15.8415 124.071 16.501C125.209 15.4292 126.13 15.2097 127.078 15.1544H127.375C128.107 15.1544 128.783 15.7862 128.783 16.584C128.783 17.3256 128.134 17.9851 127.402 17.9851ZM139.199 24.0051C139.335 24.2247 139.416 24.4719 139.416 24.7467C139.416 25.5436 138.684 26.2861 137.899 26.2861C137.357 26.2861 136.896 25.8738 136.544 25.4339L133.024 21.3387V24.7191C133.024 25.5713 132.319 26.2861 131.48 26.2861C130.64 26.2861 129.963 25.5713 129.963 24.7191V12.2415C129.963 11.3885 130.64 10.6745 131.48 10.6745C132.319 10.6745 133.023 11.3885 133.023 12.2415V20.0197L136.544 16.1164C136.896 15.7041 137.33 15.2918 137.872 15.2918C138.63 15.2918 139.335 16.0066 139.335 16.8035C139.335 17.0507 139.28 17.2979 139.144 17.5183L136.355 20.5686L139.199 24.0051ZM145.2 18.0404C144.36 18.0404 143.005 18.4803 143.005 19.7716H147.42C147.42 18.4527 146.012 18.0404 145.199 18.0404H145.2ZM149.208 21.7233H143.005C143.005 23.5652 144.766 23.84 145.551 23.84C146.121 23.84 146.933 23.7303 147.556 23.4546C147.745 23.318 148.07 23.2074 148.341 23.2074C149.018 23.2074 149.586 23.7856 149.586 24.4727C149.586 24.9395 149.289 25.3517 148.91 25.5713C147.962 26.2584 146.743 26.4235 145.579 26.4235C142.491 26.4235 139.918 24.7476 139.918 20.8711C139.918 17.8208 141.488 15.1544 145.145 15.1544C148.097 15.1544 150.345 17.0784 150.399 20.5141C150.399 21.1736 149.858 21.7233 149.208 21.7233ZM157.727 26.4235H156.887C154.557 26.4235 153.204 25.4062 153.204 21.7509V17.9851H152.418C151.687 17.9851 151.037 17.3256 151.037 16.584C151.037 15.7862 151.687 15.1544 152.418 15.1544H153.204V12.2407C153.204 11.3885 153.881 10.6737 154.721 10.6737C155.56 10.6737 156.265 11.3885 156.265 12.2407V15.1544H157.537C158.269 15.1544 158.919 15.7862 158.919 16.584C158.919 17.3256 158.269 17.9851 157.537 17.9851H156.265V21.1459C156.265 23.235 156.373 23.6749 157.294 23.6749H157.727C158.458 23.6749 159.081 24.28 159.081 25.0492C159.081 25.7917 158.458 26.4235 157.727 26.4235ZM172.557 11.8284C172.962 12.0756 173.315 12.6253 173.315 13.1206C173.315 13.9175 172.638 14.577 171.88 14.577C171.69 14.577 171.5 14.5225 171.338 14.4672C170.444 13.8077 169.307 13.3678 168.115 13.3678C165.299 13.3678 163.348 15.6764 163.348 18.5348C163.348 21.394 165.298 23.6749 168.115 23.6749C169.523 23.6749 170.769 23.0976 171.717 22.2185C171.962 22.0426 172.255 21.9462 172.557 21.9437C173.315 21.9437 173.91 22.5479 173.91 23.318C173.91 23.8124 173.613 24.2523 173.234 24.4995C171.88 25.6543 170.037 26.4235 168.142 26.4235C163.809 26.4235 160.288 22.8504 160.288 18.4527C160.288 14.0549 163.808 10.4818 168.142 10.4818C169.768 10.4818 171.311 10.9762 172.557 11.8284ZM180.318 23.6749C181.699 23.6749 182.863 22.4381 182.863 20.7613C182.863 19.0853 181.671 17.9851 180.317 17.9851C178.963 17.9851 177.88 19.1121 177.88 20.7613C177.88 22.3828 178.963 23.6749 180.317 23.6749H180.318ZM183.567 25.0769L183.514 24.7191C182.918 25.9006 181.022 26.4235 179.802 26.4235C176.932 26.4235 174.819 23.8124 174.819 20.7336C174.819 17.6557 176.986 15.1544 179.965 15.1544C180.48 15.1544 182.186 15.2918 183.514 16.8588L183.567 16.501C183.567 15.8415 184.082 15.2918 184.732 15.2918C185.382 15.2918 185.924 15.8415 185.924 16.501V25.0769C185.924 25.7364 185.382 26.2861 184.732 26.2861C184.082 26.2861 183.567 25.7364 183.567 25.0769ZM194.335 23.6749C195.689 23.6749 196.772 22.3828 196.772 20.7613C196.772 19.1121 195.689 17.9851 194.335 17.9851C192.98 17.9851 191.788 19.0845 191.788 20.7613C191.788 22.4381 192.953 23.6749 194.335 23.6749ZM191.788 25.5168V29.4193C191.788 30.2715 191.084 30.9863 190.245 30.9863C189.406 30.9863 188.728 30.2715 188.728 29.4193V16.501C188.728 15.8415 189.27 15.2918 189.92 15.2918C190.57 15.2918 191.085 15.8415 191.085 16.6108C192.222 15.4292 193.631 15.1544 194.687 15.1544C197.666 15.1544 199.833 17.6557 199.833 20.7336C199.833 23.8124 197.721 26.4235 194.849 26.4235C193.956 26.4235 192.628 26.1487 191.788 25.5168Z" fill="#3861FB"/>
</g>
</svg>
