<svg width="283" height="58" viewBox="0 0 283 58" fill="none" xmlns="http://www.w3.org/2000/svg">
<g clip-path="url(#clip0_39_33)">
<path d="M50.5626 8.78313L35.8047 0.231445L29.0232 4.15975L22.2417 0.231445L7.48373 8.78313V16.5871L0.744141 20.4838V37.5766L7.48373 41.4733V49.2878L22.2417 57.8395L29.0232 53.9112L35.8047 57.8395L50.5626 49.2878V41.4733L57.3022 37.5766V20.4838L50.5626 16.5871V8.78313ZM42.4395 13.9963C42.8168 13.9963 43.1208 14.3017 43.1208 14.6703C43.1208 15.0495 42.8168 15.3443 42.4395 15.3443C42.0621 15.3443 41.7582 15.0389 41.7582 14.6703C41.7582 14.3017 42.0621 13.9963 42.4395 13.9963ZM15.6174 13.9963C15.9947 13.9963 16.2987 14.3017 16.2987 14.6703C16.2987 15.0495 15.9947 15.3443 15.6174 15.3443C15.24 15.3443 14.9361 15.0389 14.9361 14.6703C14.9465 14.3017 15.24 13.9963 15.6174 13.9963ZM15.6174 44.0641C15.24 44.0641 14.9361 43.7587 14.9361 43.3901C14.9361 43.0109 15.24 42.7161 15.6174 42.7161C15.9947 42.7161 16.2987 43.0215 16.2987 43.3901C16.2987 43.7587 15.9947 44.0641 15.6174 44.0641ZM28.017 52.2577L22.2521 55.6068L16.5921 52.3209V45.0751C17.1791 44.7381 17.5879 44.1062 17.5879 43.3795C17.5879 42.2948 16.7074 41.4101 15.6278 41.4101C14.5483 41.4101 13.6678 42.2948 13.6678 43.3795C13.6678 44.1062 14.0661 44.7381 14.6635 45.0751V51.194L9.43329 48.1714V41.5365L15.5964 37.9873L21.3927 41.3469V48.0977C20.8162 48.4347 20.4284 49.0666 20.4284 49.7828C20.4284 50.8675 21.3088 51.7522 22.3884 51.7522C23.468 51.7522 24.3484 50.8675 24.3484 49.7828C24.3484 49.0456 23.9397 48.4031 23.3317 48.0766V40.2306L16.6445 36.3549V30.6995C17.2001 30.3519 17.5774 29.7411 17.5774 29.0355C17.5774 27.9507 16.697 27.066 15.6174 27.066C14.5378 27.066 13.6573 27.9507 13.6573 29.0355C13.6573 29.7937 14.0871 30.4362 14.7055 30.7626V36.2496L8.50044 39.8199L2.68321 36.4497V30.4783L6.92821 32.9216C6.92821 33.6062 7.2741 34.2697 7.90299 34.6278C8.83584 35.1754 10.0412 34.8489 10.5758 33.9116C11.1208 32.9743 10.7959 31.7737 9.86303 31.226C9.23414 30.8574 8.48996 30.8996 7.90299 31.2366L2.6937 28.2351V21.5896L8.43755 18.2616L13.542 21.1999L9.81062 23.3589C9.5381 23.2115 9.23414 23.1272 8.89873 23.1272C7.81914 23.1272 6.9387 24.0119 6.9387 25.0966C6.9387 26.1814 7.81914 27.066 8.89873 27.066C9.97832 27.066 10.8588 26.1814 10.8588 25.0966C10.8588 25.065 10.8483 25.0334 10.8483 25.0018L23.2793 17.8193V10.0048C23.9082 9.67832 24.338 9.02536 24.338 8.26708C24.338 7.18232 23.4575 6.29767 22.3779 6.29767C21.2983 6.29767 20.4179 7.18232 20.4179 8.26708C20.4179 8.9727 20.7847 9.58354 21.3403 9.93108V16.7029L15.4811 20.0941L9.42281 16.6081V9.89948L14.6531 6.87691V12.9853C14.0661 13.3223 13.6573 13.9542 13.6573 14.6808C13.6573 15.7656 14.5378 16.6503 15.6174 16.6503C16.697 16.6503 17.5774 15.7656 17.5774 14.6808C17.5774 13.9542 17.1791 13.3223 16.5817 12.9853V5.76055L22.2417 2.47468L28.0065 5.82374V20.6944L21.3717 24.6016V33.4587L28.0484 37.3344L28.017 52.2577ZM14.9465 29.0355C14.9465 28.6563 15.2505 28.3614 15.6278 28.3614C16.0052 28.3614 16.3091 28.6669 16.3091 29.0355C16.3091 29.4146 16.0052 29.7095 15.6278 29.7095C15.24 29.7095 14.9465 29.4146 14.9465 29.0355ZM21.7071 49.7828C21.7071 49.4036 22.0111 49.1087 22.3884 49.1087C22.7657 49.1087 23.0697 49.4142 23.0697 49.7828C23.0697 50.1514 22.7657 50.4568 22.3884 50.4568C22.0111 50.4568 21.7071 50.1619 21.7071 49.7828ZM8.29081 32.5951C8.47947 32.2687 8.88825 32.1634 9.21318 32.3424C9.5381 32.532 9.64292 32.9427 9.46473 33.2692C9.27607 33.5957 8.86729 33.701 8.54236 33.5219C8.21744 33.3324 8.10214 32.9216 8.29081 32.5951ZM9.58003 25.1072C9.58003 25.4863 9.27607 25.7812 8.89873 25.7812C8.5214 25.7812 8.21744 25.4758 8.21744 25.1072C8.21744 24.728 8.5214 24.4331 8.89873 24.4331C9.27607 24.4331 9.58003 24.728 9.58003 25.1072ZM21.7071 8.27761C21.7071 7.89847 22.0111 7.60359 22.3884 7.60359C22.7657 7.60359 23.0697 7.90901 23.0697 8.27761C23.0697 8.65675 22.7657 8.95164 22.3884 8.95164C22.0111 8.95164 21.7071 8.65675 21.7071 8.27761ZM23.3108 32.3319V25.6969L29.0232 22.3373L34.7356 25.6969V32.3213L29.0232 35.6388L23.3108 32.3319ZM42.4395 44.0641C42.0621 44.0641 41.7582 43.7587 41.7582 43.3901C41.7582 43.0109 42.0621 42.7161 42.4395 42.7161C42.8168 42.7161 43.1208 43.0215 43.1208 43.3901C43.1103 43.7587 42.8168 44.0641 42.4395 44.0641ZM55.3631 21.6107V28.2561L50.1538 31.2576C49.5669 30.9101 48.8227 30.8785 48.1938 31.2471C47.261 31.7947 46.936 32.9953 47.4811 33.9327C48.0261 34.87 49.221 35.1965 50.1538 34.6488C50.7827 34.2802 51.1286 33.6167 51.1286 32.9427L55.3736 30.4994V36.4708L49.5564 39.8409L43.3514 36.2707V30.7837C43.9698 30.4572 44.3995 29.8043 44.3995 29.0565C44.3995 27.9718 43.5191 27.0871 42.4395 27.0871C41.3599 27.0871 40.4794 27.9718 40.4794 29.0565C40.4794 29.7621 40.8568 30.373 41.4123 30.7205V36.376L34.7251 40.2516V48.0977C34.1277 48.4347 33.7084 49.0666 33.7084 49.8038C33.7084 50.8886 34.5888 51.7733 35.6684 51.7733C36.748 51.7733 37.6285 50.8886 37.6285 49.8038C37.6285 49.0877 37.2407 48.4558 36.6642 48.1188V41.368L42.4604 38.0084L48.6235 41.5576V48.1925L43.3933 51.2151V45.0751C43.9803 44.7381 44.389 44.1062 44.389 43.3795C44.389 42.2948 43.5086 41.4101 42.429 41.4101C41.3494 41.4101 40.469 42.2948 40.469 43.3795C40.469 44.1062 40.8672 44.7381 41.4647 45.0751V52.3209L35.8047 55.6068L30.0399 52.2577L29.998 37.3239L36.6747 33.4482V24.5911L30.0399 20.6839V5.81321L35.8047 2.46415L41.4647 5.75002V12.9747C40.8777 13.3117 40.469 13.9436 40.469 14.6703C40.469 15.7551 41.3494 16.6397 42.429 16.6397C43.5086 16.6397 44.389 15.7551 44.389 14.6703C44.389 13.9436 43.9907 13.3117 43.3933 12.9747V6.86637L48.6235 9.89948V16.6187L42.5653 20.1046L36.7061 16.7134V9.94161C37.2616 9.59407 37.6285 8.98323 37.6285 8.27761C37.6285 7.19286 36.748 6.3082 35.6684 6.3082C34.5888 6.3082 33.7084 7.19286 33.7084 8.27761C33.7084 9.03589 34.1381 9.68885 34.767 10.0153V17.8298L47.1981 25.0124C47.1981 25.044 47.1876 25.0756 47.1876 25.1072C47.1876 26.1919 48.068 27.0766 49.1476 27.0766C50.2272 27.0766 51.1077 26.1919 51.1077 25.1072C51.1077 24.0224 50.2272 23.1377 49.1476 23.1377C48.8227 23.1377 48.5082 23.2325 48.2357 23.3694L44.5043 21.2105L49.6088 18.2721L55.3631 21.6107ZM49.5145 33.5219C49.1895 33.7115 48.7808 33.5957 48.5921 33.2692C48.4034 32.9427 48.5187 32.532 48.8437 32.3424C49.1686 32.1528 49.5774 32.2687 49.766 32.5951C49.9547 32.9216 49.8394 33.3324 49.5145 33.5219ZM43.1103 29.0355C43.1103 29.4146 42.8063 29.7095 42.429 29.7095C42.0517 29.7095 41.7477 29.4041 41.7477 29.0355C41.7477 28.6563 42.0517 28.3614 42.429 28.3614C42.8168 28.3509 43.1103 28.6563 43.1103 29.0355ZM36.3497 49.7828C36.3497 50.1619 36.0458 50.4568 35.6684 50.4568C35.2911 50.4568 34.9871 50.1514 34.9871 49.7828C34.9871 49.4142 35.2911 49.1087 35.6684 49.1087C36.0458 49.1087 36.3497 49.4036 36.3497 49.7828ZM36.3497 8.27761C36.3497 8.65675 36.0458 8.95164 35.6684 8.95164C35.2911 8.95164 34.9871 8.64622 34.9871 8.27761C34.9871 7.89847 35.2911 7.60359 35.6684 7.60359C36.0458 7.60359 36.3497 7.89847 36.3497 8.27761ZM48.4768 25.1072C48.4768 24.728 48.7808 24.4331 49.1581 24.4331C49.5354 24.4331 49.8394 24.7386 49.8394 25.1072C49.8394 25.4863 49.5354 25.7812 49.1581 25.7812C48.7808 25.7812 48.4768 25.4863 48.4768 25.1072Z" fill="white" fill-opacity="0.04"/>
<path d="M50.5626 8.78313L35.8047 0.231445L29.0232 4.15975L22.2417 0.231445L7.48373 8.78313V16.5871L0.744141 20.4838V37.5766L7.48373 41.4733V49.2878L22.2417 57.8395L29.0232 53.9112L35.8047 57.8395L50.5626 49.2878V41.4733L57.3022 37.5766V20.4838L50.5626 16.5871V8.78313ZM42.4395 13.9963C42.8168 13.9963 43.1208 14.3017 43.1208 14.6703C43.1208 15.0495 42.8168 15.3443 42.4395 15.3443C42.0621 15.3443 41.7582 15.0389 41.7582 14.6703C41.7582 14.3017 42.0621 13.9963 42.4395 13.9963ZM15.6174 13.9963C15.9947 13.9963 16.2987 14.3017 16.2987 14.6703C16.2987 15.0495 15.9947 15.3443 15.6174 15.3443C15.24 15.3443 14.9361 15.0389 14.9361 14.6703C14.9465 14.3017 15.24 13.9963 15.6174 13.9963ZM15.6174 44.0641C15.24 44.0641 14.9361 43.7587 14.9361 43.3901C14.9361 43.0109 15.24 42.7161 15.6174 42.7161C15.9947 42.7161 16.2987 43.0215 16.2987 43.3901C16.2987 43.7587 15.9947 44.0641 15.6174 44.0641ZM28.017 52.2577L22.2521 55.6068L16.5921 52.3209V45.0751C17.1791 44.7381 17.5879 44.1062 17.5879 43.3795C17.5879 42.2948 16.7074 41.4101 15.6278 41.4101C14.5483 41.4101 13.6678 42.2948 13.6678 43.3795C13.6678 44.1062 14.0661 44.7381 14.6635 45.0751V51.194L9.43329 48.1714V41.5365L15.5964 37.9873L21.3927 41.3469V48.0977C20.8162 48.4347 20.4284 49.0666 20.4284 49.7828C20.4284 50.8675 21.3088 51.7522 22.3884 51.7522C23.468 51.7522 24.3484 50.8675 24.3484 49.7828C24.3484 49.0456 23.9397 48.4031 23.3317 48.0766V40.2306L16.6445 36.3549V30.6995C17.2001 30.3519 17.5774 29.7411 17.5774 29.0355C17.5774 27.9507 16.697 27.066 15.6174 27.066C14.5378 27.066 13.6573 27.9507 13.6573 29.0355C13.6573 29.7937 14.0871 30.4362 14.7055 30.7626V36.2496L8.50044 39.8199L2.68321 36.4497V30.4783L6.92821 32.9216C6.92821 33.6062 7.2741 34.2697 7.90299 34.6278C8.83584 35.1754 10.0412 34.8489 10.5758 33.9116C11.1208 32.9743 10.7959 31.7737 9.86303 31.226C9.23414 30.8574 8.48996 30.8996 7.90299 31.2366L2.6937 28.2351V21.5896L8.43755 18.2616L13.542 21.1999L9.81062 23.3589C9.5381 23.2115 9.23414 23.1272 8.89873 23.1272C7.81914 23.1272 6.9387 24.0119 6.9387 25.0966C6.9387 26.1814 7.81914 27.066 8.89873 27.066C9.97832 27.066 10.8588 26.1814 10.8588 25.0966C10.8588 25.065 10.8483 25.0334 10.8483 25.0018L23.2793 17.8193V10.0048C23.9082 9.67832 24.338 9.02536 24.338 8.26708C24.338 7.18232 23.4575 6.29767 22.3779 6.29767C21.2983 6.29767 20.4179 7.18232 20.4179 8.26708C20.4179 8.9727 20.7847 9.58354 21.3403 9.93108V16.7029L15.4811 20.0941L9.42281 16.6081V9.89948L14.6531 6.87691V12.9853C14.0661 13.3223 13.6573 13.9542 13.6573 14.6808C13.6573 15.7656 14.5378 16.6503 15.6174 16.6503C16.697 16.6503 17.5774 15.7656 17.5774 14.6808C17.5774 13.9542 17.1791 13.3223 16.5817 12.9853V5.76055L22.2417 2.47468L28.0065 5.82374V20.6944L21.3717 24.6016V33.4587L28.0484 37.3344L28.017 52.2577ZM14.9465 29.0355C14.9465 28.6563 15.2505 28.3614 15.6278 28.3614C16.0052 28.3614 16.3091 28.6669 16.3091 29.0355C16.3091 29.4146 16.0052 29.7095 15.6278 29.7095C15.24 29.7095 14.9465 29.4146 14.9465 29.0355ZM21.7071 49.7828C21.7071 49.4036 22.0111 49.1087 22.3884 49.1087C22.7657 49.1087 23.0697 49.4142 23.0697 49.7828C23.0697 50.1514 22.7657 50.4568 22.3884 50.4568C22.0111 50.4568 21.7071 50.1619 21.7071 49.7828ZM8.29081 32.5951C8.47947 32.2687 8.88825 32.1634 9.21318 32.3424C9.5381 32.532 9.64292 32.9427 9.46473 33.2692C9.27607 33.5957 8.86729 33.701 8.54236 33.5219C8.21744 33.3324 8.10214 32.9216 8.29081 32.5951ZM9.58003 25.1072C9.58003 25.4863 9.27607 25.7812 8.89873 25.7812C8.5214 25.7812 8.21744 25.4758 8.21744 25.1072C8.21744 24.728 8.5214 24.4331 8.89873 24.4331C9.27607 24.4331 9.58003 24.728 9.58003 25.1072ZM21.7071 8.27761C21.7071 7.89847 22.0111 7.60359 22.3884 7.60359C22.7657 7.60359 23.0697 7.90901 23.0697 8.27761C23.0697 8.65675 22.7657 8.95164 22.3884 8.95164C22.0111 8.95164 21.7071 8.65675 21.7071 8.27761ZM23.3108 32.3319V25.6969L29.0232 22.3373L34.7356 25.6969V32.3213L29.0232 35.6388L23.3108 32.3319ZM42.4395 44.0641C42.0621 44.0641 41.7582 43.7587 41.7582 43.3901C41.7582 43.0109 42.0621 42.7161 42.4395 42.7161C42.8168 42.7161 43.1208 43.0215 43.1208 43.3901C43.1103 43.7587 42.8168 44.0641 42.4395 44.0641ZM55.3631 21.6107V28.2561L50.1538 31.2576C49.5669 30.9101 48.8227 30.8785 48.1938 31.2471C47.261 31.7947 46.936 32.9953 47.4811 33.9327C48.0261 34.87 49.221 35.1965 50.1538 34.6488C50.7827 34.2802 51.1286 33.6167 51.1286 32.9427L55.3736 30.4994V36.4708L49.5564 39.8409L43.3514 36.2707V30.7837C43.9698 30.4572 44.3995 29.8043 44.3995 29.0565C44.3995 27.9718 43.5191 27.0871 42.4395 27.0871C41.3599 27.0871 40.4794 27.9718 40.4794 29.0565C40.4794 29.7621 40.8568 30.373 41.4123 30.7205V36.376L34.7251 40.2516V48.0977C34.1277 48.4347 33.7084 49.0666 33.7084 49.8038C33.7084 50.8886 34.5888 51.7733 35.6684 51.7733C36.748 51.7733 37.6285 50.8886 37.6285 49.8038C37.6285 49.0877 37.2407 48.4558 36.6642 48.1188V41.368L42.4604 38.0084L48.6235 41.5576V48.1925L43.3933 51.2151V45.0751C43.9803 44.7381 44.389 44.1062 44.389 43.3795C44.389 42.2948 43.5086 41.4101 42.429 41.4101C41.3494 41.4101 40.469 42.2948 40.469 43.3795C40.469 44.1062 40.8672 44.7381 41.4647 45.0751V52.3209L35.8047 55.6068L30.0399 52.2577L29.998 37.3239L36.6747 33.4482V24.5911L30.0399 20.6839V5.81321L35.8047 2.46415L41.4647 5.75002V12.9747C40.8777 13.3117 40.469 13.9436 40.469 14.6703C40.469 15.7551 41.3494 16.6397 42.429 16.6397C43.5086 16.6397 44.389 15.7551 44.389 14.6703C44.389 13.9436 43.9907 13.3117 43.3933 12.9747V6.86637L48.6235 9.89948V16.6187L42.5653 20.1046L36.7061 16.7134V9.94161C37.2616 9.59407 37.6285 8.98323 37.6285 8.27761C37.6285 7.19286 36.748 6.3082 35.6684 6.3082C34.5888 6.3082 33.7084 7.19286 33.7084 8.27761C33.7084 9.03589 34.1381 9.68885 34.767 10.0153V17.8298L47.1981 25.0124C47.1981 25.044 47.1876 25.0756 47.1876 25.1072C47.1876 26.1919 48.068 27.0766 49.1476 27.0766C50.2272 27.0766 51.1077 26.1919 51.1077 25.1072C51.1077 24.0224 50.2272 23.1377 49.1476 23.1377C48.8227 23.1377 48.5082 23.2325 48.2357 23.3694L44.5043 21.2105L49.6088 18.2721L55.3631 21.6107ZM49.5145 33.5219C49.1895 33.7115 48.7808 33.5957 48.5921 33.2692C48.4034 32.9427 48.5187 32.532 48.8437 32.3424C49.1686 32.1528 49.5774 32.2687 49.766 32.5951C49.9547 32.9216 49.8394 33.3324 49.5145 33.5219ZM43.1103 29.0355C43.1103 29.4146 42.8063 29.7095 42.429 29.7095C42.0517 29.7095 41.7477 29.4041 41.7477 29.0355C41.7477 28.6563 42.0517 28.3614 42.429 28.3614C42.8168 28.3509 43.1103 28.6563 43.1103 29.0355ZM36.3497 49.7828C36.3497 50.1619 36.0458 50.4568 35.6684 50.4568C35.2911 50.4568 34.9871 50.1514 34.9871 49.7828C34.9871 49.4142 35.2911 49.1087 35.6684 49.1087C36.0458 49.1087 36.3497 49.4036 36.3497 49.7828ZM36.3497 8.27761C36.3497 8.65675 36.0458 8.95164 35.6684 8.95164C35.2911 8.95164 34.9871 8.64622 34.9871 8.27761C34.9871 7.89847 35.2911 7.60359 35.6684 7.60359C36.0458 7.60359 36.3497 7.89847 36.3497 8.27761ZM48.4768 25.1072C48.4768 24.728 48.7808 24.4331 49.1581 24.4331C49.5354 24.4331 49.8394 24.7386 49.8394 25.1072C49.8394 25.4863 49.5354 25.7812 49.1581 25.7812C48.7808 25.7812 48.4768 25.4863 48.4768 25.1072Z" fill="url(#paint0_linear_39_33)"/>
<path d="M85.8224 25.4863C83.3802 23.6853 80.8332 23.0008 77.5525 23.0008C73.9678 23.0008 73.1712 23.8012 73.1712 24.728C73.1712 25.6126 74.0831 25.7601 75.3409 25.918L81.4726 26.6026C86.1159 27.1713 88.9773 29.0565 88.9773 33.1533C88.9773 38.0189 84.1768 40.1989 77.8564 40.1989C73.4752 40.1989 70.1945 39.2406 66.7356 36.5971L69.3665 32.237C72.2279 34.2696 75.1208 35.3017 78.3596 35.3017C81.2525 35.3017 83.5374 34.6488 83.5374 33.2375C83.5374 32.5109 83.3487 32.1317 82.0176 32.0159L74.7749 31.1733C70.3203 30.6362 67.6475 28.8774 67.6475 24.7806C67.6475 20.1467 72.1021 18.0088 77.5525 18.0088C81.5879 18.0088 85.1725 18.7776 88.5266 21.3789L85.8224 25.4863Z" fill="white"/>
<path d="M97.1106 18.4824V25.9493H102.068L107.131 18.4824H113.608L106.827 28.2874L114.07 39.6615H107.403L102.226 31.1204H97.1211V39.6615H91.5554V18.493H97.1106V18.4824Z" fill="white"/>
<path d="M122.34 18.4824V39.651H116.743V18.4824H122.34Z" fill="white"/>
<path d="M130.809 18.4824V34.5642H144.718V39.651H125.212V18.4824H130.809Z" fill="white"/>
<path d="M153.134 18.4824V34.5642H167.043V39.651H147.537V18.4824H153.134Z" fill="white"/>
<path d="M169.79 18.4824H189.411V23.5692H175.387V26.8235H187.734V31.9103H175.387V39.6405H169.79V18.4824Z" fill="white"/>
<path d="M197.681 18.4824V29.3195C197.681 33.0687 199.316 35.2488 202.942 35.2488C206.527 35.2488 208.162 33.0687 208.162 29.3195V18.4824H213.801V29.2773C213.801 36.2809 209.567 40.1881 202.942 40.1881C196.308 40.1881 192.084 36.2809 192.084 29.2773V18.4824H197.681Z" fill="white"/>
<path d="M222.302 18.4824V34.5642H236.211V39.651H216.705V18.4824H222.302Z" fill="white"/>
<path d="M265.223 18.4824L274.175 39.651H268.232L266.9 36.5547H255.245L253.945 39.651H247.929L257.069 18.4824H265.223ZM257.299 31.647H264.731L261.534 23.4955H260.653L257.299 31.647Z" fill="white"/>
<path d="M282.591 18.4824V39.651H276.994V18.4824H282.591Z" fill="white"/>
</g>
<defs>
<linearGradient id="paint0_linear_39_33" x1="14.375" y1="-12.2503" x2="116.82" y2="28.9093" gradientUnits="userSpaceOnUse">
<stop stop-color="#FF2091"/>
<stop offset="1" stop-color="#0184FD"/>
</linearGradient>
<clipPath id="clip0_39_33">
<rect width="283" height="57.924" fill="white"/>
</clipPath>
</defs>
</svg>
