<svg width="51" height="32" viewBox="0 0 51 32" fill="none" xmlns="http://www.w3.org/2000/svg">
<g id="mexc-login-logo-dark 1" clip-path="url(#clip0_172_1360)">
<path id="Vector" d="M49.792 22.5045L38.9386 3.66075C36.5699 -0.263548 30.7363 -0.298903 28.4383 3.83754L17.0543 23.4237C14.933 27.0299 17.5492 31.5198 21.8271 31.5198H44.7012C48.9791 31.5552 52.1963 26.8884 49.792 22.5045Z" fill="#003087"/>
<path id="Vector_2" d="M34.1304 23.9894L33.4586 22.8227C32.8223 21.7267 31.4434 19.3933 31.4434 19.3933L22.2514 3.41328C19.8827 -0.12213 14.226 -0.440323 11.8573 4.04966L1.14498 22.5752C-1.08233 26.4642 1.56923 31.5198 6.37741 31.5551H29.1101H38.797H44.5599C38.691 31.5905 36.8174 28.5147 34.1304 23.9894Z" fill="#1877F2"/>
<path id="Vector_3" d="M34.1302 23.9186L33.4585 22.7519C32.8221 21.656 31.4433 19.3226 31.4433 19.3226L25.5038 8.85779L16.9835 23.4237C14.8622 27.0298 17.4784 31.5198 21.7563 31.5198H29.0746H38.7617H44.5598C38.6556 31.4844 36.8172 28.4793 34.1302 23.9186Z" fill="url(#paint0_linear_172_1360)"/>
</g>
<defs>
<linearGradient id="paint0_linear_172_1360" x1="13.9426" y1="16.8222" x2="40.3545" y2="26.5823" gradientUnits="userSpaceOnUse">
<stop stop-color="#003087" stop-opacity="0"/>
<stop offset="1" stop-color="#003087"/>
</linearGradient>
<clipPath id="clip0_172_1360">
<rect width="50.3371" height="32" fill="white" transform="translate(0.331543)"/>
</clipPath>
</defs>
</svg>
