<svg width="630" height="649" viewBox="0 0 630 649" fill="none" xmlns="http://www.w3.org/2000/svg">
<g opacity="0.5">
<mask id="path-1-outside-1_1_475" maskUnits="userSpaceOnUse" x="7" y="-1" width="610" height="146" fill="black">
<rect fill="white" x="7" y="-1" width="610" height="146"/>
<path d="M58.513 60.565H138.053C161.013 60.565 179.668 79.425 179.668 102.385C179.668 125.345 161.013 144 138.053 144H13.823V120.63H129.238C139.078 120.63 147.483 112.43 147.483 102.385C147.483 92.34 139.078 84.14 129.238 84.14H49.698C26.738 84.14 8.08297 65.28 8.08297 42.32C8.08297 19.36 26.738 0.49999 49.698 0.49999H161.628V24.075H58.513C48.468 24.075 40.268 32.275 40.268 42.32C40.268 52.365 48.468 60.565 58.513 60.565ZM199.814 144V0.49999H231.999V106.895L332.244 0.49999H365.659L304.364 67.125L365.864 144H327.119L283.249 89.47L233.024 144H199.814ZM446.767 0.49999H490.227L567.922 144H533.482L519.542 118.58H417.452L403.717 144H369.277L446.767 0.49999ZM430.367 94.8H506.832L468.702 24.075L430.367 94.8ZM615.578 144H583.188V0.49999H615.578V144Z"/>
</mask>
<path d="M13.823 144H12.823V145H13.823V144ZM13.823 120.63V119.63H12.823V120.63H13.823ZM161.628 0.49999H162.628V-0.50001H161.628V0.49999ZM161.628 24.075V25.075H162.628V24.075H161.628ZM58.513 61.565H138.053V59.565H58.513V61.565ZM138.053 61.565C160.454 61.565 178.668 79.9709 178.668 102.385H180.668C180.668 78.8791 161.572 59.565 138.053 59.565V61.565ZM178.668 102.385C178.668 124.793 160.461 143 138.053 143V145C161.565 145 180.668 125.897 180.668 102.385H178.668ZM138.053 143H13.823V145H138.053V143ZM14.823 144V120.63H12.823V144H14.823ZM13.823 121.63H129.238V119.63H13.823V121.63ZM129.238 121.63C139.623 121.63 148.483 112.99 148.483 102.385H146.483C146.483 111.87 138.533 119.63 129.238 119.63V121.63ZM148.483 102.385C148.483 91.7804 139.623 83.14 129.238 83.14V85.14C138.533 85.14 146.483 92.8996 146.483 102.385H148.483ZM129.238 83.14H49.698V85.14H129.238V83.14ZM49.698 83.14C27.2966 83.14 9.08297 64.7341 9.08297 42.32H7.08297C7.08297 65.8259 26.1793 85.14 49.698 85.14V83.14ZM9.08297 42.32C9.08297 19.9059 27.2966 1.49999 49.698 1.49999V-0.50001C26.1793 -0.50001 7.08297 18.8141 7.08297 42.32H9.08297ZM49.698 1.49999H161.628V-0.50001H49.698V1.49999ZM160.628 0.49999V24.075H162.628V0.49999H160.628ZM161.628 23.075H58.513V25.075H161.628V23.075ZM58.513 23.075C47.9157 23.075 39.268 31.7227 39.268 42.32H41.268C41.268 32.8273 49.0203 25.075 58.513 25.075V23.075ZM39.268 42.32C39.268 52.9173 47.9157 61.565 58.513 61.565V59.565C49.0203 59.565 41.268 51.8127 41.268 42.32H39.268ZM199.814 144H198.814V145H199.814V144ZM199.814 0.49999V-0.50001H198.814V0.49999H199.814ZM231.999 0.49999H232.999V-0.50001H231.999V0.49999ZM231.999 106.895H230.999V109.415L232.727 107.581L231.999 106.895ZM332.244 0.49999V-0.50001H331.812L331.516 -0.185768L332.244 0.49999ZM365.659 0.49999L366.395 1.17705L367.938 -0.50001H365.659V0.49999ZM304.364 67.125L303.628 66.4479L303.047 67.0795L303.583 67.7497L304.364 67.125ZM365.864 144V145H367.945L366.645 143.375L365.864 144ZM327.119 144L326.34 144.627L326.64 145H327.119V144ZM283.249 89.47L284.028 88.8432L283.3 87.9383L282.513 88.7925L283.249 89.47ZM233.024 144V145H233.463L233.76 144.677L233.024 144ZM200.814 144V0.49999H198.814V144H200.814ZM199.814 1.49999H231.999V-0.50001H199.814V1.49999ZM230.999 0.49999V106.895H232.999V0.49999H230.999ZM232.727 107.581L332.972 1.18575L331.516 -0.185768L231.271 106.209L232.727 107.581ZM332.244 1.49999H365.659V-0.50001H332.244V1.49999ZM364.923 -0.177066L303.628 66.4479L305.1 67.802L366.395 1.17705L364.923 -0.177066ZM303.583 67.7497L365.083 144.625L366.645 143.375L305.145 66.5003L303.583 67.7497ZM365.864 143H327.119V145H365.864V143ZM327.898 143.373L284.028 88.8432L282.47 90.0968L326.34 144.627L327.898 143.373ZM282.513 88.7925L232.288 143.323L233.76 144.677L283.985 90.1475L282.513 88.7925ZM233.024 143H199.814V145H233.024V143ZM446.767 0.49999V-0.50001H446.17L445.887 0.0248413L446.767 0.49999ZM490.227 0.49999L491.106 0.023869L490.823 -0.50001H490.227V0.49999ZM567.922 144V145H569.601L568.801 143.524L567.922 144ZM533.482 144L532.605 144.481L532.89 145H533.482V144ZM519.542 118.58L520.419 118.099L520.134 117.58H519.542V118.58ZM417.452 118.58V117.58H416.856L416.572 118.105L417.452 118.58ZM403.717 144V145H404.313L404.597 144.475L403.717 144ZM369.277 144L368.397 143.525L367.6 145H369.277V144ZM430.367 94.8L429.488 94.3235L428.687 95.8H430.367V94.8ZM506.832 94.8V95.8H508.507L507.712 94.3254L506.832 94.8ZM468.702 24.075L469.582 23.6004L468.704 21.9721L467.823 23.5985L468.702 24.075ZM446.767 1.49999H490.227V-0.50001H446.767V1.49999ZM489.348 0.976111L567.043 144.476L568.801 143.524L491.106 0.023869L489.348 0.976111ZM567.922 143H533.482V145H567.922V143ZM534.359 143.519L520.419 118.099L518.665 119.061L532.605 144.481L534.359 143.519ZM519.542 117.58H417.452V119.58H519.542V117.58ZM416.572 118.105L402.837 143.525L404.597 144.475L418.332 119.055L416.572 118.105ZM403.717 143H369.277V145H403.717V143ZM370.157 144.475L447.647 0.975139L445.887 0.0248413L368.397 143.525L370.157 144.475ZM430.367 95.8H506.832V93.8H430.367V95.8ZM507.712 94.3254L469.582 23.6004L467.822 24.5495L505.952 95.2746L507.712 94.3254ZM467.823 23.5985L429.488 94.3235L431.246 95.2765L469.581 24.5515L467.823 23.5985ZM615.578 144V145H616.578V144H615.578ZM583.188 144H582.188V145H583.188V144ZM583.188 0.49999V-0.50001H582.188V0.49999H583.188ZM615.578 0.49999H616.578V-0.50001H615.578V0.49999ZM615.578 143H583.188V145H615.578V143ZM584.188 144V0.49999H582.188V144H584.188ZM583.188 1.49999H615.578V-0.50001H583.188V1.49999ZM614.578 0.49999V144H616.578V0.49999H614.578Z" fill="url(#paint0_linear_1_475)" mask="url(#path-1-outside-1_1_475)"/>
</g>
<g opacity="0.5">
<mask id="path-3-outside-2_1_475" maskUnits="userSpaceOnUse" x="7" y="167.333" width="610" height="146" fill="black">
<rect fill="white" x="7" y="167.333" width="610" height="146"/>
<path d="M58.513 228.898H138.053C161.013 228.898 179.668 247.758 179.668 270.718C179.668 293.678 161.013 312.333 138.053 312.333H13.823V288.963H129.238C139.078 288.963 147.483 280.763 147.483 270.718C147.483 260.673 139.078 252.473 129.238 252.473H49.698C26.738 252.473 8.08297 233.613 8.08297 210.653C8.08297 187.693 26.738 168.833 49.698 168.833H161.628V192.408H58.513C48.468 192.408 40.268 200.608 40.268 210.653C40.268 220.698 48.468 228.898 58.513 228.898ZM199.814 312.333V168.833H231.999V275.228L332.244 168.833H365.659L304.364 235.458L365.864 312.333H327.119L283.249 257.803L233.024 312.333H199.814ZM446.767 168.833H490.227L567.922 312.333H533.482L519.542 286.913H417.452L403.717 312.333H369.277L446.767 168.833ZM430.367 263.133H506.832L468.702 192.408L430.367 263.133ZM615.578 312.333H583.188V168.833H615.578V312.333Z"/>
</mask>
<path d="M13.823 312.333H12.823V313.333H13.823V312.333ZM13.823 288.963V287.963H12.823V288.963H13.823ZM161.628 168.833H162.628V167.833H161.628V168.833ZM161.628 192.408V193.408H162.628V192.408H161.628ZM58.513 229.898H138.053V227.898H58.513V229.898ZM138.053 229.898C160.454 229.898 178.668 248.304 178.668 270.718H180.668C180.668 247.212 161.572 227.898 138.053 227.898V229.898ZM178.668 270.718C178.668 293.126 160.461 311.333 138.053 311.333V313.333C161.565 313.333 180.668 294.231 180.668 270.718H178.668ZM138.053 311.333H13.823V313.333H138.053V311.333ZM14.823 312.333V288.963H12.823V312.333H14.823ZM13.823 289.963H129.238V287.963H13.823V289.963ZM129.238 289.963C139.623 289.963 148.483 281.323 148.483 270.718H146.483C146.483 280.204 138.533 287.963 129.238 287.963V289.963ZM148.483 270.718C148.483 260.114 139.623 251.473 129.238 251.473V253.473C138.533 253.473 146.483 261.233 146.483 270.718H148.483ZM129.238 251.473H49.698V253.473H129.238V251.473ZM49.698 251.473C27.2966 251.473 9.08297 233.067 9.08297 210.653H7.08297C7.08297 234.159 26.1793 253.473 49.698 253.473V251.473ZM9.08297 210.653C9.08297 188.239 27.2966 169.833 49.698 169.833V167.833C26.1793 167.833 7.08297 187.147 7.08297 210.653H9.08297ZM49.698 169.833H161.628V167.833H49.698V169.833ZM160.628 168.833V192.408H162.628V168.833H160.628ZM161.628 191.408H58.513V193.408H161.628V191.408ZM58.513 191.408C47.9157 191.408 39.268 200.056 39.268 210.653H41.268C41.268 201.161 49.0203 193.408 58.513 193.408V191.408ZM39.268 210.653C39.268 221.251 47.9157 229.898 58.513 229.898V227.898C49.0203 227.898 41.268 220.146 41.268 210.653H39.268ZM199.814 312.333H198.814V313.333H199.814V312.333ZM199.814 168.833V167.833H198.814V168.833H199.814ZM231.999 168.833H232.999V167.833H231.999V168.833ZM231.999 275.228H230.999V277.748L232.727 275.914L231.999 275.228ZM332.244 168.833V167.833H331.812L331.516 168.148L332.244 168.833ZM365.659 168.833L366.395 169.51L367.938 167.833H365.659V168.833ZM304.364 235.458L303.628 234.781L303.047 235.413L303.583 236.083L304.364 235.458ZM365.864 312.333V313.333H367.945L366.645 311.709L365.864 312.333ZM327.119 312.333L326.34 312.96L326.64 313.333H327.119V312.333ZM283.249 257.803L284.028 257.176L283.3 256.272L282.513 257.126L283.249 257.803ZM233.024 312.333V313.333H233.463L233.76 313.011L233.024 312.333ZM200.814 312.333V168.833H198.814V312.333H200.814ZM199.814 169.833H231.999V167.833H199.814V169.833ZM230.999 168.833V275.228H232.999V168.833H230.999ZM232.727 275.914L332.972 169.519L331.516 168.148L231.271 274.543L232.727 275.914ZM332.244 169.833H365.659V167.833H332.244V169.833ZM364.923 168.156L303.628 234.781L305.1 236.135L366.395 169.51L364.923 168.156ZM303.583 236.083L365.083 312.958L366.645 311.709L305.145 234.834L303.583 236.083ZM365.864 311.333H327.119V313.333H365.864V311.333ZM327.898 311.706L284.028 257.176L282.47 258.43L326.34 312.96L327.898 311.706ZM282.513 257.126L232.288 311.656L233.76 313.011L283.985 258.481L282.513 257.126ZM233.024 311.333H199.814V313.333H233.024V311.333ZM446.767 168.833V167.833H446.17L445.887 168.358L446.767 168.833ZM490.227 168.833L491.106 168.357L490.823 167.833H490.227V168.833ZM567.922 312.333V313.333H569.601L568.801 311.857L567.922 312.333ZM533.482 312.333L532.605 312.814L532.89 313.333H533.482V312.333ZM519.542 286.913L520.419 286.432L520.134 285.913H519.542V286.913ZM417.452 286.913V285.913H416.856L416.572 286.438L417.452 286.913ZM403.717 312.333V313.333H404.313L404.597 312.809L403.717 312.333ZM369.277 312.333L368.397 311.858L367.6 313.333H369.277V312.333ZM430.367 263.133L429.488 262.657L428.687 264.133H430.367V263.133ZM506.832 263.133V264.133H508.507L507.712 262.659L506.832 263.133ZM468.702 192.408L469.582 191.934L468.704 190.305L467.823 191.932L468.702 192.408ZM446.767 169.833H490.227V167.833H446.767V169.833ZM489.348 169.309L567.043 312.809L568.801 311.857L491.106 168.357L489.348 169.309ZM567.922 311.333H533.482V313.333H567.922V311.333ZM534.359 311.852L520.419 286.432L518.665 287.394L532.605 312.814L534.359 311.852ZM519.542 285.913H417.452V287.913H519.542V285.913ZM416.572 286.438L402.837 311.858L404.597 312.809L418.332 287.389L416.572 286.438ZM403.717 311.333H369.277V313.333H403.717V311.333ZM370.157 312.808L447.647 169.308L445.887 168.358L368.397 311.858L370.157 312.808ZM430.367 264.133H506.832V262.133H430.367V264.133ZM507.712 262.659L469.582 191.934L467.822 192.883L505.952 263.608L507.712 262.659ZM467.823 191.932L429.488 262.657L431.246 263.61L469.581 192.885L467.823 191.932ZM615.578 312.333V313.333H616.578V312.333H615.578ZM583.188 312.333H582.188V313.333H583.188V312.333ZM583.188 168.833V167.833H582.188V168.833H583.188ZM615.578 168.833H616.578V167.833H615.578V168.833ZM615.578 311.333H583.188V313.333H615.578V311.333ZM584.188 312.333V168.833H582.188V312.333H584.188ZM583.188 169.833H615.578V167.833H583.188V169.833ZM614.578 168.833V312.333H616.578V168.833H614.578Z" fill="url(#paint1_linear_1_475)" mask="url(#path-3-outside-2_1_475)"/>
</g>
<g opacity="0.5">
<mask id="path-5-outside-3_1_475" maskUnits="userSpaceOnUse" x="7" y="335.667" width="610" height="146" fill="black">
<rect fill="white" x="7" y="335.667" width="610" height="146"/>
<path d="M58.513 397.232H138.053C161.013 397.232 179.668 416.092 179.668 439.052C179.668 462.012 161.013 480.667 138.053 480.667H13.823V457.297H129.238C139.078 457.297 147.483 449.097 147.483 439.052C147.483 429.007 139.078 420.807 129.238 420.807H49.698C26.738 420.807 8.08297 401.947 8.08297 378.987C8.08297 356.027 26.738 337.167 49.698 337.167H161.628V360.742H58.513C48.468 360.742 40.268 368.942 40.268 378.987C40.268 389.032 48.468 397.232 58.513 397.232ZM199.814 480.667V337.167H231.999V443.562L332.244 337.167H365.659L304.364 403.792L365.864 480.667H327.119L283.249 426.137L233.024 480.667H199.814ZM446.767 337.167H490.227L567.922 480.667H533.482L519.542 455.247H417.452L403.717 480.667H369.277L446.767 337.167ZM430.367 431.467H506.832L468.702 360.742L430.367 431.467ZM615.578 480.667H583.188V337.167H615.578V480.667Z"/>
</mask>
<path d="M13.823 480.667H12.823V481.667H13.823V480.667ZM13.823 457.297V456.297H12.823V457.297H13.823ZM161.628 337.167H162.628V336.167H161.628V337.167ZM161.628 360.742V361.742H162.628V360.742H161.628ZM58.513 398.232H138.053V396.232H58.513V398.232ZM138.053 398.232C160.454 398.232 178.668 416.638 178.668 439.052H180.668C180.668 415.546 161.572 396.232 138.053 396.232V398.232ZM178.668 439.052C178.668 461.459 160.461 479.667 138.053 479.667V481.667C161.565 481.667 180.668 462.564 180.668 439.052H178.668ZM138.053 479.667H13.823V481.667H138.053V479.667ZM14.823 480.667V457.297H12.823V480.667H14.823ZM13.823 458.297H129.238V456.297H13.823V458.297ZM129.238 458.297C139.623 458.297 148.483 449.656 148.483 439.052H146.483C146.483 448.537 138.533 456.297 129.238 456.297V458.297ZM148.483 439.052C148.483 428.447 139.623 419.807 129.238 419.807V421.807C138.533 421.807 146.483 429.566 146.483 439.052H148.483ZM129.238 419.807H49.698V421.807H129.238V419.807ZM49.698 419.807C27.2966 419.807 9.08297 401.401 9.08297 378.987H7.08297C7.08297 402.493 26.1793 421.807 49.698 421.807V419.807ZM9.08297 378.987C9.08297 356.573 27.2966 338.167 49.698 338.167V336.167C26.1793 336.167 7.08297 355.481 7.08297 378.987H9.08297ZM49.698 338.167H161.628V336.167H49.698V338.167ZM160.628 337.167V360.742H162.628V337.167H160.628ZM161.628 359.742H58.513V361.742H161.628V359.742ZM58.513 359.742C47.9157 359.742 39.268 368.389 39.268 378.987H41.268C41.268 369.494 49.0203 361.742 58.513 361.742V359.742ZM39.268 378.987C39.268 389.584 47.9157 398.232 58.513 398.232V396.232C49.0203 396.232 41.268 388.479 41.268 378.987H39.268ZM199.814 480.667H198.814V481.667H199.814V480.667ZM199.814 337.167V336.167H198.814V337.167H199.814ZM231.999 337.167H232.999V336.167H231.999V337.167ZM231.999 443.562H230.999V446.081L232.727 444.247L231.999 443.562ZM332.244 337.167V336.167H331.812L331.516 336.481L332.244 337.167ZM365.659 337.167L366.395 337.844L367.938 336.167H365.659V337.167ZM304.364 403.792L303.628 403.115L303.047 403.746L303.583 404.416L304.364 403.792ZM365.864 480.667V481.667H367.945L366.645 480.042L365.864 480.667ZM327.119 480.667L326.34 481.293L326.64 481.667H327.119V480.667ZM283.249 426.137L284.028 425.51L283.3 424.605L282.513 425.459L283.249 426.137ZM233.024 480.667V481.667H233.463L233.76 481.344L233.024 480.667ZM200.814 480.667V337.167H198.814V480.667H200.814ZM199.814 338.167H231.999V336.167H199.814V338.167ZM230.999 337.167V443.562H232.999V337.167H230.999ZM232.727 444.247L332.972 337.852L331.516 336.481L231.271 442.876L232.727 444.247ZM332.244 338.167H365.659V336.167H332.244V338.167ZM364.923 336.49L303.628 403.115L305.1 404.469L366.395 337.844L364.923 336.49ZM303.583 404.416L365.083 481.291L366.645 480.042L305.145 403.167L303.583 404.416ZM365.864 479.667H327.119V481.667H365.864V479.667ZM327.898 480.04L284.028 425.51L282.47 426.763L326.34 481.293L327.898 480.04ZM282.513 425.459L232.288 479.989L233.76 481.344L283.985 426.814L282.513 425.459ZM233.024 479.667H199.814V481.667H233.024V479.667ZM446.767 337.167V336.167H446.17L445.887 336.691L446.767 337.167ZM490.227 337.167L491.106 336.69L490.823 336.167H490.227V337.167ZM567.922 480.667V481.667H569.601L568.801 480.191L567.922 480.667ZM533.482 480.667L532.605 481.147L532.89 481.667H533.482V480.667ZM519.542 455.247L520.419 454.766L520.134 454.247H519.542V455.247ZM417.452 455.247V454.247H416.856L416.572 454.771L417.452 455.247ZM403.717 480.667V481.667H404.313L404.597 481.142L403.717 480.667ZM369.277 480.667L368.397 480.191L367.6 481.667H369.277V480.667ZM430.367 431.467L429.488 430.99L428.687 432.467H430.367V431.467ZM506.832 431.467V432.467H508.507L507.712 430.992L506.832 431.467ZM468.702 360.742L469.582 360.267L468.704 358.639L467.823 360.265L468.702 360.742ZM446.767 338.167H490.227V336.167H446.767V338.167ZM489.348 337.643L567.043 481.143L568.801 480.191L491.106 336.69L489.348 337.643ZM567.922 479.667H533.482V481.667H567.922V479.667ZM534.359 480.186L520.419 454.766L518.665 455.727L532.605 481.147L534.359 480.186ZM519.542 454.247H417.452V456.247H519.542V454.247ZM416.572 454.771L402.837 480.191L404.597 481.142L418.332 455.722L416.572 454.771ZM403.717 479.667H369.277V481.667H403.717V479.667ZM370.157 481.142L447.647 337.642L445.887 336.691L368.397 480.191L370.157 481.142ZM430.367 432.467H506.832V430.467H430.367V432.467ZM507.712 430.992L469.582 360.267L467.822 361.216L505.952 431.941L507.712 430.992ZM467.823 360.265L429.488 430.99L431.246 431.943L469.581 361.218L467.823 360.265ZM615.578 480.667V481.667H616.578V480.667H615.578ZM583.188 480.667H582.188V481.667H583.188V480.667ZM583.188 337.167V336.167H582.188V337.167H583.188ZM615.578 337.167H616.578V336.167H615.578V337.167ZM615.578 479.667H583.188V481.667H615.578V479.667ZM584.188 480.667V337.167H582.188V480.667H584.188ZM583.188 338.167H615.578V336.167H583.188V338.167ZM614.578 337.167V480.667H616.578V337.167H614.578Z" fill="url(#paint2_linear_1_475)" mask="url(#path-5-outside-3_1_475)"/>
</g>
<g opacity="0.5">
<mask id="path-7-outside-4_1_475" maskUnits="userSpaceOnUse" x="7" y="504" width="610" height="146" fill="black">
<rect fill="white" x="7" y="504" width="610" height="146"/>
<path d="M58.513 565.565H138.053C161.013 565.565 179.668 584.425 179.668 607.385C179.668 630.345 161.013 649 138.053 649H13.823V625.63H129.238C139.078 625.63 147.483 617.43 147.483 607.385C147.483 597.34 139.078 589.14 129.238 589.14H49.698C26.738 589.14 8.08297 570.28 8.08297 547.32C8.08297 524.36 26.738 505.5 49.698 505.5H161.628V529.075H58.513C48.468 529.075 40.268 537.275 40.268 547.32C40.268 557.365 48.468 565.565 58.513 565.565ZM199.814 649V505.5H231.999V611.895L332.244 505.5H365.659L304.364 572.125L365.864 649H327.119L283.249 594.47L233.024 649H199.814ZM446.767 505.5H490.227L567.922 649H533.482L519.542 623.58H417.452L403.717 649H369.277L446.767 505.5ZM430.367 599.8H506.832L468.702 529.075L430.367 599.8ZM615.578 649H583.188V505.5H615.578V649Z"/>
</mask>
<path d="M13.823 649H12.823V650H13.823V649ZM13.823 625.63V624.63H12.823V625.63H13.823ZM161.628 505.5H162.628V504.5H161.628V505.5ZM161.628 529.075V530.075H162.628V529.075H161.628ZM58.513 566.565H138.053V564.565H58.513V566.565ZM138.053 566.565C160.454 566.565 178.668 584.971 178.668 607.385H180.668C180.668 583.879 161.572 564.565 138.053 564.565V566.565ZM178.668 607.385C178.668 629.793 160.461 648 138.053 648V650C161.565 650 180.668 630.897 180.668 607.385H178.668ZM138.053 648H13.823V650H138.053V648ZM14.823 649V625.63H12.823V649H14.823ZM13.823 626.63H129.238V624.63H13.823V626.63ZM129.238 626.63C139.623 626.63 148.483 617.99 148.483 607.385H146.483C146.483 616.87 138.533 624.63 129.238 624.63V626.63ZM148.483 607.385C148.483 596.78 139.623 588.14 129.238 588.14V590.14C138.533 590.14 146.483 597.9 146.483 607.385H148.483ZM129.238 588.14H49.698V590.14H129.238V588.14ZM49.698 588.14C27.2966 588.14 9.08297 569.734 9.08297 547.32H7.08297C7.08297 570.826 26.1793 590.14 49.698 590.14V588.14ZM9.08297 547.32C9.08297 524.906 27.2966 506.5 49.698 506.5V504.5C26.1793 504.5 7.08297 523.814 7.08297 547.32H9.08297ZM49.698 506.5H161.628V504.5H49.698V506.5ZM160.628 505.5V529.075H162.628V505.5H160.628ZM161.628 528.075H58.513V530.075H161.628V528.075ZM58.513 528.075C47.9157 528.075 39.268 536.723 39.268 547.32H41.268C41.268 537.827 49.0203 530.075 58.513 530.075V528.075ZM39.268 547.32C39.268 557.917 47.9157 566.565 58.513 566.565V564.565C49.0203 564.565 41.268 556.813 41.268 547.32H39.268ZM199.814 649H198.814V650H199.814V649ZM199.814 505.5V504.5H198.814V505.5H199.814ZM231.999 505.5H232.999V504.5H231.999V505.5ZM231.999 611.895H230.999V614.415L232.727 612.581L231.999 611.895ZM332.244 505.5V504.5H331.812L331.516 504.814L332.244 505.5ZM365.659 505.5L366.395 506.177L367.938 504.5H365.659V505.5ZM304.364 572.125L303.628 571.448L303.047 572.08L303.583 572.75L304.364 572.125ZM365.864 649V650H367.945L366.645 648.375L365.864 649ZM327.119 649L326.34 649.627L326.64 650H327.119V649ZM283.249 594.47L284.028 593.843L283.3 592.938L282.513 593.793L283.249 594.47ZM233.024 649V650H233.463L233.76 649.677L233.024 649ZM200.814 649V505.5H198.814V649H200.814ZM199.814 506.5H231.999V504.5H199.814V506.5ZM230.999 505.5V611.895H232.999V505.5H230.999ZM232.727 612.581L332.972 506.186L331.516 504.814L231.271 611.209L232.727 612.581ZM332.244 506.5H365.659V504.5H332.244V506.5ZM364.923 504.823L303.628 571.448L305.1 572.802L366.395 506.177L364.923 504.823ZM303.583 572.75L365.083 649.625L366.645 648.375L305.145 571.5L303.583 572.75ZM365.864 648H327.119V650H365.864V648ZM327.898 648.373L284.028 593.843L282.47 595.097L326.34 649.627L327.898 648.373ZM282.513 593.793L232.288 648.323L233.76 649.677L283.985 595.147L282.513 593.793ZM233.024 648H199.814V650H233.024V648ZM446.767 505.5V504.5H446.17L445.887 505.025L446.767 505.5ZM490.227 505.5L491.106 505.024L490.823 504.5H490.227V505.5ZM567.922 649V650H569.601L568.801 648.524L567.922 649ZM533.482 649L532.605 649.481L532.89 650H533.482V649ZM519.542 623.58L520.419 623.099L520.134 622.58H519.542V623.58ZM417.452 623.58V622.58H416.856L416.572 623.105L417.452 623.58ZM403.717 649V650H404.313L404.597 649.475L403.717 649ZM369.277 649L368.397 648.525L367.6 650H369.277V649ZM430.367 599.8L429.488 599.323L428.687 600.8H430.367V599.8ZM506.832 599.8V600.8H508.507L507.712 599.325L506.832 599.8ZM468.702 529.075L469.582 528.6L468.704 526.972L467.823 528.598L468.702 529.075ZM446.767 506.5H490.227V504.5H446.767V506.5ZM489.348 505.976L567.043 649.476L568.801 648.524L491.106 505.024L489.348 505.976ZM567.922 648H533.482V650H567.922V648ZM534.359 648.519L520.419 623.099L518.665 624.061L532.605 649.481L534.359 648.519ZM519.542 622.58H417.452V624.58H519.542V622.58ZM416.572 623.105L402.837 648.525L404.597 649.475L418.332 624.055L416.572 623.105ZM403.717 648H369.277V650H403.717V648ZM370.157 649.475L447.647 505.975L445.887 505.025L368.397 648.525L370.157 649.475ZM430.367 600.8H506.832V598.8H430.367V600.8ZM507.712 599.325L469.582 528.6L467.822 529.55L505.952 600.275L507.712 599.325ZM467.823 528.598L429.488 599.323L431.246 600.277L469.581 529.552L467.823 528.598ZM615.578 649V650H616.578V649H615.578ZM583.188 649H582.188V650H583.188V649ZM583.188 505.5V504.5H582.188V505.5H583.188ZM615.578 505.5H616.578V504.5H615.578V505.5ZM615.578 648H583.188V650H615.578V648ZM584.188 649V505.5H582.188V649H584.188ZM583.188 506.5H615.578V504.5H583.188V506.5ZM614.578 505.5V649H616.578V505.5H614.578Z" fill="url(#paint3_linear_1_475)" mask="url(#path-7-outside-4_1_475)"/>
</g>
<defs>
<linearGradient id="paint0_linear_1_475" x1="0" y1="88.5" x2="645" y2="88.5" gradientUnits="userSpaceOnUse">
<stop stop-color="#FF2091"/>
<stop offset="1" stop-color="#0184FD" stop-opacity="0"/>
</linearGradient>
<linearGradient id="paint1_linear_1_475" x1="0" y1="256.833" x2="645" y2="256.833" gradientUnits="userSpaceOnUse">
<stop stop-color="#FF2091"/>
<stop offset="1" stop-color="#0184FD" stop-opacity="0"/>
</linearGradient>
<linearGradient id="paint2_linear_1_475" x1="0" y1="425.167" x2="645" y2="425.167" gradientUnits="userSpaceOnUse">
<stop stop-color="#FF2091"/>
<stop offset="1" stop-color="#0184FD" stop-opacity="0"/>
</linearGradient>
<linearGradient id="paint3_linear_1_475" x1="0" y1="593.5" x2="645" y2="593.5" gradientUnits="userSpaceOnUse">
<stop stop-color="#FF2091"/>
<stop offset="1" stop-color="#0184FD" stop-opacity="0"/>
</linearGradient>
</defs>
</svg>
