<?xml version="1.0" encoding="UTF-8"?>
<svg version="1.1" xmlns="http://www.w3.org/2000/svg" width="500" height="143">
<path d="M0 0 C3.12498063 -0.02895976 6.2499269 -0.04678483 9.375 -0.0625 C10.70917969 -0.07506836 10.70917969 -0.07506836 12.0703125 -0.08789062 C13.34648437 -0.09272461 13.34648437 -0.09272461 14.6484375 -0.09765625 C15.43395996 -0.10289307 16.21948242 -0.10812988 17.02880859 -0.11352539 C19 0 19 0 21 1 C21 1.99 21 2.98 21 4 C19.35 4.33 17.7 4.66 16 5 C19.34578082 18.53720531 23.67779878 31.74870988 28 45 C30.20574995 39.23467154 32.23719327 33.43936566 34.125 27.5625 C34.52138672 26.37043945 34.52138672 26.37043945 34.92578125 25.15429688 C36.59457455 19.94884771 38.2225255 14.51905238 38 9 C35.9927092 5.9890638 35.16115776 5.36983503 32 4 C32.33 2.68 32.66 1.36 33 0 C39.6 0 46.2 0 53 0 C53.495 1.98 53.495 1.98 54 4 C52.02 4.99 52.02 4.99 50 6 C50.53433643 13.41391797 52.70034405 20.29941801 54.86572266 27.3659668 C55.50525512 29.45466307 56.13419048 31.54634123 56.76171875 33.63867188 C58.09470206 39.78539162 58.09470206 39.78539162 61 45 C64.96 32.46 68.92 19.92 73 7 C70.22739701 5.06201737 70.22739701 5.06201737 68 4 C68.33 2.68 68.66 1.36 69 0 C74.28 0 79.56 0 85 0 C85 4 85 4 83.12393188 5.9387207 C82.42303436 6.61894287 81.72213684 7.29916504 81 8 C79.82601587 10.35762685 79.82601587 10.35762685 79.01708984 12.98046875 C78.68349457 13.96829346 78.34989929 14.95611816 78.00619507 15.97387695 C77.48879257 17.56462036 77.48879257 17.56462036 76.9609375 19.1875 C76.59400787 20.28215576 76.22707825 21.37681152 75.84902954 22.50463867 C74.67978022 25.99946384 73.52680684 29.49939172 72.375 33 C71.21298256 36.49950826 70.04763058 39.99787332 68.87954712 43.49536133 C68.15411439 45.67087895 67.43275812 47.84776104 66.71591187 50.02612305 C66.38862091 51.01394775 66.06132996 52.00177246 65.72412109 53.01953125 C65.43862396 53.88682861 65.15312683 54.75412598 64.85897827 55.64770508 C64.04876118 57.86646847 63.10246075 59.91340534 62 62 C60.02 62 58.04 62 56 62 C54.28526381 56.92989904 52.57642653 51.85786321 50.87304688 46.78393555 C50.29263794 45.05780326 49.71061526 43.33221272 49.12695312 41.60717773 C48.28872539 39.12884623 47.45630328 36.64863015 46.625 34.16796875 C46.36251465 33.39599655 46.1000293 32.62402435 45.82958984 31.82865906 C44.8105184 28.77240588 44 26.24447245 44 23 C43.34 23 42.68 23 42 23 C41.66355469 24.74603516 41.66355469 24.74603516 41.3203125 26.52734375 C39.72593791 33.70202938 37.23520008 40.61247451 34.875 47.5625 C34.40192249 48.96665502 33.92926287 50.3709509 33.45703125 51.77539062 C32.30949994 55.18523097 31.15632848 58.59313137 30 62 C28.02 62 26.04 62 24 62 C21.32456543 55.47469338 18.8674918 48.9135926 16.6171875 42.23046875 C16.31684601 41.34643875 16.01650452 40.46240875 15.70706177 39.55158997 C14.76049728 36.76441493 13.81749396 33.97605385 12.875 31.1875 C11.9248844 28.38126055 10.97397448 25.57529647 10.02151489 22.76985168 C9.43237537 21.03409392 8.84463773 19.29785951 8.2585144 17.56108093 C7.51578484 15.3703856 6.7617273 13.18415029 6 11 C5.65984863 10.02458252 5.31969727 9.04916504 4.96923828 8.04418945 C3.62789143 5.21519773 1.74071464 4.37035732 -1 3 C-0.67 2.01 -0.34 1.02 0 0 Z " fill="#F8E4EC" transform="translate(323,47)"/>
<path d="M0 0 C4.88459192 -0.83430256 9.1336596 -1.03815262 14 0 C18.01185566 3.23019088 20.79953566 6.9572909 23.72070312 11.16992188 C25.32353964 13.46283457 27.0367321 15.65512795 28.76293945 17.85571289 C30.0010079 19.43878877 31.21936949 21.03530131 32.43359375 22.63671875 C35.27259404 26.37048824 38.16408068 30.06226211 41.0625 33.75 C41.54009766 34.35900146 42.01769531 34.96800293 42.50976562 35.59545898 C44.64925882 38.38923468 44.64925882 38.38923468 47 41 C47 29.78 47 18.56 47 7 C45.02 6.01 43.04 5.02 41 4 C41.33 2.68 41.66 1.36 42 0 C44.60423592 -0.02697137 47.20819244 -0.04682489 49.8125 -0.0625 C50.55048828 -0.07087891 51.28847656 -0.07925781 52.04882812 -0.08789062 C55.29922068 -0.10259828 57.89404895 -0.03531702 61 1 C61 1.99 61 2.98 61 4 C59.35 4.66 57.7 5.32 56 6 C55.67 24.15 55.34 42.3 55 61 C54.01 61.33 53.02 61.66 52 62 C37.08679373 53.80875616 24.99490514 31.35195634 15 18 C14.9707186 22.47915271 14.95310704 26.95828042 14.9375 31.4375 C14.92912109 32.69755859 14.92074219 33.95761719 14.91210938 35.25585938 C14.84236084 45.1761144 14.84236084 45.1761144 16 55 C18.90251302 57.16247221 18.90251302 57.16247221 22 58 C21.67 58.99 21.34 59.98 21 61 C17.93737964 62.2014361 14.8227868 62.16489052 11.5625 62.1875 C10.63566406 62.20167969 9.70882812 62.21585938 8.75390625 62.23046875 C5.82166627 61.98507562 3.66138611 61.22201577 1 60 C1.33 59.01 1.66 58.02 2 57 C2.66 56.731875 3.32 56.46375 4 56.1875 C4.99 55.5996875 4.99 55.5996875 6 55 C7.32855909 49.7413168 7.12821528 44.3934167 7.09765625 39.0078125 C7.0962413 38.06187225 7.09482635 37.11593201 7.09336853 36.1413269 C7.08779484 33.13585171 7.0752472 30.13045247 7.0625 27.125 C7.0574816 25.08073025 7.05291929 23.03645932 7.04882812 20.9921875 C7.03783403 15.99476264 7.02058757 10.99739417 7 6 C4.36 5.34 1.72 4.68 -1 4 C-0.67 2.68 -0.34 1.36 0 0 Z " fill="#F7E1EA" transform="translate(182,47)"/>
<path d="M0 0 C5.94 0 11.88 0 18 0 C18 1.32 18 2.64 18 4 C16.68 4.33 15.36 4.66 14 5 C14.06892137 11.03271442 14.15691082 17.0647387 14.26245117 23.09692383 C14.29567083 25.14827816 14.32371197 27.19972325 14.34643555 29.2512207 C14.3800357 32.20302949 14.43235476 35.15400886 14.48828125 38.10546875 C14.49467117 39.02023483 14.5010611 39.93500092 14.50764465 40.87748718 C14.61887054 45.71282836 14.83486069 49.08714399 18 53 C22.04259175 55.73639646 26.29163072 55.52221627 31 55 C34.66772576 53.64453613 35.71739442 52.46428059 37.75 49.125 C40.96803771 40.50720409 40.25021131 30.07909599 40 21 C39.98324219 19.70835938 39.96648437 18.41671875 39.94921875 17.0859375 C39.90605609 15.72387982 39.86049777 14.36189587 39.8125 13 C39.77769531 11.741875 39.74289063 10.48375 39.70703125 9.1875 C39.33064511 5.80604294 39.33064511 5.80604294 36.44921875 4.1875 C35.23685547 3.5996875 35.23685547 3.5996875 34 3 C34 2.34 34 1.68 34 1 C37.06533164 -0.53266582 40.26754272 -0.10276471 43.625 -0.0625 C44.68460938 -0.05573242 44.68460938 -0.05573242 45.765625 -0.04882812 C47.51045275 -0.03703875 49.255237 -0.01910324 51 0 C51.495 1.98 51.495 1.98 52 4 C50.68 4.33 49.36 4.66 48 5 C47.98018066 6.13953125 47.96036133 7.2790625 47.93994141 8.453125 C47.86345511 12.71001028 47.77480639 16.96657277 47.68261719 21.22314453 C47.64450427 23.05999342 47.60962161 24.89691246 47.578125 26.73388672 C47.53208774 29.38534494 47.47416016 32.03632756 47.4140625 34.6875 C47.39673569 35.90518066 47.39673569 35.90518066 47.37905884 37.14746094 C47.16740818 45.45815509 45.91935162 52.0988566 40.05859375 58.30078125 C35.70065713 61.89793956 31.00250151 62.78544627 25.5 63.375 C18.22483756 62.59551831 12.73118447 60.84440434 8 55 C3.44292963 48.81540449 3.83885531 41.3902678 3.68359375 34.00390625 C3.66281265 33.17036118 3.64203156 32.3368161 3.62062073 31.47801208 C3.55572144 28.83958439 3.49652022 26.20106509 3.4375 23.5625 C3.39425794 21.76366276 3.35064192 19.96483446 3.30664062 18.16601562 C3.20010201 13.7774354 3.09867025 9.3887639 3 5 C1.68 4.67 0.36 4.34 -1 4 C-0.67 2.68 -0.34 1.36 0 0 Z " fill="#F6E2EA" transform="translate(120,47)"/>
<path d="M0 0 C0.99 0.33 1.98 0.66 3 1 C4.13704685 3.55768745 5.07627417 6.0186584 5.9609375 8.6640625 C6.36960556 9.84045792 6.36960556 9.84045792 6.78652954 11.0406189 C7.66044888 13.565077 8.51780205 16.09482133 9.375 18.625 C9.94425014 20.27640825 10.51455156 21.92745452 11.0859375 23.578125 C13.24858639 29.84490052 15.38583417 36.11966818 17.45800781 42.41699219 C17.6838858 43.10215912 17.90976379 43.78732605 18.14248657 44.49325562 C18.74630823 46.33082624 19.34526423 48.16999372 19.94384766 50.00927734 C21.50341888 54.93332405 21.50341888 54.93332405 25.125 58.25 C25.74375 58.4975 26.3625 58.745 27 59 C27 59.99 27 60.98 27 62 C19.74 62 12.48 62 5 62 C6 58 6 58 8.0625 56.75 C8.701875 56.5025 9.34125 56.255 10 56 C9.87625 54.824375 9.7525 53.64875 9.625 52.4375 C9.55539062 51.77621094 9.48578125 51.11492187 9.4140625 50.43359375 C8.86962194 47.23372137 7.89170597 44.12097088 7 41 C1.06 41 -4.88 41 -11 41 C-11.8190441 46.71507753 -11.8190441 46.71507753 -12.5625 52.4375 C-12.706875 53.613125 -12.85125 54.78875 -13 56 C-12.175 56.433125 -11.35 56.86625 -10.5 57.3125 C-9.675 57.869375 -8.85 58.42625 -8 59 C-8 59.99 -8 60.98 -8 62 C-14.6 62 -21.2 62 -28 62 C-27.67 60.68 -27.34 59.36 -27 58 C-25.515 57.505 -25.515 57.505 -24 57 C-22.84148849 54.62631065 -21.90148039 52.34826431 -21 49.875 C-20.71165283 49.11034424 -20.42330566 48.34568848 -20.1262207 47.55786133 C-16.5348932 37.93701506 -13.13801515 28.2401838 -9.73242188 18.55224609 C-9.50057693 17.89326828 -9.26873199 17.23429047 -9.02986145 16.55534363 C-8.3940594 14.74650786 -7.75984453 12.93711444 -7.12573242 11.12768555 C-3.88290142 2.11794623 -3.88290142 2.11794623 0 0 Z M-3 14 C-3.83661862 16.7907207 -4.66942737 19.58248012 -5.5 22.375 C-5.73847656 23.1690625 -5.97695313 23.963125 -6.22265625 24.78125 C-6.56103516 25.92207031 -6.56103516 25.92207031 -6.90625 27.0859375 C-7.11572266 27.7876709 -7.32519531 28.4894043 -7.54101562 29.21240234 C-8.08289787 31.01526378 -8.08289787 31.01526378 -8 33 C-4.04 33 -0.08 33 4 33 C2.11409966 26.62386075 0.14364744 20.29411375 -2 14 C-2.33 14 -2.66 14 -3 14 Z " fill="#F7E9EF" transform="translate(428,47)"/>
<path d="M0 0 C4.56947694 4.00272011 6.70859308 8.56556131 7.21875 14.578125 C7.46591654 22.11670441 6.59519402 26.92674393 1.625 32.8125 C-3.62386249 37.18655207 -8.37554197 37.50957369 -15 37 C-16.33673815 36.68059428 -17.67072541 36.3491675 -19 36 C-18.96701098 38.77407649 -18.89990921 41.54005929 -18.8125 44.3125 C-18.80669922 45.09818359 -18.80089844 45.88386719 -18.79492188 46.69335938 C-18.71019519 48.90566725 -18.59213189 50.86501336 -18 53 C-15.54302807 54.82495438 -15.54302807 54.82495438 -13 56 C-13 57.32 -13 58.64 -13 60 C-19.6 60 -26.2 60 -33 60 C-33.33 58.68 -33.66 57.36 -34 56 C-33.1850708 55.7321167 -32.3701416 55.4642334 -31.53051758 55.18823242 C-28.83312051 53.30455364 -28.83312051 53.30455364 -28.55307007 50.82974243 C-28.41926433 47.8715698 -28.43939485 44.94870658 -28.51171875 41.98828125 C-28.51879349 40.90491989 -28.52586823 39.82155853 -28.53315735 38.70536804 C-28.56117746 35.24038038 -28.62393339 31.77700037 -28.6875 28.3125 C-28.71257286 25.9655181 -28.73538779 23.61851092 -28.75585938 21.27148438 C-28.81102901 15.5137731 -28.89473179 9.75700138 -29 4 C-31.475 3.01 -31.475 3.01 -34 2 C-34 0.68 -34 -0.64 -34 -2 C-9.38684619 -5.31330917 -9.38684619 -5.31330917 0 0 Z M-19 5 C-19.41709358 7.61690757 -19.41709358 7.61690757 -19.29296875 10.6640625 C-19.28330078 11.78554688 -19.27363281 12.90703125 -19.26367188 14.0625 C-19.23853516 15.238125 -19.21339844 16.41375 -19.1875 17.625 C-19.17396484 18.80835938 -19.16042969 19.99171875 -19.14648438 21.2109375 C-19.11103916 24.14107539 -19.06162769 27.07031459 -19 30 C-15.92805092 31.53597454 -13.39755707 31.2265038 -10 31 C-5.80073368 29.44918714 -5.80073368 29.44918714 -2.8515625 26.2578125 C-0.74337041 20.66820228 -1.33271912 14.00184264 -3.1875 8.4375 C-5.27431703 5.6310909 -6.77255416 4.35102384 -10 3 C-14.12910567 2.58708943 -15.4913604 2.66090693 -19 5 Z " fill="#FBE2ED" transform="translate(493,50)"/>
<path d="M0 0 C0.66 0 1.32 0 2 0 C3.35776041 1.63479225 4.6340114 3.33738947 5.875 5.0625 C9.44530472 9.9544296 13.13329898 14.72521511 16.9375 19.4375 C21.60030058 25.22570217 26.17378861 31.07001656 30.66015625 36.99609375 C32.19709616 38.96922695 33.78792555 40.90175107 35.43359375 42.78515625 C40.9272255 49.0975962 40.9272255 49.0975962 41.3125 53.875 C39.74465415 57.60796632 38.49760594 58.97916101 35 61 C31.6875 61.75 31.6875 61.75 29 62 C28.96261719 62.68964844 28.92523437 63.37929688 28.88671875 64.08984375 C28.54825255 68.92791949 28.07963301 73.25124455 26.375 77.8125 C25.00777768 81.66123084 24.45507371 84.05185504 26 88 C27.15529277 89.15805003 28.34700101 90.28031125 29.5625 91.375 C32.19313629 93.84224273 33.57576417 95.40903925 33.875 99.0625 C33.56469984 102.53651264 32.32462213 104.0845894 29.75 106.375 C25.52798879 109.60465815 22.40945803 111.30052545 17 111 C12.87533646 103.51668186 10.07538874 96.59007285 12 88 C13.787276 84.67776931 15.8242556 81.64170511 17.95703125 78.53125 C21.12545881 73.52406725 22.11094209 67.86840115 23.30859375 62.140625 C24 59 24 59 25 58 C24.76865789 51.02117959 21.57117822 45.4000924 18.5 39.25 C17.48824765 37.19336488 16.47777087 35.13610161 15.46875 33.078125 C15.01951172 32.17481445 14.57027344 31.27150391 14.10742188 30.34082031 C13 28 13 28 12 25 C16.09620723 26.36540241 16.44967278 28.18653491 18.43359375 31.96875 C19.08902254 33.19149748 19.74462691 34.41415086 20.40039062 35.63671875 C21.42270792 37.57019446 22.44057449 39.50587733 23.4543457 41.44384766 C24.43622085 43.3125241 25.43399831 45.17200846 26.43359375 47.03125 C27.02197021 48.15080078 27.61034668 49.27035156 28.21655273 50.42382812 C29.74049373 53.13636019 29.74049373 53.13636019 32.22290039 53.87304688 C33.1025647 53.93588867 33.1025647 53.93588867 34 54 C26.35272455 41.30784893 18.47338667 28.84496783 10 16.6875 C9.49984375 15.96771973 8.9996875 15.24793945 8.484375 14.50634766 C7.52052019 13.12239166 6.55202546 11.74165138 5.578125 10.36474609 C3.23802091 7.01031012 1.31939761 3.91321338 0 0 Z M18 93 C17.67 93.99 17.34 94.98 17 96 C17.66 96 18.32 96 19 96 C18.67 95.01 18.34 94.02 18 93 Z " fill="#F7E3EB" transform="translate(0,0)"/>
<path d="M0 0 C1.85625 -0.00386719 1.85625 -0.00386719 3.75 -0.0078125 C7 0.125 7 0.125 10 1.125 C11.26237731 3.64975462 11.09856404 5.43700466 11.0625 8.25 C11.05347656 9.16007812 11.04445313 10.07015625 11.03515625 11.0078125 C11.02355469 11.70648438 11.01195312 12.40515625 11 13.125 C8.625 12.9375 8.625 12.9375 6 12.125 C4.8125 9.625 4.8125 9.625 4 7.125 C0.85658007 5.55329004 -2.55771451 5.89324217 -6 6.125 C-6.99 6.455 -7.98 6.785 -9 7.125 C-10.21586939 12.65167906 -9.97869644 15.31945231 -7 20.125 C-4.33791034 22.4713021 -4.33791034 22.4713021 -1.25 24.5 C4.34819884 28.51034608 9.85791056 32.84082113 13 39.125 C13.49550761 44.55121447 13.73480182 49.47169591 11.5 54.5 C6.0238556 60.24995162 1.63779757 63.86439302 -6.53515625 64.2421875 C-11.29979804 64.01565936 -15.4891474 62.62861753 -20 61.125 C-20.02693575 59.00006859 -20.04636628 56.87504088 -20.0625 54.75 C-20.07410156 53.56664062 -20.08570313 52.38328125 -20.09765625 51.1640625 C-20 48.125 -20 48.125 -19 46.125 C-16 47.125 -16 47.125 -14.97265625 49.12109375 C-14.36705532 50.74555978 -13.76288262 52.37055898 -13.16015625 53.99609375 C-11.7538648 56.57666223 -10.75935071 57.19835237 -8 58.125 C-3.35301068 57.94145697 -3.35301068 57.94145697 0.65625 55.84375 C3.14129384 52.66520555 3.18277345 49.0512445 3 45.125 C0.61900995 39.29157437 -4.25177018 36.67205775 -9.296875 33.14453125 C-13.96178242 29.65933307 -17.94018333 26.01036493 -19 20.125 C-19.36307314 14.49736628 -19.22258504 10.95887756 -16 6.125 C-10.97236972 1.04242294 -7.0501418 -0.0146878 0 0 Z " fill="#F6E1EA" transform="translate(304,45.875)"/>
<path d="M0 0 C3.12498063 -0.02895976 6.2499269 -0.04678483 9.375 -0.0625 C10.70917969 -0.07506836 10.70917969 -0.07506836 12.0703125 -0.08789062 C13.34648437 -0.09272461 13.34648437 -0.09272461 14.6484375 -0.09765625 C15.43395996 -0.10289307 16.21948242 -0.10812988 17.02880859 -0.11352539 C19 0 19 0 21 1 C21 1.99 21 2.98 21 4 C19.35 4.66 17.7 5.32 16 6 C15.87340714 12.92322302 15.78573635 19.84614862 15.7253418 26.77026367 C15.7001701 29.12649692 15.66603007 31.48265188 15.62280273 33.83862305 C15.56227015 37.22203866 15.53381655 40.60442372 15.51171875 43.98828125 C15.48591232 45.04461258 15.4601059 46.10094391 15.43351746 47.18928528 C15.43247811 49.88852452 15.455536 52.35612447 16 55 C18.32854347 57.29749934 18.32854347 57.29749934 21 58 C20.67 58.99 20.34 59.98 20 61 C16.79228469 62.28901262 13.48033384 62.13362001 10.0625 62.125 C9.04285156 62.12757812 8.02320313 62.13015625 6.97265625 62.1328125 C4.20411275 62.00911936 1.69460465 61.62526738 -1 61 C-0.75 59.125 -0.75 59.125 0 57 C0.66 56.71125 1.32 56.4225 2 56.125 C2.66 55.75375 3.32 55.3825 4 55 C4.91226708 51.00639374 5.12819489 47.15558243 5.1328125 43.0703125 C5.13474609 41.95180908 5.13667969 40.83330566 5.13867188 39.6809082 C5.1319043 37.92073364 5.1319043 37.92073364 5.125 36.125 C5.12306641 34.92512451 5.12113281 33.72524902 5.11914062 32.48901367 C5.07616452 23.6245957 4.75744727 14.83237626 4 6 C1.525 5.01 1.525 5.01 -1 4 C-0.67 2.68 -0.34 1.36 0 0 Z " fill="#F9DBE7" transform="translate(253,47)"/>
<path d="M0 0 C7.15016868 1.20758404 12.48514195 2.83846416 17.1875 8.75 C20.96809826 11.77447861 23.37915295 11.15832274 28.0625 10.91015625 C32.82286968 11.05575266 36.7671776 12.94327068 41 15 C40.01 14.38125 39.02 13.7625 38 13.125 C37.01 12.42375 36.02 11.7225 35 11 C35 10.34 35 9.68 35 9 C37.76276177 9.52268466 40.3260876 10.10869587 43 11 C43 8.36 43 5.72 43 3 C43.99 3.33 44.98 3.66 46 4 C45.814375 5.7325 45.814375 5.7325 45.625 7.5 C45.58268055 12.26516995 47.56945832 14.71806844 50.58984375 18.23828125 C52 20 52 20 53 23 C50.53199953 21.84826645 48.95216435 20.95216435 47 19 C46.505 20.485 46.505 20.485 46 22 C46.99 22.33 47.98 22.66 49 23 C52.22534691 27.74315722 53.53574151 31.31283353 54 37 C53.34 37 52.68 37 52 37 C50.93072266 35.79730469 50.93072266 35.79730469 49.83984375 34.5703125 C46.31038164 31.37583372 44.25160291 31.24332833 39.5625 30.875 C32.11643268 30.25887738 27.0738943 28.77725 22.125 23 C21.11179687 21.82050781 21.11179687 21.82050781 20.078125 20.6171875 C17.20910574 17.00394895 14.60576951 13.22585879 12.0546875 9.3828125 C8.8369686 5.65123735 4.791958 3.92153039 0 3 C0 2.01 0 1.02 0 0 Z M43 18 C43 19.98 43 21.96 43 24 C43.33 24 43.66 24 44 24 C44 22.02 44 20.04 44 18 C43.67 18 43.34 18 43 18 Z " fill="#F8E7EE" transform="translate(36,27)"/>
<path d="M0 0 C0.81726562 0.45761719 1.63453125 0.91523437 2.4765625 1.38671875 C6.43651594 3.19986817 10.13085571 3.98037926 14.375 4.8125 C21.96470446 6.47809735 27.9532114 8.26738025 32.35546875 15.10546875 C35.52089931 21.38231228 35.94416228 26.69543201 34 33.5 C33.67 34.325 33.34 35.15 33 36 C32.34 36 31.68 36 31 36 C30.54625 34.80375 30.0925 33.6075 29.625 32.375 C26.39644976 25.94055601 20.28886785 23.66001043 14.11328125 20.54296875 C2.77071701 14.67825954 2.77071701 14.67825954 0 9 C-0.44698066 5.92516602 -0.37691136 3.07810942 0 0 Z " fill="#F8E8EF" transform="translate(61,55)"/>
<path d="M0 0 C3.68723451 3.84969886 5.02509092 7.6589425 6.1875 12.75 C6.92161651 17.23453776 6.92161651 17.23453776 9 21 C11.67058851 21.14115161 14.32432238 21.04247107 17 21 C17 21.66 17 22.32 17 23 C13.58459721 25.10178633 10.97748585 25.56821226 7 25 C1.84266663 21.22634144 -0.413129 15.66910029 -3 10 C-2.94972656 11.16402344 -2.94972656 11.16402344 -2.8984375 12.3515625 C-3 15 -3 15 -4.625 17.375 C-7 19 -7 19 -9.9375 19.0625 C-13.68667963 17.76176421 -15.48475115 16.0330942 -18 13 C-18 12.34 -18 11.68 -18 11 C-21.3 10.01 -24.6 9.02 -28 8 C-25.9981059 3.9962118 -25.19559137 3.1197426 -21.625 0.8125 C-20.85414062 0.30332031 -20.08328125 -0.20585938 -19.2890625 -0.73046875 C-12.88604616 -4.28162969 -6.14412084 -3.95954454 0 0 Z M-10 6 C-6 7 -6 7 -6 7 Z M-9 9 C-9.33 9.66 -9.66 10.32 -10 11 C-9.67 11.66 -9.34 12.32 -9 13 C-9.99 13.495 -9.99 13.495 -11 14 C-9.68 14.33 -8.36 14.66 -7 15 C-6.67 13.35 -6.34 11.7 -6 10 C-6.99 9.67 -7.98 9.34 -9 9 Z " fill="#F7DEE8" transform="translate(58,102)"/>
<path d="M0 0 C6.90386695 2.4683517 14.43511401 7.06895901 18.6875 13.1875 C21.37741484 18.96485404 21.03697795 26.48425658 19.26953125 32.4765625 C17.33908579 36.68414567 14.96998019 39.49264409 11 42 C10.34 42 9.68 42 9 42 C9.17789063 41.09121094 9.17789063 41.09121094 9.359375 40.1640625 C10.82222937 30.6555091 7.54931048 24.5879503 2.75 16.5625 C-0.42664566 10.97543477 -0.6585862 6.30535309 0 0 Z " fill="#F8E6ED" transform="translate(72,76)"/>
<path d="M0 0 C5.51312442 0.4900555 5.51312442 0.4900555 7.56640625 2.640625 C9.3101935 5.51050919 10.18634558 8.27753287 11.125 11.5 C11.45757812 12.6240625 11.79015625 13.748125 12.1328125 14.90625 C12.79385005 17.26454614 13.42808313 19.61895835 14 22 C9.95817472 21.81200813 8.31741086 21.29526592 5.3125 18.5 C1.27853416 13.0866781 -0.51659127 6.71568655 0 0 Z " fill="#F6D6E4" transform="translate(35,31)"/>
<path d="M0 0 C2.40566625 1.72907261 3.82155168 3.09574745 4.40625 6.05859375 C4.56972104 10.09769071 4.15515285 12.66486985 2.4375 16.375 C-2.44779362 21.63608544 -8.60033866 22.50566049 -15.4375 23.1875 C-16.53481445 23.3102832 -16.53481445 23.3102832 -17.65429688 23.43554688 C-19.43514466 23.63341885 -21.21744927 23.81810707 -23 24 C-22.505 22.515 -22.505 22.515 -22 21 C-17.76683709 19.11019513 -13.7938478 17.92011366 -9.25 17.0625 C-5.42028808 16.27674876 -3.41189008 15.21585344 -1 12 C0.26237731 9.47524538 0.09856404 7.68799534 0.0625 4.875 C0.05347656 3.96492188 0.04445313 3.05484375 0.03515625 2.1171875 C0.02355469 1.41851562 0.01195313 0.71984375 0 0 Z " fill="#EFC7D6" transform="translate(67,73)"/>
<path d="M0 0 C0.99 0.33 1.98 0.66 3 1 C2.87625 2.155 2.7525 3.31 2.625 4.5 C2.58268055 9.26516995 4.56945832 11.71806844 7.58984375 15.23828125 C9 17 9 17 10 20 C7.53199953 18.84826645 5.95216435 17.95216435 4 16 C3.67 16.99 3.34 17.98 3 19 C3.66 19.33 4.32 19.66 5 20 C4.01 20 3.02 20 2 20 C1.87625 19.195625 1.7525 18.39125 1.625 17.5625 C1.41875 16.716875 1.2125 15.87125 1 15 C0.34 14.67 -0.32 14.34 -1 14 C-1 13.34 -1 12.68 -1 12 C-4.465 10.02 -4.465 10.02 -8 8 C-8 7.34 -8 6.68 -8 6 C-5.23723823 6.52268466 -2.6739124 7.10869587 0 8 C0 5.36 0 2.72 0 0 Z " fill="#E89ABA" transform="translate(79,30)"/>
<path d="M0 0 C2.375 0.9375 2.375 0.9375 4.375 3.9375 C4.25 6.5 4.25 6.5 3.375 8.9375 C0.94120398 10.84976831 -0.23112157 10.98329982 -3.3125 10.625 C-5.625 9.9375 -5.625 9.9375 -6.625 8.9375 C-7.07197956 5.62985125 -6.89591962 4.31879428 -4.9375 1.5625 C-2.625 -0.0625 -2.625 -0.0625 0 0 Z M-2.625 2.9375 C-2.295 3.5975 -1.965 4.2575 -1.625 4.9375 C-0.965 4.9375 -0.305 4.9375 0.375 4.9375 C0.375 4.2775 0.375 3.6175 0.375 2.9375 C-0.615 2.9375 -1.605 2.9375 -2.625 2.9375 Z " fill="#F4C7D7" transform="translate(44.625,60.0625)"/>
<path d="M0 0 C4.72232789 1.5741093 5.92872392 5.54022813 8.25 9.75 C8.72179688 10.56210937 9.19359375 11.37421875 9.6796875 12.2109375 C10.12054688 13.00242187 10.56140625 13.79390625 11.015625 14.609375 C11.42071289 15.33092773 11.82580078 16.05248047 12.24316406 16.79589844 C13.18720745 19.54519641 12.77410071 21.23916195 12 24 C8.79709259 20.22298655 6.92965975 15.89678902 4.875 11.4375 C4.51535156 10.66986328 4.15570312 9.90222656 3.78515625 9.11132812 C2.37810835 6.08907355 1.0555691 3.1667073 0 0 Z " fill="#E5ACC3" transform="translate(12,25)"/>
<path d="M0 0 C0.66 0 1.32 0 2 0 C3.5020459 1.8237021 4.92716169 3.71113767 6.3125 5.625 C9.41644761 9.8700773 12.56775857 14.01417124 16 18 C15 20 15 20 13 21 C11.20017897 18.44313991 9.4116504 15.87857663 7.625 13.3125 C7.11710938 12.59126953 6.60921875 11.87003906 6.0859375 11.12695312 C3.58719241 7.52678751 1.37692935 4.20544086 0 0 Z " fill="#E8B5CD" transform="translate(0,0)"/>
<path d="M0 0 C2.33094534 0.3496418 4.66404762 0.68554487 7 1 C7 1.33 7 1.66 7 2 C1.72 2.66 -3.56 3.32 -9 4 C-8 1 -8 1 -6.1875 -0.25 C-3.53391383 -1.15980097 -2.6479505 -0.83221301 0 0 Z " fill="#E28DAD" transform="translate(53,93)"/>
<path d="M0 0 C6.6 0 13.2 0 20 0 C20 0.33 20 0.66 20 1 C14.06 1.33 8.12 1.66 2 2 C2 2.99 2 3.98 2 5 C1.01 4.67 0.02 4.34 -1 4 C-0.67 2.68 -0.34 1.36 0 0 Z " fill="#D08FAB" transform="translate(356,47)"/>
<path d="M0 0 C5.94 0 11.88 0 18 0 C18 0.33 18 0.66 18 1 C10.08 1.495 10.08 1.495 2 2 C2 2.99 2 3.98 2 5 C1.01 4.67 0.02 4.34 -1 4 C-0.67 2.68 -0.34 1.36 0 0 Z " fill="#D28FAA" transform="translate(120,47)"/>
<path d="M0 0 C1.46015291 0.28241641 2.91809793 0.57626614 4.375 0.875 C5.18710937 1.03742187 5.99921875 1.19984375 6.8359375 1.3671875 C9 2 9 2 11 4 C6.99799622 5.60080151 3.95443764 4.29279692 0 3 C0 2.01 0 1.02 0 0 Z " fill="#E78DB4" transform="translate(36,27)"/>
<path d="M0 0 C6.27 0 12.54 0 19 0 C19 0.33 19 0.66 19 1 C17.79601562 1.04898438 16.59203125 1.09796875 15.3515625 1.1484375 C13.77601802 1.22346343 12.20049834 1.29901133 10.625 1.375 C9.8309375 1.4059375 9.036875 1.436875 8.21875 1.46875 C3.63332625 1.51816421 3.63332625 1.51816421 0 4 C0 2.68 0 1.36 0 0 Z " fill="#CE8AA9" transform="translate(323,47)"/>
<path d="M0 0 C0.66 0 1.32 0 2 0 C3.5078125 1.96875 3.5078125 1.96875 5.125 4.5 C5.66382813 5.3353125 6.20265625 6.170625 6.7578125 7.03125 C7.16773438 7.6809375 7.57765625 8.330625 8 9 C7.34 9.66 6.68 10.32 6 11 C4.9944239 9.54550599 3.99569565 8.08627557 3 6.625 C2.443125 5.81289062 1.88625 5.00078125 1.3125 4.1640625 C-0 2 -0 2 0 0 Z " fill="#E567A9" transform="translate(0,0)"/>
<path d="M0 0 C5.28 0 10.56 0 16 0 C16 0.33 16 0.66 16 1 C15.00097656 1.04898438 14.00195312 1.09796875 12.97265625 1.1484375 C11.68230469 1.22320312 10.39195312 1.29796875 9.0625 1.375 C7.77472656 1.44460937 6.48695313 1.51421875 5.16015625 1.5859375 C4.11730469 1.72257812 3.07445312 1.85921875 2 2 C1.67 2.66 1.34 3.32 1 4 C0.34 4 -0.32 4 -1 4 C-0.67 2.68 -0.34 1.36 0 0 Z " fill="#CE8CA8" transform="translate(392,47)"/>
<path d="M0 0 C4.62 0 9.24 0 14 0 C14 0.33 14 0.66 14 1 C13.14535156 1.04898438 12.29070312 1.09796875 11.41015625 1.1484375 C10.30542969 1.22320312 9.20070312 1.29796875 8.0625 1.375 C6.96035156 1.44460937 5.85820312 1.51421875 4.72265625 1.5859375 C3.37494141 1.79089844 3.37494141 1.79089844 2 2 C1.67 2.66 1.34 3.32 1 4 C0.34 4 -0.32 4 -1 4 C-0.67 2.68 -0.34 1.36 0 0 Z " fill="#CB8EA9" transform="translate(182,47)"/>
<path d="M0 0 C3 1 3 1 4.75 3.375 C6 6 6 6 5 9 C2.67527795 6.14693203 1.2491742 3.45925163 0 0 Z " fill="#D56099" transform="translate(12,25)"/>
</svg>
