<svg width="136" height="26" viewBox="0 0 136 26" fill="none" xmlns="http://www.w3.org/2000/svg">
<g id="hela">
<g id="Group 1171274699">
<mask id="mask0_1_720" style="mask-type:alpha" maskUnits="userSpaceOnUse" x="0" y="1" width="39" height="25">
<g id="Group 1171274698">
<path id="Vector" d="M12.5173 13.6815C12.5173 11.0381 12.9248 8.42177 13.7668 5.91455C14.3915 4.49742 13.7397 2.83506 12.3271 2.20817C10.9147 1.58137 9.23065 2.20817 8.60592 3.65257C8.27996 4.36117 8.27996 5.17876 8.60592 5.91455C9.44798 8.3945 9.85538 10.9835 9.85538 13.5997C9.85538 16.2433 9.44798 18.8595 8.60592 21.3667C7.98118 22.7838 8.63309 24.4463 10.0455 25.0731C11.458 25.6999 13.1148 25.0458 13.7397 23.6287C14.0655 22.9201 14.0655 22.1026 13.7397 21.3667C12.9248 18.8867 12.5173 16.2705 12.5173 13.6815Z" fill="white"/>
<path id="Vector_2" d="M2.90219 10.793C1.3539 10.793 0.0772705 12.0466 0.0772705 13.6273C0.0772705 15.2079 1.3539 16.4616 2.90219 16.4616C4.45043 16.4616 5.72707 15.2079 5.72707 13.6545C5.72707 12.0738 4.45043 10.8202 2.90219 10.793Z" fill="white"/>
<path id="Vector_3" d="M27.7002 1.96289C26.1519 1.96289 24.9025 3.2165 24.9025 4.76988C24.9025 5.15145 24.9839 5.53294 25.1469 5.88724C26.8309 10.9017 26.8309 16.3249 25.1469 21.3394C24.9839 21.6937 24.9025 22.0753 24.9025 22.4567C24.9025 24.0101 26.1519 25.291 27.7274 25.291C29.3028 25.291 30.5522 24.0374 30.5522 22.4567C30.5522 22.0753 30.4707 21.6937 30.3077 21.3394C28.6237 16.3249 28.6237 10.9017 30.3077 5.88724C30.9325 4.47011 30.2806 2.80767 28.8681 2.18086C28.4879 2.04461 28.1076 1.96289 27.7002 1.96289Z" fill="white"/>
<path id="Vector_4" d="M21.9962 17.6327C21.8333 17.3057 21.6431 17.0331 21.4258 16.7879C20.7468 15.7795 20.0677 14.7167 20.0677 13.6266C20.0677 12.5365 20.7468 11.5008 21.3987 10.5198C21.6431 10.2745 21.8333 10.002 21.9691 9.67496V9.64769C22.5938 8.23057 21.9419 6.5682 20.5294 5.9414C19.117 5.31459 17.4601 5.96858 16.8354 7.38571C16.5095 8.12158 16.5095 8.93917 16.8354 9.64769C16.8354 9.64769 16.8354 9.67496 16.8625 9.67496C16.9983 9.97473 17.1885 10.2472 17.4058 10.4925C18.0849 11.5008 18.7639 12.5637 18.7639 13.6811C18.7639 14.7712 18.0849 15.8068 17.433 16.7879C17.1885 17.0331 16.9983 17.3057 16.8625 17.6327V17.66C16.2378 19.0771 16.8897 20.7395 18.3021 21.3663C19.7146 21.9931 21.3715 21.339 21.9962 19.9219C22.295 19.1588 22.295 18.3412 21.9962 17.6327Z" fill="white"/>
<path id="Vector_5" d="M35.9861 10.793C34.4379 10.793 33.1613 12.0467 33.1613 13.6C33.1613 15.1534 34.4107 16.4343 35.959 16.4343C37.5072 16.4343 38.7838 15.1807 38.7838 13.6273C38.811 12.0738 37.5344 10.8202 35.9861 10.793Z" fill="white"/>
</g>
</mask>
<g mask="url(#mask0_1_720)">
<g id="Mask group">
<mask id="mask1_1_720" style="mask-type:luminance" maskUnits="userSpaceOnUse" x="-5" y="-11" width="49" height="50">
<g id="Group">
<path id="Vector_6" d="M19.4435 38.0996C32.9297 38.0996 43.8625 27.1306 43.8625 13.5996C43.8625 0.068655 32.9297 -10.9004 19.4435 -10.9004C5.95731 -10.9004 -4.97546 0.068655 -4.97546 13.5996C-4.97546 27.1306 5.95731 38.0996 19.4435 38.0996Z" fill="white"/>
</g>
</mask>
<g mask="url(#mask1_1_720)">
<g id="Group_2">
<path id="Vector_7" d="M43.8625 -10.8457H-4.97546V38.1543H43.8625V-10.8457Z" fill="white"/>
</g>
</g>
</g>
</g>
</g>
<path id="Vector_8" d="M60.3768 0.545898V24.9914H55.9493V0.545898H60.3768ZM70.5628 10.2206V13.6816H60.1052V10.2206H70.5628ZM74.5828 0.545898V24.9914H70.1553V0.545898H74.5828Z" fill="white"/>
<path id="Vector_9" d="M88.3004 7.16797C91.0983 7.16797 93.1086 7.65852 94.3311 8.63963C95.5528 9.62074 96.1783 11.065 96.2051 12.9727C96.2318 14.5534 95.8522 15.7525 95.0912 16.5701C94.3311 17.3877 93.0542 17.7965 91.289 17.7965H81.4016V15.1257H90.1208C90.9085 15.1257 91.4244 14.9077 91.6686 14.4989C91.886 14.0629 91.9947 13.5451 91.9947 12.9455C91.968 11.9644 91.6962 11.3104 91.1527 10.9288C90.61 10.5473 89.7135 10.3565 88.4634 10.3565C87.3504 10.3565 86.5083 10.52 85.8837 10.8198C85.2582 11.1196 84.851 11.6919 84.6068 12.4823C84.3618 13.2726 84.2263 14.4444 84.2263 15.9433C84.2263 17.5511 84.3894 18.7776 84.6879 19.6769C84.9873 20.5489 85.5032 21.1485 86.209 21.4756C86.9156 21.8026 87.8664 21.9661 89.0345 21.9661C89.9034 21.9661 90.9085 21.9389 92.0491 21.8571C93.1897 21.7753 94.3035 21.6935 95.363 21.5846L95.7978 24.3098C95.1731 24.5823 94.4398 24.7731 93.5977 24.9366C92.7824 25.1002 91.9136 25.2364 91.044 25.3181C90.1476 25.3999 89.3331 25.4544 88.5454 25.4544C86.4264 25.4544 84.7155 25.1546 83.4386 24.5278C82.1618 23.901 81.2386 22.92 80.6407 21.5573C80.0704 20.222 79.7719 18.4778 79.7719 16.3521C79.7719 14.0629 80.0704 12.2369 80.6407 10.9016C81.2118 9.5662 82.135 8.61236 83.3843 8.04009C84.6879 7.46774 86.3177 7.16797 88.3004 7.16797Z" fill="white"/>
<path id="Vector_10" d="M105.575 0.545898V19.3229C105.575 20.0042 105.765 20.522 106.118 20.8762C106.471 21.2305 107.014 21.3941 107.693 21.3941H116.304L116.521 24.7461C114.919 24.8824 113.261 24.9642 111.523 25.0186C109.785 25.0459 108.074 25.0732 106.389 25.0732C104.597 25.0732 103.293 24.6099 102.451 23.6833C101.609 22.7567 101.202 21.5848 101.202 20.1677V0.545898H105.575Z" fill="white"/>
<path id="Vector_11" d="M133.717 14.2809L133.689 16.9516H125.731C125.024 16.9789 124.508 17.1697 124.21 17.524C123.911 17.8782 123.748 18.3687 123.748 18.9683V19.9221C123.748 20.6307 123.938 21.1758 124.318 21.53C124.699 21.8843 125.296 22.0751 126.084 22.0751C126.708 22.0751 127.415 21.9389 128.203 21.6935C128.99 21.421 129.751 21.0667 130.511 20.5489C131.272 20.0584 131.978 19.4588 132.576 18.7776V21.0123C132.331 21.3665 132.006 21.7753 131.543 22.2659C131.109 22.7565 130.538 23.2197 129.914 23.7102C129.262 24.1736 128.529 24.5823 127.687 24.8821C126.845 25.1819 125.921 25.3454 124.916 25.3454C123.884 25.3454 122.96 25.1546 122.118 24.8004C121.303 24.4461 120.652 23.901 120.19 23.1652C119.728 22.4566 119.484 21.5573 119.484 20.4945V18.6413C119.484 17.2786 119.945 16.2158 120.842 15.4255C121.738 14.6624 122.987 14.2809 124.563 14.2809H133.717ZM129.126 7.16797C130.511 7.16797 131.68 7.35875 132.63 7.71306C133.581 8.06728 134.315 8.69408 134.803 9.5662C135.292 10.4382 135.536 11.6374 135.536 13.1908V24.9911H132.141L131.543 21.2303L131.218 20.7397V13.1635C131.218 12.2369 131.001 11.5829 130.593 11.1741C130.159 10.7653 129.371 10.5473 128.148 10.5473C127.252 10.5473 126.138 10.5746 124.78 10.6563C123.422 10.7381 122.064 10.8198 120.706 10.9288L120.326 7.98556C121.14 7.82204 122.091 7.68579 123.124 7.54954C124.155 7.44047 125.215 7.33149 126.274 7.27696C127.333 7.2225 128.284 7.16797 129.126 7.16797Z" fill="white"/>
</g>
</svg>
