<svg width="64" height="64" viewBox="0 0 64 64" fill="none" xmlns="http://www.w3.org/2000/svg">
<g id="notname">
<g id="Clip path group">
<mask id="mask0_1_737" style="mask-type:luminance" maskUnits="userSpaceOnUse" x="0" y="0" width="64" height="64">
<g id="a7bd238567">
<path id="Vector" d="M0.613525 0.5H63.6135V63.5H0.613525V0.5Z" fill="white"/>
</g>
</mask>
<g mask="url(#mask0_1_737)">
<g id="Group">
<g id="Clip path group_2">
<mask id="mask1_1_737" style="mask-type:luminance" maskUnits="userSpaceOnUse" x="0" y="0" width="64" height="64">
<g id="ecbe0c9bbc">
<path id="Vector_2" d="M63.6135 32C63.6135 33.0312 63.5608 34.0596 63.4612 35.0879C63.3586 36.1133 63.2092 37.1328 63.0071 38.1436C62.8049 39.1572 62.5559 40.1562 62.2571 41.1436C61.9553 42.1309 61.6096 43.1006 61.2141 44.0527C60.8186 45.0078 60.3792 45.9395 59.8928 46.8477C59.4065 47.7588 58.8762 48.6406 58.3049 49.499C57.7307 50.3574 57.1155 51.1836 56.4622 51.9834C55.8088 52.7803 55.1145 53.5449 54.385 54.2744C53.6555 55.0039 52.8938 55.6953 52.0969 56.3486C51.2971 57.0049 50.4709 57.6172 49.6125 58.1914C48.7542 58.7627 47.8723 59.293 46.9612 59.7793C46.053 60.2656 45.1213 60.7051 44.1663 61.1006C43.2141 61.4961 42.2444 61.8447 41.2571 62.1436C40.2698 62.4424 39.2708 62.6914 38.2571 62.8936C37.2463 63.0957 36.2268 63.2451 35.2014 63.3477C34.1731 63.4473 33.1448 63.5 32.1135 63.5C31.0823 63.5 30.051 63.4473 29.0256 63.3477C27.9973 63.2451 26.9778 63.0957 25.967 62.8936C24.9563 62.6914 23.9543 62.4424 22.97 62.1436C21.9827 61.8447 21.01 61.4961 20.0579 61.1006C19.1057 60.7051 18.1741 60.2656 17.2629 59.7793C16.3547 59.293 15.47 58.7627 14.6116 58.1914C13.7532 57.6172 12.927 57.0049 12.1301 56.3486C11.3303 55.6953 10.5686 55.0039 9.83911 54.2744C9.10962 53.5449 8.41821 52.7803 7.76196 51.9834C7.10864 51.1836 6.49341 50.3574 5.92212 49.499C5.3479 48.6406 4.81763 47.7588 4.3313 46.8477C3.84497 45.9395 3.40552 45.0078 3.01001 44.0527C2.6145 43.1006 2.2688 42.1309 1.96997 41.1436C1.66821 40.1562 1.41919 39.1572 1.21704 38.1436C1.01782 37.1328 0.865479 36.1133 0.762939 35.0879C0.66333 34.0596 0.613525 33.0312 0.613525 32C0.613525 30.9688 0.66333 29.9375 0.762939 28.9121C0.865479 27.8838 1.01782 26.8643 1.21704 25.8535C1.41919 24.8428 1.66821 23.8438 1.96997 22.8564C2.2688 21.8691 2.6145 20.8965 3.01001 19.9443C3.40552 18.9922 3.84497 18.0605 4.3313 17.1494C4.81763 16.2412 5.3479 15.3564 5.92212 14.498C6.49341 13.6396 7.10864 12.8135 7.76196 12.0166C8.41821 11.2168 9.10962 10.4551 9.83911 9.72559C10.5686 8.99609 11.3303 8.30469 12.1301 7.64844C12.927 6.99512 13.7532 6.37988 14.6116 5.80859C15.47 5.23438 16.3547 4.7041 17.2629 4.21777C18.1741 3.73145 19.1057 3.29199 20.0579 2.89648C21.01 2.50098 21.9827 2.15527 22.97 1.85645C23.9543 1.55469 24.9563 1.30566 25.967 1.10352C26.9778 0.904296 27.9973 0.751953 29.0256 0.649414C30.051 0.549804 31.0823 0.5 32.1135 0.5C33.1448 0.5 34.1731 0.549804 35.2014 0.649414C36.2268 0.751953 37.2463 0.904296 38.2571 1.10352C39.2708 1.30566 40.2698 1.55469 41.2571 1.85645C42.2444 2.15527 43.2141 2.50098 44.1663 2.89648C45.1213 3.29199 46.053 3.73145 46.9612 4.21777C47.8723 4.7041 48.7542 5.23438 49.6125 5.80859C50.4709 6.37988 51.2971 6.99512 52.0969 7.64844C52.8938 8.30469 53.6555 8.99609 54.385 9.72559C55.1145 10.4551 55.8088 11.2168 56.4622 12.0166C57.1155 12.8135 57.7307 13.6396 58.3049 14.498C58.8762 15.3564 59.4065 16.2412 59.8928 17.1494C60.3792 18.0605 60.8186 18.9922 61.2141 19.9443C61.6096 20.8965 61.9553 21.8691 62.2571 22.8564C62.5559 23.8438 62.8049 24.8428 63.0071 25.8535C63.2092 26.8643 63.3586 27.8838 63.4612 28.9121C63.5608 29.9375 63.6135 30.9688 63.6135 32Z" fill="white"/>
</g>
</mask>
<g mask="url(#mask1_1_737)">
<g id="Group_2">
<path id="Vector_3" d="M0.613525 0.5V63.5H63.6135V0.5H0.613525Z" fill="white"/>
</g>
</g>
</g>
</g>
</g>
</g>
<path id="Vector_4" d="M35.8665 27.2471C38.9866 26.4355 42.0598 25.4512 45.0598 24.2998C47.6292 23.3096 50.1428 22.2021 52.6008 20.9746L46.0793 29.2012C42.6458 28.7588 39.2327 28.1113 35.8665 27.2471Z" fill="#140F5A"/>
<path id="Vector_5" d="M50.3245 30.2861C42.9475 29.7119 35.5969 28.2002 28.6038 25.7041C22.5627 23.5508 16.7795 20.6592 11.4036 17.1934L25.22 36.957C33.593 34.7334 41.9602 32.5098 50.3245 30.2861Z" fill="#140F5A"/>
<path id="Vector_6" d="M42.5139 33.6934L32.1047 46.8037L26.0081 38.0791L42.5139 33.6934Z" fill="#140F5A"/>
</g>
</svg>
