<svg xmlns="http://www.w3.org/2000/svg" width="257" height="47" viewBox="0 0 257 47" fill="none">
  <g filter="url(#filter0_b_1_805)">
    <path d="M-1.30515e-06 7.4646C-8.48306e-07 4.85174 -6.19883e-07 3.54532 0.508495 2.54734C0.95578 1.66949 1.66949 0.955781 2.54734 0.508496C3.54532 6.19883e-07 4.85175 8.48307e-07 7.4646 1.30515e-06L221.193 3.86747e-05L249.035 4.35427e-05C251.648 4.39996e-05 252.955 4.4228e-05 253.953 0.50854C254.831 0.955825 255.544 1.66954 255.992 2.54738C256.5 3.54536 256.5 4.85179 256.5 7.46465L256.5 8.55184C256.5 9.7 256.5 10.2741 256.37 10.8139C256.254 11.2926 256.063 11.7499 255.805 12.1689C255.513 12.6415 255.105 13.0456 254.29 13.8538L223.375 44.4912C222.57 45.2895 222.167 45.6886 221.698 45.974C221.282 46.227 220.829 46.4134 220.356 46.5264C219.822 46.6538 219.255 46.6538 218.121 46.6538L38.352 46.6538C37.2173 46.6538 36.65 46.6538 36.1157 46.5262C35.642 46.4131 35.189 46.2265 34.773 45.9732C34.3038 45.6876 33.901 45.2881 33.0954 44.489L2.20798 13.8534C1.39324 13.0453 0.985876 12.6413 0.694488 12.1688C0.436152 11.75 0.245716 11.2928 0.130244 10.8145C-1.79652e-06 10.2749 -1.6962e-06 9.70111 -1.49556e-06 8.55359L-1.30515e-06 7.4646Z" fill="black" fill-opacity="0.56"/>
    <path d="M0.466536 7.4646C0.466536 6.15047 0.466899 5.19294 0.528549 4.43838C0.589754 3.68927 0.709031 3.1814 0.924183 2.75914C1.32674 1.96908 1.96908 1.32674 2.75914 0.924184C3.1814 0.709032 3.68927 0.589755 4.43838 0.528551C5.19294 0.466901 6.15047 0.466539 7.4646 0.466539L221.193 0.466576L249.035 0.466581C250.35 0.466581 251.307 0.466944 252.062 0.528594C252.811 0.589799 253.319 0.709076 253.741 0.924227C254.531 1.32679 255.173 1.96913 255.576 2.75919L255.992 2.54738L255.576 2.75919C255.791 3.18145 255.91 3.68932 255.971 4.43843C256.033 5.19298 256.033 6.15052 256.033 7.46465L256.033 8.55184C256.033 9.72236 256.03 10.2311 255.916 10.7044C255.812 11.1352 255.641 11.5468 255.408 11.9239C255.152 12.3382 254.793 12.6985 253.961 13.5224L223.047 44.1598C222.226 44.9736 221.867 45.3252 221.456 45.5754C221.081 45.8031 220.674 45.9709 220.248 46.0726C219.78 46.1843 219.277 46.1873 218.121 46.1873L38.352 46.1872C37.1952 46.1872 36.6925 46.1843 36.2241 46.0724C35.7977 45.9706 35.39 45.8027 35.0156 45.5748C34.6043 45.3243 34.2452 44.9724 33.4239 44.1578L2.53651 13.5222C1.70592 12.6984 1.34705 12.3381 1.09158 11.9239L0.697776 12.1668L1.09158 11.9239C0.859074 11.5469 0.687682 11.1355 0.583757 10.705C0.469566 10.2319 0.466536 9.72345 0.466536 8.55359L0.466536 7.4646Z" stroke="white" stroke-opacity="0.04" stroke-width="0.933075"/>
    <path d="M0.466536 7.4646C0.466536 6.15047 0.466899 5.19294 0.528549 4.43838C0.589754 3.68927 0.709031 3.1814 0.924183 2.75914C1.32674 1.96908 1.96908 1.32674 2.75914 0.924184C3.1814 0.709032 3.68927 0.589755 4.43838 0.528551C5.19294 0.466901 6.15047 0.466539 7.4646 0.466539L221.193 0.466576L249.035 0.466581C250.35 0.466581 251.307 0.466944 252.062 0.528594C252.811 0.589799 253.319 0.709076 253.741 0.924227C254.531 1.32679 255.173 1.96913 255.576 2.75919L255.992 2.54738L255.576 2.75919C255.791 3.18145 255.91 3.68932 255.971 4.43843C256.033 5.19298 256.033 6.15052 256.033 7.46465L256.033 8.55184C256.033 9.72236 256.03 10.2311 255.916 10.7044C255.812 11.1352 255.641 11.5468 255.408 11.9239C255.152 12.3382 254.793 12.6985 253.961 13.5224L223.047 44.1598C222.226 44.9736 221.867 45.3252 221.456 45.5754C221.081 45.8031 220.674 45.9709 220.248 46.0726C219.78 46.1843 219.277 46.1873 218.121 46.1873L38.352 46.1872C37.1952 46.1872 36.6925 46.1843 36.2241 46.0724C35.7977 45.9706 35.39 45.8027 35.0156 45.5748C34.6043 45.3243 34.2452 44.9724 33.4239 44.1578L2.53651 13.5222C1.70592 12.6984 1.34705 12.3381 1.09158 11.9239L0.697776 12.1668L1.09158 11.9239C0.859074 11.5469 0.687682 11.1355 0.583757 10.705C0.469566 10.2319 0.466536 9.72345 0.466536 8.55359L0.466536 7.4646Z" stroke="url(#paint0_linear_1_805)" stroke-width="0.933075"/>
  </g>
  <defs>
    <filter id="filter0_b_1_805" x="-5.73841" y="-5.73841" width="267.977" height="58.1306" filterUnits="userSpaceOnUse" color-interpolation-filters="sRGB">
      <feFlood flood-opacity="0" result="BackgroundImageFix"/>
      <feGaussianBlur in="BackgroundImageFix" stdDeviation="2.86921"/>
      <feComposite in2="SourceAlpha" operator="in" result="effect1_backgroundBlur_1_805"/>
      <feBlend mode="normal" in="SourceGraphic" in2="effect1_backgroundBlur_1_805" result="shape"/>
    </filter>
    <linearGradient id="paint0_linear_1_805" x1="61.8184" y1="-10.1083" x2="150.829" y2="190.16" gradientUnits="userSpaceOnUse">
      <stop stop-color="#FF2091"/>
      <stop offset="1" stop-color="#0184FD"/>
    </linearGradient>
  </defs>
</svg>