<svg width="62" height="38" viewBox="0 0 62 38" fill="none" xmlns="http://www.w3.org/2000/svg">
<g id="AWS">
<path id="path1857" d="M17.7924 14.4225C17.7924 15.1838 17.8742 15.801 18.0172 16.2537C18.1807 16.7064 18.385 17.2002 18.6711 17.7351C18.7733 17.8997 18.8142 18.0643 18.8142 18.2084C18.8142 18.4141 18.6916 18.6199 18.4259 18.8256L17.1385 19.6898C16.9546 19.8132 16.7707 19.875 16.6072 19.875C16.4029 19.875 16.1985 19.7721 15.9942 19.5869C15.7081 19.2783 15.4629 18.9491 15.2585 18.6199C15.0542 18.2701 14.8498 17.8792 14.625 17.4059C13.0311 19.2988 11.0285 20.2453 8.6172 20.2453C6.90068 20.2453 5.53155 19.7515 4.53024 18.7639C3.52894 17.7763 3.01807 16.4595 3.01807 14.8134C3.01807 13.0645 3.63111 11.6448 4.87763 10.5749C6.12415 9.505 7.77937 8.97004 9.88416 8.97004C10.5789 8.97004 11.2942 9.03177 12.0502 9.13464C12.8063 9.23752 13.5829 9.40212 14.4002 9.5873V8.0853C14.4002 6.52158 14.0733 5.43109 13.4398 4.79325C12.7859 4.15542 11.6824 3.84679 10.1089 3.84679C9.39372 3.84679 8.65807 3.92909 7.90198 4.11426C7.14589 4.29944 6.41024 4.52577 5.69502 4.81383C5.36807 4.95785 5.12285 5.04015 4.97981 5.0813C4.83676 5.12246 4.73459 5.14303 4.65285 5.14303C4.36676 5.14303 4.22372 4.93728 4.22372 4.5052V3.49701C4.22372 3.1678 4.26459 2.9209 4.36676 2.77687C4.46894 2.63284 4.65285 2.48881 4.93894 2.34479C5.65415 1.97443 6.51242 1.6658 7.51372 1.4189C8.51503 1.15142 9.57763 1.02797 10.7015 1.02797C13.1333 1.02797 14.9111 1.5835 16.0555 2.69457C17.1794 3.80563 17.7516 5.49281 17.7516 7.7561V14.4225H17.7924ZM9.4959 17.5499C10.1702 17.5499 10.865 17.4265 11.6007 17.1796C12.3363 16.9327 12.9902 16.48 13.542 15.8628C13.8689 15.4718 14.1142 15.0398 14.2368 14.546C14.3594 14.0521 14.4411 13.4555 14.4411 12.7559V11.8917C13.8485 11.7477 13.215 11.6243 12.5611 11.542C11.9072 11.4597 11.2737 11.4185 10.6402 11.4185C9.27111 11.4185 8.26981 11.686 7.59546 12.2415C6.92111 12.797 6.59416 13.5789 6.59416 14.6077C6.59416 15.5747 6.83937 16.2949 7.35024 16.7887C7.84068 17.303 8.55589 17.5499 9.4959 17.5499ZM25.905 19.7721C25.5372 19.7721 25.292 19.7104 25.1285 19.5663C24.965 19.4429 24.822 19.1548 24.6994 18.7639L19.8972 2.85917C19.7746 2.44766 19.7133 2.18018 19.7133 2.03616C19.7133 1.70695 19.8768 1.52177 20.2037 1.52177H22.2063C22.5946 1.52177 22.8603 1.5835 23.0033 1.72753C23.1668 1.85098 23.2894 2.13903 23.412 2.52997L26.845 16.1508L30.0329 2.52997C30.135 2.11846 30.2576 1.85098 30.4211 1.72753C30.5846 1.60408 30.8707 1.52177 31.2385 1.52177H32.8733C33.2616 1.52177 33.5272 1.5835 33.6907 1.72753C33.8542 1.85098 33.9972 2.13903 34.079 2.52997L37.3076 16.3154L40.8429 2.52997C40.9655 2.11846 41.1085 1.85098 41.2516 1.72753C41.415 1.60408 41.6807 1.52177 42.0485 1.52177H43.949C44.2759 1.52177 44.4598 1.68638 44.4598 2.03616C44.4598 2.13903 44.4394 2.24191 44.419 2.36536C44.3985 2.48881 44.3577 2.65342 44.2759 2.87975L39.3511 18.7845C39.2285 19.196 39.0855 19.4635 38.922 19.5869C38.7585 19.7104 38.4929 19.7927 38.1455 19.7927H36.3881C35.9998 19.7927 35.7342 19.7309 35.5707 19.5869C35.4072 19.4429 35.2642 19.1754 35.1824 18.7639L32.015 5.49281L28.8681 18.7433C28.7659 19.1548 28.6433 19.4223 28.4798 19.5663C28.3163 19.7104 28.0303 19.7721 27.6624 19.7721H25.905ZM52.1637 20.3276C51.1011 20.3276 50.0385 20.2042 49.0168 19.9573C47.995 19.7104 47.1981 19.4429 46.6668 19.1342C46.3398 18.9491 46.115 18.7433 46.0333 18.5581C45.9516 18.373 45.9107 18.1672 45.9107 17.982V16.9327C45.9107 16.5006 46.0742 16.2949 46.3807 16.2949C46.5033 16.2949 46.6259 16.3154 46.7485 16.3566C46.8711 16.3977 47.055 16.48 47.2594 16.5623C47.9542 16.871 48.7103 17.1179 49.5072 17.2825C50.3246 17.4471 51.1216 17.5294 51.939 17.5294C53.2263 17.5294 54.2277 17.303 54.9224 16.8504C55.6172 16.3977 55.985 15.7393 55.985 14.8957C55.985 14.3196 55.8011 13.8464 55.4333 13.4555C55.0655 13.0645 54.3707 12.7147 53.3694 12.3855L50.4063 11.4597C48.9146 10.9864 47.8111 10.2869 47.1368 9.36097C46.4624 8.45566 46.115 7.44747 46.115 6.37755C46.115 5.51339 46.299 4.7521 46.6668 4.09369C47.0346 3.43528 47.525 2.85917 48.1381 2.40651C48.7511 1.93328 49.4459 1.5835 50.2633 1.3366C51.0807 1.08969 51.939 0.986816 52.8381 0.986816C53.2877 0.986816 53.7577 1.00739 54.2072 1.06912C54.6772 1.13084 55.1064 1.21314 55.5355 1.29545C55.9442 1.39832 56.3324 1.5012 56.7003 1.62465C57.0681 1.7481 57.3542 1.87156 57.5585 1.99501C57.8446 2.15961 58.049 2.32421 58.1716 2.50939C58.2942 2.67399 58.3555 2.90032 58.3555 3.18838V4.15542C58.3555 4.5875 58.192 4.81383 57.8855 4.81383C57.722 4.81383 57.4563 4.73152 57.109 4.56692C55.9442 4.03196 54.6364 3.76448 53.1855 3.76448C52.0207 3.76448 51.1011 3.94966 50.4677 4.34059C49.8342 4.73152 49.5072 5.32821 49.5072 6.1718C49.5072 6.74791 49.7116 7.24171 50.1203 7.63264C50.529 8.02358 51.285 8.41451 52.3681 8.76429L55.2698 9.69018C56.7411 10.1634 57.8037 10.8218 58.4372 11.6654C59.0707 12.509 59.3772 13.476 59.3772 14.546C59.3772 15.4307 59.1933 16.2331 58.8459 16.9327C58.4781 17.6322 57.9877 18.2495 57.3542 18.7433C56.7207 19.2577 55.9646 19.6281 55.0859 19.8955C54.1663 20.1836 53.2059 20.3276 52.1637 20.3276Z" fill="white"/>
<g id="g1863">
<path id="path1859" fill-rule="evenodd" clip-rule="evenodd" d="M56.0259 30.3271C49.3028 35.3269 39.535 37.9812 31.1363 37.9812C19.3658 37.9812 8.76018 33.5986 0.749734 26.3149C0.116255 25.7388 0.68843 24.9569 1.44452 25.4096C10.1089 30.4711 20.7963 33.5369 31.8515 33.5369C39.3102 33.5369 47.5046 31.9731 55.045 28.7634C56.1689 28.249 57.1294 29.5041 56.0259 30.3271Z" fill="white"/>
<path id="path1861" fill-rule="evenodd" clip-rule="evenodd" d="M58.8252 27.1174C57.9669 26.0063 53.1443 26.5824 50.9578 26.8499C50.3039 26.9322 50.2017 26.3561 50.7943 25.924C54.636 23.2081 60.9504 23.9899 61.686 24.8952C62.4217 25.8211 61.4817 32.1789 57.8852 35.2241C57.3334 35.6973 56.8021 35.4504 57.0473 34.8331C57.8647 32.7962 59.6834 28.2079 58.8252 27.1174Z" fill="white"/>
</g>
</g>
</svg>
