<?xml version="1.0" standalone="no"?>
<!DOCTYPE svg PUBLIC "-//W3C//DTD SVG 20010904//EN"
 "http://www.w3.org/TR/2001/REC-SVG-20010904/DTD/svg10.dtd">
<svg version="1.0" xmlns="http://www.w3.org/2000/svg"
 width="5340" height="626" viewBox="0 0 5340 626">

<g transform="translate(0, 626) scale(0.1,-0.1)"
fill="#F4F4F4" stroke="none" id="ElevenLabs">
<path d="M7340 2490 l0 -2330 435 0 435 0 0 2330 0 2330 -435 0 -435 0 0
-2330z"/>
<path d="M29530 2490 l0 -2330 420 0 420 0 0 207 0 208 47 -55 c198 -230 451
-371 745 -414 550 -82 1076 152 1371 610 196 303 289 654 290 1089 1 367 -56
642 -187 906 -144 289 -339 492 -603 627 -211 108 -400 152 -652 152 -242 0
-410 -38 -601 -136 -132 -67 -216 -130 -319 -240 l-81 -85 0 895 0 896 -425 0
-425 0 0 -2330z m1820 279 c41 -11 113 -38 160 -60 69 -34 101 -58 170 -128
71 -71 94 -103 132 -181 85 -174 118 -337 118 -590 0 -369 -89 -631 -275 -816
-79 -78 -157 -125 -276 -166 -90 -31 -100 -33 -244 -32 -112 0 -166 4 -215 18
-284 77 -474 293 -552 625 -25 109 -36 425 -19 553 34 259 127 457 283 604 86
82 153 122 260 158 142 48 303 53 458 15z"/>
<path d="M0 2475 l0 -2295 435 0 435 0 0 2295 0 2295 -435 0 -435 0 0 -2295z"/>
<path d="M1720 2475 l0 -2295 435 0 435 0 0 2295 0 2295 -435 0 -435 0 0
-2295z"/>
<path d="M3430 2455 l0 -2295 1705 0 1705 0 0 375 0 375 -1270 0 -1270 0 0
615 0 615 820 0 820 0 0 380 0 380 -820 0 -820 0 0 550 0 550 1235 0 1235 0 0
375 0 375 -1670 0 -1670 0 0 -2295z"/>
<path d="M22610 2455 l0 -2295 1480 0 1480 0 0 375 0 375 -1037 2 -1038 3 -3
1918 -2 1917 -440 0 -440 0 0 -2295z"/>
<path d="M38370 4493 c-298 -31 -632 -163 -865 -342 -345 -263 -600 -685 -716
-1179 -105 -452 -100 -1028 15 -1484 126 -498 398 -909 773 -1166 394 -268
926 -365 1450 -261 605 120 1077 550 1253 1142 66 220 90 426 90 770 l0 217
-830 0 -830 0 0 -175 0 -175 635 0 635 0 0 -48 c0 -75 -28 -290 -49 -377 -61
-249 -187 -481 -351 -645 -189 -190 -434 -312 -715 -355 -148 -23 -448 -16
-576 13 -275 64 -500 188 -684 377 -253 260 -422 631 -481 1060 -22 159 -26
606 -6 755 62 463 215 816 470 1082 212 221 453 351 746 405 128 24 398 23
526 -2 488 -92 862 -426 1036 -925 l34 -95 205 -3 205 -2 -6 27 c-20 93 -60
227 -86 292 -237 597 -774 1010 -1418 1090 -78 10 -379 13 -460 4z"/>
<path d="M49248 3748 l-3 -393 -242 -3 -243 -2 0 -165 0 -165 245 0 245 0 0
-1145 c0 -1233 -1 -1212 52 -1352 46 -125 185 -285 312 -362 69 -41 153 -76
254 -103 114 -31 332 -31 460 1 50 12 92 28 92 34 0 10 -71 326 -75 334 0 1
-39 -5 -85 -13 -143 -26 -296 -7 -410 51 -57 29 -130 107 -165 175 -55 109
-55 92 -55 1283 l0 1097 345 0 345 0 0 165 0 165 -345 0 -345 0 -2 393 -3 392
-187 3 -188 2 -2 -392z"/>
<path d="M34180 3485 c-448 -68 -809 -313 -970 -659 -59 -126 -71 -182 -77
-356 -4 -135 -2 -167 16 -245 75 -315 313 -533 736 -673 141 -47 246 -73 572
-141 362 -77 492 -119 572 -186 130 -110 72 -334 -110 -426 -231 -116 -619
-72 -880 100 -79 53 -163 129 -221 200 l-35 44 -337 -192 c-185 -106 -336
-196 -336 -201 0 -14 91 -118 171 -197 120 -116 250 -207 414 -288 170 -85
286 -125 459 -160 655 -131 1266 45 1577 454 59 77 140 241 162 326 26 98 39
233 32 325 -28 345 -227 587 -619 754 -185 79 -309 113 -701 192 -400 80 -519
116 -594 180 -102 86 -93 267 17 366 99 89 211 122 412 122 174 0 275 -21 414
-88 134 -64 227 -139 341 -278 l30 -37 332 177 c182 97 334 180 337 183 9 8
-97 134 -189 223 -252 246 -567 404 -940 472 -127 23 -460 28 -585 9z"/>
<path d="M10148 3479 c-819 -79 -1391 -699 -1447 -1566 -29 -445 67 -845 277
-1159 231 -344 592 -557 1067 -630 132 -20 463 -23 600 -5 525 69 896 284
1144 665 79 121 128 226 111 236 -7 5 -171 63 -364 131 -193 67 -356 124 -362
126 -6 2 -21 -19 -32 -47 -34 -83 -107 -184 -183 -253 -122 -114 -289 -179
-494 -195 -386 -31 -688 116 -829 402 -35 72 -78 206 -90 284 l-6 42 1185 0
1185 0 0 228 c0 379 -42 618 -154 872 -113 257 -279 460 -499 611 -298 205
-696 298 -1109 258z m397 -683 c256 -71 413 -244 475 -524 11 -48 20 -106 20
-129 l0 -43 -756 0 -756 0 7 48 c4 26 20 88 36 137 91 282 293 465 580 525 68
14 324 5 394 -14z"/>
<path d="M16593 3479 c-431 -41 -823 -245 -1074 -557 -253 -314 -379 -695
-379 -1148 0 -186 12 -310 46 -463 190 -853 900 -1297 1904 -1190 563 60 993
346 1228 815 l41 82 -376 131 c-206 73 -376 130 -377 129 -1 -2 -22 -43 -46
-93 -58 -117 -187 -252 -295 -308 -150 -77 -343 -111 -549 -96 -301 22 -527
171 -647 425 -38 80 -79 223 -79 277 l0 27 1187 0 1186 0 -7 248 c-4 136 -14
297 -22 357 -54 391 -199 701 -444 945 -199 200 -421 319 -710 383 -190 43
-394 55 -587 36z m435 -697 c206 -67 334 -197 408 -415 28 -83 57 -248 46
-259 -5 -5 -345 -7 -758 -6 l-749 3 3 35 c4 50 31 144 63 221 94 231 281 386
534 445 42 9 106 13 210 10 134 -3 160 -7 243 -34z"/>
<path d="M20413 3476 c-304 -58 -542 -232 -684 -499 l-38 -72 -1 263 0 262
-430 0 -430 0 0 -1635 0 -1635 430 0 430 0 0 906 c0 1010 1 1028 66 1224 102
308 309 470 599 470 288 0 463 -135 537 -411 l22 -84 3 -1052 4 -1053 430 0
430 0 -3 1112 c-4 1110 -4 1113 -26 1238 -27 143 -85 326 -135 426 -136 267
-355 444 -645 521 -85 22 -121 26 -292 29 -135 2 -217 -1 -267 -10z"/>
<path d="M27286 3479 c-750 -71 -1249 -506 -1304 -1135 l-8 -84 428 0 428 0 0
43 c0 111 59 246 146 333 135 136 368 200 635 175 195 -18 326 -67 411 -152
85 -85 118 -206 80 -291 -45 -102 -153 -140 -674 -239 -937 -177 -1261 -327
-1429 -664 -66 -133 -89 -241 -89 -428 0 -205 34 -343 121 -490 50 -84 152
-194 235 -253 79 -57 248 -136 344 -163 256 -70 624 -68 877 5 232 67 444 212
577 395 l46 63 0 -217 0 -217 416 0 415 0 -4 1132 c-4 1103 -4 1136 -25 1243
-52 272 -146 461 -304 611 -183 173 -411 272 -739 319 -131 19 -453 27 -583
14z m834 -1837 c0 -242 -24 -370 -97 -522 -39 -82 -58 -107 -137 -185 -145
-144 -304 -213 -545 -237 -213 -21 -378 26 -479 137 -97 106 -117 265 -50 404
34 72 122 151 219 198 109 53 199 81 514 158 276 68 428 115 510 158 28 14 53
26 58 27 4 0 7 -62 7 -138z"/>
<path d="M11934 3408 c3 -13 284 -747 624 -1633 l619 -1610 403 0 403 0 593
1625 c327 894 594 1628 594 1633 0 4 -193 7 -429 7 l-430 0 -34 -107 c-266
-849 -683 -2153 -687 -2153 -3 0 -174 494 -379 1098 -206 603 -380 1112 -387
1130 l-13 32 -442 0 -441 0 6 -22z"/>
<path d="M42068 3384 c-205 -37 -403 -144 -541 -294 -56 -60 -147 -201 -147
-227 0 -7 -7 -13 -15 -13 -13 0 -15 34 -15 250 l0 250 -185 0 -185 0 0 -1635
0 -1635 190 0 189 0 3 1143 3 1142 33 95 c96 275 303 465 593 541 67 18 114
22 229 23 80 1 169 -3 198 -7 l52 -8 0 196 0 195 -162 -1 c-91 0 -197 -7 -240
-15z"/>
<path d="M43815 3389 c-394 -41 -724 -207 -915 -461 -53 -71 -157 -255 -148
-263 5 -5 340 -125 349 -125 4 0 22 26 39 58 68 120 169 227 293 311 250 169
710 197 987 59 97 -48 226 -180 273 -278 55 -117 70 -194 71 -355 1 -129 -1
-143 -22 -180 -29 -51 -72 -80 -159 -109 -86 -29 -128 -36 -510 -86 -515 -66
-756 -122 -958 -223 -213 -106 -358 -264 -420 -459 -50 -159 -52 -389 -4 -574
74 -289 309 -527 624 -633 263 -88 601 -85 854 8 238 87 408 236 565 494 9 15
21 27 26 27 6 0 10 -97 10 -260 l0 -260 190 0 190 0 0 1145 c0 726 -4 1181
-10 1243 -37 337 -180 582 -435 741 -234 147 -567 214 -890 180z m953 -1901
c-5 -297 -6 -318 -31 -410 -96 -363 -359 -624 -703 -697 -330 -71 -652 -2
-835 179 -114 112 -160 231 -160 415 -1 228 88 370 298 478 159 81 312 119
674 167 396 53 581 93 689 149 30 15 59 29 64 30 4 0 6 -140 4 -311z"/>
<path d="M47087 3389 c-310 -27 -565 -164 -735 -394 -24 -33 -55 -81 -68 -107
-13 -27 -31 -48 -39 -48 -13 0 -15 36 -15 255 l0 255 -185 0 -185 0 0 -1635 0
-1635 190 0 190 0 0 1091 c0 1048 1 1095 20 1188 93 457 489 735 971 682 216
-23 337 -79 480 -221 83 -82 103 -108 143 -190 25 -52 56 -131 68 -175 l23
-80 3 -1148 3 -1147 190 0 190 0 -4 1183 c-3 1180 -3 1182 -25 1280 -61 268
-181 474 -357 616 -170 137 -361 209 -608 231 -122 11 -122 11 -250 -1z"/>
<path d="M51775 3394 c-363 -37 -661 -185 -834 -415 -120 -159 -163 -291 -163
-499 0 -106 4 -152 21 -215 66 -248 216 -418 474 -540 134 -64 212 -87 580
-176 383 -92 433 -107 542 -163 202 -103 308 -302 275 -511 -26 -164 -106
-281 -263 -383 -164 -106 -430 -158 -677 -133 -145 15 -219 35 -329 88 -167
80 -284 223 -351 426 -20 61 -25 68 -44 63 -11 -3 -92 -22 -178 -43 -130 -30
-158 -40 -158 -54 0 -34 52 -184 90 -259 151 -301 422 -481 830 -551 109 -19
431 -17 550 4 400 69 697 265 843 554 15 28 39 91 53 140 24 79 27 104 27 238
0 134 -3 159 -27 240 -15 50 -41 115 -58 145 -103 184 -294 332 -543 420 -49
17 -241 69 -426 115 -185 46 -379 100 -432 119 -198 70 -311 156 -374 284 -35
70 -38 83 -41 180 -3 78 0 121 13 168 37 139 145 254 310 334 150 72 215 85
430 85 158 0 190 -3 260 -23 211 -61 362 -194 463 -410 19 -42 37 -79 38 -80
5 -7 344 91 344 100 0 21 -82 195 -124 262 -54 86 -173 217 -256 281 -176 136
-387 201 -675 209 -82 2 -168 2 -190 0z"/>
</g>
</svg>
