<svg width="144" height="50" viewBox="0 0 144 50" fill="none" xmlns="http://www.w3.org/2000/svg">
<g id="Ethereum">
<g id="Clip path group">
<mask id="mask0_254554_8624" style="mask-type:luminance" maskUnits="userSpaceOnUse" x="0" y="0" width="16" height="35">
<g id="D">
<path id="Vector" d="M0.459473 0H15.4965V34.0659H0.459473V0Z" fill="white"/>
</g>
</mask>
<g mask="url(#mask0_254554_8624)">
<path id="Vector_2" d="M0.459473 25.1209L15.4965 34.0659V0L0.459473 25.1209Z" fill="white"/>
</g>
</g>
<g id="Clip path group_2">
<mask id="mask1_254554_8624" style="mask-type:luminance" maskUnits="userSpaceOnUse" x="15" y="0" width="16" height="35">
<g id="F">
<path id="Vector_3" d="M15.4961 0H30.5331V34.0659H15.4961V0Z" fill="white"/>
</g>
</mask>
<g mask="url(#mask1_254554_8624)">
<path id="Vector_4" d="M15.4961 0V34.0659L30.5272 25.1209L15.4961 0Z" fill="#D8D8D8"/>
</g>
</g>
<path id="Vector_5" d="M15.4965 18.2351L0.459473 25.1209L15.4965 34.0659L30.5275 25.1209L15.4965 18.2351Z" fill="#BDBDBD"/>
<path id="Vector_6" d="M46.3927 28.6889C46.3927 28.9252 46.1963 29.1176 45.9617 29.1176H37.6637C37.8722 31.1823 39.4137 33.0651 41.5842 33.0651C42.256 33.0948 42.924 32.948 43.5224 32.639C44.1208 32.3301 44.629 31.8697 44.9972 31.3031C45.1189 31.1386 45.2978 31.0336 45.5255 31.1333C45.5866 31.1601 45.64 31.2018 45.681 31.2547C45.7219 31.3076 45.7491 31.3699 45.7601 31.436C45.7827 31.5725 45.7427 31.6495 45.708 31.7265C44.8738 33.1928 43.2108 33.9137 41.5807 33.9137C38.7898 33.9137 36.8018 31.3993 36.8018 28.7099C36.8018 26.0206 38.7915 23.5062 41.5807 23.5062C44.3699 23.5062 46.3892 26.0083 46.3944 28.6942M45.5255 28.2883C45.3448 26.2236 43.7755 24.3408 41.605 24.3408C39.4345 24.3408 37.8914 26.2236 37.6846 28.2883H45.5255ZM56.484 23.7092C56.7239 23.7092 56.8976 23.9191 56.8976 24.1256C56.8976 24.3671 56.7169 24.542 56.484 24.542H54.2597V33.331C54.2597 33.541 54.0789 33.7475 53.8461 33.7475C53.6132 33.7475 53.4325 33.5375 53.4325 33.331V24.542H51.295C51.0552 24.542 50.8814 24.3601 50.8814 24.1256C50.8814 23.9156 51.0621 23.7092 51.295 23.7092H53.4325V20.4861C53.4325 20.2832 53.568 20.0959 53.78 20.0627C54.0581 20.0189 54.2753 20.2114 54.2753 20.4739V23.7022L56.484 23.7092ZM70.0388 27.9576V33.282C70.0388 33.5235 69.8303 33.6985 69.6253 33.6985C69.3854 33.6985 69.2117 33.5165 69.2117 33.282V27.975C69.2117 26.1798 68.2037 24.3846 66.2122 24.3846C63.6611 24.3846 62.5594 26.6295 62.7071 28.9304C62.7071 28.9917 62.7349 29.2594 62.7349 29.2874V33.2838C62.7349 33.4867 62.5993 33.674 62.3873 33.7072C62.1093 33.751 61.8921 33.5585 61.8921 33.296V15.8073C61.8921 15.5973 62.0728 15.3909 62.3057 15.3909C62.5385 15.3909 62.7193 15.6008 62.7193 15.8073V25.7056C63.4144 24.4213 64.709 23.5534 66.1914 23.5534C68.6278 23.5534 70.0249 25.7056 70.0249 27.9803M84.904 28.7152C84.904 28.9514 84.7076 29.1439 84.473 29.1439H76.1698C76.3783 31.2086 77.9198 33.0913 80.0903 33.0913C80.7621 33.121 81.43 32.9742 82.0285 32.6653C82.6269 32.3563 83.1351 31.8959 83.5033 31.3293C83.6249 31.1648 83.8039 31.0599 84.0316 31.1596C84.0926 31.1864 84.1461 31.2281 84.1871 31.281C84.228 31.3338 84.2552 31.3961 84.2662 31.4623C84.2888 31.5988 84.2488 31.6758 84.2141 31.7527C83.3799 33.219 81.7168 33.9399 80.0868 33.9399C77.2959 33.9399 75.3078 31.4255 75.3078 28.7362C75.3078 26.0468 77.2976 23.5324 80.0868 23.5324C82.876 23.5324 84.9005 26.0346 84.9057 28.7204M84.0107 28.3145C83.83 26.2498 82.2608 24.3671 80.0903 24.3671C77.9198 24.3671 76.3766 26.2498 76.1698 28.3145H84.0107ZM95.1083 24.1256C95.1083 24.3951 94.9606 24.542 94.7208 24.5753C92.2844 24.9322 91.1878 26.9374 91.1878 29.2681V33.2645C91.1878 33.4675 91.0523 33.6547 90.8403 33.688C90.5622 33.7317 90.345 33.5392 90.345 33.2768V24.1693C90.345 23.9664 90.4805 23.7792 90.6926 23.7459C90.9706 23.7022 91.1878 23.8946 91.1878 24.1571V26.0118C91.869 24.8482 93.2384 23.7372 94.66 23.7372C94.8685 23.7319 95.1066 23.8859 95.1066 24.1221M108.736 28.7169C108.736 28.9532 108.54 29.1456 108.305 29.1456H100.007C100.216 31.2103 101.757 33.0931 103.928 33.0931C104.599 33.1228 105.267 32.976 105.866 32.667C106.464 32.3581 106.972 31.8977 107.341 31.3311C107.462 31.1666 107.641 31.0616 107.869 31.1613C107.93 31.1881 107.983 31.2298 108.024 31.2827C108.065 31.3356 108.093 31.3979 108.104 31.464C108.126 31.6005 108.086 31.6775 108.051 31.7545C107.217 33.2208 105.554 33.9417 103.924 33.9417C101.133 33.9417 99.1452 31.4273 99.1452 28.7379C99.1452 26.0486 101.135 23.5342 103.924 23.5342C106.713 23.5342 108.733 26.0363 108.738 28.7222M107.869 28.3162C107.688 26.2515 106.119 24.3688 103.948 24.3688C101.778 24.3688 100.235 26.2515 100.028 28.3162H107.869ZM122.154 24.2323V33.3608C122.154 33.6022 121.945 33.7772 121.74 33.7772C121.5 33.7772 121.326 33.5952 121.326 33.3608V31.611C120.645 32.9881 119.424 33.9732 117.88 33.9732C115.416 33.9732 114.047 31.821 114.047 29.5463V24.1921C114.047 23.9821 114.228 23.7757 114.46 23.7757C114.693 23.7757 114.874 23.9856 114.874 24.1921V29.5463C114.874 31.3416 115.882 33.1368 117.873 33.1368C120.664 33.1368 121.319 30.5069 121.319 27.6041V24.1781C121.319 23.9366 121.559 23.6882 121.853 23.7757C122.034 23.8369 122.154 24.0119 122.154 24.1991M143.146 27.9208V33.275C143.146 33.5165 142.938 33.6915 142.733 33.6915C142.493 33.6915 142.319 33.5095 142.319 33.275V27.9208C142.319 26.1256 141.311 24.3636 139.32 24.3636C136.822 24.3636 135.874 27.0529 135.874 29.1456V33.275C135.874 33.5165 135.665 33.6915 135.46 33.6915C135.22 33.6915 135.046 33.5095 135.046 33.275V27.9208C135.046 26.1256 134.038 24.3636 132.047 24.3636C129.522 24.3636 128.481 26.367 128.575 29.0301C128.575 29.0914 128.603 29.2121 128.575 29.2401V33.2645C128.575 33.4675 128.439 33.6547 128.236 33.688C127.958 33.7317 127.741 33.5392 127.741 33.2768V24.1256C127.741 23.9226 127.876 23.7354 128.088 23.7022C128.366 23.6584 128.583 23.8509 128.583 24.1134V25.6391C129.279 24.3548 130.573 23.5149 132.056 23.5149C133.746 23.5149 135.055 24.591 135.589 26.1781C136.27 24.6243 137.604 23.5149 139.328 23.5149C141.765 23.5149 143.162 25.6146 143.162 27.8893" fill="white"/>
<g id="Clip path group_3">
<mask id="mask2_254554_8624" style="mask-type:luminance" maskUnits="userSpaceOnUse" x="0" y="27" width="16" height="23">
<g id="H">
<path id="Vector_7" d="M0.459473 27.9895H15.4965V49.3194H0.459473V27.9895Z" fill="white"/>
</g>
</mask>
<g mask="url(#mask2_254554_8624)">
<path id="Vector_8" d="M0.459473 27.9895L15.4965 49.3194V36.9345L0.459473 27.9895Z" fill="white"/>
</g>
</g>
<g id="Clip path group_4">
<mask id="mask3_254554_8624" style="mask-type:luminance" maskUnits="userSpaceOnUse" x="15" y="27" width="16" height="23">
<g id="J">
<path id="Vector_9" d="M15.4961 27.9895H30.539V49.3194H15.4961V27.9895Z" fill="white"/>
</g>
</mask>
<g mask="url(#mask3_254554_8624)">
<path id="Vector_10" d="M15.4961 36.9345V49.3194L30.539 27.9895L15.4961 36.9345Z" fill="#D6D6D6"/>
</g>
</g>
<path id="Vector 660" d="M15.4383 33.9956V18.196L0.459961 25.1772L15.4383 33.9956Z" fill="#D9D9D9"/>
</g>
</svg>
