<svg width="160" height="37" viewBox="0 0 160 37" fill="none" xmlns="http://www.w3.org/2000/svg">
<g id="HuggingFace">
<path id="Vector" d="M45.7158 24.9357V12.229H49.0552V16.9598H52.8219V12.229H56.1613V24.9357H52.8219V19.8921H49.0552V24.9357H45.7158ZM61.6293 25.1703C60.568 25.1703 59.7978 24.8119 59.3189 24.0951C58.84 23.3652 58.6006 22.3944 58.6006 21.1823V15.1614H61.94V20.7523C61.94 21.3779 62.0177 21.7948 62.173 22.0033C62.3412 22.2119 62.5872 22.3161 62.9109 22.3161C63.2213 22.3161 63.4803 22.251 63.6874 22.1207C63.8945 21.9904 64.1016 21.7688 64.3087 21.456V15.1614H67.6482V24.9357H64.9299L64.6969 23.6456H64.6192C64.231 24.1147 63.7974 24.4862 63.3185 24.7598C62.8526 25.0335 62.2895 25.1703 61.6293 25.1703ZM73.4362 28.9628C72.6985 28.9628 72.0189 28.8781 71.3976 28.7087C70.7764 28.5522 70.2781 28.2981 69.9027 27.9462C69.5402 27.5944 69.3591 27.1251 69.3591 26.5387C69.3591 25.7698 69.812 25.1442 70.7181 24.662V24.5838C70.47 24.3991 70.2535 24.1745 70.0774 23.9192C69.9091 23.6456 69.825 23.3066 69.825 22.9026C69.825 22.5638 69.9221 22.2314 70.1162 21.9057C70.3234 21.5798 70.5887 21.2997 70.9122 21.0651V20.9869C70.5627 20.7523 70.2522 20.4199 69.9804 19.9898C69.7215 19.5467 69.5921 19.0449 69.5921 18.4846C69.5921 17.6765 69.7862 17.012 70.1745 16.4906C70.5757 15.9562 71.0935 15.5654 71.7277 15.3177C72.362 15.0571 73.035 14.9266 73.7469 14.9266C74.3164 14.9266 74.8341 15.0049 75.3 15.1614H78.9114V17.5854H77.5135C77.5522 17.7027 77.5846 17.8526 77.6105 18.0349C77.6493 18.2174 77.6688 18.4064 77.6688 18.6018C77.6688 19.3708 77.4941 19.9964 77.1446 20.4786C76.7951 20.9477 76.3227 21.2932 75.7273 21.5147C75.1318 21.7363 74.4718 21.847 73.7469 21.847C73.4234 21.847 73.0609 21.8014 72.6597 21.7101C72.5042 21.8535 72.4267 22.0424 72.4267 22.277C72.4267 22.4855 72.5303 22.6354 72.7374 22.7267C72.9573 22.8179 73.3068 22.8635 73.7857 22.8635H75.2419C76.4586 22.8635 77.397 23.0655 78.0572 23.4695C78.7302 23.8606 79.0667 24.5055 79.0667 25.4048C79.0667 26.1087 78.8337 26.7276 78.3678 27.2621C77.9147 27.7963 77.2676 28.2134 76.4261 28.5131C75.5848 28.813 74.5882 28.9628 73.4362 28.9628ZM73.7469 19.853C74.0576 19.853 74.3099 19.7423 74.504 19.5207C74.6983 19.2992 74.7953 18.9537 74.7953 18.4846C74.7953 18.0284 74.6983 17.6961 74.504 17.4876C74.3099 17.2661 74.0576 17.1554 73.7469 17.1554C73.4362 17.1554 73.1838 17.2661 72.9898 17.4876C72.7955 17.6961 72.6985 18.0284 72.6985 18.4846C72.6985 18.9537 72.7955 19.2992 72.9898 19.5207C73.1838 19.7423 73.4362 19.853 73.7469 19.853ZM73.9798 26.8906C74.5235 26.8906 74.9765 26.8059 75.3389 26.6365C75.7014 26.48 75.8825 26.265 75.8825 25.9913C75.8825 25.7307 75.7661 25.5678 75.5332 25.5026C75.313 25.4375 74.996 25.4048 74.5817 25.4048H73.8246C73.4362 25.4048 73.1386 25.3919 72.9315 25.3657C72.7374 25.3528 72.5691 25.3268 72.4267 25.2876C72.1938 25.5222 72.0772 25.7567 72.0772 25.9913C72.0772 26.3041 72.2519 26.5322 72.6014 26.6756C72.9639 26.819 73.4234 26.8906 73.9798 26.8906ZM84.0351 28.9628C83.2972 28.9628 82.6178 28.8781 81.9964 28.7087C81.3751 28.5522 80.8768 28.2981 80.5014 27.9462C80.1391 27.5944 79.9578 27.1251 79.9578 26.5387C79.9578 25.7698 80.4109 25.1442 81.3168 24.662V24.5838C81.0687 24.3991 80.8522 24.1745 80.6763 23.9192C80.5078 23.6456 80.4237 23.3066 80.4237 22.9026C80.4237 22.5638 80.5208 22.2314 80.7149 21.9057C80.922 21.5798 81.1874 21.2997 81.5111 21.0651V20.9869C81.1616 20.7523 80.8509 20.4199 80.5791 19.9898C80.3201 19.5467 80.1907 19.0449 80.1907 18.4846C80.1907 17.6765 80.385 17.012 80.7732 16.4906C81.1744 15.9562 81.6922 15.5654 82.3265 15.3177C82.9607 15.0571 83.6337 14.9266 84.3456 14.9266C84.9152 14.9266 85.433 15.0049 85.8989 15.1614H89.5101V17.5854H88.1122C88.1511 17.7027 88.1833 17.8526 88.2094 18.0349C88.248 18.2174 88.2675 18.4064 88.2675 18.6018C88.2675 19.3708 88.0928 19.9964 87.7433 20.4786C87.3939 20.9477 86.9214 21.2932 86.3259 21.5147C85.7306 21.7363 85.0705 21.847 84.3456 21.847C84.0221 21.847 83.6597 21.8014 83.2583 21.7101C83.1031 21.8535 83.0254 22.0424 83.0254 22.277C83.0254 22.4855 83.129 22.6354 83.3361 22.7267C83.5562 22.8179 83.9055 22.8635 84.3844 22.8635H85.8406C87.0572 22.8635 87.9956 23.0655 88.6558 23.4695C89.3288 23.8606 89.6654 24.5055 89.6654 25.4048C89.6654 26.1087 89.4324 26.7276 88.9665 27.2621C88.5134 27.7963 87.8663 28.2134 87.025 28.5131C86.1837 28.813 85.187 28.9628 84.0351 28.9628ZM84.3456 19.853C84.6562 19.853 84.9086 19.7423 85.1029 19.5207C85.297 19.2992 85.3941 18.9537 85.3941 18.4846C85.3941 18.0284 85.297 17.6961 85.1029 17.4876C84.9086 17.2661 84.6562 17.1554 84.3456 17.1554C84.0351 17.1554 83.7825 17.2661 83.5884 17.4876C83.3943 17.6961 83.2972 18.0284 83.2972 18.4846C83.2972 18.9537 83.3943 19.2992 83.5884 19.5207C83.7825 19.7423 84.0351 19.853 84.3456 19.853ZM84.5787 26.8906C85.1223 26.8906 85.5752 26.8059 85.9378 26.6365C86.3001 26.48 86.4814 26.265 86.4814 25.9913C86.4814 25.7307 86.3648 25.5678 86.1319 25.5026C85.9119 25.4375 85.5947 25.4048 85.1804 25.4048H84.4233C84.0351 25.4048 83.7373 25.3919 83.5302 25.3657C83.3361 25.3528 83.1678 25.3268 83.0254 25.2876C82.7924 25.5222 82.6759 25.7567 82.6759 25.9913C82.6759 26.3041 82.8507 26.5322 83.2002 26.6756C83.5626 26.819 84.0221 26.8906 84.5787 26.8906ZM91.1003 24.9357V15.1614H94.4397V24.9357H91.1003ZM92.77 13.9493C92.2264 13.9493 91.7861 13.7995 91.4496 13.4997C91.1131 13.1869 90.9449 12.7763 90.9449 12.2681C90.9449 11.7599 91.1131 11.3557 91.4496 11.056C91.7861 10.7432 92.2264 10.5869 92.77 10.5869C93.3136 10.5869 93.7537 10.7432 94.0902 11.056C94.4267 11.3557 94.5949 11.7599 94.5949 12.2681C94.5949 12.7763 94.4267 13.1869 94.0902 13.4997C93.7537 13.7995 93.3136 13.9493 92.77 13.9493ZM96.6935 24.9357V15.1614H99.4116L99.6446 16.3342H99.7223C100.11 15.9562 100.551 15.6305 101.042 15.3568C101.547 15.07 102.13 14.9266 102.79 14.9266C103.864 14.9266 104.634 15.2917 105.1 16.0215C105.579 16.7383 105.819 17.7027 105.819 18.9146V24.9357H102.479V19.3448C102.479 18.7192 102.401 18.3021 102.246 18.0936C102.091 17.8851 101.845 17.7808 101.508 17.7808C101.198 17.7808 100.939 17.8459 100.732 17.9764C100.525 18.1067 100.292 18.2892 100.033 18.5238V24.9357H96.6935ZM111.527 28.9628C110.79 28.9628 110.11 28.8781 109.489 28.7087C108.868 28.5522 108.369 28.2981 107.994 27.9462C107.631 27.5944 107.45 27.1251 107.45 26.5387C107.45 25.7698 107.903 25.1442 108.809 24.662V24.5838C108.561 24.3991 108.345 24.1745 108.168 23.9192C108 23.6456 107.916 23.3066 107.916 22.9026C107.916 22.5638 108.013 22.2314 108.207 21.9057C108.414 21.5798 108.68 21.2997 109.003 21.0651V20.9869C108.654 20.7523 108.343 20.4199 108.071 19.9898C107.813 19.5467 107.683 19.0449 107.683 18.4846C107.683 17.6765 107.877 17.012 108.266 16.4906C108.667 15.9562 109.185 15.5654 109.819 15.3177C110.453 15.0571 111.126 14.9266 111.838 14.9266C112.407 14.9266 112.925 15.0049 113.391 15.1614H117.002V17.5854H115.604C115.643 17.7027 115.676 17.8526 115.702 18.0349C115.74 18.2174 115.76 18.4064 115.76 18.6018C115.76 19.3708 115.585 19.9964 115.236 20.4786C114.886 20.9477 114.414 21.2932 113.818 21.5147C113.223 21.7363 112.563 21.847 111.838 21.847C111.514 21.847 111.152 21.8014 110.751 21.7101C110.595 21.8535 110.518 22.0424 110.518 22.277C110.518 22.4855 110.621 22.6354 110.828 22.7267C111.048 22.8179 111.398 22.8635 111.877 22.8635H113.333C114.55 22.8635 115.488 23.0655 116.148 23.4695C116.821 23.8606 117.158 24.5055 117.158 25.4048C117.158 26.1087 116.925 26.7276 116.459 27.2621C116.006 27.7963 115.359 28.2134 114.517 28.5131C113.676 28.813 112.679 28.9628 111.527 28.9628ZM111.838 19.853C112.149 19.853 112.401 19.7423 112.595 19.5207C112.789 19.2992 112.886 18.9537 112.886 18.4846C112.886 18.0284 112.789 17.6961 112.595 17.4876C112.401 17.2661 112.149 17.1554 111.838 17.1554C111.527 17.1554 111.275 17.2661 111.081 17.4876C110.887 17.6961 110.79 18.0284 110.79 18.4846C110.79 18.9537 110.887 19.2992 111.081 19.5207C111.275 19.7423 111.527 19.853 111.838 19.853ZM112.071 26.8906C112.615 26.8906 113.068 26.8059 113.43 26.6365C113.793 26.48 113.974 26.265 113.974 25.9913C113.974 25.7307 113.857 25.5678 113.624 25.5026C113.404 25.4375 113.087 25.4048 112.673 25.4048H111.916C111.527 25.4048 111.23 25.3919 111.023 25.3657C110.828 25.3528 110.66 25.3268 110.518 25.2876C110.285 25.5222 110.168 25.7567 110.168 25.9913C110.168 26.3041 110.343 26.5322 110.692 26.6756C111.055 26.819 111.514 26.8906 112.071 26.8906ZM122.751 24.9357V12.229H130.983V15.044H126.091V17.468H130.284V20.283H126.091V24.9357H122.751ZM134.635 25.1703C134.027 25.1703 133.503 25.0335 133.062 24.7598C132.642 24.4808 132.301 24.097 132.072 23.6456C131.839 23.1894 131.723 22.6941 131.723 22.1598C131.723 21.1432 132.137 20.3483 132.965 19.7748C133.794 19.1883 135.14 18.7974 137.004 18.6018C136.926 17.9242 136.473 17.5854 135.645 17.5854C135.295 17.5854 134.926 17.657 134.538 17.8004C134.15 17.9306 133.703 18.1327 133.198 18.4064L132.034 16.217C132.72 15.7999 133.412 15.4806 134.111 15.259C134.821 15.0377 135.561 14.9257 136.305 14.9266C137.573 14.9266 138.564 15.2917 139.275 16.0215C139.987 16.7383 140.343 17.8982 140.343 19.5011V24.9357H137.625L137.392 23.9973H137.314C136.926 24.3492 136.512 24.636 136.072 24.8575C135.645 25.066 135.166 25.1703 134.635 25.1703ZM135.8 22.5898C136.072 22.5898 136.298 22.5311 136.48 22.4139C136.661 22.2836 136.836 22.1207 137.004 21.9253V20.5958C136.214 20.7132 135.664 20.889 135.354 21.1236C135.056 21.3583 134.907 21.6125 134.907 21.8861C134.907 22.3552 135.205 22.5898 135.8 22.5898ZM146.908 25.1703C145.989 25.1703 145.161 24.9682 144.423 24.5642C143.685 24.1603 143.096 23.5802 142.656 22.8244C142.229 22.0555 142.015 21.1302 142.015 20.0485C142.015 18.9668 142.255 18.048 142.734 17.2921C143.226 16.5231 143.866 15.9368 144.656 15.5327C145.445 15.1287 146.3 14.9266 147.219 14.9266C147.801 14.9266 148.326 15.018 148.791 15.2003C149.27 15.3828 149.691 15.6305 150.053 15.9433L148.5 18.0936C148.293 17.9113 148.105 17.7874 147.937 17.7223C147.77 17.6571 147.592 17.6241 147.413 17.6245C146.792 17.6245 146.306 17.8459 145.957 18.2892C145.607 18.7192 145.433 19.3057 145.433 20.0485C145.433 20.7914 145.614 21.3844 145.976 21.8274C146.339 22.2574 146.779 22.4726 147.296 22.4726C147.568 22.4726 147.834 22.4139 148.092 22.2966C148.358 22.1701 148.611 22.0196 148.85 21.847L150.131 24.0364C149.652 24.4666 149.122 24.7663 148.539 24.9357C147.957 25.092 147.413 25.1703 146.908 25.1703ZM155.595 25.1703C154.65 25.1703 153.795 24.9682 153.032 24.5642C152.281 24.1603 151.686 23.5802 151.246 22.8244C150.806 22.0555 150.586 21.1302 150.586 20.0485C150.586 18.9929 150.806 18.0871 151.246 17.3312C151.699 16.5623 152.281 15.9693 152.993 15.5522C153.705 15.1352 154.456 14.9266 155.245 14.9266C156.203 14.9266 156.993 15.1418 157.614 15.5718C158.248 15.9889 158.714 16.5558 159.012 17.2726C159.322 17.9893 159.478 18.7843 159.478 19.6576C159.478 19.9442 159.458 20.2245 159.419 20.4982C159.394 20.7588 159.368 20.9477 159.342 21.0651H153.808C153.964 21.6516 154.242 22.062 154.643 22.2966C155.044 22.5182 155.517 22.6289 156.061 22.6289C156.682 22.6289 157.342 22.4335 158.041 22.0424L159.128 24.0364C158.61 24.4013 158.028 24.6816 157.381 24.877C156.734 25.0725 156.138 25.1703 155.595 25.1703ZM153.77 18.8755H156.643C156.643 18.4976 156.546 18.1718 156.352 17.8982C156.171 17.6114 155.828 17.468 155.323 17.468C154.96 17.468 154.637 17.5789 154.352 17.8004C154.067 18.022 153.873 18.3804 153.77 18.8755Z" fill="white"/>
<path id="Vector_2" d="M38.5379 26.7981C38.4395 26.424 38.28 26.0691 38.0661 25.7477C38.112 25.5782 38.1468 25.4062 38.1702 25.2326C38.322 24.1298 37.9424 23.1201 37.2267 22.3388C36.8391 21.9121 36.4236 21.6305 35.9835 21.4576C36.2724 20.2132 36.4186 18.9397 36.4193 17.6617C36.4193 17.0782 36.3865 16.5065 36.3316 15.9432C36.3028 15.662 36.2681 15.3813 36.2276 15.1015C36.1015 14.2761 35.9146 13.4612 35.6683 12.6637C35.5068 12.1398 35.32 11.624 35.1087 11.1184C34.7918 10.3696 34.4217 9.64464 34.0015 8.94925C33.7256 8.48671 33.4254 8.0394 33.1019 7.60928C32.9434 7.39207 32.7782 7.18 32.6063 6.97335C32.0972 6.35022 31.544 5.76509 30.9507 5.22259C30.7539 5.04022 30.5514 4.86415 30.3433 4.69461C30.1386 4.52265 29.9293 4.35619 29.7158 4.19542C29.286 3.87335 28.8417 3.57118 28.3846 3.28987C25.8588 1.74524 22.8967 0.859619 19.7309 0.859619C10.5135 0.859619 3.04267 8.38196 3.04267 17.6624C3.04243 18.9565 3.19133 20.2461 3.4864 21.5054C3.09051 21.6785 2.71093 21.9481 2.35921 22.3384C1.64367 23.1192 1.26391 24.1253 1.41585 25.228C1.43876 25.4033 1.47359 25.5768 1.51978 25.7473C1.30601 26.0689 1.14661 26.424 1.04801 26.7981C0.828067 27.6398 0.900463 28.3988 1.17997 29.0637C0.87627 29.9331 0.952149 30.8588 1.34786 31.6635C1.63561 32.2513 2.04745 32.7058 2.55496 33.1124C3.15851 33.5953 3.914 34.006 4.82546 34.3996C5.91269 34.8665 7.23966 35.3051 7.84321 35.4661C9.40221 35.8726 10.8971 36.1302 12.4122 36.1426C14.5706 36.1629 16.4294 35.6517 17.7604 34.3438C18.4142 34.4245 19.0722 34.4649 19.7309 34.4647C20.4268 34.4632 21.122 34.419 21.8126 34.3326C23.1403 35.6488 25.0063 36.1646 27.1727 36.1437C28.6876 36.1317 30.1824 35.8741 31.7374 35.467C32.345 35.3061 33.6716 34.8674 34.7594 34.4007C35.6708 34.0061 36.4261 33.5957 37.0339 33.1133C37.5376 32.707 37.949 32.2522 38.237 31.6645C38.6367 30.8597 38.7087 29.934 38.4089 29.0646C38.6858 28.3997 38.7577 27.639 38.5379 26.7981ZM36.9912 29.0074C37.2975 29.5926 37.3171 30.2538 37.0467 30.8696C36.6369 31.8031 35.6189 32.5381 33.6419 33.3274C32.4126 33.8185 31.2867 34.1322 31.2768 34.1351C29.6507 34.5598 28.1801 34.7753 26.907 34.7753C24.7989 34.7753 23.2303 34.1898 22.2355 33.033C20.5531 33.3215 18.8352 33.3313 17.1497 33.062C16.1538 34.1995 14.5939 34.7753 12.5035 34.7753C11.2303 34.7753 9.7598 34.5598 8.13371 34.1351C8.12363 34.1322 6.99846 33.8185 5.76863 33.3274C3.79156 32.5381 2.77343 31.8034 2.36379 30.8696C2.09345 30.2538 2.11306 29.5926 2.41933 29.0074C2.44774 28.9532 2.47798 28.9 2.51042 28.8489C2.32684 28.5713 2.20373 28.2576 2.14913 27.9288C2.09455 27.5999 2.10974 27.2629 2.19371 26.9404C2.31541 26.4749 2.56687 26.0878 2.90814 25.8097C2.74381 25.5376 2.63595 25.235 2.59106 24.9198C2.49282 24.2344 2.71863 23.5499 3.22705 22.9921C3.62276 22.5578 4.18232 22.3188 4.802 22.3188H4.8185C4.35136 20.8113 4.11449 19.241 4.11597 17.6619C4.11597 9.0489 11.0508 2.06616 19.6059 2.06616C28.1612 2.06616 35.0959 9.04835 35.0959 17.6619C35.097 19.2453 34.8585 20.8196 34.3886 22.3307C34.4634 22.3233 34.5367 22.3194 34.6085 22.3194C35.228 22.3194 35.7878 22.5582 36.1835 22.9924C36.6915 23.5499 36.9179 24.2349 36.8195 24.9202C36.7745 25.2354 36.6668 25.5382 36.5024 25.8102C36.8436 26.0881 37.0951 26.4753 37.2168 26.9409C37.3006 27.2635 37.3158 27.6003 37.2612 27.9293C37.2065 28.2582 37.0836 28.5717 36.9001 28.8495C36.9325 28.9 36.9631 28.9532 36.9912 29.0074Z" fill="white"/>
<path id="Vector_3" d="M36.8998 28.8495C37.0833 28.5718 37.2063 28.2582 37.2609 27.9294C37.3155 27.6003 37.3003 27.2636 37.2166 26.941C37.0949 26.4756 36.8434 26.0884 36.5021 25.8103C36.6663 25.5383 36.7743 25.2356 36.8192 24.9204C36.9174 24.235 36.6916 23.5505 36.1832 22.9927C35.7875 22.5584 35.2278 22.3195 34.6083 22.3195C34.5362 22.3195 34.4631 22.3231 34.3883 22.3307C34.8577 20.8197 35.0958 19.2453 35.0943 17.6621C35.0943 9.04931 28.1595 2.06641 19.6051 2.06641C11.0508 2.06641 4.11515 9.04857 4.11515 17.6621C4.11367 19.2413 4.35054 20.8116 4.81768 22.3191H4.80118C4.18169 22.3191 3.62212 22.5581 3.22642 22.9923C2.71836 23.5498 2.49219 24.2346 2.59043 24.92C2.63528 25.2352 2.74314 25.5379 2.9075 25.8099C2.56623 26.088 2.31477 26.4752 2.19325 26.9408C2.10935 27.2634 2.09421 27.6003 2.14886 27.9294C2.20352 28.2582 2.3267 28.572 2.51033 28.8495C2.47752 28.9006 2.44746 28.9538 2.41924 29.008C2.11316 29.5932 2.09336 30.2544 2.36371 30.8703C2.77334 31.8035 3.79148 32.5389 5.76855 33.328C6.99782 33.8191 8.12373 34.1328 8.13363 34.1358C9.75971 34.5604 11.2302 34.7761 12.5033 34.7761C14.5938 34.7761 16.1535 34.2003 17.1497 33.0626C18.8351 33.3319 20.553 33.3221 22.2354 33.0337C23.2301 34.1904 24.7988 34.7761 26.9069 34.7761C28.18 34.7761 29.6506 34.5604 31.2767 34.1358C31.2866 34.1328 32.412 33.8191 33.6418 33.328C35.6189 32.5389 36.637 31.8035 37.0467 30.8703C37.317 30.2544 37.2974 29.5932 36.9911 29.008C36.9631 28.9532 36.9323 28.9003 36.8998 28.8495ZM16.4369 31.2818C16.3511 31.4329 16.2593 31.5804 16.1614 31.7238C15.9039 32.1034 15.5652 32.3933 15.1722 32.609C14.4206 33.0215 13.4695 33.1658 12.5031 33.1658C10.9767 33.1658 9.41184 32.8061 8.53465 32.5769C8.49158 32.5657 3.15824 31.0489 3.83345 29.7578C3.94708 29.5408 4.13422 29.4541 4.36955 29.4541C5.32024 29.4541 7.05136 30.8795 7.79549 30.8795C7.96154 30.8795 8.07883 30.8081 8.12666 30.6344C8.44374 29.4893 3.30761 29.008 3.74016 27.3501C3.81659 27.0567 4.02351 26.9376 4.31475 26.9376C5.57152 26.9375 8.39261 29.1631 8.98259 29.1631C9.02786 29.1631 9.0603 29.1498 9.0779 29.1217L9.0856 29.109C9.36235 28.6485 9.20363 28.3138 7.30629 27.1438L7.12411 27.0321C5.03652 25.7597 3.57099 24.9942 4.40456 24.0807C4.50041 23.9752 4.63623 23.9285 4.80136 23.9285C4.99729 23.9285 5.23428 23.9946 5.49527 24.1051C6.5979 24.5733 8.12611 25.8501 8.76449 26.4071C8.95272 26.5721 9.0636 26.6728 9.0636 26.6728C9.0636 26.6728 9.87188 27.5191 10.3607 27.5191C10.4732 27.5191 10.5685 27.4747 10.6332 27.3641C10.98 26.7758 7.41424 24.0553 7.21318 22.9329C7.077 22.1722 7.30886 21.7871 7.73792 21.7871C7.94173 21.7871 8.19063 21.8743 8.46537 22.0498C9.31763 22.5946 10.9631 25.4417 11.5656 26.5492C11.7676 26.9205 12.1123 27.0773 12.423 27.0773C13.0394 27.0773 13.5212 26.4604 12.4794 25.6765C10.9137 24.4967 11.4631 22.5686 12.2104 22.4499C12.2423 22.4449 12.2745 22.4424 12.3066 22.4422C12.9862 22.4422 13.2861 23.6214 13.2861 23.6214C13.2861 23.6214 14.1645 25.8429 15.6739 27.3614C17.0435 28.7397 17.2347 29.871 16.4369 31.2818ZM21.3175 31.542L21.2393 31.5514L21.1056 31.5669C21.0354 31.5741 20.9653 31.5811 20.8947 31.5878L20.8258 31.594L20.7631 31.5994L20.6738 31.6066C20.641 31.609 20.6082 31.6116 20.5754 31.6136L20.4772 31.6202L20.4555 31.6215L20.3782 31.6262L20.3454 31.6278L20.2537 31.6324L20.1473 31.6369L20.0505 31.6402L19.986 31.642H19.9533C19.9332 31.642 19.9132 31.6431 19.893 31.6433H19.861C19.8408 31.6433 19.8208 31.6433 19.8007 31.6444L19.7187 31.6453H19.604C19.514 31.6453 19.4244 31.6444 19.3348 31.6428L19.2622 31.6411C19.2417 31.6411 19.2209 31.64 19.2004 31.6394L19.1236 31.637L19.028 31.6333L18.942 31.6297L18.9196 31.6287L18.8377 31.6243C18.815 31.623 18.7922 31.6219 18.7697 31.6204L18.7167 31.6173C18.6502 31.613 18.5837 31.6082 18.5171 31.6031L18.4475 31.5975L18.3595 31.59L18.2567 31.5804C18.1993 31.575 18.142 31.5691 18.0846 31.5627H18.0818C18.9194 29.6812 18.4959 27.9242 16.8033 26.2213C15.6933 25.1051 14.9547 23.4566 14.8016 23.0947C14.4915 22.0234 13.6706 20.8326 12.3075 20.8326C12.1922 20.8328 12.0773 20.842 11.9635 20.8601C11.3662 20.9546 10.8442 21.3008 10.4718 21.8216C10.0695 21.3176 9.67815 20.9169 9.32441 20.6905C8.79106 20.3502 8.25899 20.1775 7.7403 20.1775C7.09331 20.1775 6.51469 20.4451 6.11147 20.9304L6.10139 20.9428L6.07866 20.8466L6.07775 20.8426C6.00106 20.5122 5.93664 20.1789 5.88457 19.8438C5.88457 19.8414 5.88456 19.8392 5.88346 19.837L5.8721 19.7611C5.86596 19.7202 5.85997 19.679 5.85414 19.638C5.84938 19.6039 5.84461 19.5698 5.84021 19.5358C5.83581 19.5019 5.83105 19.4677 5.82701 19.4336C5.82262 19.3992 5.81858 19.3651 5.81455 19.331C5.81068 19.2985 5.80696 19.266 5.80337 19.2335L5.80229 19.2252C5.78576 19.0754 5.77159 18.9253 5.75975 18.7751L5.75333 18.6882C5.7515 18.6644 5.74985 18.6404 5.74839 18.6162C5.74839 18.6107 5.74765 18.605 5.74729 18.5998L5.74126 18.5035C5.73906 18.4686 5.73739 18.4337 5.73556 18.3988C5.73372 18.3641 5.73189 18.3293 5.73042 18.2942L5.72676 18.2029L5.72566 18.1752L5.72291 18.0907L5.72091 18.019C5.72091 17.9904 5.71961 17.9617 5.71906 17.9331L5.71759 17.8428C5.71723 17.8127 5.71759 17.7828 5.71686 17.7528C5.71595 17.7225 5.71686 17.6924 5.71686 17.6621C5.71686 9.93863 11.9358 3.6769 19.6073 3.6769C27.2788 3.6769 33.4976 9.93826 33.4976 17.6621V17.8428C33.4976 17.8729 33.4968 17.9032 33.4961 17.9331C33.4961 17.9581 33.4952 17.9827 33.4945 18.0078C33.4945 18.0301 33.4935 18.0523 33.4926 18.0739C33.4926 18.1021 33.491 18.1301 33.4901 18.1584V18.1608C33.4877 18.222 33.4851 18.2833 33.4825 18.3446L33.4814 18.3649L33.4767 18.4564L33.4723 18.5289C33.462 18.7008 33.4486 18.8726 33.4323 19.044V19.0464C33.4294 19.0785 33.4261 19.1108 33.4226 19.1429C33.4145 19.2177 33.4063 19.2924 33.398 19.3671L33.3887 19.4422L33.3772 19.5305C33.3731 19.5628 33.3687 19.5949 33.3641 19.627C33.3592 19.663 33.3539 19.6988 33.3487 19.7346L33.3359 19.8191L33.3209 19.915C33.3158 19.947 33.3106 19.9787 33.3046 20.0106C33.2983 20.0424 33.2936 20.0741 33.2881 20.106C33.2771 20.1695 33.2657 20.2328 33.2534 20.2961C33.2291 20.4222 33.2036 20.5478 33.1766 20.6733C33.1699 20.7045 33.1629 20.7359 33.1557 20.7671C32.7648 20.3845 32.2472 20.1762 31.6761 20.1762C31.158 20.1762 30.6253 20.3487 30.0922 20.6892C29.7383 20.9155 29.3473 21.3163 28.9446 21.8203C28.5717 21.2993 28.0497 20.9533 27.4531 20.8586C27.3393 20.8407 27.2242 20.8315 27.1089 20.8313C25.7454 20.8313 24.9251 22.0222 24.6148 23.0934C24.461 23.4553 23.7224 25.1037 22.6111 26.2216C20.9198 27.919 20.4929 29.6683 21.3175 31.542ZM35.6576 27.7758L35.6521 27.7923C35.6482 27.8028 35.6444 27.8133 35.6401 27.8236C35.6335 27.8393 35.6266 27.8546 35.6192 27.87C35.6015 27.9065 35.5813 27.9419 35.5591 27.9759C35.5285 28.0218 35.495 28.0658 35.4585 28.1071C35.4501 28.1167 35.442 28.1261 35.4325 28.1355C35.4197 28.1497 35.4059 28.1636 35.3923 28.1774C35.1455 28.4238 34.7694 28.6395 34.3442 28.8377C34.2959 28.8597 34.2472 28.8816 34.1977 28.9036L34.1486 28.9255C34.1158 28.9401 34.0832 28.9547 34.0487 28.9689C34.0152 28.9833 33.9814 28.9975 33.9477 29.0115L33.8454 29.0542C33.6063 29.1533 33.3612 29.2476 33.122 29.341L33.0199 29.3808L32.9188 29.4207C32.8517 29.4471 32.7853 29.4735 32.7199 29.4998L32.6226 29.5393L32.5271 29.5788L32.48 29.5986C32.4488 29.6119 32.418 29.6248 32.3876 29.6381C31.6842 29.9418 31.1783 30.2509 31.2846 30.6346C31.2875 30.6455 31.2908 30.6558 31.2945 30.6658C31.304 30.6942 31.3171 30.7211 31.3332 30.7462C31.3427 30.7614 31.3537 30.7756 31.366 30.7885C31.491 30.9192 31.7184 30.8985 32.0053 30.7948C32.0286 30.7863 32.0524 30.7773 32.0764 30.7677C32.0929 30.7614 32.1092 30.7547 32.1257 30.7481L32.1504 30.7376C32.2161 30.7095 32.2855 30.6783 32.3566 30.6442C32.3744 30.6359 32.3924 30.6278 32.4103 30.6182C32.761 30.4456 33.1585 30.2129 33.5529 30.0012C33.6134 29.9682 33.6741 29.9367 33.7344 29.9053C33.833 29.8538 33.9325 29.8042 34.0329 29.7567C34.4065 29.5799 34.7575 29.4544 35.0399 29.4544C35.1722 29.4544 35.2893 29.4818 35.3867 29.5445L35.403 29.5554C35.4523 29.5905 35.4952 29.6335 35.5302 29.6829C35.5382 29.6945 35.5467 29.7065 35.5538 29.7189C35.5615 29.7316 35.5688 29.7447 35.5758 29.758C35.7153 30.0245 35.5985 30.3008 35.3254 30.5715C35.0632 30.8313 34.6552 31.0862 34.1913 31.3222C34.157 31.3397 34.1224 31.3573 34.0876 31.3742C32.7073 32.0567 30.9001 32.5706 30.8748 32.5771C30.3931 32.7028 29.7043 32.8679 28.9285 32.9914L28.8136 33.0093L28.7949 33.0121C28.6189 33.0386 28.4424 33.0621 28.2656 33.0824L28.2493 33.084C27.9276 33.1209 27.5977 33.1477 27.2672 33.159H27.2623C27.1435 33.1634 27.0249 33.1654 26.9062 33.1654H26.7694C26.5884 33.1628 26.4075 33.1547 26.2269 33.1407C26.2227 33.1407 26.2183 33.1407 26.2139 33.1398C26.1494 33.1348 26.0847 33.1287 26.0204 33.1215C25.9097 33.1095 25.7991 33.0947 25.689 33.0774C25.6461 33.0702 25.6003 33.0626 25.5561 33.0549C25.536 33.0512 25.516 33.0475 25.496 33.0434L25.4912 33.0425C25.4276 33.0303 25.3644 33.0169 25.3014 33.0023C25.2649 32.994 25.2282 32.9857 25.1921 32.9759L25.1705 32.9702C25.1525 32.9657 25.1349 32.961 25.1173 32.9562L25.1076 32.9536L25.051 32.9371C25.0305 32.9312 25.0101 32.9251 24.9896 32.9191L24.9823 32.9168L24.9289 32.9004C24.9088 32.8941 24.8888 32.8875 24.8688 32.881C24.8523 32.8755 24.836 32.8698 24.8195 32.8644L24.7834 32.8517C24.7486 32.8395 24.7141 32.8266 24.6797 32.8133L24.647 32.8006L24.6201 32.7897C24.5682 32.7687 24.5165 32.7467 24.4654 32.7236L24.4313 32.7072L24.4256 32.7046C24.4135 32.6989 24.4016 32.6932 24.3895 32.688C24.3659 32.6766 24.3424 32.6648 24.3191 32.6528L24.3122 32.6493L24.2784 32.6314C24.2185 32.6 24.1597 32.5664 24.1021 32.5306L24.0706 32.5112C24.0543 32.5013 24.0394 32.4911 24.0239 32.481L23.9828 32.4535C23.968 32.4435 23.9531 32.4333 23.9386 32.4228L23.9123 32.404C23.8844 32.3839 23.8571 32.3634 23.8301 32.3422C23.8158 32.3311 23.8017 32.3197 23.7876 32.3091C23.7563 32.2839 23.7257 32.2578 23.6954 32.2311L23.6941 32.23C23.6646 32.2043 23.6359 32.1777 23.6078 32.1506L23.6064 32.1488C23.5917 32.1348 23.5774 32.1207 23.5631 32.1061C23.549 32.0916 23.5347 32.0772 23.5209 32.0626C23.507 32.0478 23.4931 32.0329 23.4795 32.0176C23.4663 32.0032 23.4535 31.9886 23.4407 31.9738L23.4363 31.9688C23.3701 31.8915 23.3082 31.8105 23.2508 31.7262L23.2281 31.6924C23.213 31.6701 23.1982 31.6476 23.1835 31.625L23.1403 31.5581C23.119 31.5254 23.0983 31.4924 23.0781 31.4591C23.0637 31.4355 23.0494 31.4119 23.0352 31.3881C23.0233 31.3678 23.0114 31.3477 23.0001 31.3277C22.9936 31.3169 22.9876 31.3058 22.9815 31.2947C22.9755 31.2833 22.9683 31.2716 22.9619 31.26L22.9517 31.2417C22.9482 31.2357 22.9471 31.2338 22.9452 31.2297C22.9328 31.2078 22.9207 31.1855 22.909 31.1628C22.9036 31.153 22.8983 31.143 22.8927 31.1332L22.8762 31.1015L22.8598 31.0699L22.8283 31.0059C22.8232 30.9954 22.8182 30.9849 22.8133 30.9743C22.8025 30.9516 22.7922 30.9293 22.7819 30.907C22.7779 30.8979 22.7737 30.8889 22.77 30.8799C22.7559 30.849 22.7425 30.8179 22.7299 30.7863C22.7213 30.7654 22.7134 30.7448 22.705 30.7241C22.6813 30.6632 22.6591 30.6018 22.6388 30.5396C22.6328 30.5211 22.6267 30.5028 22.6214 30.4844C22.6082 30.4425 22.5963 30.4002 22.5857 30.3576C22.5726 30.308 22.5611 30.2578 22.5514 30.2074C22.5451 30.1777 22.5396 30.1478 22.5351 30.1177C22.5301 30.088 22.5259 30.0583 22.5224 30.0287C22.5149 29.9699 22.5096 29.9108 22.5065 29.8516C22.5065 29.8418 22.5056 29.8318 22.5054 29.8221C22.5045 29.8025 22.5039 29.7829 22.5037 29.7634C22.4935 28.975 22.8899 28.2167 23.7372 27.3639C25.2464 25.8457 26.125 23.624 26.125 23.624C26.125 23.624 26.1487 23.5308 26.198 23.3968C26.2145 23.3523 26.2317 23.3081 26.2498 23.2643C26.2705 23.2149 26.2927 23.166 26.3166 23.118L26.3235 23.1039C26.3541 23.0427 26.3873 22.9831 26.4234 22.9249C26.4317 22.9115 26.4397 22.898 26.4492 22.8847C26.476 22.8445 26.5044 22.8055 26.5343 22.7677C26.5574 22.7387 26.5819 22.7107 26.6078 22.6841C26.6954 22.5933 26.7953 22.5191 26.9084 22.4795L26.9227 22.4748C26.9322 22.4717 26.9415 22.4688 26.9513 22.466C26.9626 22.463 26.974 22.4603 26.9854 22.4579L26.9905 22.4569C27.0145 22.4521 27.0385 22.4488 27.0629 22.4472H27.0651C27.0777 22.4472 27.0904 22.4459 27.1034 22.4459C27.1358 22.4461 27.1681 22.4486 27.2002 22.4536C27.3362 22.4752 27.4657 22.5568 27.5772 22.6826L27.5922 22.7004C27.6285 22.7432 27.6615 22.7889 27.6908 22.8369C27.7128 22.8725 27.7335 22.91 27.7531 22.9493C27.761 22.9659 27.7685 22.981 27.776 22.9973C27.7797 23.0056 27.7834 23.0137 27.7868 23.0222C27.7942 23.0386 27.801 23.0552 27.8077 23.0726C27.846 23.1715 27.8757 23.2735 27.8966 23.3776C27.9188 23.49 27.9316 23.6041 27.9353 23.7187C27.9366 23.769 27.9366 23.82 27.9353 23.8716C27.9344 23.8912 27.9335 23.911 27.932 23.9307C27.917 24.1501 27.8695 24.366 27.7911 24.5714C27.7832 24.5917 27.7746 24.6124 27.7665 24.6331C27.7271 24.7279 27.6813 24.8198 27.6296 24.9084C27.6001 24.959 27.5682 25.0092 27.5341 25.059L27.5132 25.0889C27.4324 25.2026 27.3422 25.3092 27.2436 25.4078C27.1465 25.5058 27.0424 25.5964 26.9322 25.6792C26.8217 25.7614 26.7181 25.8525 26.6224 25.9516C26.347 26.2428 26.2828 26.4995 26.3448 26.6942C26.3521 26.7162 26.3607 26.7378 26.3706 26.7586C26.3935 26.8039 26.4232 26.8454 26.4588 26.8815L26.4685 26.8913C26.4786 26.9011 26.4892 26.9105 26.5 26.9196L26.511 26.9286C26.5378 26.9493 26.566 26.9677 26.5955 26.9838C26.6039 26.9884 26.6118 26.993 26.6215 26.9974C26.662 27.0177 26.7044 27.034 26.748 27.0463L26.7601 27.0495L26.7764 27.0539L26.7907 27.0574L26.8059 27.0607L26.8211 27.0639L26.8356 27.0663C26.8464 27.0683 26.8574 27.07 26.8682 27.0714L26.8789 27.0729L26.8977 27.0749L26.9095 27.0761L26.9289 27.0775H26.9401L26.9602 27.0785H27.0238L27.042 27.0775L27.0629 27.0762L27.0884 27.0738L27.1122 27.0709C27.1175 27.0709 27.123 27.0694 27.1285 27.0685C27.2124 27.0561 27.2942 27.0323 27.3715 26.9976C27.388 26.9906 27.4043 26.9829 27.4194 26.9747C27.4516 26.9585 27.483 26.9402 27.513 26.9201C27.555 26.8924 27.5946 26.8612 27.6318 26.8273L27.6576 26.8026C27.6617 26.7985 27.6659 26.7946 27.6697 26.7904C27.695 26.7649 27.7188 26.738 27.741 26.7097C27.7802 26.6599 27.8151 26.6069 27.8453 26.5512C28.204 25.8946 28.5799 25.2476 28.9727 24.6111L29.0266 24.5242L29.081 24.4371C29.1083 24.3932 29.1356 24.3496 29.1629 24.3066L29.1906 24.2632L29.2458 24.1767C29.3198 24.0614 29.3941 23.9473 29.4688 23.8344L29.5247 23.7502C29.6369 23.583 29.7489 23.4203 29.8596 23.2654L29.9149 23.189C30.0354 23.0215 30.1609 22.8578 30.2912 22.698L30.3431 22.6356C30.3515 22.6251 30.3594 22.6149 30.3687 22.6048L30.4195 22.5455C30.4279 22.5357 30.436 22.5261 30.4448 22.5167L30.4939 22.4608L30.5187 22.4339C30.5425 22.4079 30.5667 22.3822 30.5913 22.3567C30.6077 22.3403 30.623 22.3237 30.6389 22.3084C30.7318 22.2126 30.8343 22.1268 30.9448 22.0524L30.9703 22.036L30.9961 22.0194C31.0126 22.0091 31.0293 21.9991 31.0463 21.9897C31.4796 21.7422 31.8385 21.7239 32.0449 21.9317C32.1701 22.0578 32.2391 22.2665 32.2355 22.5568C32.2355 22.5697 32.2355 22.5824 32.2344 22.5957V22.6101C32.2344 22.6232 32.2333 22.6367 32.2324 22.6502C32.2324 22.6666 32.2304 22.6832 32.2287 22.6996C32.2271 22.7162 32.2263 22.7288 32.2247 22.7434C32.2247 22.7476 32.2238 22.7518 32.2232 22.7561C32.2219 22.769 32.2203 22.7821 32.2186 22.795C32.2186 22.7991 32.2186 22.803 32.217 22.807C32.2151 22.8246 32.2126 22.8421 32.2095 22.8594C32.2074 22.8755 32.2049 22.8915 32.2018 22.9076C32.2005 22.9168 32.1986 22.9259 32.1972 22.9351C32.1924 22.9613 32.1862 22.9873 32.1787 23.0128C32.1646 23.0604 32.1473 23.1071 32.127 23.1525C32.1182 23.1722 32.1088 23.192 32.0993 23.2114C32.0795 23.2514 32.0571 23.2924 32.0326 23.3348C32.0203 23.3557 32.0077 23.3773 31.9941 23.3989L31.9736 23.4317C31.9527 23.4647 31.9309 23.4981 31.9081 23.5319C31.8854 23.5657 31.861 23.6002 31.8348 23.6351C31.8009 23.6816 31.7652 23.729 31.7274 23.777L31.6988 23.8133C31.618 23.9146 31.5352 24.0143 31.4505 24.1123L31.3832 24.1889L31.3489 24.2276C31.3022 24.2802 31.2553 24.3325 31.208 24.3843L31.1717 24.4238C31.1477 24.45 31.1226 24.4766 31.0986 24.503C31.074 24.5297 31.0491 24.5563 31.0242 24.5829L30.9487 24.663L30.8722 24.7432C30.8467 24.77 30.8211 24.7971 30.7952 24.8239L30.6396 24.9854C29.8964 25.7529 29.1133 26.5178 28.8482 26.9947C28.8306 27.0259 28.8147 27.0578 28.8002 27.0905C28.7626 27.1772 28.7469 27.2514 28.7575 27.3113C28.761 27.3311 28.768 27.3501 28.778 27.3673C28.7931 27.3933 28.8112 27.4173 28.8321 27.4387C28.8418 27.4483 28.8519 27.4573 28.8629 27.4654C28.9173 27.5046 28.9833 27.5247 29.0502 27.5226H29.0711L29.0926 27.5212L29.1142 27.5186L29.132 27.516C29.1343 27.5158 29.1367 27.5153 29.1391 27.5147L29.1554 27.5116L29.1598 27.5105L29.1778 27.5066L29.1842 27.5049L29.2034 27.5L29.2263 27.4931C29.2414 27.4885 29.2564 27.4833 29.2718 27.4776C29.305 27.4658 29.3374 27.4522 29.3691 27.4368C29.3772 27.433 29.3854 27.4293 29.3933 27.425L29.4177 27.4128C29.4496 27.3966 29.4813 27.3791 29.5132 27.3601C29.5387 27.3449 29.564 27.3294 29.5892 27.313L29.6138 27.2966C29.6219 27.2914 29.6301 27.2861 29.6382 27.28L29.6626 27.2636L29.6754 27.2545L29.7106 27.2298C29.7434 27.2069 29.774 27.1835 29.8052 27.1597L29.8079 27.1576L29.857 27.1192C29.9243 27.0657 29.9883 27.0118 30.046 26.9611L30.0845 26.9269L30.0881 26.9236L30.1081 26.9057C30.1554 26.8631 30.1976 26.8232 30.2328 26.7902L30.247 26.7762L30.2817 26.7431L30.3024 26.7228L30.3095 26.7155L30.3116 26.7134C30.3292 26.6957 30.3292 26.6957 30.3468 26.6778L30.3482 26.6763L30.3548 26.6704C30.3568 26.6682 30.3596 26.666 30.3627 26.6632L30.3653 26.6608L30.3722 26.6546L30.4094 26.6215L30.4303 26.6025C30.4406 26.5937 30.4518 26.5835 30.4631 26.5726L30.4883 26.5505C30.4926 26.5468 30.497 26.5425 30.5016 26.5385L30.5278 26.5154L30.5665 26.4815L30.5869 26.4636C30.6666 26.3936 30.7637 26.3093 30.875 26.2142L30.9206 26.1755L30.9961 26.1118L31.0731 26.0469C31.1739 25.9627 31.2824 25.8732 31.3971 25.7802L31.4725 25.7193C31.5366 25.668 31.6026 25.6154 31.6693 25.5626C31.6961 25.5414 31.7234 25.5202 31.7512 25.4991C31.8196 25.446 31.8883 25.393 31.9573 25.3408C32.1145 25.2212 32.2767 25.1014 32.4408 24.9846L32.5113 24.9354C32.5604 24.901 32.6096 24.8669 32.6589 24.8335L32.7034 24.803C32.7916 24.7432 32.8805 24.6847 32.9701 24.6275L33.0146 24.5993L33.0588 24.5716C33.103 24.5441 33.1471 24.5168 33.1908 24.4904L33.2346 24.4642L33.3223 24.4127C33.3511 24.3959 33.3797 24.3795 33.4083 24.3633L33.4255 24.3535L33.4937 24.316C33.5219 24.3005 33.5504 24.2856 33.5784 24.271L33.6206 24.2492L33.6612 24.2284C33.7543 24.1813 33.8491 24.1378 33.9455 24.0979C33.9587 24.0924 33.9717 24.087 33.9847 24.0813C34.0106 24.0704 34.0362 24.0604 34.0617 24.0516C34.0872 24.0429 34.1123 24.0339 34.137 24.025C34.1596 24.0174 34.1814 24.0104 34.2027 24.0038L34.2098 24.0016C34.2212 23.9981 34.2325 23.9947 34.2439 23.9918L34.2472 23.9909C34.2703 23.9842 34.2934 23.9781 34.3167 23.9726H34.3185C34.3528 23.9643 34.3861 23.9573 34.4187 23.9517C34.4299 23.9499 34.4409 23.9481 34.4516 23.9466C34.4833 23.9418 34.5152 23.9385 34.547 23.9362C34.5672 23.9348 34.5876 23.9342 34.6077 23.9342H34.6231C34.6436 23.9342 34.6634 23.9355 34.683 23.9375C34.692 23.9375 34.701 23.9392 34.7098 23.9405H34.7135C34.7223 23.9414 34.7312 23.9429 34.7399 23.9447C34.7485 23.9466 34.7573 23.9479 34.7657 23.9499H34.7686C34.7771 23.9517 34.7849 23.9541 34.7937 23.9565C34.8638 23.9755 34.9281 24.0113 34.9814 24.0608L34.9862 24.0656L34.9955 24.0748L35.0047 24.0846C35.0782 24.1625 35.139 24.2516 35.1849 24.3487L35.192 24.3651C35.2076 24.402 35.2199 24.4402 35.2285 24.4793C35.2523 24.5884 35.2459 24.7021 35.2098 24.8076C35.1942 24.8536 35.1752 24.8983 35.1526 24.9411L35.1376 24.9684C35.0804 25.0649 35.0129 25.1548 34.9362 25.2363L34.9197 25.2539C34.8836 25.2924 34.846 25.3299 34.8073 25.3659C34.795 25.3775 34.7824 25.3891 34.7696 25.4008L34.7501 25.4185C34.7098 25.4545 34.6686 25.4895 34.6268 25.5239C34.6194 25.5298 34.6119 25.5357 34.6048 25.5419C34.5756 25.5656 34.5456 25.5896 34.5144 25.6136C34.407 25.6962 34.2976 25.7759 34.1862 25.8529C34.1205 25.8981 34.0527 25.9437 33.9827 25.99C33.8522 26.0762 33.7208 26.1605 33.5881 26.2432C33.5498 26.267 33.5113 26.2912 33.4721 26.3152C33.1116 26.5385 32.7118 26.7773 32.2855 27.0369L32.1752 27.1045C32.0544 27.1787 31.9404 27.2495 31.8332 27.3169L31.7791 27.3512L31.6768 27.4173C31.6363 27.4431 31.5969 27.4686 31.5586 27.4937C31.5297 27.5123 31.5014 27.5308 31.4738 27.549L31.4191 27.5852C31.3926 27.6027 31.3662 27.6203 31.3398 27.6382L31.3141 27.6546C31.287 27.6729 31.2606 27.6908 31.2349 27.7085L31.193 27.7373L31.1437 27.7718L31.0982 27.8037C31.0264 27.8545 30.9554 27.9063 30.8851 27.9591L30.8605 27.9779C30.8328 27.999 30.8061 28.02 30.7802 28.0405L30.7465 28.0676C30.6897 28.1136 30.6382 28.1577 30.5916 28.1997L30.5689 28.2208C30.5559 28.2328 30.543 28.2448 30.531 28.2566C30.5223 28.2647 30.5145 28.273 30.5058 28.2811L30.4939 28.2929C30.4677 28.3193 30.4422 28.3465 30.4175 28.3743L30.4054 28.3883C30.3785 28.4197 30.355 28.4498 30.3343 28.4791L30.3251 28.4924C30.3013 28.5275 30.2802 28.5646 30.2623 28.6031L30.256 28.6166L30.2522 28.626L30.2491 28.6342L30.2449 28.6454C30.2436 28.6493 30.241 28.6561 30.2395 28.662C30.232 28.684 30.2265 28.7067 30.2229 28.7297L30.221 28.7421L30.2196 28.7534L30.2186 28.7643V28.8222C30.2186 28.827 30.2186 28.832 30.2197 28.837C30.2199 28.8399 30.2203 28.8429 30.2207 28.8458C30.2207 28.8506 30.2219 28.8554 30.2225 28.8604L30.226 28.8807V28.8816C30.2273 28.8881 30.2285 28.8945 30.2302 28.901C30.2318 28.9075 30.2335 28.9147 30.2355 28.9215C30.2414 28.9423 30.2485 28.963 30.2568 28.9831C30.2568 28.9846 30.258 28.9863 30.2586 28.9877C30.2608 28.9927 30.2628 28.9979 30.2652 29.0029C30.2742 29.0239 30.2843 29.0444 30.2953 29.0645L30.3068 29.0854L30.3189 29.1064L30.3315 29.1274C30.3337 29.1309 30.3361 29.1341 30.3389 29.1372L30.3431 29.1416L30.3475 29.1457L30.3524 29.1496C30.3557 29.152 30.3592 29.154 30.3629 29.156C30.3665 29.1577 30.3706 29.1595 30.3746 29.161C30.379 29.1625 30.3834 29.1638 30.3878 29.1649C30.4936 29.1889 30.7109 29.1007 30.9996 28.9471L31.0515 28.9195L31.1393 28.8713L31.1823 28.8473C31.2128 28.8307 31.2441 28.8122 31.2758 28.794L31.3339 28.7609C31.7157 28.5397 32.1719 28.2553 32.6433 27.9777C32.6873 27.9517 32.7316 27.9259 32.776 27.9L32.8651 27.8428C32.9096 27.817 32.954 27.7915 32.9985 27.7664C33.188 27.6579 33.3801 27.5537 33.5742 27.4538L33.6612 27.4093C33.7192 27.3806 33.7765 27.3525 33.8332 27.3252C33.9429 27.2728 34.0538 27.2231 34.1658 27.1761L34.2272 27.151L34.2347 27.148C34.5599 27.0183 34.8548 26.938 35.0934 26.938C35.1451 26.9376 35.1966 26.9419 35.2476 26.9508H35.249C35.2655 26.9537 35.2804 26.957 35.2954 26.9609H35.2981C35.3201 26.9663 35.3418 26.9731 35.3627 26.9816C35.3793 26.9877 35.3955 26.9949 35.411 27.0033C35.4794 27.0382 35.5379 27.0897 35.5815 27.1532C35.5852 27.1585 35.5886 27.1641 35.5919 27.1698C35.6081 27.1945 35.622 27.2206 35.6334 27.2479C35.6401 27.2636 35.6464 27.2798 35.6522 27.2973C35.6581 27.315 35.6632 27.332 35.6686 27.3503C35.7074 27.4902 35.7036 27.6382 35.6576 27.7758Z" fill="#030046"/>
<path id="Vector_4" fill-rule="evenodd" clip-rule="evenodd" d="M33.4954 17.7527V17.6622C33.4954 9.93836 27.2788 3.677 19.6072 3.677C11.9359 3.677 5.71694 9.93873 5.71694 17.6622L5.71675 17.6925C5.71657 17.7126 5.71639 17.7325 5.71675 17.7527C5.71763 17.7827 5.71794 17.8128 5.71767 17.8429L5.71877 17.9093L5.71914 17.9333L5.72005 17.9662C5.72042 17.9839 5.72097 18.0014 5.72097 18.0191L5.7228 18.0909L5.72573 18.1753L5.72665 18.2029L5.73032 18.2902V18.2943L5.73545 18.3963V18.3989C5.73728 18.4338 5.73911 18.4687 5.74131 18.5034C5.74315 18.5357 5.74516 18.5678 5.74736 18.5999L5.74791 18.6056C5.74952 18.6331 5.75136 18.6608 5.75341 18.6883L5.75396 18.6955C5.75579 18.7221 5.75781 18.7488 5.76001 18.7752L5.76037 18.7804L5.76404 18.8265C5.77502 18.9596 5.78785 19.0926 5.80253 19.2253L5.80345 19.2336L5.81444 19.3311L5.82709 19.4337C5.83558 19.5019 5.84463 19.57 5.85422 19.6381C5.85993 19.6793 5.86587 19.7203 5.87199 19.7612L5.87291 19.7662C5.8866 19.8588 5.90137 19.9515 5.91726 20.0438C5.96285 20.3115 6.01638 20.578 6.07782 20.8426L6.07874 20.8469L6.0846 20.8718C6.0901 20.8954 6.0956 20.919 6.10146 20.9429L6.11154 20.9305C6.51477 20.4451 7.09321 20.1776 7.74038 20.1776C8.25907 20.1776 8.79132 20.3501 9.32449 20.6906C9.67823 20.9168 10.0694 21.3177 10.4718 21.8216C10.8443 21.3007 11.3662 20.9547 11.9634 20.8602C12.0774 20.8421 12.1925 20.8329 12.3076 20.8327C13.6707 20.8327 14.4916 22.0237 14.8017 23.0948C14.9547 23.4569 15.6934 25.105 16.807 26.22C18.4996 27.9228 18.9232 29.68 18.0856 31.5615H18.0883C18.1455 31.5677 18.2029 31.5736 18.2604 31.579C18.2947 31.5823 18.329 31.5856 18.3632 31.5886L18.3753 31.5897C18.4004 31.5921 18.4257 31.5943 18.451 31.5962L18.5207 31.6019C18.587 31.607 18.6536 31.6117 18.7205 31.6161L18.7732 31.6192L18.8152 31.6216L18.8414 31.6231L18.9232 31.6275L18.9455 31.6284L19.0317 31.6321L19.1272 31.6358L19.2041 31.638L19.217 31.6386C19.2331 31.6392 19.2496 31.6399 19.2659 31.6399L19.2833 31.6403C19.3915 31.6428 19.4994 31.6441 19.6075 31.6441H19.7223L19.8044 31.6432C19.8246 31.6421 19.8445 31.6421 19.8647 31.6421H19.8966L19.9243 31.6416C19.9351 31.6412 19.9461 31.6408 19.9569 31.6408H19.9897L20.054 31.639L20.1508 31.6356L20.2575 31.631C20.2881 31.6297 20.3185 31.6283 20.3491 31.6266L20.3819 31.6248L20.4305 31.622L20.4593 31.6203L20.4807 31.619L20.5791 31.6124C20.6119 31.6104 20.6447 31.6078 20.6776 31.6052L20.7666 31.5982L20.8295 31.5928L20.8982 31.5866C20.9688 31.5799 21.0392 31.5729 21.1092 31.5655C21.1539 31.5605 21.1983 31.5556 21.2428 31.5502L21.3211 31.5408C20.4965 29.6671 20.9233 27.9178 22.6092 26.2217C23.7202 25.1039 24.4589 23.4554 24.6128 23.0935C24.9231 22.0222 25.7433 20.8314 27.1067 20.8314C27.222 20.8316 27.3371 20.8406 27.4509 20.8589C28.0475 20.9534 28.5697 21.2996 28.9427 21.8204C29.3454 21.3164 29.7363 20.9155 30.09 20.6893C30.6232 20.3488 31.1558 20.1763 31.674 20.1763C32.2451 20.1763 32.7628 20.3848 33.1538 20.7672C33.1752 20.6708 33.1959 20.5745 33.2157 20.4778C33.2278 20.4175 33.2397 20.3569 33.2515 20.2962C33.2658 20.2217 33.2793 20.1467 33.2918 20.0718C33.2951 20.0515 33.2986 20.0312 33.3024 20.0107C33.3085 19.9788 33.3138 19.9472 33.3187 19.9151L33.3208 19.903L33.3338 19.8194L33.3466 19.7346L33.3468 19.7337C33.3519 19.6983 33.3572 19.6627 33.362 19.6271C33.3658 19.6001 33.3695 19.5732 33.373 19.546L33.3752 19.5305L33.3866 19.4423L33.3959 19.3672C33.4016 19.3178 33.4071 19.2683 33.4124 19.2187C33.4148 19.1989 33.4168 19.179 33.4188 19.1591L33.4206 19.143C33.4241 19.11 33.4272 19.0771 33.4302 19.0441L33.4375 18.9673C33.4527 18.7972 33.465 18.627 33.4745 18.4565V18.4554L33.4795 18.365L33.4804 18.3447L33.4841 18.2589C33.4855 18.2266 33.4868 18.1939 33.4879 18.1609V18.1585L33.4888 18.1347C33.4897 18.1144 33.4905 18.0941 33.4905 18.0739L33.4908 18.0656C33.4916 18.0468 33.4923 18.0273 33.4923 18.0079L33.4929 17.9913C33.4934 17.9719 33.494 17.9527 33.494 17.9333L33.4943 17.9169C33.4949 17.8922 33.4954 17.8676 33.4954 17.8429V17.7527ZM16.1622 31.7239C17.2621 30.0995 17.1842 28.8804 15.6749 27.3616C14.1655 25.8428 13.287 23.6217 13.287 23.6217C13.287 23.6217 12.9592 22.3314 12.2114 22.45C11.4636 22.5685 10.915 24.4964 12.4806 25.6766C14.0462 26.8567 12.1692 27.6569 11.5666 26.5495C10.9638 25.4418 9.31862 22.5949 8.46544 22.0503C7.61245 21.5057 7.01256 21.8109 7.21362 22.9333C7.31351 23.4905 8.24239 24.4412 9.11023 25.3296C9.99072 26.2311 10.8083 27.068 10.6337 27.3642C10.2867 27.9525 9.06478 26.6731 9.06478 26.6731C9.06478 26.6731 5.23857 23.1673 4.40555 24.081C3.63778 24.9231 4.82178 25.6389 6.64655 26.7421C6.80179 26.8361 6.96161 26.9328 7.12528 27.0324C9.21287 28.305 9.37526 28.6407 9.07907 29.1222C8.96965 29.3001 8.2708 28.8776 7.4112 28.358C5.94586 27.4722 4.01351 26.3042 3.74078 27.3496C3.50453 28.2544 4.92607 28.8088 6.21528 29.3117C7.28932 29.7306 8.27171 30.1137 8.12729 30.6338C7.97755 31.1728 7.16579 30.7233 6.27833 30.2316C5.28219 29.6797 4.19074 29.0749 3.83371 29.7574C3.15849 31.0473 8.49092 32.5659 8.53472 32.577C10.2576 33.0269 14.6329 33.9803 16.1622 31.7239ZM23.2486 31.7239C22.1486 30.0995 22.2267 28.8804 23.736 27.3616C25.2453 25.8428 26.124 23.6217 26.124 23.6217C26.124 23.6217 26.4517 22.3314 27.1995 22.45C27.9473 22.5685 28.496 24.4964 26.9302 25.6766C25.3645 26.8567 27.2416 27.6569 27.8445 26.5495C28.4471 25.4418 30.0915 22.5949 30.9445 22.0503C31.7975 21.5057 32.3976 21.8109 32.1965 22.9333C32.0966 23.4905 31.1677 24.4414 30.2997 25.3298C29.4194 26.2311 28.6018 27.068 28.7764 27.3642C29.1232 27.9525 30.3463 26.6724 30.3463 26.6724C30.3463 26.6724 34.1723 23.1666 35.0053 24.0803C35.7731 24.9223 34.5889 25.6384 32.7641 26.7417C32.6089 26.8355 32.4493 26.932 32.2856 27.0318C30.1978 28.3043 30.0356 28.6401 30.3318 29.1214C30.4412 29.2993 31.1401 28.8769 31.9995 28.3574C33.465 27.4716 35.3974 26.3035 35.6701 27.3489C35.9063 28.2537 34.4848 28.8083 33.1954 29.3111C32.1214 29.7301 31.1391 30.113 31.2834 30.6332C31.4331 31.1723 32.2445 30.7225 33.1316 30.2309C34.1278 29.6789 35.2194 29.074 35.5766 29.7566C36.2518 31.0475 30.9187 32.5645 30.8754 32.5757C29.1525 33.0269 24.7772 33.9803 23.2486 31.7239Z" fill="white"/>
<path id="Vector_5" fill-rule="evenodd" clip-rule="evenodd" d="M24.1184 13.8552C24.3348 13.9324 24.4959 14.1673 24.6492 14.3906C24.8563 14.6927 25.0491 14.9736 25.3449 14.8152C25.6941 14.6285 25.9802 14.3417 26.1673 13.9911C26.3544 13.6405 26.434 13.242 26.396 12.8458C26.3678 12.5496 26.2747 12.2633 26.1233 12.0077C25.9719 11.7521 25.7661 11.5335 25.5209 11.3676C25.2755 11.2018 24.9965 11.0928 24.7043 11.0485C24.412 11.0042 24.1136 11.0258 23.8306 11.1116C23.4522 11.2264 23.116 11.4515 22.8646 11.7586C22.6133 12.0656 22.4578 12.4408 22.4181 12.8368C22.3785 13.2328 22.4564 13.6317 22.6419 13.9831C22.779 14.2428 23.0832 14.1204 23.4043 13.9911C23.6562 13.8898 23.9182 13.7842 24.1184 13.8552ZM14.7021 13.8554C14.4856 13.9326 14.3243 14.1675 14.1711 14.3908C13.964 14.6927 13.7712 14.9738 13.4753 14.8154C13.2145 14.6757 12.9878 14.4794 12.8113 14.2408C12.6348 14.0021 12.5131 13.7272 12.4548 13.4354C12.3965 13.1438 12.4031 12.8427 12.4743 12.554C12.5456 12.2652 12.6793 11.9959 12.8661 11.7655C13.0532 11.5351 13.2886 11.3494 13.5554 11.2217C13.8223 11.0939 14.1141 11.0273 14.4095 11.0267C14.705 11.026 14.997 11.0913 15.2644 11.2179C15.5318 11.3445 15.768 11.5292 15.9561 11.7586C16.2075 12.0657 16.363 12.441 16.4027 12.837C16.4423 13.233 16.3644 13.6319 16.1788 13.9833C16.0413 14.243 15.7371 14.1204 15.4159 13.9911C15.1643 13.8898 14.9022 13.7842 14.7021 13.8554ZM22.6617 22.483C24.1541 21.299 24.7023 19.3663 24.7023 18.1756C24.7023 17.2344 24.0733 17.5306 23.0665 18.0324L23.0099 18.0608C22.0856 18.5216 20.8554 19.135 19.505 19.135C18.1544 19.135 16.9242 18.5214 16.0002 18.0606C14.9609 17.5422 14.3089 17.2171 14.3089 18.1758C14.3089 19.4039 14.8921 21.4208 16.4931 22.5926C16.7042 22.1608 17.0015 21.7775 17.3666 21.4667C17.7315 21.156 18.1564 20.9245 18.6144 20.7867C18.7742 20.7387 18.9388 21.0157 19.1074 21.2992C19.27 21.5728 19.4361 21.8526 19.6052 21.8526C19.7852 21.8526 19.9623 21.5769 20.1351 21.3076C20.3156 21.0264 20.4916 20.7522 20.6619 20.807C21.5189 21.084 22.2357 21.6847 22.6617 22.483Z" fill="#030046" fill-opacity="0.85"/>
<path id="Vector_6" d="M22.6612 22.4828C21.8839 23.0994 20.8507 23.5129 19.5054 23.5129C18.2413 23.5129 17.2525 23.148 16.4932 22.5924C16.7045 22.1608 17.002 21.7776 17.3669 21.467C17.7318 21.1563 18.1566 20.9247 18.6145 20.7867C18.9284 20.6924 19.2609 21.8525 19.6051 21.8525C19.9737 21.8525 20.3287 20.6998 20.6619 20.807C21.5186 21.0841 22.2352 21.6847 22.6612 22.4828Z" fill="#E9E9E9"/>
<path id="Vector_7" fill-rule="evenodd" clip-rule="evenodd" d="M11.1338 15.5294C10.992 15.6255 10.8327 15.6925 10.6651 15.7264C10.4975 15.7604 10.3249 15.7608 10.1572 15.7275C9.98949 15.6941 9.82994 15.6279 9.68771 15.5325C9.54548 15.4369 9.42338 15.3142 9.32838 15.171C9.23339 15.028 9.16739 14.8673 9.13416 14.6987C9.10093 14.5298 9.10111 14.356 9.13471 14.1872C9.16831 14.0186 9.23467 13.8582 9.32996 13.7152C9.42527 13.5724 9.54765 13.4498 9.69008 13.3546C9.97655 13.1632 10.3267 13.094 10.6638 13.162C11.0009 13.23 11.2975 13.4298 11.4886 13.7176C11.6796 14.0054 11.7496 14.3577 11.6831 14.6972C11.6165 15.0369 11.419 15.3362 11.1338 15.5294ZM29.7208 15.5294C29.579 15.6255 29.4197 15.6925 29.2522 15.7264C29.0847 15.7604 28.912 15.7608 28.7443 15.7275C28.5766 15.6941 28.417 15.6279 28.2747 15.5325C28.1325 15.4369 28.0104 15.3142 27.9155 15.171C27.8204 15.028 27.7544 14.8673 27.7212 14.6987C27.688 14.5298 27.6882 14.356 27.7218 14.1872C27.7553 14.0186 27.8217 13.8582 27.917 13.7152C28.0123 13.5724 28.1347 13.4498 28.2771 13.3546C28.5636 13.1632 28.9138 13.094 29.2509 13.162C29.588 13.23 29.8845 13.4298 30.0757 13.7176C30.2667 14.0054 30.3367 14.3577 30.2701 14.6972C30.2036 15.0369 30.006 15.3362 29.7208 15.5294Z" fill="#F4F4F4"/>
</g>
</svg>
