<svg width="140" height="36" viewBox="0 0 140 36" fill="none" xmlns="http://www.w3.org/2000/svg">
<g id="nillion">
<path id="Vector" d="M8.1377 18.755V35.2553H0.690796V12.9292H24.1073V35.2553H16.6614V18.755H8.1377Z" fill="white"/>
<path id="Vector_2" d="M38.1053 35.2554H30.6584V12.9293H38.1053V35.2554ZM29.9242 4.34486C29.9242 2.1209 31.9324 0.342285 34.3828 0.342285C36.8332 0.342285 38.7906 2.1209 38.7906 4.34486C38.7906 6.56884 36.7814 8.34741 34.3828 8.34741C31.9842 8.34741 29.9242 6.56788 29.9242 4.34486Z" fill="white"/>
<path id="Vector_3" d="M52.0537 0.210449H44.6078V35.2556H52.0537V0.210449Z" fill="white"/>
<path id="Vector_4" d="M66.0029 0.210449H58.557V35.2556H66.0029V0.210449Z" fill="white"/>
<path id="Vector_5" d="M79.9523 35.2554H72.5064V12.9293H79.9523V35.2554ZM71.7709 4.34584C71.7709 2.12187 73.779 0.343262 76.2301 0.343262C78.6804 0.343262 80.6375 2.12187 80.6375 4.34584C80.6375 6.56981 78.6294 8.3484 76.2301 8.3484C73.83 8.3484 71.7709 6.56886 71.7709 4.34584Z" fill="white"/>
<path id="Vector_6" d="M98.1141 29.9627C101.69 29.9627 104.385 27.4273 104.385 24.0923C104.385 20.7573 101.69 18.2218 98.1141 18.2218C94.5385 18.2218 91.7948 20.7573 91.7948 24.0923C91.7948 27.4273 94.4896 29.9627 98.1141 29.9627ZM98.1141 12.395C105.267 12.395 111.341 17.3767 111.341 24.0923C111.341 30.8079 105.267 35.7895 98.1141 35.7895C90.9622 35.7895 84.8392 30.8088 84.8392 24.0923C84.8392 17.3758 90.9636 12.395 98.1141 12.395Z" fill="white"/>
<path id="Vector_7" d="M123.722 18.755V35.2553H116.277V12.9292H139.691V35.2553H132.246V18.755H123.722Z" fill="white"/>
</g>
</svg>
