<svg width="134" height="34" viewBox="0 0 134 34" fill="none" xmlns="http://www.w3.org/2000/svg">
<path id="OpenAI" d="M79.1108 13.3566V13.3677C79.0442 13.3677 78.9771 13.3787 78.9105 13.3787C78.8439 13.3787 78.7769 13.3677 78.7103 13.3677C74.739 13.3677 72.2805 15.8486 72.2805 19.831V21.7889C72.2805 25.6267 74.7725 28.0075 78.7659 28.0075C78.8476 28.0096 78.9294 28.006 79.0107 27.9965C79.0662 27.9965 79.1108 28.0075 79.1664 28.0075C81.8472 28.0075 83.7163 27.0288 84.9064 25.0039L82.537 23.6353C81.747 24.8032 80.6902 25.6822 79.1774 25.6822C77.1529 25.6822 75.9404 24.4362 75.9404 22.3337V21.7775H85.3293V19.4637C85.3293 15.7481 82.8933 13.3566 79.1108 13.3566ZM78.9105 15.6373C80.7573 15.7264 81.8696 16.95 81.8696 18.9634V19.5196H75.9294V19.1968C75.9294 16.972 76.9862 15.7264 78.9105 15.6373ZM64.3268 13.3677C62.5581 13.3677 61.0342 14.102 60.2332 15.3255L60.033 15.637V13.7011H56.6734V32.4905H60.1997V25.9274L60.4 26.2278C61.1564 27.3512 62.6361 28.0186 64.3603 28.0186H64.4493H64.527C67.4305 28.0186 70.3561 26.1273 70.3561 21.889V19.5086C70.3561 16.4604 68.5539 13.3791 64.5045 13.3791L64.4825 13.368H64.4048L64.3268 13.3677ZM63.5037 16.0154C65.5507 16.0489 66.8187 17.4391 66.8187 19.6643V21.7109C66.8187 23.9356 65.5393 25.3153 63.4702 25.3598C61.5458 25.3263 60.1997 23.858 60.1997 21.7665V19.6639C60.1997 17.5503 61.5569 16.0599 63.5037 16.0154ZM109.202 8.72894L102.417 27.6851H106.232L107.534 23.6246H114.942V23.6692L116.244 27.6961H120.06L113.263 8.73998H112.862L112.851 8.72894H109.202ZM111.227 11.9884L114.064 20.9438H108.368L111.227 11.9884ZM133.709 11.3987V8.72894H122.073V11.3987H126.155V24.9928H122.073V27.6626H133.709V24.9928H129.627V11.3987H133.709ZM95.4191 13.368H95.319H95.2634C93.2945 13.368 91.8928 14.0354 91.203 15.3149L90.9917 15.7044V13.7019H87.6321V27.674H91.1584V19.3529C91.1584 17.395 92.2152 16.2716 94.0395 16.2381C95.7861 16.2716 96.7873 17.3729 96.7873 19.2752V27.674H100.314V18.6741C100.314 15.348 98.4893 13.3677 95.4301 13.3677L95.4191 13.368ZM45.3373 8.33949C40.142 8.33949 36.905 11.5769 36.905 16.7943V19.6087C36.905 24.8261 40.131 28.0631 45.3373 28.0631H45.4153H45.493C50.6882 28.0631 53.9252 24.8261 53.9252 19.6087V16.7943C53.9252 11.5769 50.6882 8.33949 45.493 8.33949H45.4153H45.3373ZM45.4153 11.1654C48.508 11.1989 50.2877 13.1788 50.2877 16.6051V19.809C50.2877 23.2352 48.508 25.2155 45.4153 25.2486C42.3226 25.2151 40.5425 23.2352 40.5425 19.809V16.6051C40.5425 13.1788 42.3226 11.1985 45.4153 11.1654ZM14.701 0.574923C11.1077 0.574923 7.91523 2.88876 6.80247 6.30394C5.66051 6.53934 4.58179 7.01526 3.63808 7.70002C2.69437 8.38478 1.90732 9.26269 1.32932 10.2753C-0.472862 13.3901 -0.0613411 17.3059 2.353 19.9757C1.60761 22.2119 1.86343 24.659 3.05384 26.6839C4.84499 29.8097 8.44895 31.4117 11.9757 30.6663C12.7478 31.5377 13.6969 32.2346 14.7596 32.7103C15.8224 33.186 16.9743 33.4297 18.1386 33.4251C21.7319 33.4251 24.9244 31.1113 26.0371 27.6961C28.351 27.2176 30.3424 25.7713 31.4993 23.7247C33.3125 20.6099 32.901 16.6941 30.487 14.0244V14.0133C30.8552 12.908 30.9832 11.7368 30.8623 10.578C30.7415 9.41926 30.3746 8.29967 29.7862 7.29412C27.9946 4.17931 24.3903 2.57697 20.875 3.32236C20.0993 2.45316 19.1477 1.75872 18.0833 1.28507C17.0189 0.811411 15.866 0.569351 14.701 0.574923ZM14.701 2.71099L14.69 2.72202C16.1362 2.72202 17.5269 3.22263 18.6392 4.1462C18.5947 4.16827 18.5056 4.22385 18.439 4.25736L11.898 8.02848C11.5641 8.21769 11.3639 8.57363 11.3639 8.96308V17.818L8.54947 16.1939V8.874C8.54884 7.24122 9.19636 5.67496 10.3498 4.5193C11.5032 3.36364 13.0682 2.71349 14.701 2.71099ZM22.5806 5.28893C23.6646 5.28684 24.7299 5.57096 25.6688 6.11256C26.6078 6.65416 27.3871 7.43405 27.928 8.37339C28.6399 9.61939 28.9068 11.0767 28.662 12.4894C28.6174 12.4559 28.5287 12.4118 28.4728 12.3783L21.9318 8.59571C21.7672 8.50265 21.5814 8.45374 21.3924 8.45374C21.2033 8.45374 21.0175 8.50265 20.8529 8.59571L13.1881 13.0231V9.7747L19.5178 6.11474C20.4485 5.57517 21.5049 5.29061 22.5806 5.28893ZM6.40238 8.65129V16.4273C6.40238 16.8167 6.60262 17.1616 6.93649 17.3619L14.5898 21.7783L11.764 23.4133L5.44532 19.7644C4.03324 18.9461 3.00357 17.6008 2.58232 16.024C2.16108 14.4472 2.38269 12.7677 3.19851 11.3542C3.91818 10.1067 5.05162 9.15077 6.40238 8.65129ZM21.0642 10.5757L27.3939 14.2246C30.342 15.9267 31.3428 19.6868 29.6407 22.6348L29.6518 22.6459C28.9288 23.8919 27.794 24.8486 26.4479 25.3381V17.5617C26.4479 17.1723 26.2476 16.8163 25.9138 16.6275L18.2494 12.1997L21.0642 10.5757ZM16.4141 13.2569L19.6404 15.1257V18.8523L16.4141 20.7211L13.1881 18.8523V15.1257L16.4141 13.2569ZM21.4868 16.1939L24.3012 17.818V25.1268C24.3012 28.531 21.5423 31.2899 18.1497 31.2899V31.2788C16.7145 31.2788 15.3128 30.7782 14.2114 29.855C14.256 29.833 14.3561 29.777 14.4117 29.7435L20.9527 25.9724C21.2865 25.7832 21.4978 25.4272 21.4864 25.0378L21.4868 16.1939ZM19.6511 20.9773V24.2254L13.3214 27.8743C10.3733 29.5653 6.61327 28.5641 4.91121 25.6271H4.92224C4.19932 24.3921 3.94311 22.9238 4.18789 21.511C4.23243 21.5445 4.32152 21.5887 4.3771 21.6222L10.9181 25.4047C11.0826 25.4978 11.2685 25.5467 11.4575 25.5467C11.6466 25.5467 11.8324 25.4978 11.9969 25.4047L19.6511 20.9773Z" fill="white"/>
</svg>
