<svg width="109" height="38" viewBox="0 0 109 38" fill="none" xmlns="http://www.w3.org/2000/svg">
<g id="PyTorch">
<g id="Group">
<path id="Vector" d="M25.7937 11.6857L23.1685 14.3289C27.5438 18.7343 27.5438 25.9088 23.1685 30.3142C18.7932 34.7196 11.6676 34.7196 7.29231 30.3142C2.91698 25.9088 2.91698 18.7343 7.29231 14.3289L14.2928 7.28025L15.1679 6.2733V0.986816L4.5421 11.6857C3.1459 13.0773 2.03755 14.7338 1.28114 16.5594C0.524722 18.385 0.135254 20.3435 0.135254 22.3216C0.135254 24.2997 0.524722 26.2581 1.28114 28.0837C2.03755 29.9093 3.1459 31.5658 4.5421 32.9575C5.92422 34.3633 7.56942 35.4792 9.38256 36.2409C11.1957 37.0025 13.1408 37.3946 15.1054 37.3946C17.07 37.3946 19.0151 37.0025 20.8282 36.2409C22.6414 35.4792 24.2866 34.3633 25.6687 32.9575C31.6691 27.0416 31.6691 17.4756 25.7937 11.6857Z" fill="white"/>
<path id="Vector_2" d="M20.5431 10.9298C21.6478 10.9298 22.5433 10.0283 22.5433 8.91619C22.5433 7.80411 21.6478 6.90259 20.5431 6.90259C19.4385 6.90259 18.543 7.80411 18.543 8.91619C18.543 10.0283 19.4385 10.9298 20.5431 10.9298Z" fill="white"/>
</g>
<path id="Vector_3" d="M41.8729 21.2887H39.8178V26.6107H38.2837V11.5036H42.0342C46.0128 11.5036 47.888 13.4486 47.888 16.2627C47.888 19.5817 45.5576 21.2412 41.8636 21.2981L41.8729 21.2887ZM41.9756 12.9344H39.7685V19.8589L41.9283 19.802C44.7705 19.7451 46.3056 18.5998 46.3056 16.2534C46.3056 14.1366 44.828 12.9344 41.9859 12.9344H41.9756ZM54.8321 26.5528L53.9227 28.9561C52.8993 31.6461 51.8676 32.4468 50.3418 32.4468C49.4889 32.4468 48.8642 32.2192 48.1819 31.9316L48.6361 30.5587C49.1478 30.8453 49.715 31.016 50.3418 31.016C51.1946 31.016 51.8193 30.5587 52.6147 28.4295L53.3545 26.4845L49.0923 15.555H50.685L54.1518 24.7112L57.5632 15.555H59.0973L54.8321 26.5528ZM64.2083 12.9913V26.6686H62.6742V12.9913H57.3886V11.5036H69.4929V12.9344H64.2072L64.2083 12.9913ZM73.8126 26.9531C70.7434 26.9531 68.4694 24.6646 68.4694 21.116C68.4694 17.5673 70.7999 15.2219 73.9153 15.2219C76.9846 15.2219 79.201 17.5104 79.201 21.0591C79.201 24.6077 76.8705 26.9531 73.8013 26.9531H73.8126ZM73.8691 16.6072C71.5387 16.6072 70.0056 18.4953 70.0056 21.0704C70.0056 23.7604 71.5983 25.5916 73.9267 25.5916C76.255 25.5916 77.7902 23.7035 77.7902 21.1284C77.7902 18.4384 76.1975 16.6072 73.8691 16.6072ZM83.0203 26.6676H81.5427V15.5664L83.0203 15.2798V17.6263C83.7601 16.1954 84.839 15.2798 86.2601 15.2798C86.9368 15.2855 87.6011 15.4627 88.1918 15.7951L87.7952 17.2249C87.3411 16.9383 86.7163 16.7676 86.0895 16.7676C84.9531 16.7676 83.8731 17.6263 82.9638 19.6293V26.6676H83.0203ZM94.0457 26.9531C90.7494 26.9531 88.646 24.5498 88.646 21.116C88.646 17.6252 90.9189 15.2219 94.0457 15.2219C95.4092 15.2219 96.5467 15.5654 97.5126 16.1944L97.1149 17.5673C96.2621 16.9952 95.2397 16.6517 94.0457 16.6517C91.6587 16.6517 90.1822 18.426 90.1822 21.0591C90.1822 23.749 91.7748 25.5223 94.1032 25.5223C95.192 25.5172 96.2567 25.1996 97.1725 24.6067L97.4571 25.9796C96.4912 26.6086 95.2972 26.9531 94.0457 26.9531ZM106.719 26.6676V19.5144C106.719 17.5694 105.924 16.721 104.389 16.721C103.138 16.721 101.888 17.35 100.977 18.3246V26.7359H99.4998V10.3686L100.977 10.082V17.0635C102.114 15.9192 103.591 15.2891 104.785 15.2891C106.945 15.2891 108.252 16.662 108.252 19.0654V26.6759L106.719 26.6676Z" fill="white"/>
</g>
</svg>
