<svg version="1.1" id="Layer_1" xmlns="http://www.w3.org/2000/svg" x="0" y="0" viewBox="0 0 500 300" style="enable-background:new 0 0 500 300" xml:space="preserve"><style>.st0{fill:#fff}</style><switch><g><path class="st0" d="M5.24 87.62v124.76h116.6V198.4H19.2v-96.8h102.64V87.62zM205.93 143.31l19.61-30.46h16.21l-23.31 36.19v1.92l24.6 36.19h-16.86l-20.25-30.47zM289.57 156.68h18.65l-8.32-36.83h-1.91l-8.42 36.83zm21.87 14.01h-24.99l-3.72 16.45H268.1l17.7-74.29h26.29l17.7 74.29h-14.63l-3.72-16.45zM366.8 112.85h13.99v60.92h33.71v13.38h-47.7z"/><path class="st0" d="M133.42 135.57c0-2.97-1.15-5.55-3.44-7.75-2.3-2.19-5.53-3.29-9.7-3.29-3.53 0-6.32.73-8.37 2.18-2.05 1.45-3.07 3.42-3.07 5.89 0 1.28.25 2.43.74 3.45.49 1.03 1.36 1.95 2.6 2.76 1.23.81 2.86 1.54 4.88 2.18 2.01.64 4.57 1.24 7.69 1.8 7.77 1.42 13.71 3.78 17.81 7.11 4.1 3.32 6.15 8.24 6.15 14.75v1.28c0 3.47-.62 6.6-1.86 9.39a19.864 19.864 0 0 1-5.35 7.16c-2.33 1.98-5.16 3.5-8.48 4.56-3.32 1.06-7.07 1.59-11.23 1.59-4.88 0-9.17-.69-12.88-2.07-3.71-1.38-6.8-3.29-9.27-5.73a24.216 24.216 0 0 1-5.62-8.6c-1.27-3.29-1.91-6.88-1.91-10.77v-.64h13.99c0 4.46 1.29 8.01 3.87 10.67 2.58 2.65 6.59 3.98 12.03 3.98 4.24 0 7.38-.92 9.43-2.76 2.05-1.84 3.07-4.03 3.07-6.58 0-1.2-.21-2.35-.64-3.45-.42-1.1-1.17-2.09-2.23-2.97-1.06-.89-2.51-1.68-4.35-2.39-1.84-.7-4.17-1.31-7-1.8-3.75-.64-7.17-1.47-10.28-2.49-3.11-1.03-5.81-2.39-8.11-4.09-2.3-1.7-4.08-3.82-5.35-6.37-1.27-2.55-1.91-5.66-1.91-9.34v-.64c0-3.04.62-5.85 1.85-8.44 1.23-2.58 2.97-4.83 5.19-6.74 2.23-1.91 4.91-3.4 8.06-4.46 3.14-1.06 6.66-1.59 10.55-1.59 4.38 0 8.27.62 11.66 1.86 3.39 1.24 6.23 2.92 8.53 5.04 2.29 2.12 3.85 4.65 5.19 7.32 1.66 3.29 1.75 9.98 1.75 9.98h-13.99zM447.12 112.85v74.3h48.12v-13.38h-34.13v-47.55h34.13v-13.37zM181.95 112.85h13.99v74.29h-13.99z"/><path class="st0" d="M471.18 143.31h13.36v13.37h-13.36z"/></g></switch></svg>