<svg width="169" height="36" viewBox="0 0 169 36" fill="none" xmlns="http://www.w3.org/2000/svg">
<g id="Logo">
<g id="Group">
<g id="Vector">
<path d="M29.8582 5.86205L21.0132 0.736694L16.9487 3.09108L12.8843 0.736694L4.0393 5.86205V10.5393L0 12.8747V23.1191L4.0393 25.4546V30.1381L12.8843 35.2634L16.9487 32.909L21.0132 35.2634L29.8582 30.1381V25.4546L33.8975 23.1191V12.8747L29.8582 10.5393V5.86205ZM24.9896 8.9865C25.2158 8.9865 25.398 9.16955 25.398 9.39047C25.398 9.6177 25.2158 9.79444 24.9896 9.79444C24.7635 9.79444 24.5813 9.61139 24.5813 9.39047C24.5813 9.16955 24.7635 8.9865 24.9896 8.9865ZM8.9141 8.9865C9.14025 8.9865 9.32243 9.16955 9.32243 9.39047C9.32243 9.6177 9.14025 9.79444 8.9141 9.79444C8.68795 9.79444 8.50577 9.61139 8.50577 9.39047C8.51206 9.16955 8.68795 8.9865 8.9141 8.9865ZM8.9141 27.0073C8.68795 27.0073 8.50577 26.8243 8.50577 26.6033C8.50577 26.3761 8.68795 26.1994 8.9141 26.1994C9.14025 26.1994 9.32243 26.3824 9.32243 26.6033C9.32243 26.8243 9.14025 27.0073 8.9141 27.0073ZM16.3457 31.9181L12.8906 33.9253L9.49832 31.9559V27.6133C9.85011 27.4113 10.0951 27.0326 10.0951 26.597C10.0951 25.9469 9.56742 25.4167 8.92038 25.4167C8.27334 25.4167 7.74566 25.9469 7.74566 26.597C7.74566 27.0326 7.98437 27.4113 8.34244 27.6133V31.2806L5.20774 29.469V25.4924L8.90154 23.3653L12.3755 25.3788V29.4248C12.03 29.6268 11.7975 30.0055 11.7975 30.4347C11.7975 31.0849 12.3252 31.6151 12.9722 31.6151C13.6193 31.6151 14.147 31.0849 14.147 30.4347C14.147 29.9929 13.902 29.6079 13.5376 29.4122V24.7097L9.52973 22.3869V18.9974C9.86268 18.7891 10.0888 18.423 10.0888 18.0001C10.0888 17.3499 9.56114 16.8197 8.9141 16.8197C8.26706 16.8197 7.73937 17.3499 7.73937 18.0001C7.73937 18.4545 7.99693 18.8396 8.36757 19.0352V22.3238L4.64865 24.4636L1.16216 22.4437V18.8648L3.70636 20.3292C3.70636 20.7395 3.91366 21.1371 4.29058 21.3517C4.84967 21.68 5.5721 21.4843 5.89248 20.9225C6.21914 20.3608 6.0244 19.6412 5.4653 19.313C5.08839 19.092 4.64237 19.1173 4.29058 19.3193L1.16844 17.5204V13.5375L4.61096 11.5429L7.67027 13.3039L5.4339 14.5979C5.27056 14.5095 5.08839 14.459 4.88736 14.459C4.24032 14.459 3.71264 14.9892 3.71264 15.6394C3.71264 16.2895 4.24032 16.8197 4.88736 16.8197C5.53441 16.8197 6.06209 16.2895 6.06209 15.6394C6.06209 15.6204 6.05581 15.6015 6.05581 15.5826L13.5062 11.2778V6.59425C13.8831 6.39857 14.1407 6.00723 14.1407 5.55276C14.1407 4.90263 13.613 4.37242 12.966 4.37242C12.3189 4.37242 11.7912 4.90263 11.7912 5.55276C11.7912 5.97567 12.0111 6.34177 12.3441 6.55006V10.6087L8.83244 12.6412L5.20146 10.5519V6.53113L8.33616 4.71958V8.38055C7.98437 8.58253 7.73937 8.96125 7.73937 9.39678C7.73937 10.0469 8.26706 10.5771 8.9141 10.5771C9.56114 10.5771 10.0888 10.0469 10.0888 9.39678C10.0888 8.96125 9.85011 8.58253 9.49204 8.38055V4.0505L12.8843 2.08115L16.3394 4.08838V13.0009L12.3629 15.3427V20.6511L16.3645 22.9739L16.3457 31.9181ZM8.51206 18.0001C8.51206 17.7728 8.69423 17.5961 8.92038 17.5961C9.14653 17.5961 9.32871 17.7791 9.32871 18.0001C9.32871 18.2273 9.14653 18.404 8.92038 18.404C8.68795 18.404 8.51206 18.2273 8.51206 18.0001ZM12.5639 30.4347C12.5639 30.2075 12.7461 30.0308 12.9722 30.0308C13.1984 30.0308 13.3806 30.2138 13.3806 30.4347C13.3806 30.6557 13.1984 30.8387 12.9722 30.8387C12.7461 30.8387 12.5639 30.662 12.5639 30.4347ZM4.52301 20.1335C4.63609 19.9379 4.88108 19.8747 5.07582 19.982C5.27056 20.0957 5.33338 20.3418 5.22659 20.5375C5.11352 20.7332 4.86852 20.7963 4.67378 20.689C4.47904 20.5754 4.40994 20.3292 4.52301 20.1335ZM5.29569 15.6457C5.29569 15.8729 5.11351 16.0497 4.88736 16.0497C4.66121 16.0497 4.47904 15.8666 4.47904 15.6457C4.47904 15.4184 4.66121 15.2417 4.88736 15.2417C5.11351 15.2417 5.29569 15.4184 5.29569 15.6457ZM12.5639 5.55908C12.5639 5.33184 12.7461 5.15511 12.9722 5.15511C13.1984 5.15511 13.3806 5.33816 13.3806 5.55908C13.3806 5.78631 13.1984 5.96305 12.9722 5.96305C12.7461 5.96305 12.5639 5.78631 12.5639 5.55908ZM13.5251 19.9757V15.9992L16.9487 13.9856L20.3724 15.9992V19.9694L16.9487 21.9577L13.5251 19.9757ZM24.9896 27.0073C24.7635 27.0073 24.5813 26.8243 24.5813 26.6033C24.5813 26.3761 24.7635 26.1994 24.9896 26.1994C25.2158 26.1994 25.398 26.3824 25.398 26.6033C25.3917 26.8243 25.2158 27.0073 24.9896 27.0073ZM32.7353 13.5501V17.533L29.6132 19.3319C29.2614 19.1236 28.8153 19.1047 28.4384 19.3256C27.8793 19.6538 27.6846 20.3734 28.0113 20.9352C28.3379 21.4969 29.0541 21.6926 29.6132 21.3644C29.9901 21.1434 30.1974 20.7458 30.1974 20.3418L32.7416 18.8774V22.4564L29.2551 24.4762L25.5362 22.3364V19.0479C25.9068 18.8522 26.1644 18.4608 26.1644 18.0127C26.1644 17.3626 25.6367 16.8323 24.9896 16.8323C24.3426 16.8323 23.8149 17.3626 23.8149 18.0127C23.8149 18.4356 24.0411 18.8017 24.374 19.01V22.3995L20.3661 24.7224V29.4248C20.008 29.6268 19.7568 30.0055 19.7568 30.4474C19.7568 31.0975 20.2844 31.6277 20.9315 31.6277C21.5785 31.6277 22.1062 31.0975 22.1062 30.4474C22.1062 30.0181 21.8738 29.6394 21.5283 29.4374V25.3914L25.0022 23.3779L28.696 25.5051V29.4816L25.5613 31.2932V27.6133C25.9131 27.4113 26.1581 27.0326 26.1581 26.597C26.1581 25.9469 25.6304 25.4167 24.9834 25.4167C24.3363 25.4167 23.8086 25.9469 23.8086 26.597C23.8086 27.0326 24.0473 27.4113 24.4054 27.6133V31.9559L21.0132 33.9253L17.5581 31.9181L17.5329 22.9676L21.5346 20.6448V15.3364L17.5581 12.9946V4.08206L21.0132 2.07484L24.4054 4.04419V8.37424C24.0536 8.57622 23.8086 8.95494 23.8086 9.39047C23.8086 10.0406 24.3363 10.5708 24.9834 10.5708C25.6304 10.5708 26.1581 10.0406 26.1581 9.39047C26.1581 8.95494 25.9194 8.57622 25.5613 8.37424V4.71327L28.696 6.53113V10.5582L25.065 12.6475L21.5534 10.615V6.55638C21.8863 6.34808 22.1062 5.98198 22.1062 5.55908C22.1062 4.90894 21.5785 4.37873 20.9315 4.37873C20.2844 4.37873 19.7568 4.90894 19.7568 5.55908C19.7568 6.01354 20.0143 6.40489 20.3912 6.60056V11.2841L27.8416 15.5889C27.8416 15.6078 27.8354 15.6267 27.8354 15.6457C27.8354 16.2958 28.363 16.826 29.0101 16.826C29.6571 16.826 30.1848 16.2958 30.1848 15.6457C30.1848 14.9955 29.6571 14.4653 29.0101 14.4653C28.8153 14.4653 28.6269 14.5221 28.4636 14.6042L26.2272 13.3102L29.2865 11.5492L32.7353 13.5501ZM29.23 20.689C29.0352 20.8026 28.7902 20.7332 28.6771 20.5375C28.5641 20.3418 28.6332 20.0957 28.8279 19.982C29.0227 19.8684 29.2676 19.9379 29.3807 20.1335C29.4938 20.3292 29.4247 20.5754 29.23 20.689ZM25.3917 18.0001C25.3917 18.2273 25.2095 18.404 24.9834 18.404C24.7572 18.404 24.575 18.221 24.575 18.0001C24.575 17.7728 24.7572 17.5961 24.9834 17.5961C25.2158 17.5898 25.3917 17.7728 25.3917 18.0001ZM21.3398 30.4347C21.3398 30.662 21.1576 30.8387 20.9315 30.8387C20.7053 30.8387 20.5232 30.6557 20.5232 30.4347C20.5232 30.2138 20.7053 30.0308 20.9315 30.0308C21.1576 30.0308 21.3398 30.2075 21.3398 30.4347ZM21.3398 5.55908C21.3398 5.78631 21.1576 5.96305 20.9315 5.96305C20.7053 5.96305 20.5232 5.78 20.5232 5.55908C20.5232 5.33184 20.7053 5.15511 20.9315 5.15511C21.1576 5.15511 21.3398 5.33184 21.3398 5.55908ZM28.608 15.6457C28.608 15.4184 28.7902 15.2417 29.0164 15.2417C29.2425 15.2417 29.4247 15.4248 29.4247 15.6457C29.4247 15.8729 29.2425 16.0497 29.0164 16.0497C28.7902 16.0497 28.608 15.8729 28.608 15.6457Z" fill="white" fill-opacity="0.04"/>
<path d="M29.8582 5.86205L21.0132 0.736694L16.9487 3.09108L12.8843 0.736694L4.0393 5.86205V10.5393L0 12.8747V23.1191L4.0393 25.4546V30.1381L12.8843 35.2634L16.9487 32.909L21.0132 35.2634L29.8582 30.1381V25.4546L33.8975 23.1191V12.8747L29.8582 10.5393V5.86205ZM24.9896 8.9865C25.2158 8.9865 25.398 9.16955 25.398 9.39047C25.398 9.6177 25.2158 9.79444 24.9896 9.79444C24.7635 9.79444 24.5813 9.61139 24.5813 9.39047C24.5813 9.16955 24.7635 8.9865 24.9896 8.9865ZM8.9141 8.9865C9.14025 8.9865 9.32243 9.16955 9.32243 9.39047C9.32243 9.6177 9.14025 9.79444 8.9141 9.79444C8.68795 9.79444 8.50577 9.61139 8.50577 9.39047C8.51206 9.16955 8.68795 8.9865 8.9141 8.9865ZM8.9141 27.0073C8.68795 27.0073 8.50577 26.8243 8.50577 26.6033C8.50577 26.3761 8.68795 26.1994 8.9141 26.1994C9.14025 26.1994 9.32243 26.3824 9.32243 26.6033C9.32243 26.8243 9.14025 27.0073 8.9141 27.0073ZM16.3457 31.9181L12.8906 33.9253L9.49832 31.9559V27.6133C9.85011 27.4113 10.0951 27.0326 10.0951 26.597C10.0951 25.9469 9.56742 25.4167 8.92038 25.4167C8.27334 25.4167 7.74566 25.9469 7.74566 26.597C7.74566 27.0326 7.98437 27.4113 8.34244 27.6133V31.2806L5.20774 29.469V25.4924L8.90154 23.3653L12.3755 25.3788V29.4248C12.03 29.6268 11.7975 30.0055 11.7975 30.4347C11.7975 31.0849 12.3252 31.6151 12.9722 31.6151C13.6193 31.6151 14.147 31.0849 14.147 30.4347C14.147 29.9929 13.902 29.6079 13.5376 29.4122V24.7097L9.52973 22.3869V18.9974C9.86268 18.7891 10.0888 18.423 10.0888 18.0001C10.0888 17.3499 9.56114 16.8197 8.9141 16.8197C8.26706 16.8197 7.73937 17.3499 7.73937 18.0001C7.73937 18.4545 7.99693 18.8396 8.36757 19.0352V22.3238L4.64865 24.4636L1.16216 22.4437V18.8648L3.70636 20.3292C3.70636 20.7395 3.91366 21.1371 4.29058 21.3517C4.84967 21.68 5.5721 21.4843 5.89248 20.9225C6.21914 20.3608 6.0244 19.6412 5.4653 19.313C5.08839 19.092 4.64237 19.1173 4.29058 19.3193L1.16844 17.5204V13.5375L4.61096 11.5429L7.67027 13.3039L5.4339 14.5979C5.27056 14.5095 5.08839 14.459 4.88736 14.459C4.24032 14.459 3.71264 14.9892 3.71264 15.6394C3.71264 16.2895 4.24032 16.8197 4.88736 16.8197C5.53441 16.8197 6.06209 16.2895 6.06209 15.6394C6.06209 15.6204 6.05581 15.6015 6.05581 15.5826L13.5062 11.2778V6.59425C13.8831 6.39857 14.1407 6.00723 14.1407 5.55276C14.1407 4.90263 13.613 4.37242 12.966 4.37242C12.3189 4.37242 11.7912 4.90263 11.7912 5.55276C11.7912 5.97567 12.0111 6.34177 12.3441 6.55006V10.6087L8.83244 12.6412L5.20146 10.5519V6.53113L8.33616 4.71958V8.38055C7.98437 8.58253 7.73937 8.96125 7.73937 9.39678C7.73937 10.0469 8.26706 10.5771 8.9141 10.5771C9.56114 10.5771 10.0888 10.0469 10.0888 9.39678C10.0888 8.96125 9.85011 8.58253 9.49204 8.38055V4.0505L12.8843 2.08115L16.3394 4.08838V13.0009L12.3629 15.3427V20.6511L16.3645 22.9739L16.3457 31.9181ZM8.51206 18.0001C8.51206 17.7728 8.69423 17.5961 8.92038 17.5961C9.14653 17.5961 9.32871 17.7791 9.32871 18.0001C9.32871 18.2273 9.14653 18.404 8.92038 18.404C8.68795 18.404 8.51206 18.2273 8.51206 18.0001ZM12.5639 30.4347C12.5639 30.2075 12.7461 30.0308 12.9722 30.0308C13.1984 30.0308 13.3806 30.2138 13.3806 30.4347C13.3806 30.6557 13.1984 30.8387 12.9722 30.8387C12.7461 30.8387 12.5639 30.662 12.5639 30.4347ZM4.52301 20.1335C4.63609 19.9379 4.88108 19.8747 5.07582 19.982C5.27056 20.0957 5.33338 20.3418 5.22659 20.5375C5.11352 20.7332 4.86852 20.7963 4.67378 20.689C4.47904 20.5754 4.40994 20.3292 4.52301 20.1335ZM5.29569 15.6457C5.29569 15.8729 5.11351 16.0497 4.88736 16.0497C4.66121 16.0497 4.47904 15.8666 4.47904 15.6457C4.47904 15.4184 4.66121 15.2417 4.88736 15.2417C5.11351 15.2417 5.29569 15.4184 5.29569 15.6457ZM12.5639 5.55908C12.5639 5.33184 12.7461 5.15511 12.9722 5.15511C13.1984 5.15511 13.3806 5.33816 13.3806 5.55908C13.3806 5.78631 13.1984 5.96305 12.9722 5.96305C12.7461 5.96305 12.5639 5.78631 12.5639 5.55908ZM13.5251 19.9757V15.9992L16.9487 13.9856L20.3724 15.9992V19.9694L16.9487 21.9577L13.5251 19.9757ZM24.9896 27.0073C24.7635 27.0073 24.5813 26.8243 24.5813 26.6033C24.5813 26.3761 24.7635 26.1994 24.9896 26.1994C25.2158 26.1994 25.398 26.3824 25.398 26.6033C25.3917 26.8243 25.2158 27.0073 24.9896 27.0073ZM32.7353 13.5501V17.533L29.6132 19.3319C29.2614 19.1236 28.8153 19.1047 28.4384 19.3256C27.8793 19.6538 27.6846 20.3734 28.0113 20.9352C28.3379 21.4969 29.0541 21.6926 29.6132 21.3644C29.9901 21.1434 30.1974 20.7458 30.1974 20.3418L32.7416 18.8774V22.4564L29.2551 24.4762L25.5362 22.3364V19.0479C25.9068 18.8522 26.1644 18.4608 26.1644 18.0127C26.1644 17.3626 25.6367 16.8323 24.9896 16.8323C24.3426 16.8323 23.8149 17.3626 23.8149 18.0127C23.8149 18.4356 24.0411 18.8017 24.374 19.01V22.3995L20.3661 24.7224V29.4248C20.008 29.6268 19.7568 30.0055 19.7568 30.4474C19.7568 31.0975 20.2844 31.6277 20.9315 31.6277C21.5785 31.6277 22.1062 31.0975 22.1062 30.4474C22.1062 30.0181 21.8738 29.6394 21.5283 29.4374V25.3914L25.0022 23.3779L28.696 25.5051V29.4816L25.5613 31.2932V27.6133C25.9131 27.4113 26.1581 27.0326 26.1581 26.597C26.1581 25.9469 25.6304 25.4167 24.9834 25.4167C24.3363 25.4167 23.8086 25.9469 23.8086 26.597C23.8086 27.0326 24.0473 27.4113 24.4054 27.6133V31.9559L21.0132 33.9253L17.5581 31.9181L17.5329 22.9676L21.5346 20.6448V15.3364L17.5581 12.9946V4.08206L21.0132 2.07484L24.4054 4.04419V8.37424C24.0536 8.57622 23.8086 8.95494 23.8086 9.39047C23.8086 10.0406 24.3363 10.5708 24.9834 10.5708C25.6304 10.5708 26.1581 10.0406 26.1581 9.39047C26.1581 8.95494 25.9194 8.57622 25.5613 8.37424V4.71327L28.696 6.53113V10.5582L25.065 12.6475L21.5534 10.615V6.55638C21.8863 6.34808 22.1062 5.98198 22.1062 5.55908C22.1062 4.90894 21.5785 4.37873 20.9315 4.37873C20.2844 4.37873 19.7568 4.90894 19.7568 5.55908C19.7568 6.01354 20.0143 6.40489 20.3912 6.60056V11.2841L27.8416 15.5889C27.8416 15.6078 27.8354 15.6267 27.8354 15.6457C27.8354 16.2958 28.363 16.826 29.0101 16.826C29.6571 16.826 30.1848 16.2958 30.1848 15.6457C30.1848 14.9955 29.6571 14.4653 29.0101 14.4653C28.8153 14.4653 28.6269 14.5221 28.4636 14.6042L26.2272 13.3102L29.2865 11.5492L32.7353 13.5501ZM29.23 20.689C29.0352 20.8026 28.7902 20.7332 28.6771 20.5375C28.5641 20.3418 28.6332 20.0957 28.8279 19.982C29.0227 19.8684 29.2676 19.9379 29.3807 20.1335C29.4938 20.3292 29.4247 20.5754 29.23 20.689ZM25.3917 18.0001C25.3917 18.2273 25.2095 18.404 24.9834 18.404C24.7572 18.404 24.575 18.221 24.575 18.0001C24.575 17.7728 24.7572 17.5961 24.9834 17.5961C25.2158 17.5898 25.3917 17.7728 25.3917 18.0001ZM21.3398 30.4347C21.3398 30.662 21.1576 30.8387 20.9315 30.8387C20.7053 30.8387 20.5232 30.6557 20.5232 30.4347C20.5232 30.2138 20.7053 30.0308 20.9315 30.0308C21.1576 30.0308 21.3398 30.2075 21.3398 30.4347ZM21.3398 5.55908C21.3398 5.78631 21.1576 5.96305 20.9315 5.96305C20.7053 5.96305 20.5232 5.78 20.5232 5.55908C20.5232 5.33184 20.7053 5.15511 20.9315 5.15511C21.1576 5.15511 21.3398 5.33184 21.3398 5.55908ZM28.608 15.6457C28.608 15.4184 28.7902 15.2417 29.0164 15.2417C29.2425 15.2417 29.4247 15.4248 29.4247 15.6457C29.4247 15.8729 29.2425 16.0497 29.0164 16.0497C28.7902 16.0497 28.608 15.8729 28.608 15.6457Z" fill="white"/>
</g>
<g id="Group_2">
<path id="Vector_2" d="M50.9907 15.873C49.527 14.7937 48.0005 14.3834 46.0343 14.3834C43.8858 14.3834 43.4084 14.8631 43.4084 15.4185C43.4084 15.9488 43.9549 16.0371 44.7088 16.1318L48.3837 16.5421C51.1666 16.8829 52.8816 18.0128 52.8816 20.4682C52.8816 23.3843 50.0045 24.6909 46.2164 24.6909C43.5906 24.6909 41.6243 24.1165 39.5513 22.5322L41.128 19.919C42.843 21.1372 44.5768 21.7558 46.518 21.7558C48.2518 21.7558 49.6213 21.3645 49.6213 20.5187C49.6213 20.0831 49.5082 19.8559 48.7104 19.7865L44.3695 19.2815C41.6997 18.9596 40.0978 17.9055 40.0978 15.4501C40.0978 12.6728 42.7676 11.3915 46.0343 11.3915C48.4528 11.3915 50.6012 11.8523 52.6115 13.4113L50.9907 15.873Z" fill="white"/>
<path id="Vector_3" d="M57.7562 11.6755V16.1508H60.7276L63.7618 11.6755H67.644L63.5796 17.552L67.9204 24.369H63.9251L60.8218 19.25H57.7625V24.369H54.4268V11.6819H57.7562V11.6755Z" fill="white"/>
<path id="Vector_4" d="M72.8767 11.6755V24.3627H69.5221V11.6755H72.8767Z" fill="white"/>
<path id="Vector_5" d="M77.9525 11.6755V21.314H86.2886V24.3627H74.5979V11.6755H77.9525Z" fill="white"/>
<path id="Vector_6" d="M91.3334 11.6755V21.314H99.6695V24.3627H87.9788V11.6755H91.3334Z" fill="white"/>
<path id="Vector_7" d="M101.316 11.6755H113.076V14.7242H104.671V16.6747H112.071V19.7234H104.671V24.3564H101.316V11.6755Z" fill="white"/>
<path id="Vector_8" d="M118.031 11.6755V18.1706C118.031 20.4177 119.011 21.7243 121.185 21.7243C123.333 21.7243 124.313 20.4177 124.313 18.1706V11.6755H127.693V18.1454C127.693 22.3428 125.155 24.6846 121.185 24.6846C117.209 24.6846 114.677 22.3428 114.677 18.1454V11.6755H118.031Z" fill="white"/>
<path id="Vector_9" d="M132.789 11.6755V21.314H141.125V24.3627H129.434V11.6755H132.789Z" fill="white"/>
<path id="Vector_10" d="M158.512 11.6755L163.877 24.3627H160.315L159.518 22.507H152.532L151.753 24.3627H148.147L153.625 11.6755H158.512ZM153.763 19.5656H158.217L156.301 14.6801H155.773L153.763 19.5656Z" fill="white"/>
<path id="Vector_11" d="M168.922 11.6755V24.3627H165.568V11.6755H168.922Z" fill="white"/>
</g>
</g>
</g>
</svg>
