<svg width="137" height="39" viewBox="0 0 137 39" fill="none" xmlns="http://www.w3.org/2000/svg">
<g id="TensorFlow">
<path id="Vector" d="M15.6864 21.3541L20.7581 18.3907L25.7549 21.3541L20.7581 24.2545L15.6864 21.4169V21.3541ZM0.46875 12.5898L20.7681 0.986816L35.8583 9.62525L30.8616 18.3895L20.7806 12.5886L5.56545 21.2899L0.46875 12.5898Z" fill="white"/>
<path id="Vector_2" d="M15.6869 32.9547V27.1538L20.6836 24.2534L25.7554 21.3529V27.1538L20.7586 30.0543V35.8552L15.6869 38.8185V32.9547ZM15.6869 21.3542L10.6152 18.4538L5.54346 21.2913V15.4892L20.7586 6.78784V18.3896L15.6869 21.3542ZM30.7771 15.4904V12.59L35.8488 9.62665L35.9113 15.4275L30.8396 18.3909L30.7771 15.4904Z" fill="#D3D3D3"/>
<path id="Vector_3" d="M10.6122 35.7293V18.4537L15.6089 15.6162L15.6714 21.3542L20.7431 24.1917V30.0555L15.6714 27.3437V38.8184L10.6122 35.7293ZM2.97463 19.7782L0.46875 18.2651V12.5925L5.54046 15.4929V21.2938L2.97463 19.7782ZM20.7581 12.5899V6.78906L30.7766 12.5899L30.8391 18.3908L20.7581 12.5899Z" fill="#E7E7E7"/>
<path id="Vector_4" d="M45.6584 14.5934V27.9259H43.3312V14.5934H38.8091V12.2942H50.1767V14.5922L45.6584 14.5934ZM57.8817 19.4359C58.0241 20.0157 58.0876 20.6123 58.0704 21.2093L50.5615 23.4507C50.6202 24.0167 50.6039 23.7865 50.7801 24.189C50.9562 24.5915 51.1798 24.921 51.4446 25.1952C51.7095 25.4694 52.0068 25.648 52.3191 25.7738C52.6314 25.8996 52.9899 25.965 53.3384 25.9625C53.8381 25.9625 54.2728 25.8807 54.6788 25.7172C55.1037 25.5427 55.5026 25.3099 55.8643 25.0254L57.2159 26.497C56.7161 26.9828 56.1294 27.3691 55.487 27.6353C54.8499 27.9032 54.0904 28.0378 53.2048 28.0378C52.5379 28.0405 51.8777 27.9039 51.266 27.6366C50.6414 27.3687 50.1168 26.975 49.6596 26.4543C49.2023 25.9336 48.8401 25.2946 48.5728 24.5349C48.3054 23.7752 48.173 22.8998 48.173 21.9464C48.173 20.9502 48.2979 20.0597 48.5503 19.3139C48.8026 18.568 49.1499 17.9303 49.5921 17.4058C50.0308 16.8961 50.5806 16.4953 51.1986 16.2348C51.8553 15.9615 52.5603 15.825 53.271 15.8336C54.0979 15.8336 54.82 15.9895 55.4321 16.3027C56.0442 16.6159 56.5563 17.0398 56.9611 17.5605C57.382 18.1244 57.6904 18.7651 57.8692 19.4472L57.8817 19.4359ZM55.6994 19.9641C55.6694 19.5616 55.3946 19.0837 55.1672 18.7655C54.953 18.4812 54.6658 18.2612 54.3365 18.129C53.9967 17.9932 53.5345 17.9366 53.1286 17.9529C52.379 17.9869 51.5046 18.2523 51.0899 18.8334C50.6751 19.4145 50.544 20.422 50.5602 21.4961L55.6994 19.9641ZM66.3138 27.78V21.1515C66.3138 19.9616 66.1014 19.139 65.6817 18.6523C65.2619 18.1655 64.6736 17.9378 63.9328 17.9378C63.1645 17.9378 62.5737 18.1982 62.159 18.7177C61.7442 19.2371 61.5381 19.9755 61.5381 20.9263V27.7762H59.2433V16.0663H61.5256V17.1819C61.8217 16.7505 62.2314 16.4273 62.7561 16.1782C63.2807 15.9292 63.8454 15.821 64.4512 15.821C65.8103 15.821 66.8409 16.2612 67.543 17.1379C68.245 18.0146 68.596 19.3264 68.596 21.0647V27.7812L66.3138 27.78ZM77.9712 24.7009C77.9712 25.355 77.8488 25.9021 77.6052 26.3411C77.3732 26.7676 77.0424 27.1313 76.6408 27.4014C76.2411 27.6693 75.7664 27.863 75.2667 27.98C74.7245 28.1009 74.1706 28.1608 73.6153 28.1586C72.8158 28.1586 72.0238 28.0177 71.2331 27.7347C70.4949 27.4792 69.797 27.1183 69.1607 26.6631L70.19 24.9349C70.7093 25.3077 71.2805 25.601 71.8851 25.8053C72.4685 25.999 73.0344 26.0946 73.5803 26.0946C74.9981 26.0946 75.7077 25.6631 75.7077 24.799C75.7077 24.3525 75.4678 23.9941 74.9881 23.7299C74.5084 23.4658 73.8464 23.1639 73.0044 22.8495C72.4597 22.6469 71.9303 22.4048 71.4205 22.125C70.9857 21.8785 70.6297 21.6156 70.3561 21.3326C70.0923 21.0648 69.8916 20.7407 69.769 20.3842C69.6503 20.0346 69.5916 19.6296 69.5916 19.168C69.5916 18.6472 69.6878 18.1869 69.8789 17.7844C70.067 17.3877 70.3483 17.0432 70.6984 16.7807C71.0532 16.5128 71.4729 16.3115 71.9476 16.177C72.4223 16.0424 72.9669 15.9757 73.5428 15.9757C74.2923 15.9757 74.9944 16.0952 75.6814 16.3329C76.3685 16.5706 76.9706 16.8838 77.4878 17.27L76.5071 19.0233C76.035 18.6812 75.554 18.4284 75.0668 18.2649C74.5796 18.1014 74.0675 18.0196 73.4929 18.0196C72.9182 18.0196 72.5247 18.1202 72.2736 18.3215C72.1548 18.4106 72.0586 18.5268 71.993 18.6606C71.9274 18.7945 71.8943 18.942 71.8964 19.0912C71.8951 19.2337 71.9254 19.3746 71.9851 19.5038C72.0438 19.6296 72.155 19.7604 72.3174 19.8811C72.5205 20.0409 72.7394 20.1791 72.9707 20.2937C73.3214 20.4697 73.6799 20.6296 74.045 20.7729L75.7514 21.4986C76.1951 21.7011 76.6091 21.9639 76.9818 22.2797C77.3038 22.5558 77.5578 22.9032 77.7239 23.2947C77.8863 23.6809 77.9675 24.15 77.9675 24.7009H77.9712ZM88.5868 22.0005C88.5868 22.969 88.4544 23.8343 88.1871 24.6003C87.9198 25.3663 87.5625 26.0141 87.0791 26.5411C86.6192 27.0599 86.0521 27.4712 85.4176 27.746C84.793 28.0227 84.0885 28.1586 83.334 28.1586C82.5845 28.1586 81.9161 28.0139 81.2953 27.7234C80.6742 27.4318 80.1225 27.0093 79.6776 26.4845C79.2191 25.9499 78.8619 25.3097 78.6033 24.5651C78.3447 23.8205 78.2285 22.9878 78.2285 22.0659C78.2285 21.1137 78.361 20.2585 78.6283 19.5C78.8956 18.7416 79.2604 18.0976 79.7251 17.5693C80.174 17.0477 80.7349 16.6356 81.3652 16.3644C82.0061 16.0902 82.6769 15.9518 83.4139 15.9518C84.1241 15.9458 84.8271 16.0943 85.4751 16.387C86.1037 16.6721 86.6662 17.0864 87.1265 17.6033C87.5925 18.124 87.9535 18.7604 88.2133 19.5113C88.4731 20.2622 88.5881 21.0924 88.5881 21.9992L88.5868 22.0005ZM86.2821 22.0671C86.2821 20.8622 86.0322 19.9063 85.4951 19.1994C84.9579 18.4925 84.2434 18.1391 83.3127 18.1391C82.9098 18.125 82.5099 18.215 82.1513 18.4006C81.7926 18.5862 81.4872 18.8612 81.2641 19.1994C80.7706 19.9075 80.5221 20.8395 80.5221 22.0005C80.5221 23.296 80.7881 24.2796 81.3215 24.9563C81.5667 25.282 81.8857 25.5441 82.2518 25.7207C82.6179 25.8972 83.0206 25.9831 83.4264 25.9713C83.8549 25.9713 84.2459 25.8669 84.6007 25.6594C84.9585 25.448 85.2679 25.163 85.5088 24.8229C85.772 24.4475 85.967 24.028 86.0847 23.584C86.2171 23.1086 86.2846 22.603 86.2846 22.0671H86.2821ZM95.9446 18.6309C95.6979 18.499 95.4378 18.3944 95.1688 18.319C94.9027 18.2435 94.5779 18.1932 94.1944 18.1932C93.4699 18.1932 92.9078 18.4447 92.5105 18.9516C92.1133 19.4585 91.9109 20.2094 91.9109 21.2056V27.8995H89.6287V16.1845H91.9109V17.3002C92.1969 16.8953 92.5724 16.5629 93.0077 16.3291C93.4865 16.0655 94.0248 15.9312 94.5704 15.9392C95.0426 15.9392 95.4449 15.9807 95.7322 16.0625C96.0204 16.1385 96.2936 16.2631 96.5404 16.431L95.9408 18.6196L95.9446 18.6309Z" fill="white"/>
<path id="Vector_5" d="M99.7765 14.5934V18.6774H104.231V20.9754H99.7765V27.9146H97.4492V12.2942H107.443V14.5922L99.7765 14.5934ZM107.821 27.9133V12.8527L110.104 11.6477V27.9158L107.821 27.9133ZM121.762 22.0018C121.762 22.9702 121.629 23.8356 121.362 24.6016C121.096 25.3676 120.725 26.0153 120.254 26.5423C119.794 27.0614 119.227 27.4726 118.592 27.7473C117.955 28.024 117.263 28.1598 116.508 28.1598C115.771 28.1598 115.09 28.0152 114.469 27.7247C113.849 27.4341 113.31 27.0203 112.852 26.4857C112.393 25.9512 112.036 25.311 111.777 24.5664C111.519 23.8218 111.403 22.9891 111.403 22.0672C111.403 21.115 111.535 20.2597 111.802 19.5013C112.07 18.7428 112.435 18.0989 112.899 17.5706C113.364 17.0423 113.899 16.6398 114.539 16.3656C115.18 16.0914 115.851 15.9531 116.588 15.9531C117.325 15.9531 118.012 16.0977 118.649 16.3883C119.278 16.6734 119.84 17.0877 120.301 17.6046C120.767 18.1253 121.128 18.7617 121.387 19.5126C121.647 20.2635 121.762 21.0949 121.762 22.0018ZM119.457 22.0684C119.457 20.8635 119.208 19.9075 118.67 19.2007C118.133 18.4938 117.419 18.1404 116.488 18.1404C115.616 18.1404 114.933 18.4925 114.439 19.2007C113.946 19.9088 113.697 20.8408 113.697 22.0018C113.697 23.2973 113.964 24.2809 114.497 24.9575C114.742 25.2833 115.061 25.5454 115.427 25.7219C115.793 25.8985 116.196 25.9844 116.602 25.9726C117.014 25.9771 117.42 25.8693 117.776 25.6606C118.134 25.4493 118.443 25.1642 118.684 24.8242C118.934 24.4745 119.128 24.062 119.259 23.5853C119.39 23.1086 119.457 22.6042 119.457 22.0684ZM133.02 27.9146H131.071L129.497 22.003L129.154 20.632L128.899 19.5051L128.644 20.6434L128.3 22.0269L126.749 27.9184H124.8L121.609 16.2034H123.857L125.231 21.8936L125.563 23.2998L125.807 24.4607L126.094 23.2998L126.449 21.8936L128.001 16.2034H129.841L131.415 21.9162L131.758 23.3124L132.036 24.462L132.29 23.2922L132.611 21.8961L133.986 16.2059H136.234L133.02 27.9146Z" fill="white"/>
</g>
</svg>
