<svg width="179" height="22" viewBox="0 0 179 22" fill="none" xmlns="http://www.w3.org/2000/svg">
<g id="WalletConnect">
<path id="Vector" d="M7.14368 4.93607C12.6834 -0.522636 21.6649 -0.522636 27.2046 4.93607L27.8713 5.59302C28.1483 5.86598 28.1483 6.30847 27.8713 6.58144L25.5906 8.82877C25.4522 8.96525 25.2276 8.96525 25.0891 8.82877L24.1716 7.92474C20.3071 4.11658 14.0412 4.11658 10.1767 7.92474L9.19412 8.89287C9.05565 9.02935 8.83106 9.02935 8.69259 8.89287L6.41188 6.64554C6.13494 6.37257 6.13494 5.93009 6.41188 5.65712L7.14368 4.93607ZM31.9213 9.58384L33.951 11.5839C34.2281 11.8569 34.2281 12.2994 33.951 12.5724L24.7985 21.5913C24.5216 21.8642 24.0725 21.8642 23.7955 21.5913L17.2995 15.1903C17.2303 15.122 17.1181 15.122 17.0489 15.1903L10.553 21.5913C10.2761 21.8642 9.82697 21.8642 9.55003 21.5913L0.397193 12.5723C0.120207 12.2993 0.120207 11.8568 0.397193 11.5838L2.427 9.58375C2.70398 9.31078 3.15306 9.31078 3.43005 9.58375L9.92609 15.9847C9.99533 16.053 10.1075 16.053 10.1768 15.9847L16.6725 9.58375C16.9495 9.31078 17.3986 9.31078 17.6755 9.58366L24.1715 15.9847C24.2408 16.053 24.3531 16.053 24.4223 15.9847L30.9182 9.58384C31.1952 9.31087 31.6443 9.31087 31.9213 9.58384Z" fill="white"/>
<path id="Vector_2" d="M46.3655 18.6818L48.8175 8.80677C48.9628 8.26279 49.0875 7.67696 49.2538 6.75647C49.3784 7.67696 49.5239 8.26279 49.6278 8.80677L51.7473 18.6818H56.1316L59.8302 4.03662H56.4641L54.4278 13.033C54.22 13.9116 54.0953 14.6021 53.9498 15.6273C53.7836 14.6439 53.6174 13.9116 53.4303 13.0539L51.4564 4.03662H47.0512L44.911 13.0539C44.724 13.9116 44.5785 14.6021 44.4123 15.6273C44.2461 14.6021 44.1006 13.9116 43.9136 13.0539L41.9189 4.03662H38.4072L42.0851 18.6818H46.3655Z" fill="white"/>
<path id="Vector_3" d="M62.3403 19.0586C64.0025 19.0586 65.0623 18.3682 65.6025 17.364C65.5402 17.6778 65.5194 17.9916 65.5194 18.3055V18.6821H68.3038V12.6357C68.3038 9.74849 66.9947 8.07471 63.7948 8.07471C61.0311 8.07471 59.2234 9.62296 59.0572 11.7569H62.1117C62.2156 10.8154 62.8805 10.2505 63.8987 10.2505C64.8545 10.2505 65.374 10.7945 65.374 11.4222C65.374 11.8825 65.1038 12.1545 64.2934 12.2591L62.839 12.4265C60.678 12.6985 58.8286 13.4934 58.8286 15.7948C58.8286 17.887 60.5533 19.0586 62.3403 19.0586ZM63.2753 16.9037C62.4649 16.9037 61.8623 16.4434 61.8623 15.6484C61.8623 14.8743 62.5481 14.4977 63.587 14.3094L64.2934 14.1839C64.896 14.0583 65.2285 13.9537 65.4363 13.7654V14.7278C65.4363 16.0249 64.5012 16.9037 63.2753 16.9037Z" fill="white"/>
<path id="Vector_4" d="M69.7515 4.03662V18.6818H72.7644V4.03662H69.7515Z" fill="white"/>
<path id="Vector_5" d="M74.5073 4.03662V18.6818H77.5203V4.03662H74.5073Z" fill="white"/>
<path id="Vector_6" d="M84.0969 19.0586C86.9643 19.0586 88.8141 17.4267 89.0219 15.2927H85.9881C85.8422 16.2342 85.0526 16.7572 84.0969 16.7572C82.8086 16.7572 81.8736 15.7112 81.8528 14.2675H89.0838V13.6817C89.0838 10.2924 87.2349 8.07471 84.0346 8.07471C80.9593 8.07471 78.7983 10.2505 78.7983 13.5353C78.7983 17.092 81.0217 19.0586 84.0969 19.0586ZM81.8321 12.28C81.9567 11.1084 82.8086 10.2505 84.0138 10.2505C85.1773 10.2505 85.9881 11.0665 86.0085 12.28H81.8321Z" fill="white"/>
<path id="Vector_7" d="M95.4608 18.8911C96.1258 18.8911 96.7704 18.7865 97.0613 18.7028V16.4013C96.8323 16.4432 96.5626 16.4641 96.3336 16.4641C95.2327 16.4641 94.8374 15.8365 94.8374 14.8113V10.7943H97.2894V8.43017H94.8374V4.78979H91.8452V8.43017H89.6426V10.7943H91.8452V15.2297C91.8452 17.6566 93.0504 18.8911 95.4608 18.8911Z" fill="white"/>
<path id="Vector_8" d="M105.631 19.0585C109.746 19.0585 112.239 16.6316 112.55 13.1377H109.289C109.039 15.0416 107.709 16.3387 105.756 16.3387C103.45 16.3387 101.829 14.4558 101.829 11.2757C101.829 8.15832 103.512 6.38001 105.819 6.38001C107.792 6.38001 108.915 7.59341 109.143 9.37181H112.489C112.156 5.73141 109.496 3.66016 105.839 3.66016C101.663 3.66016 98.4629 6.50554 98.4629 11.2757C98.4629 16.2131 101.268 19.0585 105.631 19.0585Z" fill="white"/>
<path id="Vector_9" d="M119.083 19.0586C122.221 19.0586 124.444 17.071 124.444 13.598C124.444 10.1878 122.221 8.07471 119.083 8.07471C115.967 8.07471 113.743 10.1878 113.743 13.598C113.743 17.071 115.945 19.0586 119.083 19.0586ZM119.083 16.7154C117.691 16.7154 116.797 15.5647 116.797 13.598C116.797 11.5896 117.732 10.4598 119.083 10.4598C120.454 10.4598 121.39 11.5896 121.39 13.598C121.39 15.5647 120.475 16.7154 119.083 16.7154Z" fill="white"/>
<path id="Vector_10" d="M128.644 18.6821V12.6775C128.644 11.4013 129.433 10.4598 130.555 10.4598C131.615 10.4598 132.239 11.2757 132.239 12.6357V18.6821H135.251V12.1963C135.251 9.72757 133.963 8.07471 131.657 8.07471C130.056 8.07471 129.08 8.84883 128.561 9.76942C128.623 9.39281 128.644 9.0999 128.644 8.82791V8.43039H125.631V18.6821H128.644Z" fill="white"/>
<path id="Vector_11" d="M140.067 18.6821V12.6775C140.067 11.4013 140.857 10.4598 141.979 10.4598C143.038 10.4598 143.662 11.2757 143.662 12.6357V18.6821H146.675V12.1963C146.675 9.72757 145.387 8.07471 143.08 8.07471C141.48 8.07471 140.503 8.84883 139.984 9.76942C140.046 9.39281 140.067 9.0999 140.067 8.82791V8.43039H137.055V18.6821H140.067Z" fill="white"/>
<path id="Vector_12" d="M153.157 19.0586C156.025 19.0586 157.874 17.4267 158.081 15.2927H155.049C154.903 16.2342 154.113 16.7572 153.157 16.7572C151.869 16.7572 150.934 15.7112 150.913 14.2675H158.144V13.6817C158.144 10.2924 156.294 8.07471 153.095 8.07471C150.02 8.07471 147.859 10.2505 147.859 13.5353C147.859 17.092 150.082 19.0586 153.157 19.0586ZM150.893 12.28C151.017 11.1084 151.869 10.2505 153.074 10.2505C154.238 10.2505 155.049 11.0665 155.069 12.28H150.893Z" fill="white"/>
<path id="Vector_13" d="M164.614 19.0586C167.772 19.0586 169.497 17.3221 169.83 14.6232H166.816C166.713 15.753 166.068 16.7154 164.718 16.7154C163.347 16.7154 162.412 15.4392 162.412 13.5562C162.412 11.5059 163.492 10.4598 164.78 10.4598C166.048 10.4598 166.671 11.3803 166.754 12.4474H169.767C169.539 9.95763 167.855 8.07471 164.76 8.07471C161.747 8.07471 159.357 10.0832 159.357 13.5562C159.357 16.9874 161.373 19.0586 164.614 19.0586Z" fill="white"/>
<path id="Vector_14" d="M176.346 18.8911C177.011 18.8911 177.656 18.7865 177.947 18.7028V16.4013C177.718 16.4432 177.448 16.4641 177.219 16.4641C176.118 16.4641 175.723 15.8365 175.723 14.8113V10.7943H178.175V8.43017H175.723V4.78979H172.73V8.43017H170.528V10.7943H172.73V15.2297C172.73 17.6566 173.936 18.8911 176.346 18.8911Z" fill="white"/>
</g>
</svg>
